<svg width="90" height="23" viewBox="0 0 90 23" fill="none" xmlns="http://www.w3.org/2000/svg">
<g id="Group 513532">
<path id="Vector" d="M37.8557 11.3056C37.8557 11.7238 37.8125 12.1276 37.726 12.5169C37.6394 12.9063 37.5096 13.2524 37.351 13.5985C37.1924 13.9302 36.9905 14.2474 36.7598 14.5214C36.529 14.7954 36.255 15.0406 35.9522 15.2569L38.3605 17.8671H36.904C36.6877 17.8671 36.5002 17.8382 36.3271 17.7805C36.1541 17.7229 36.0099 17.6219 35.8657 17.4633L34.4813 15.9347C34.265 15.9924 34.0342 16.0356 33.7891 16.0789C33.5583 16.1077 33.3132 16.1222 33.068 16.1222C32.347 16.1222 31.698 16.0068 31.1068 15.7616C30.5155 15.5165 30.0108 15.1848 29.5782 14.7522C29.16 14.3195 28.8283 13.8148 28.5976 13.2236C28.3668 12.6323 28.2515 11.9834 28.2515 11.2912C28.2515 10.599 28.3668 9.96445 28.5976 9.3732C28.8283 8.78194 29.16 8.26279 29.5782 7.84459C29.9964 7.41196 30.5155 7.08028 31.1068 6.83513C31.698 6.58998 32.3614 6.47461 33.068 6.47461C33.7891 6.47461 34.438 6.58998 35.0293 6.83513C35.6205 7.08028 36.1252 7.41196 36.5435 7.84459C36.9617 8.27721 37.2933 8.78194 37.5241 9.3732C37.7404 9.97887 37.8557 10.6134 37.8557 11.3056ZM36.0387 11.3056C36.0387 10.7864 35.9666 10.325 35.8224 9.92119C35.6926 9.50299 35.4907 9.15689 35.2312 8.86847C34.9716 8.58005 34.6543 8.36374 34.2938 8.20511C33.9333 8.04648 33.5151 7.97438 33.0536 7.97438C32.5921 7.97438 32.1739 8.04648 31.799 8.20511C31.424 8.36374 31.1068 8.58005 30.8472 8.86847C30.5876 9.15689 30.3857 9.50299 30.256 9.92119C30.1118 10.325 30.0396 10.8009 30.0396 11.3056C30.0396 11.8247 30.1118 12.2862 30.256 12.7044C30.4002 13.1082 30.5876 13.4687 30.8472 13.7427C31.1068 14.0311 31.424 14.2474 31.799 14.3917C32.1739 14.5503 32.5921 14.6224 33.0536 14.6224C33.5151 14.6224 33.9333 14.5503 34.2938 14.3917C34.6687 14.233 34.986 14.0167 35.2312 13.7427C35.4907 13.4543 35.6926 13.1082 35.8224 12.7044C35.9666 12.2862 36.0387 11.8247 36.0387 11.3056Z" fill="#10151B"/>
<path id="Vector_2" d="M40.122 9.32962V13.5838C40.122 13.9876 40.2229 14.3048 40.4104 14.5355C40.5979 14.7519 40.8863 14.8672 41.2756 14.8672C41.5496 14.8672 41.8236 14.8095 42.0688 14.6798C42.3139 14.55 42.5447 14.3769 42.761 14.1606V9.3152H44.3761V16.0065H43.3811C43.1648 16.0065 43.035 15.9055 42.9629 15.7181L42.8475 15.1845C42.7033 15.3287 42.5591 15.4585 42.4149 15.5738C42.2707 15.6892 42.112 15.7902 41.939 15.8623C41.7659 15.9344 41.5929 16.0065 41.391 16.0497C41.2035 16.093 40.9872 16.1218 40.7709 16.1218C40.4104 16.1218 40.0787 16.0642 39.7903 15.9344C39.5163 15.8046 39.2711 15.6315 39.0837 15.4008C38.8962 15.1701 38.752 14.9105 38.651 14.5932C38.5501 14.276 38.5068 13.9299 38.5068 13.5549V9.30078H40.122V9.32962Z" fill="#10151B"/>
<path id="Vector_3" d="M47.2863 9.32961V16.0209H45.6711V9.32961H47.2863ZM47.5314 7.36838C47.5314 7.51258 47.5026 7.64237 47.4449 7.75774C47.3872 7.87311 47.3151 7.98848 47.2142 8.075C47.1276 8.16153 47.0123 8.23363 46.8825 8.29131C46.7527 8.349 46.6229 8.36342 46.4787 8.36342C46.3345 8.36342 46.2047 8.33458 46.0749 8.29131C45.9595 8.23363 45.8442 8.16153 45.7577 8.075C45.6711 7.98848 45.5846 7.87311 45.5413 7.75774C45.4837 7.64237 45.4692 7.49816 45.4692 7.36838C45.4692 7.22417 45.4981 7.09438 45.5413 6.96459C45.599 6.83481 45.6711 6.73386 45.7577 6.63292C45.8442 6.54639 45.9595 6.47429 46.0749 6.4166C46.2047 6.35892 46.3345 6.33008 46.4787 6.33008C46.6229 6.33008 46.7527 6.35892 46.8825 6.4166C47.0123 6.47429 47.1132 6.54639 47.2142 6.63292C47.3151 6.71944 47.3872 6.83481 47.4449 6.96459C47.5026 7.09438 47.5314 7.22417 47.5314 7.36838Z" fill="#10151B"/>
<path id="Vector_4" d="M53.3258 10.742C53.2825 10.7996 53.2248 10.8573 53.1816 10.8862C53.1383 10.915 53.0662 10.9438 52.9797 10.9438C52.8932 10.9438 52.8211 10.915 52.7345 10.8717C52.6624 10.8141 52.5615 10.7564 52.4461 10.6987C52.3307 10.6266 52.201 10.5833 52.0567 10.5256C51.9125 10.468 51.7251 10.4535 51.4943 10.4535C51.2059 10.4535 50.9608 10.5112 50.7445 10.6122C50.5281 10.7131 50.3551 10.8573 50.2109 11.0448C50.0667 11.2323 49.9657 11.463 49.8936 11.737C49.8215 12.011 49.7927 12.3138 49.7927 12.6599C49.7927 13.0205 49.8359 13.3377 49.908 13.6117C49.9801 13.8857 50.0955 14.1309 50.2397 14.3183C50.3839 14.5058 50.557 14.65 50.7589 14.751C50.9608 14.8519 51.1915 14.8952 51.4511 14.8952C51.7106 14.8952 51.9125 14.8663 52.0712 14.8086C52.2298 14.7365 52.374 14.6788 52.475 14.6067C52.5903 14.5346 52.6768 14.4625 52.7634 14.4049C52.8499 14.3327 52.9364 14.3039 53.0374 14.3039C53.1672 14.3039 53.2681 14.3472 53.3258 14.4481L53.7872 15.0394C53.6142 15.2413 53.4123 15.4287 53.2104 15.5729C52.9941 15.7171 52.7778 15.8325 52.5615 15.919C52.3452 16.0056 52.1 16.0632 51.8693 16.0921C51.6241 16.1209 51.3934 16.1498 51.1482 16.1498C50.73 16.1498 50.3407 16.0777 49.9801 15.919C49.6196 15.7604 49.2879 15.5297 49.0139 15.2413C48.74 14.9384 48.5236 14.5779 48.365 14.1597C48.2064 13.7271 48.1343 13.2368 48.1343 12.6888C48.1343 12.1985 48.2064 11.737 48.3506 11.3188C48.4948 10.9006 48.7111 10.5401 48.9851 10.2228C49.2591 9.91997 49.6052 9.67482 50.009 9.50177C50.4128 9.32872 50.8887 9.24219 51.4078 9.24219C51.9125 9.24219 52.3452 9.32871 52.7201 9.48734C53.095 9.64597 53.4411 9.8767 53.744 10.1795L53.3258 10.742Z" fill="#10151B"/>
<path id="Vector_5" d="M55.9693 6.33083V11.8829H56.2722C56.3875 11.8829 56.4596 11.8684 56.5317 11.8396C56.5894 11.8107 56.6615 11.7531 56.7336 11.6665L58.4065 9.60436C58.4786 9.51783 58.5651 9.44573 58.6372 9.40247C58.7237 9.34478 58.8247 9.33036 58.9689 9.33036H60.4542L58.3632 11.8107C58.2911 11.8973 58.219 11.9838 58.1325 12.0703C58.0604 12.1424 57.9738 12.2145 57.8729 12.2722C57.9594 12.3443 58.0459 12.4164 58.118 12.5029C58.1901 12.5895 58.2622 12.6904 58.3343 12.7769L60.584 16.0216H59.1275C58.9977 16.0216 58.8968 15.9928 58.8102 15.9495C58.7237 15.9063 58.6372 15.8342 58.5795 15.7332L56.8634 13.1951C56.7913 13.0942 56.7336 13.0365 56.6615 12.9933C56.5894 12.9644 56.5029 12.95 56.3731 12.95H56.0126V16.0216H54.3975V6.31641H55.9693V6.33083Z" fill="#10151B"/>
<path id="Vector_6" d="M62.0521 6.5918C62.1242 6.5918 62.1963 6.5918 62.254 6.60622C62.3116 6.60622 62.3549 6.62064 62.3982 6.64948C62.4414 6.6639 62.4847 6.69274 62.528 6.73601C62.5712 6.76485 62.6145 6.82253 62.6577 6.88021L67.6329 13.1965C67.6185 13.0379 67.6041 12.8937 67.5897 12.7495C67.5897 12.6053 67.5897 12.4611 67.5897 12.3313V6.5918H69.1471V16.0374H68.2386C68.0944 16.0374 67.979 16.0086 67.8925 15.9653C67.806 15.9221 67.705 15.85 67.6185 15.7346L62.6577 9.44713C62.6722 9.59133 62.6866 9.72112 62.6866 9.86533C62.701 9.99512 62.701 10.1249 62.701 10.2403V16.0374H61.1436V6.5918H62.0521Z" fill="#10151B"/>
<path id="Vector_7" d="M73.3029 9.23047C73.8076 9.23047 74.2547 9.31699 74.6729 9.47562C75.0767 9.63425 75.4372 9.86499 75.7256 10.1678C76.014 10.4707 76.2303 10.8312 76.389 11.2494C76.5476 11.682 76.6197 12.1579 76.6197 12.677C76.6197 13.2106 76.5476 13.6865 76.389 14.1191C76.2303 14.5518 76.014 14.9123 75.7256 15.2151C75.4372 15.518 75.0911 15.7487 74.6729 15.9073C74.2691 16.0659 73.8076 16.1525 73.3029 16.1525C72.7982 16.1525 72.3367 16.0659 71.9329 15.9073C71.5291 15.7487 71.1686 15.518 70.8802 15.2151C70.5918 14.9123 70.361 14.5518 70.2024 14.1191C70.0438 13.6865 69.9717 13.2106 69.9717 12.677C69.9717 12.1435 70.0438 11.6676 70.2024 11.2494C70.361 10.8168 70.5918 10.4562 70.8802 10.1678C71.1686 9.86499 71.5291 9.64867 71.9329 9.47562C72.3367 9.30257 72.7982 9.23047 73.3029 9.23047ZM73.3029 14.8834C73.8653 14.8834 74.2691 14.696 74.5431 14.321C74.8171 13.9461 74.9469 13.3981 74.9469 12.677C74.9469 11.956 74.8171 11.408 74.5431 11.0187C74.2835 10.6437 73.8653 10.4562 73.3029 10.4562C72.7405 10.4562 72.3079 10.6437 72.0483 11.0331C71.7743 11.408 71.6445 11.956 71.6445 12.677C71.6445 13.3981 71.7743 13.9461 72.0483 14.321C72.3079 14.696 72.7261 14.8834 73.3029 14.8834Z" fill="#10151B"/>
<path id="Vector_8" d="M82.0816 16.0224C81.8653 16.0224 81.7355 15.9214 81.6634 15.734L81.5336 15.085C81.3894 15.2437 81.2452 15.3879 81.101 15.5032C80.9568 15.6186 80.7838 15.734 80.5963 15.8349C80.4232 15.9214 80.2358 15.9935 80.0195 16.0368C79.8176 16.0945 79.6013 16.1089 79.3705 16.1089C79.01 16.1089 78.6639 16.0368 78.3611 15.8782C78.0582 15.7195 77.7842 15.5032 77.5679 15.2148C77.3516 14.9264 77.1786 14.5659 77.0632 14.1333C76.9478 13.7006 76.8901 13.2247 76.8901 12.6767C76.8901 12.1864 76.9622 11.725 77.092 11.2923C77.2218 10.8597 77.4237 10.4992 77.6689 10.1819C77.9284 9.86468 78.2313 9.61953 78.5774 9.44648C78.9379 9.27343 79.3273 9.17248 79.7743 9.17248C80.1492 9.17248 80.4665 9.23017 80.7405 9.35995C81.0001 9.47532 81.2452 9.63395 81.4615 9.83584V6.30273H83.0767V16.008H82.0816V16.0224ZM79.9329 14.8399C80.2646 14.8399 80.553 14.7678 80.7982 14.638C81.0289 14.4938 81.2597 14.3063 81.4615 14.0467V11.0472C81.2741 10.8309 81.0722 10.6723 80.8559 10.5713C80.6396 10.4848 80.4088 10.4271 80.1637 10.4271C79.9185 10.4271 79.7022 10.4704 79.5003 10.5713C79.2984 10.6578 79.1398 10.802 78.9956 10.9895C78.8658 11.177 78.7504 11.4077 78.6783 11.6961C78.6062 11.9845 78.563 12.3162 78.563 12.7056C78.563 13.095 78.5918 13.4266 78.6495 13.7006C78.7216 13.9746 78.8081 14.1909 78.9235 14.364C79.0388 14.537 79.183 14.6524 79.3561 14.7389C79.5291 14.811 79.7166 14.8399 79.9329 14.8399Z" fill="#10151B"/>
<path id="Vector_9" d="M87.0877 9.23047C87.5059 9.23047 87.8952 9.30257 88.2557 9.43236C88.6163 9.56215 88.9191 9.76404 89.1787 10.0236C89.4383 10.2832 89.6402 10.6004 89.7844 10.9754C89.9286 11.3503 90.0007 11.783 90.0007 12.2588C90.0007 12.3742 90.0007 12.4896 89.9862 12.5617C89.9718 12.6338 89.9574 12.7059 89.9286 12.7492C89.8997 12.7924 89.8709 12.8213 89.8132 12.8501C89.7699 12.8645 89.6978 12.8789 89.6257 12.8789H85.4725C85.5158 13.5711 85.7033 14.0759 86.0349 14.3931C86.3522 14.7104 86.7848 14.869 87.3184 14.869C87.578 14.869 87.8087 14.8402 87.9962 14.7825C88.1836 14.7248 88.3567 14.6527 88.5009 14.5806C88.6451 14.5085 88.7749 14.4364 88.8758 14.3787C88.9912 14.321 89.0922 14.2922 89.1931 14.2922C89.2652 14.2922 89.3085 14.3066 89.3662 14.3354C89.4094 14.3643 89.4527 14.3931 89.4959 14.4508L89.9718 15.0421C89.7988 15.244 89.5969 15.4314 89.3662 15.5756C89.1498 15.7198 88.9047 15.8352 88.6595 15.9217C88.4144 16.0083 88.1692 16.0659 87.9241 16.0948C87.6789 16.1236 87.4338 16.1525 87.203 16.1525C86.7416 16.1525 86.2945 16.0804 85.9051 15.9217C85.5014 15.7631 85.1553 15.5324 84.8524 15.2295C84.5496 14.9267 84.3189 14.5518 84.1458 14.1047C83.9728 13.6577 83.8862 13.1385 83.8862 12.5473C83.8862 12.0858 83.9583 11.6676 84.1025 11.2638C84.2468 10.86 84.4631 10.5139 84.7371 10.2111C85.0111 9.90825 85.3572 9.67751 85.7465 9.50446C86.1359 9.31699 86.5829 9.23047 87.0877 9.23047ZM87.1165 10.3841C86.6406 10.3841 86.2801 10.5139 86.0061 10.7879C85.7465 11.0475 85.5735 11.4369 85.5014 11.9127H88.5442C88.5442 11.7109 88.5153 11.509 88.4576 11.3215C88.4 11.134 88.3134 10.9754 88.1981 10.8312C88.0827 10.687 87.9385 10.586 87.751 10.4995C87.578 10.4274 87.3617 10.3841 87.1165 10.3841Z" fill="#10151B"/>
<g id="Group">
<g id="Clip path group">
<mask id="mask0_2444_30307" style="mask-type:luminance" maskUnits="userSpaceOnUse" x="0" y="0" width="23" height="23">
<g id="SVGID_00000072963922179869898400000012718918569721634744_">
<path id="Vector_10" d="M22.5975 0H0V22.5975H22.5975V0Z" fill="white"/>
</g>
</mask>
<g mask="url(#mask0_2444_30307)">
<g id="Group_2">
<path id="Vector_11" fill-rule="evenodd" clip-rule="evenodd" d="M11.2915 18.3707C13.2095 18.3707 14.9544 17.6064 16.2234 16.3662C16.2523 16.3373 16.31 16.3373 16.3532 16.3662L19.2807 19.2936L22.3235 22.3364C22.3956 22.4085 22.3235 22.5094 22.2369 22.4806L17.3771 20.8655C17.3483 20.851 17.3194 20.8655 17.305 20.8799C15.5601 21.9759 13.4979 22.6104 11.2915 22.6104C5.0473 22.6104 0 17.5487 0 11.3189C0 5.07464 5.06172 0.0273438 11.2915 0.0273438C17.5213 0.0273438 22.583 5.08906 22.583 11.3189C22.583 13.9867 21.6601 16.4383 20.1171 18.3707C20.0882 18.4139 20.0306 18.4139 19.9873 18.3707L14.0171 12.4004C13.945 12.3283 14.0171 12.2274 14.1036 12.2562L17.8963 13.5253C17.9395 13.5397 17.9972 13.5108 18.0116 13.4676C18.2279 12.7898 18.3433 12.0688 18.3433 11.3189C18.3433 7.42524 15.1851 4.25265 11.2771 4.25265C7.36905 4.25265 4.21089 7.41082 4.21089 11.3189C4.22531 15.1981 7.39789 18.3707 11.2915 18.3707Z" fill="#00A4D6"/>
</g>
</g>
</g>
</g>
</g>
</svg>
