<svg width="90" height="20" viewBox="0 0 90 20" fill="none" xmlns="http://www.w3.org/2000/svg">
<g id="Group 513533">
<path id="Vector" d="M28.187 10.7923V10.5651C28.187 10.0047 27.9901 9.56543 27.6115 9.2625C27.2328 8.94442 26.7481 8.79295 26.1422 8.79295C25.6727 8.79295 25.3092 8.86869 25.0365 9.0353C24.7791 9.18676 24.5367 9.41396 24.2944 9.73204C24.2186 9.82292 24.1429 9.8835 24.0672 9.92894C23.9914 9.95924 23.8703 9.97439 23.7339 9.97439H23.2038C23.0826 9.97439 22.9615 9.92895 22.8554 9.83807C22.7646 9.74719 22.7191 9.64116 22.7343 9.50484C22.7646 9.15647 22.9463 8.82325 23.2493 8.49002C23.5673 8.14165 23.9763 7.86902 24.4913 7.64182C25.0062 7.42977 25.5515 7.30859 26.1422 7.30859C27.2328 7.30859 28.1113 7.61152 28.7777 8.20224C29.4593 8.8081 29.7926 9.64116 29.7926 10.7166V15.9876C29.7926 16.1087 29.7471 16.2299 29.6562 16.3208C29.5654 16.4117 29.4442 16.4571 29.323 16.4571H28.6717C28.5505 16.4571 28.4294 16.4117 28.3385 16.3208C28.2476 16.2299 28.2022 16.1239 28.2022 15.9876V15.2757C28.0204 15.6846 27.6115 16.0179 27.0056 16.2602C26.3997 16.5025 25.7939 16.6237 25.188 16.6237C24.5973 16.6237 24.0672 16.5177 23.5976 16.3056C23.1281 16.0936 22.7646 15.7907 22.5071 15.4271C22.2647 15.0636 22.1436 14.6395 22.1436 14.1851C22.1436 13.3218 22.4768 12.6553 23.1281 12.1706C23.7794 11.6708 24.6579 11.3376 25.7484 11.171L28.187 10.7923ZM28.187 12.1858L26.1119 12.519C25.3546 12.6402 24.7639 12.8219 24.3398 13.0946C23.9157 13.3521 23.7036 13.6701 23.7036 14.064C23.7036 14.3517 23.84 14.6092 24.1126 14.8364C24.3852 15.0636 24.7942 15.1848 25.3395 15.1848C26.1877 15.1848 26.8693 14.9424 27.3843 14.4729C27.9144 14.0034 28.1719 13.3824 28.1719 12.625V12.1858H28.187Z" fill="#0C0C0E"/>
<path id="Vector_2" d="M33.9434 16.016C33.9434 16.1371 33.898 16.2583 33.8071 16.3492C33.7162 16.4401 33.595 16.4855 33.4739 16.4855H32.8226C32.7014 16.4855 32.5802 16.4401 32.4893 16.3492C32.3985 16.2583 32.353 16.1523 32.353 16.016V4.68634C32.353 4.56517 32.3985 4.44399 32.4893 4.35311C32.5802 4.26224 32.7014 4.2168 32.8226 4.2168H33.4739C33.595 4.2168 33.7162 4.26224 33.8071 4.35311C33.898 4.44399 33.9434 4.55002 33.9434 4.68634V16.016Z" fill="#0C0C0E"/>
<path id="Vector_3" d="M40.259 15.1682C41.4253 15.1682 42.2129 14.7138 42.6219 13.8201C42.6976 13.6535 42.7885 13.5323 42.8642 13.4566C42.94 13.3809 43.0611 13.3506 43.1974 13.3506H43.7276C43.8487 13.3506 43.9699 13.396 44.0608 13.4869C44.1517 13.5626 44.1971 13.6687 44.1971 13.7747C44.1971 14.1685 44.0457 14.5926 43.7276 15.0319C43.4095 15.4862 42.9551 15.8649 42.3644 16.1678C41.7737 16.4859 41.0618 16.6374 40.259 16.6374C39.426 16.6374 38.7141 16.4708 38.1082 16.1224C37.5023 15.774 37.0328 15.3045 36.6996 14.7138C36.3664 14.1079 36.1846 13.4263 36.1543 12.669C36.1392 12.5327 36.1392 12.26 36.1392 11.8814C36.1392 11.6087 36.1392 11.4118 36.1543 11.2907C36.2603 10.1092 36.6693 9.155 37.366 8.42796C38.0628 7.68578 39.0321 7.32227 40.259 7.32227C41.0618 7.32227 41.7585 7.47373 42.3492 7.79181C42.94 8.09474 43.3944 8.45826 43.6973 8.91265C44.0154 9.3519 44.182 9.76086 44.2123 10.1547C44.2274 10.2758 44.182 10.397 44.0759 10.4879C43.9851 10.5788 43.8639 10.6242 43.7427 10.6242H43.2126C43.0763 10.6242 42.9551 10.5939 42.8794 10.5182C42.8036 10.4425 42.7128 10.3213 42.637 10.1547C42.2281 9.26102 41.4404 8.80662 40.2742 8.80662C39.638 8.80662 39.0624 9.01868 38.5929 9.44278C38.1082 9.86688 37.8356 10.5182 37.775 11.3815C37.7598 11.5027 37.7598 11.7148 37.7598 12.0025C37.7598 12.26 37.7598 12.4569 37.775 12.5933C37.8507 13.4566 38.1385 14.1079 38.5929 14.532C39.0624 14.9561 39.6229 15.1682 40.259 15.1682Z" fill="#0C0C0E"/>
<path id="Vector_4" d="M54.4071 16.016C54.4071 16.1371 54.3617 16.2583 54.2708 16.3492C54.1799 16.4401 54.0587 16.4855 53.9376 16.4855H53.2863C53.1651 16.4855 53.0439 16.4401 52.953 16.3492C52.8622 16.2583 52.8167 16.1523 52.8167 16.016V11.4568C52.8167 10.5935 52.6047 9.94219 52.1654 9.48779C51.7262 9.0334 51.1355 8.82134 50.363 8.82134C49.6056 8.82134 48.9998 9.04854 48.5605 9.48779C48.1213 9.94219 47.9092 10.5935 47.9092 11.4568V16.016C47.9092 16.1371 47.8638 16.2583 47.7729 16.3492C47.682 16.4401 47.5609 16.4855 47.4397 16.4855H46.7884C46.6672 16.4855 46.546 16.4401 46.4552 16.3492C46.3643 16.2583 46.3188 16.1523 46.3188 16.016V4.68634C46.3188 4.56517 46.3643 4.44399 46.4552 4.35311C46.546 4.26224 46.6672 4.2168 46.7884 4.2168H47.4397C47.5609 4.2168 47.682 4.26224 47.7729 4.35311C47.8638 4.44399 47.9092 4.55002 47.9092 4.68634V8.50327C48.1667 8.17004 48.5151 7.8974 48.9543 7.67021C49.4087 7.44301 49.9692 7.32184 50.6205 7.32184C51.3626 7.32184 52.0139 7.4733 52.5895 7.79138C53.1651 8.10946 53.6043 8.54871 53.9224 9.13942C54.2556 9.71499 54.4071 10.3966 54.4071 11.1994V16.016Z" fill="#0C0C0E"/>
<path id="Vector_5" d="M60.5559 7.32227C61.813 7.32227 62.7975 7.71607 63.5246 8.50369C64.2516 9.29131 64.6151 10.3516 64.6151 11.6996V12.1692C64.6151 12.2903 64.5697 12.4115 64.4788 12.5024C64.3879 12.5933 64.2668 12.6387 64.1456 12.6387H58.1173V12.7447C58.1476 13.5021 58.3748 14.1079 58.814 14.5472C59.2684 14.9713 59.8591 15.1833 60.571 15.1833C61.1617 15.1833 61.601 15.1076 61.919 14.9561C62.2523 14.8047 62.5401 14.5926 62.7975 14.32C62.8884 14.2291 62.9793 14.1685 63.0399 14.1231C63.1156 14.0928 63.2216 14.0776 63.358 14.0776H63.8881C64.0244 14.0776 64.1456 14.1231 64.2365 14.2139C64.3273 14.3048 64.3728 14.4108 64.3576 14.5472C64.3122 14.8652 64.1304 15.1833 63.8275 15.5165C63.5397 15.8346 63.1156 16.1224 62.5401 16.3496C61.9948 16.5617 61.3283 16.6828 60.5559 16.6828C59.8137 16.6828 59.1472 16.5162 58.5565 16.183C57.9658 15.8346 57.5114 15.3651 57.1479 14.7744C56.8147 14.1685 56.6026 13.5021 56.5269 12.7599C56.4966 12.4115 56.4966 12.154 56.4966 11.9723C56.4966 11.7905 56.5117 11.5179 56.5269 11.1846C56.6026 10.4727 56.7995 9.82144 57.1479 9.24587C57.4963 8.67031 57.9658 8.21591 58.5262 7.88268C59.1169 7.48887 59.7985 7.32227 60.5559 7.32227ZM63.0247 11.1846V11.1392C63.0247 10.4425 62.7975 9.88203 62.3431 9.45793C61.9039 9.03383 61.298 8.82177 60.5559 8.82177C59.8743 8.82177 59.2987 9.03383 58.814 9.45793C58.3445 9.88203 58.1021 10.4425 58.1021 11.1392V11.1846H63.0247Z" fill="#0C0C0E"/>
<path id="Vector_6" d="M68.3106 8.50369C68.5984 8.14018 68.9013 7.86754 69.2648 7.65549C69.6132 7.44344 70.0828 7.32227 70.6735 7.32227C72.0367 7.32227 73.006 7.8221 73.5513 8.82177C73.8845 8.33708 74.2783 7.97357 74.7024 7.71608C75.1417 7.45859 75.7021 7.32227 76.3989 7.32227C77.55 7.32227 78.3982 7.65549 78.9435 8.33708C79.5039 9.01868 79.7917 9.97291 79.7917 11.2149V16.0012C79.7917 16.1224 79.7462 16.2436 79.6554 16.3345C79.5645 16.4253 79.4433 16.4708 79.3221 16.4708H78.6708C78.5497 16.4708 78.4285 16.4253 78.3376 16.3345C78.2467 16.2436 78.2013 16.1376 78.2013 16.0012V11.3967C78.2013 9.66998 77.5046 8.80663 76.1262 8.80663C75.4901 8.80663 74.9902 9.01868 74.6116 9.42763C74.2329 9.83659 74.0511 10.4576 74.0511 11.2755V16.0012C74.0511 16.1224 74.0057 16.2436 73.9148 16.3345C73.8239 16.4253 73.7028 16.4708 73.5816 16.4708H72.9303C72.8091 16.4708 72.688 16.4253 72.5971 16.3345C72.5062 16.2436 72.4608 16.1376 72.4608 16.0012V11.3967C72.4608 9.66998 71.764 8.80663 70.3857 8.80663C69.7495 8.80663 69.2497 9.01868 68.871 9.42763C68.4924 9.83659 68.3106 10.4576 68.3106 11.2755V16.0012C68.3106 16.1224 68.2652 16.2436 68.1743 16.3345C68.0834 16.4253 67.9622 16.4708 67.8411 16.4708H67.1898C67.0686 16.4708 66.9474 16.4253 66.8565 16.3345C66.7657 16.2436 66.7202 16.1376 66.7202 16.0012V7.95842C66.7202 7.83725 66.7657 7.71608 66.8565 7.6252C66.9474 7.53432 67.0686 7.48888 67.1898 7.48888H67.8411C67.9622 7.48888 68.0834 7.53432 68.1743 7.6252C68.2652 7.71608 68.3106 7.8221 68.3106 7.95842V8.50369Z" fill="#0C0C0E"/>
<path id="Vector_7" d="M84.699 19.3485C84.593 19.6211 84.4264 19.7575 84.184 19.7575H83.4721C83.351 19.7575 83.2601 19.712 83.1692 19.6363C83.0935 19.5606 83.048 19.4545 83.048 19.3485C83.048 19.3031 83.048 19.2576 83.0632 19.2273L84.7444 15.6225L81.2759 8.03404C81.2607 8.00374 81.2607 7.9583 81.2607 7.91286C81.2607 7.79169 81.3062 7.70081 81.3819 7.62508C81.4577 7.54935 81.5637 7.50391 81.6849 7.50391H82.3967C82.6239 7.50391 82.8057 7.64023 82.9117 7.91286L85.6078 13.7897L88.3493 7.91286C88.4554 7.64023 88.622 7.50391 88.8643 7.50391H89.5762C89.6974 7.50391 89.7882 7.54935 89.8791 7.62508C89.9549 7.70081 90.0003 7.80684 90.0003 7.91286C90.0003 7.9583 90.0003 8.00374 89.9852 8.03404L84.699 19.3485Z" fill="#0C0C0E"/>
<path id="Vector_8" d="M15.4946 10.761L9.60265 0.764269C9.57235 0.71883 9.52691 0.673389 9.48147 0.643096C9.43603 0.612803 9.37545 0.597656 9.31486 0.597656C9.25428 0.597656 9.19369 0.612803 9.14825 0.643096C9.10281 0.673389 9.05737 0.71883 9.02708 0.764269L7.27008 3.76328C7.20949 3.85416 7.1792 3.97534 7.1792 4.08136C7.1792 4.18739 7.20949 4.30856 7.27008 4.39944L11.1173 10.9276C11.1779 11.0185 11.2536 11.1094 11.3596 11.1699C11.4657 11.2305 11.5717 11.2608 11.6929 11.2608H15.2069C15.2675 11.2608 15.328 11.2457 15.3735 11.2154C15.4189 11.1851 15.4644 11.1396 15.4946 11.0942C15.5249 11.0488 15.5401 10.9882 15.5401 10.9276C15.5401 10.867 15.5249 10.8216 15.4946 10.761Z" fill="#0C0C0E"/>
<path id="Vector_9" d="M0.0605864 15.9856L5.95259 5.98887C5.98288 5.94343 6.02832 5.898 6.07376 5.8677C6.1192 5.83741 6.17979 5.82227 6.24038 5.82227C6.30096 5.82227 6.36155 5.83741 6.40699 5.8677C6.45243 5.898 6.49787 5.94343 6.52816 5.98887L8.28516 8.98789C8.34575 9.07877 8.37604 9.19994 8.37604 9.30597C8.37604 9.412 8.34575 9.53316 8.28516 9.62404L4.43794 16.1522C4.37735 16.2431 4.30162 16.334 4.19559 16.3945C4.08957 16.4551 3.98354 16.4854 3.86237 16.4854H0.333225C0.272638 16.4854 0.212051 16.4703 0.166612 16.44C0.121172 16.4097 0.0757332 16.3643 0.0454401 16.3188C0.015147 16.2734 0 16.2128 0 16.1522C0.0151465 16.0916 0.0302933 16.0462 0.0605864 15.9856Z" fill="#0C0C0E"/>
<path id="Vector_10" d="M6.5129 16.4707H18.2969C18.3575 16.4707 18.4181 16.4556 18.4635 16.4253C18.509 16.395 18.5544 16.3496 18.5847 16.3041C18.615 16.2587 18.6301 16.1981 18.6301 16.1375C18.6301 16.0769 18.615 16.0315 18.5847 15.9709L16.8277 12.9719C16.7671 12.881 16.6914 12.7901 16.5854 12.7295C16.4793 12.669 16.3733 12.6387 16.2521 12.6387H8.57283C8.45166 12.6387 8.34563 12.669 8.23961 12.7295C8.13358 12.7901 8.05785 12.8659 7.99726 12.9719L6.24026 15.9709C6.20997 16.0164 6.19482 16.0769 6.19482 16.1375C6.19482 16.1981 6.20997 16.2435 6.24026 16.3041C6.27056 16.3496 6.316 16.395 6.36144 16.4253C6.40688 16.4556 6.46746 16.4707 6.5129 16.4707Z" fill="#0C0C0E"/>
</g>
</svg>
