<svg width="145" height="90" viewBox="0 0 145 90" fill="none" xmlns="http://www.w3.org/2000/svg">
<g id="Frame 81518996">
<path id="Fill-1" fill-rule="evenodd" clip-rule="evenodd" d="M62.5692 40.9916H68.9467C69.5099 40.9916 69.9633 40.4972 69.8941 39.9208C69.836 39.4373 69.4084 39.0828 68.9214 39.0828H60.9931C60.4682 39.0828 60.0387 39.5122 60.0387 40.0373V49.5815C60.0387 50.1066 60.4682 50.536 60.9931 50.536H68.9467C69.5099 50.536 69.9633 50.0414 69.8941 49.465C69.836 48.9817 69.4084 48.6271 68.9214 48.6271H62.5692C62.2258 48.6271 61.9474 48.3488 61.9474 48.0054V46.3853C61.9474 46.0421 62.2258 45.7637 62.5692 45.7637H67.3559C67.9191 45.7637 68.3725 45.2693 68.3033 44.6931C68.2453 44.2094 67.8177 43.8549 67.3308 43.8549H62.5692C62.2258 43.8549 61.9474 43.5767 61.9474 43.2333V41.6132C61.9474 41.27 62.2258 40.9916 62.5692 40.9916ZM51.5951 40.9916C52.661 40.9916 53.5518 41.3735 54.2835 42.121C54.4585 42.2961 54.6971 42.3916 54.9675 42.3916C55.4924 42.3916 55.922 41.962 55.922 41.437C55.922 41.1667 55.7947 40.9121 55.5242 40.6735C54.3948 39.6077 53.0746 39.0828 51.5951 39.0828C50.0204 39.0828 48.6682 39.6396 47.5388 40.769C46.4254 41.8824 45.8687 43.2346 45.8687 44.8094C45.8687 46.3842 46.4254 47.7363 47.5388 48.8657C48.6682 49.9791 50.0204 50.536 51.5951 50.536C53.1701 50.536 54.5221 49.9791 55.6357 48.8657C56.0174 48.4839 56.0174 47.8794 55.6357 47.5136C55.2696 47.1319 54.6653 47.1319 54.2835 47.5136C53.536 48.2613 52.6452 48.6271 51.5951 48.6271C50.5453 48.6271 49.6387 48.2613 48.891 47.5136C48.1433 46.766 47.7776 45.8592 47.7776 44.8094C47.7776 43.7595 48.1433 42.8687 48.891 42.121C49.6387 41.3735 50.5453 40.9916 51.5951 40.9916ZM82.697 48.6271H76.3459C76.002 48.6271 75.7232 48.3483 75.7232 48.0044V40.0622C75.7232 39.5752 75.3685 39.1477 74.885 39.0898C74.3086 39.0207 73.8143 39.4741 73.8143 40.0373V49.5815C73.8143 50.1066 74.2437 50.536 74.7688 50.536H82.7223C83.2856 50.536 83.739 50.0414 83.6698 49.465C83.6116 48.9817 83.184 48.6271 82.697 48.6271ZM122.858 39.0828H113.339C112.776 39.0828 112.323 39.5774 112.392 40.1536C112.45 40.6371 112.878 40.9916 113.364 40.9916H116.535C116.879 40.9916 117.157 41.27 117.157 41.6134V49.5815C117.157 50.1448 117.652 50.5982 118.228 50.529C118.711 50.4708 119.066 50.0432 119.066 49.5562V41.6134C119.066 41.27 119.344 40.9916 119.688 40.9916H122.883C123.447 40.9916 123.9 40.4972 123.831 39.9208C123.773 39.4373 123.345 39.0828 122.858 39.0828ZM127.902 39.0828C127.377 39.0828 126.947 39.5122 126.947 40.0373V49.5815C126.947 50.1066 127.377 50.536 127.902 50.536C128.427 50.536 128.856 50.1066 128.856 49.5815V40.0373C128.856 39.5122 128.427 39.0828 127.902 39.0828ZM108.805 44.6981C107.93 44.1412 106.753 43.8549 105.273 43.8549C103.317 43.8549 102.331 43.3777 102.331 42.4232C102.331 41.4688 103.317 40.9916 105.273 40.9916C106.355 40.9916 107.389 41.1984 108.375 41.5961C108.948 41.7711 109.346 41.5643 109.568 41.0076C109.759 40.5145 109.505 40.0373 108.98 39.7987C107.882 39.3214 106.657 39.0828 105.273 39.0828C103.826 39.0828 102.665 39.3851 101.758 39.9736C100.867 40.5622 100.422 41.3893 100.422 42.4232C100.422 43.5209 100.867 44.364 101.742 44.9207C102.617 45.4774 103.794 45.7637 105.273 45.7637C107.23 45.7637 108.216 46.2409 108.216 47.1954C108.216 48.1498 107.23 48.6271 105.273 48.6271H104.796C103.81 48.6271 102.776 48.4203 101.71 48.0225C101.217 47.8476 100.708 48.0703 100.501 48.5954C100.31 49.0885 100.597 49.661 101.09 49.836C102.188 50.2972 103.412 50.536 104.796 50.536H105.273C106.721 50.536 107.882 50.2337 108.773 49.645C109.68 49.0566 110.125 48.2293 110.125 47.1954C110.125 46.0978 109.68 45.2548 108.805 44.6981ZM89.3071 40.9916H95.6861C96.2494 40.9916 96.7028 40.4972 96.6336 39.9208C96.5755 39.4373 96.1479 39.0828 95.6609 39.0828H87.7326C87.2075 39.0828 86.7781 39.5122 86.7781 40.0373V49.5815C86.7781 50.1066 87.2075 50.536 87.7326 50.536H95.6861C96.2494 50.536 96.7028 50.0414 96.6336 49.465C96.5754 48.9817 96.1479 48.6271 95.6609 48.6271H89.3071C88.9647 48.6271 88.687 48.3494 88.687 48.007V46.384C88.687 46.0414 88.9647 45.7637 89.3071 45.7637H94.0955C94.6588 45.7637 95.1119 45.2693 95.0428 44.6931C94.9848 44.2094 94.5572 43.8549 94.0702 43.8549H89.3071C88.9647 43.8549 88.687 43.5773 88.687 43.2348V41.6117C88.687 41.2692 88.9647 40.9916 89.3071 40.9916ZM35.461 45.0044C35.4575 45.119 35.3014 45.1493 35.2563 45.0436C35.237 44.9981 35.2172 44.9523 35.1971 44.9065C35.1603 44.8229 35.1707 44.7255 35.2256 44.6523C35.2369 44.6373 35.26 44.6071 35.2876 44.571C35.3618 44.474 35.4688 44.4884 35.4688 44.5961C35.4688 44.7373 35.4655 44.8596 35.461 45.0044ZM34.6397 42.7616C34.5133 42.9894 34.189 42.9998 34.0486 42.7802C34.0268 42.7463 34.0048 42.7123 33.9827 42.6782C33.4766 41.9011 32.8941 41.1382 32.2435 40.3968C32.0838 40.2148 32.2144 39.9291 32.4567 39.929H32.4625C33.9827 39.929 34.7797 40.3045 35.0229 40.763C35.2259 41.1465 35.1637 41.8172 34.6397 42.7616ZM34.3 50.7115C34.2185 50.919 34.1331 51.1252 34.0434 51.3293C34.0295 51.3574 34.0163 51.3859 34.0018 51.4138C33.4423 52.4908 32.5034 53.3388 31.2488 53.929C30.9672 54.0613 30.6593 53.8037 30.7431 53.5042C31.1597 52.0131 31.475 50.3961 31.6793 48.7008C31.7174 48.3847 31.8733 48.0945 32.1143 47.8862C32.6302 47.4398 33.112 46.9941 33.5553 46.5515L33.5601 46.5466C33.7782 46.3289 34.1502 46.4226 34.2391 46.7178C34.677 48.1734 34.7013 49.5292 34.3 50.7115ZM30.8895 56.0949C30.7619 56.2313 30.6316 56.3661 30.4989 56.4989C30.2676 56.7298 30.0309 56.9533 29.7889 57.1691C29.6364 57.305 29.4056 57.135 29.4919 56.9496C29.5166 56.8967 29.541 56.8435 29.5653 56.7897C29.667 56.5656 29.7651 56.3357 29.8606 56.1014C29.8833 56.0462 29.9309 56.0049 29.9888 55.9901C30.2293 55.929 30.4639 55.8616 30.6924 55.7879C30.8776 55.7284 31.0226 55.9528 30.8895 56.0949ZM28.385 54.7489C27.8786 54.8223 27.346 54.8697 26.7888 54.8893C25.4293 54.9369 23.9918 54.8196 22.5152 54.5477C22.3351 54.5146 22.3005 54.2712 22.4637 54.1887C22.7859 54.0256 23.1081 53.8589 23.4302 53.6882C25.6897 52.4906 27.7979 51.1816 29.6434 49.8394C29.7818 49.7387 29.9725 49.8575 29.9443 50.0264C29.6884 51.5646 29.3341 53.0126 28.889 54.327C28.8131 54.5509 28.6191 54.715 28.385 54.7489ZM27.8628 56.7982C26.6514 59.1808 25.1594 60.5184 23.7133 60.4915C22.1415 60.4635 20.5742 58.8267 19.4135 56.0011L19.4122 55.9979C19.3385 55.8186 19.4232 55.6132 19.6008 55.536C19.6132 55.5306 19.6255 55.5252 19.6378 55.5197C19.714 55.4866 19.7995 55.4806 19.8797 55.5033C22.0508 56.1125 24.1899 56.4305 26.1941 56.4305C26.4119 56.4305 26.6282 56.4268 26.8427 56.4194C27.0938 56.4104 27.3408 56.3962 27.5836 56.3769C27.8087 56.3591 27.9653 56.5969 27.8628 56.7982ZM20.6891 61.329C19.9689 61.4216 19.238 61.469 18.4999 61.469C15.2016 61.469 12.0469 60.5343 9.33839 58.7901C9.15204 58.67 9.23124 58.3808 9.45269 58.3707C9.49861 58.3685 9.54154 58.3662 9.57931 58.3638C10.2676 58.3191 11.0223 58.2182 11.8401 58.0607C13.5796 57.7261 15.5132 57.1521 17.5379 56.3791C17.7194 56.3099 17.9221 56.3999 17.996 56.5796C17.9965 56.5807 17.9968 56.5817 17.9973 56.5827C18.7819 58.4931 19.7476 59.9366 20.8319 60.8549C21.0111 61.0068 20.9221 61.2991 20.6891 61.329ZM10.8762 49.4396C12.3715 48.222 14.1235 47.0071 16.0453 45.8569C16.0866 48.315 16.3561 50.6749 16.8331 52.8066C16.1204 52.5026 15.4097 52.1679 14.7053 51.802C13.3408 51.0929 12.057 50.2986 10.8762 49.4396ZM6.22609 56.0259C5.86937 55.3529 6.33041 53.7939 8.67254 51.4245L8.6737 51.4233C8.91828 51.1762 8.89482 50.7708 8.62179 50.5556C8.52795 50.4819 8.43478 50.4074 8.34227 50.3329C8.10901 50.1443 7.77143 50.1616 7.55962 50.3738C7.5132 50.4202 7.4786 50.4551 7.46845 50.4656C6.29763 51.6674 5.47821 52.7798 5.01917 53.7804C4.88906 54.0639 4.49608 54.0945 4.32404 53.8343C2.50701 51.0876 1.53103 47.8689 1.53103 44.4999C1.53103 43.2955 1.65614 42.1102 1.89956 40.9589C1.93633 40.7847 2.18207 40.7735 2.23365 40.9439C2.58571 42.1062 3.15872 43.3085 3.95052 44.5242C5.01635 46.1611 6.42192 47.7345 8.08755 49.1778C8.65606 49.6705 9.25653 50.147 9.88278 50.6067C11.1523 51.5383 12.5317 52.398 13.9993 53.1605C14.6499 53.4986 15.2835 53.8212 15.9323 54.1133C16.2936 54.2759 16.7047 54.2885 17.0734 54.1438C17.3793 54.024 17.6875 53.8994 17.9974 53.7698C18.3345 53.6292 18.5174 53.2616 18.428 52.9074C18.4169 52.8632 18.4081 52.8275 18.4031 52.8066C17.8921 50.6563 17.6081 48.2356 17.5747 45.7002L17.5737 45.7007C17.5733 45.6706 17.5735 45.6399 17.5732 45.6095C17.5717 45.4709 17.5725 45.3313 17.57 45.1931C17.5692 45.149 17.5705 45.0743 17.571 45.03C17.5714 45.0124 17.571 44.9949 17.571 44.9774C17.5709 44.9774 17.5712 44.9774 17.571 44.9774C17.5718 44.8187 17.5737 44.66 17.5765 44.5007C17.5843 44.0658 17.6 43.6341 17.6224 43.2058C17.6221 43.206 17.6228 43.2056 17.6224 43.2058C17.78 40.1463 18.2979 37.2719 19.1233 34.8536C19.1997 34.6298 19.0804 34.3869 18.8566 34.3105C18.6385 34.236 18.4206 34.1647 18.2029 34.0965C17.9828 34.0275 17.7475 34.1463 17.6732 34.3647C16.7786 36.991 16.2265 40.1068 16.0793 43.404C16.0605 43.8223 15.8328 44.2029 15.4726 44.4164C13.5198 45.5737 11.7264 46.8006 10.1771 48.0373C9.85433 48.295 9.39329 48.2852 9.08116 48.0145C7.52834 46.6682 6.22143 45.2059 5.23347 43.6886C3.29199 40.7075 2.83062 37.899 3.93471 35.782C3.93771 35.777 3.94037 35.7718 3.9432 35.767C4.08395 35.5334 4.23037 35.3029 4.38277 35.0757C5.65142 33.3964 8.01268 32.4233 11.1443 32.3133C11.3424 32.3063 11.5419 32.3028 11.7432 32.3028C13.6641 32.3028 15.7255 32.6197 17.8221 33.2247C17.868 33.238 17.9144 33.2513 17.9603 33.2648C17.9958 33.2753 18.0312 33.2851 18.0667 33.2957C18.0665 33.2959 18.0667 33.2956 18.0667 33.2957C18.5512 33.4405 19.037 33.6011 19.5235 33.7761C19.5235 33.7763 19.5236 33.7759 19.5235 33.7761C19.5348 33.7801 19.5463 33.7842 19.5576 33.7882C19.6844 33.834 19.811 33.8809 19.9376 33.9287C19.9772 33.9436 20.017 33.9588 20.0566 33.9741C20.0947 33.9887 20.1328 34.0029 20.171 34.0177C21.1949 34.414 22.2175 34.8755 23.2278 35.4006C25.1832 36.4165 26.9731 37.6075 28.5308 38.9141C25.5581 39.595 22.1027 40.9088 18.6285 42.6801C18.4683 42.7619 18.3628 42.923 18.3527 43.1027C18.3405 43.318 18.3246 43.7509 18.3131 44.0949C18.3059 44.3109 18.5344 44.454 18.7257 44.3535L18.7277 44.3523C22.1674 42.5461 25.6003 41.1961 28.5484 40.4827C29.0995 40.3494 29.4562 39.8202 29.3788 39.2586C29.3246 38.8663 29.2635 38.4801 29.196 38.1008C29.1111 37.6243 28.8502 37.1982 28.4652 36.905C27.0844 35.8532 25.5627 34.8883 23.9337 34.0418C22.8359 33.4714 21.722 32.9716 20.6058 32.5454C20.367 32.4542 20.2647 32.172 20.3893 31.9489C21.5393 29.8916 22.9071 28.7394 24.2397 28.7394C24.2535 28.7394 24.2673 28.7394 24.2811 28.7398C25.8529 28.7679 27.4202 30.4046 28.5809 33.2302C29.1683 34.6606 29.6236 36.31 29.9347 38.1026C29.933 38.1011 29.9314 38.0998 29.9299 38.0983C30.0626 38.8633 30.1696 39.6539 30.249 40.465C30.2422 40.4694 30.2348 40.4732 30.228 40.4775C30.2373 40.487 30.2471 40.4965 30.2566 40.5061C30.3882 41.8671 30.4438 43.2843 30.4179 44.7305C30.4015 45.6453 30.3528 46.5474 30.2739 47.43C28.1711 49.1294 25.571 50.8207 22.7131 52.3352C21.7739 52.833 20.8349 53.2964 19.905 53.723C19.8905 53.7297 19.8762 53.7361 19.8617 53.7428C19.7907 53.7752 19.7195 53.8082 19.6484 53.8403C19.6478 53.8401 19.6473 53.84 19.6468 53.8398C18.8763 54.1884 18.1131 54.5108 17.3625 54.8053C17.3624 54.8051 17.3627 54.8055 17.3625 54.8053C17.3201 54.8219 17.2784 54.8386 17.2361 54.855C17.1834 54.8757 17.1306 54.896 17.078 54.9163C16.9521 54.9645 16.8266 55.0121 16.7015 55.0589C16.6671 55.0717 16.6325 55.0852 16.598 55.0978C16.4461 55.1542 16.2951 55.2089 16.1445 55.2628C16.1257 55.2695 16.1069 55.2767 16.0882 55.2833C16.0879 55.2831 16.0884 55.2835 16.0882 55.2833C14.4799 55.8562 12.947 56.2886 11.5507 56.5573C8.17673 57.2068 6.58797 56.7085 6.22609 56.0259ZM8.64941 30.6794C11.5051 28.6345 14.9176 27.531 18.4999 27.531C19.4454 27.531 20.3788 27.6084 21.2934 27.7593C21.5383 27.7997 21.6205 28.1124 21.4252 28.2656C20.5389 28.9604 19.7155 29.9885 18.9867 31.3217C18.8089 31.6469 18.4317 31.806 18.075 31.7055C15.6606 31.0258 13.2852 30.706 11.0905 30.7831C10.2809 30.8115 9.51425 30.8936 8.79399 31.0263C8.59168 31.0636 8.4822 30.7991 8.64941 30.6794ZM31.9422 43.0464C31.9372 42.8519 32.1868 42.7689 32.2996 42.9273C32.4382 43.1218 32.5718 43.3173 32.6997 43.5138C32.8698 43.775 33.028 44.0347 33.1751 44.2928C33.2668 44.4537 33.2448 44.6555 33.12 44.7922C32.9219 45.0099 32.7069 45.2348 32.4735 45.4681C32.3883 45.5531 32.3014 45.6383 32.2129 45.7236C32.1031 45.8298 31.9189 45.7489 31.9249 45.5962C31.9357 45.3178 31.9437 45.0385 31.9487 44.7578C31.959 44.1828 31.9565 43.6119 31.9422 43.0464ZM30.1824 32.1928C30.2891 32.294 30.3946 32.3968 30.4989 32.5011C32.1341 34.1363 33.3936 36.047 34.2358 38.1279C34.3208 38.3377 34.1426 38.5573 33.9198 38.5172C33.4325 38.4297 32.8841 38.3906 32.277 38.4008C31.8562 38.4078 31.4905 38.1129 31.4166 37.6987C31.0867 35.8487 30.6097 34.1398 29.9971 32.6484C29.9621 32.5633 29.9269 32.4793 29.8911 32.3961C29.8132 32.2146 30.0392 32.0567 30.1824 32.1928ZM36.6003 40.6522C35.8693 37.1787 34.1502 33.9872 31.5813 31.4183C28.0872 27.9242 23.4416 26 18.4999 26C13.5584 26 8.91262 27.9242 5.41848 31.4183C4.56862 32.2682 3.81276 33.1864 3.15373 34.1601C2.95773 34.421 2.7822 34.6965 2.62614 34.9848C0.914256 37.8294 0 41.0945 0 44.4999C0 49.4416 1.92435 54.0872 5.41848 57.5813C8.91262 61.0755 13.5584 63 18.4999 63C23.4416 63 28.0872 61.0755 31.5813 57.5813C33.2305 55.9324 34.5294 54.0266 35.4418 51.9546C35.5533 51.725 35.6507 51.4899 35.7343 51.2501C36.5649 49.1278 37 46.8474 37 44.4999C37 43.2078 36.8672 41.9365 36.6105 40.7001C36.607 40.6842 36.6038 40.6682 36.6003 40.6522ZM140.228 46.2409H136.728C136.399 46.2409 136.194 45.8847 136.359 45.5999L138.114 42.5701C138.279 42.2856 138.689 42.2862 138.854 42.5711L140.598 45.601C140.761 45.8857 140.556 46.2409 140.228 46.2409ZM144.831 49.1203L139.312 39.5441C138.914 38.9237 138.055 38.9237 137.657 39.5441L132.138 49.1203C132.071 49.2402 132.038 49.3602 132.029 49.4991C131.994 50.0399 132.414 50.5232 132.956 50.5357C133.334 50.5445 133.628 50.354 133.856 49.9475L134.709 48.4637C134.821 48.2696 135.028 48.1498 135.252 48.1498H141.702C141.926 48.1498 142.133 48.2696 142.244 48.4637L143.098 49.9475C143.313 50.3325 143.604 50.5239 143.954 50.5353C144.49 50.5531 144.943 50.1176 144.943 49.5815C144.943 49.4384 144.911 49.2951 144.831 49.1203Z" fill="black"/>
</g>
</svg>
