<svg width="26" height="26" viewBox="0 0 26 26" fill="none" xmlns="http://www.w3.org/2000/svg">
<g id="Database">
<path id="Vector" d="M13 13C17.936 13 21.9375 10.8174 21.9375 8.125C21.9375 5.43261 17.936 3.25 13 3.25C8.06395 3.25 4.0625 5.43261 4.0625 8.125C4.0625 10.8174 8.06395 13 13 13Z" stroke="#858FA4" stroke-width="2" stroke-linecap="round" stroke-linejoin="round"/>
<path id="Vector_2" d="M4.0625 8.125V13C4.0625 15.6924 8.06395 17.875 13 17.875C17.936 17.875 21.9375 15.6924 21.9375 13V8.125" stroke="#858FA4" stroke-width="2" stroke-linecap="round" stroke-linejoin="round"/>
<path id="Vector_3" d="M4.0625 13V17.875C4.0625 20.5674 8.06395 22.75 13 22.75C17.936 22.75 21.9375 20.5674 21.9375 17.875V13" stroke="#858FA4" stroke-width="2" stroke-linecap="round" stroke-linejoin="round"/>
</g>
</svg>
