<svg width="26" height="26" viewBox="0 0 26 26" fill="none" xmlns="http://www.w3.org/2000/svg">
<g id="GearSix">
<path id="Vector" d="M13 18.6875C16.1411 18.6875 18.6875 16.1411 18.6875 13C18.6875 9.85888 16.1411 7.3125 13 7.3125C9.85888 7.3125 7.3125 9.85888 7.3125 13C7.3125 16.1411 9.85888 18.6875 13 18.6875Z" stroke="#858FA4" stroke-width="2" stroke-linecap="round" stroke-linejoin="round"/>
<path id="Vector_2" d="M5.66607 18.173L5.54451 20.0585C5.53579 20.1793 5.55381 20.3006 5.59729 20.4137C5.64078 20.5267 5.70866 20.6288 5.7961 20.7127C6.96471 21.8211 8.37884 22.6376 9.9231 23.0954C10.0394 23.1292 10.1618 23.1369 10.2814 23.1181C10.4011 23.0992 10.5151 23.0542 10.6154 22.9862L12.1875 21.9382H13.8125L15.3846 22.9862C15.4849 23.0542 15.5989 23.0992 15.7186 23.1181C15.8382 23.137 15.9606 23.1293 16.0769 23.0955C17.6212 22.6376 19.0353 21.8212 20.2039 20.7127C20.2913 20.6289 20.3592 20.5268 20.4027 20.4137C20.4462 20.3006 20.4642 20.1794 20.4555 20.0586L20.334 18.1731L21.1465 16.7658L22.8401 15.9283C22.9491 15.8755 23.0451 15.7992 23.1213 15.7051C23.1975 15.6109 23.252 15.501 23.2809 15.3834C23.6565 13.8171 23.6565 12.1842 23.2808 10.6179C23.252 10.5003 23.1975 10.3905 23.1213 10.2963C23.0451 10.2021 22.9491 10.1258 22.8401 10.073L21.1465 9.23551L20.334 7.82821L20.4556 5.94272C20.4643 5.82189 20.4463 5.70062 20.4028 5.58755C20.3593 5.47448 20.2914 5.37239 20.204 5.28854C19.0354 4.18009 17.6212 3.36365 16.077 2.90585C15.9607 2.87204 15.8383 2.86429 15.7186 2.88316C15.599 2.90204 15.485 2.94706 15.3847 3.01503L13.8126 4.06301H12.1876L10.6155 3.01499C10.5152 2.94701 10.4012 2.90199 10.2815 2.88311C10.1619 2.86424 10.0395 2.87198 9.92318 2.90578C8.37892 3.3636 6.9648 4.18005 5.7962 5.28852C5.70875 5.37236 5.64087 5.47445 5.59738 5.58752C5.55389 5.70059 5.53587 5.82185 5.54459 5.94268L5.66614 7.82812L4.85364 9.23541L3.15997 10.0729C3.05096 10.1257 2.95495 10.202 2.87877 10.2962C2.80259 10.3904 2.74812 10.5002 2.71923 10.6179C2.34358 12.1841 2.34359 13.817 2.71925 15.3833C2.74814 15.5009 2.80261 15.6108 2.87878 15.705C2.95496 15.7992 3.05096 15.8754 3.15997 15.9283L4.85358 16.7657L5.66607 18.173Z" stroke="#858FA4" stroke-width="2" stroke-miterlimit="10"/>
</g>
</svg>
