<svg width="203" height="203" viewBox="0 0 203 203" fill="none" xmlns="http://www.w3.org/2000/svg">
<path d="M172.286 145.538C167.096 142.827 164.252 148.176 153.394 145.934C147.015 144.618 146.332 141.604 146.175 137.964C146.25 136.805 146.39 136.054 146.711 135.732C147.759 134.683 157.324 123.449 158.16 111.351C158.611 104.819 156.081 95.7455 152.332 86.3195C151.447 78.0658 165.232 74.344 164.651 64.5694C164.327 59.1183 154.534 48.4414 144.922 38.3217C136.054 28.9846 127.521 19.9551 122.71 19.8013C114.119 19.5245 99.3377 32.1836 86.96 43.4209C77.3719 52.1257 68.7263 59.6788 67.7668 61.1381C65.1785 65.0787 66.2166 71.1348 63.041 74.696C56.847 80.8581 52.2101 86.3093 50.9399 89.8773C47.696 98.9752 52.5105 111.269 53.7432 114.245C52.2647 120.131 51.7935 126.388 50.4038 132.212C44.5751 136.819 40.7816 128.709 36.8958 128.401C32.4808 128.053 30.3535 136.412 36.5407 143.07C32.4057 142.41 29.1038 140.91 27.0551 143.128C25.0336 145.322 26.9731 157.373 32.9861 157.879C34.5329 164.632 42.2498 172.643 51.5306 173.593C66.3531 175.111 76.9724 168.303 82.3708 155.794C82.7942 164.786 88.2712 176.351 97.0568 181.235C107.686 187.141 125.671 181.963 127.436 173.559C130.933 174.95 134.566 175.668 137.912 175.439C144.888 174.96 150.351 171.768 153.523 168.016C175.776 167.756 178.904 148.993 172.283 145.538H172.286Z" fill="white"/>
<path d="M127.149 171.009C125.958 168.832 121.993 169.427 119.293 171.149C113.14 175.069 95.4795 185.244 84.2148 164.734C86.5641 171.389 91.0337 177.886 97.0638 181.238C107.693 187.144 125.678 181.966 127.443 173.562C127.532 173.596 127.621 173.631 127.706 173.665C127.802 172.677 127.569 171.782 127.149 171.009Z" fill="white"/>
<path d="M137.341 175.471C137.249 175.474 137.157 175.474 137.064 175.478C137.157 175.478 137.249 175.478 137.341 175.471Z" fill="#131313"/>
<path d="M137.924 175.442C137.958 175.442 137.988 175.435 138.023 175.432C137.924 175.438 137.821 175.445 137.719 175.452C137.787 175.449 137.855 175.445 137.924 175.442Z" fill="#131313"/>
<path d="M140.181 175.186C139.478 175.298 138.761 175.384 138.023 175.438C138.754 175.387 139.475 175.305 140.181 175.186Z" fill="#131313"/>
<path d="M137.713 175.451C137.591 175.458 137.464 175.465 137.338 175.472C137.464 175.468 137.587 175.458 137.713 175.451Z" fill="#131313"/>
<path d="M174.803 148.528C171.58 145.797 167.722 165.285 155.979 164.482C157.727 160.097 155.474 156.553 151.707 157.445C145.937 158.812 150.068 173.2 129.059 174.079C129.646 174.311 130.233 174.506 130.821 174.68C132.931 175.237 135.044 175.521 137.069 175.48C137.161 175.48 137.254 175.48 137.346 175.473C137.472 175.47 137.595 175.463 137.721 175.453C137.824 175.446 137.923 175.439 138.025 175.432C138.763 175.377 139.483 175.292 140.183 175.179C143.943 174.55 147.357 173.026 150.024 171.225C151.393 170.248 152.571 169.161 153.538 168.019C154.459 168.009 155.347 167.965 156.204 167.893C157.652 167.736 159.503 167.462 161.483 166.997C173.465 163.798 176.869 153.894 174.81 148.532L174.803 148.528Z" fill="white"/>
<path d="M44.6383 163.997C37.4405 159.633 39.8238 151.881 34.8864 152.527C34.0191 152.64 33.4147 153.081 33.0425 153.751C28.6616 150.422 34.0464 143.935 28.6138 142.462C28.3236 142.414 28.0573 142.432 27.8148 142.507C27.5485 142.671 27.2958 142.872 27.0602 143.129C25.452 144.875 26.3534 152.859 29.8192 156.3C30.3962 156.817 31.0382 157.254 31.7518 157.589C32.1445 157.739 32.5577 157.842 32.9913 157.879C34.5381 164.633 42.255 172.644 51.5357 173.594C60.1199 174.472 67.2939 172.552 72.8596 168.355C74.7274 166.865 76.5405 165.063 78.2683 162.921C79.6785 161.058 80.9146 158.977 81.9697 156.694C82.3316 155.337 82.6765 154.534 82.7584 152.5C71.9582 170.142 54.9469 170.245 44.6383 163.997Z" fill="white"/>
<path d="M42.7898 143.211C36.1553 141.827 33.7959 130.388 37.8319 129.844C37.8319 129.198 37.0534 128.73 36.5617 128.693C32.1467 128.344 30.3608 136.423 36.548 143.078C36.4934 143.067 36.4387 143.057 36.3807 143.05C37.1421 143.58 41.7962 143.402 42.7898 143.211Z" fill="white"/>
<path d="M163.287 60.5059C163.953 61.8763 164.411 63.1477 164.626 64.2961C164.503 63.2092 164.035 61.9344 163.287 60.5059Z" fill="white"/>
<path d="M161.892 72.2734C160.577 73.8285 159 75.2536 157.559 76.8258C159.047 75.3664 160.611 73.8934 161.892 72.2734Z" fill="white"/>
<path d="M157.561 76.8266C159.001 75.2545 160.579 73.8293 161.894 72.2742C163.625 70.0835 164.84 67.6262 164.659 64.5776C164.653 64.4888 164.639 64.3931 164.629 64.3008C164.417 63.1525 163.956 61.8811 163.29 60.5106C160.231 54.6732 152.524 46.3273 144.93 38.3299C142.533 35.8077 140.163 33.3093 137.882 30.999C133.939 27.3011 131.173 24.8984 131.173 24.8984C131.173 24.8984 158.506 54.6356 157.943 64.7793C157.81 67.1511 155.088 69.6905 152.015 69.1812C147.457 68.4259 141.994 63.6685 141.994 63.6685L144.787 70.2065C147.027 76.478 151.09 92.8281 144.435 100.111C138.866 106.208 124.818 104.855 115.534 101.294C114.769 101 114.097 100.723 113.376 100.545C112.577 100.426 112.369 101.369 112.97 101.625C119.785 104.636 128.383 108.939 134.82 113.881C141.857 119.284 145.015 123.543 145.907 127.135C147.105 131.967 145.34 137.401 147.925 134.298C148.143 134.038 148.396 133.731 148.679 133.386C151.821 129.295 157.526 120.58 158.165 111.359C158.616 104.828 156.085 95.7537 152.336 86.3277C151.933 82.5478 154.6 79.7214 157.557 76.8266H157.561Z" fill="white"/>
<path d="M73.5137 117.991C74.5658 112.337 72.6743 107.242 69.2891 106.611C65.9038 105.98 62.3066 110.052 61.2545 115.706C60.2025 121.36 62.0939 126.455 65.4792 127.086C68.8645 127.717 72.4616 123.645 73.5137 117.991Z" fill="black"/>
<path d="M110.653 119.415C111.166 113.628 107.63 108.586 102.756 108.153C97.8814 107.72 93.514 112.061 93.0011 117.848C92.4881 123.635 96.0238 128.677 100.898 129.11C105.773 129.543 110.14 125.202 110.653 119.415Z" fill="black"/>
<path d="M64.2672 107.577C64.3696 107.454 64.2057 107.338 64.0657 107.485C63.9018 107.632 63.7448 107.779 63.5945 107.932C61.5048 110.041 60.2585 112.881 59.7531 115.783C59.2341 118.715 59.4697 121.87 60.8663 124.536C60.8868 124.58 60.9141 124.621 60.9346 124.665C61.0029 124.795 61.1941 124.713 61.1258 124.573C59.101 119.843 60.6751 111.381 64.2672 107.577Z" fill="white"/>
<path d="M110.765 112.901C110.123 111.701 109.184 110.573 108.081 109.678C108.054 109.698 108.027 109.715 107.999 109.732C110.704 112.193 111.776 116.475 111.26 120.095C110.772 124.333 107.982 128.776 103.98 130.156C103.994 130.18 104.004 130.204 104.018 130.228C108.18 129.022 111.397 124.979 112.005 120.597C112.425 117.993 112.049 115.225 110.769 112.901H110.765Z" fill="white"/>
<path d="M97.4033 114.139C97.8403 112.577 99.1447 111.576 100.312 111.907C101.48 112.235 102.074 113.77 101.634 115.332C101.197 116.894 99.8925 117.895 98.7247 117.563C97.5569 117.235 96.9628 115.701 97.4033 114.139Z" fill="white"/>
<path d="M65.3339 112.445C65.6617 110.999 66.8124 110.028 67.9051 110.274C68.9977 110.524 69.6158 111.898 69.288 113.344C68.9602 114.789 67.8095 115.76 66.7168 115.514C65.6242 115.264 65.0061 113.89 65.3339 112.445Z" fill="white"/>
<path d="M108.937 118.152C108.865 116.699 108.507 115.213 107.821 113.928C107.814 113.931 107.803 113.938 107.797 113.941C109.757 117.879 107.151 125.917 102.654 127.086C102.654 127.096 102.658 127.11 102.661 127.12C106.748 126.255 109.108 122.147 108.94 118.152H108.937Z" fill="white"/>
<path d="M64.1443 124.634C62.0887 122.878 62.2219 116.746 62.7648 114.238C62.7579 114.238 62.7477 114.238 62.7409 114.234C61.8326 116.169 61.1087 122.768 64.414 124.901C64.4174 124.884 64.4242 124.867 64.4277 124.853C64.3764 124.826 64.1921 124.675 64.1443 124.638V124.634Z" fill="white"/>
<path d="M124.651 102.546L124.699 102.457C111.348 94.6373 95.9825 89.169 79.9341 91.5614C73.2279 92.679 66.9793 94.9449 61.4102 98.2703C61.4204 98.2976 61.4341 98.325 61.4443 98.3489C80.7331 87.5285 105.414 93.506 124.651 102.542V102.546Z" fill="white"/>
<path d="M177 149.246C176.471 147.12 175.276 145.479 173.64 144.625C170.81 143.145 168.57 143.747 165.975 144.437C163.284 145.155 159.938 146.05 154.458 144.919C147.912 143.565 147.297 140.695 147.447 136.412C153.071 129.751 157.736 121.808 159.009 113.07C159.89 105.827 157.712 98.6196 155.458 91.8116C154.796 89.9182 154.089 88.0453 153.355 86.1827C153 82.6932 155.68 80.0719 158.787 77.0472C162.171 73.7526 166.006 70.0171 165.678 64.5078C165.336 58.7695 156.018 48.5131 145.668 37.6141L145.45 37.3851C136.053 27.491 127.937 18.9434 122.747 18.7759C114.115 18.5127 100.118 30.0918 86.2757 42.662C83.6875 45.0134 81.1129 47.3271 78.8456 49.3675C71.5146 55.9602 67.6562 59.453 66.9186 60.5775C65.6074 62.57 65.1635 64.9863 64.7299 67.3171C64.2519 69.8906 63.8011 72.3206 62.2782 74.0226C56.8832 79.2995 51.2014 85.5025 49.6512 90.5881C48.603 94.1595 48.562 97.9702 49.0093 101.644C49.559 105.909 50.7302 110.117 52.3863 114.085C52.4204 114.3 52.5024 114.474 52.6048 114.618C51.9936 117.342 51.5326 120.25 51.0785 123.121C50.6722 125.698 50.259 128.302 49.74 130.722C46.2981 134.016 44.2562 132.236 41.6851 129.99C40.2475 128.733 38.7588 127.434 36.9901 127.294C35.1155 127.147 33.4184 128.206 32.4521 130.127C31.1409 132.738 31.1443 137.12 33.8077 141.334C30.9087 140.794 28.2488 140.568 26.4664 142.506C25.0733 144.017 24.7967 147.817 25.8245 151.344C26.9001 155.025 29.0922 157.612 32.056 158.733C32.2131 159.324 32.4214 159.933 32.6775 160.558C35.2384 166.744 42.6821 173.805 51.4268 174.697C59.0276 175.473 66.4645 173.795 72.3717 169.964C76.4213 167.339 79.6344 163.764 81.7788 159.577C82.8304 173.033 92.1112 179.752 96.5262 182.202C99.8998 184.079 103.891 184.892 107.886 184.892C114.418 184.892 120.961 182.715 124.84 179.448C126.451 178.087 127.565 176.584 128.169 175.005C131.061 176.026 133.977 176.587 136.695 176.587C137.135 176.587 137.569 176.573 137.996 176.543C145.132 176.054 150.684 172.855 154.038 169.116C163.27 169.027 170.759 165.767 174.597 160.155C176.953 156.713 177.851 152.632 177.004 149.242L177 149.246ZM51.7921 90.5334C53.0658 87.0508 55.6643 84.2243 58.0305 81.4389C61.3017 77.7649 64.8289 74.3063 68.4039 70.9262C74.895 64.8051 81.6695 58.978 88.4201 53.1474C95.676 46.5035 103.188 40.1363 110.522 33.5812C102.847 39.7399 94.9658 45.6491 87.2318 51.7325C81.2597 56.654 75.4072 61.7429 69.6946 66.9651C68.6771 67.9425 67.4923 69.0499 66.2152 70.2529C66.4201 69.4053 66.584 68.5441 66.7411 67.6862C67.1542 65.4545 67.5435 63.3458 68.6259 61.6984C69.2542 60.7449 74.5775 55.9568 80.2115 50.8883C82.4822 48.8446 85.0567 46.5308 87.6484 44.176C96.1028 36.5068 113.705 20.5394 122.678 20.8265C127.032 20.9666 135.64 30.0303 143.961 38.7966L144.18 39.0256C151.333 46.5582 163.301 59.1625 163.629 64.6274C163.902 69.2002 160.573 72.4402 157.353 75.5776C155.137 77.7376 152.897 79.9454 151.886 82.5873C146.054 68.7901 138.348 55.803 129.716 43.5882C135.473 52.4741 140.034 62.0607 144.644 71.5755C149.991 82.9119 157.254 98.1001 157.179 110.704C156.889 116.617 154.529 122.236 151.548 127.277C150.36 129.262 149.032 131.214 147.615 133.046C147.724 130.342 147.635 127.407 146.29 124.529C143.657 118.903 136.053 112.068 125.949 106.248C115.378 100.161 103.485 95.9606 93.3165 94.7303C81.2836 93.2709 65.1499 93.8041 56.6374 104.618C55.2545 106.374 54.254 108.678 53.4687 111.279C51.0614 104.672 49.6854 97.3345 51.7956 90.5368L51.7921 90.5334ZM34.4291 131.125C34.7535 130.476 35.4979 129.399 36.8091 129.509C37.8471 129.591 38.9978 130.599 40.2202 131.665C42.3816 133.552 45.1918 136.006 48.8966 134.081C47.8108 137.779 46.2879 140.657 43.8397 141.696C41.7602 142.578 39.3871 142.373 37.0037 141.952L37.0174 141.942C33.5209 137.933 33.2272 133.524 34.4326 131.125H34.4291ZM172.76 158.901C169.577 163.552 163.448 166.395 155.769 166.836C156.107 166.303 156.404 165.767 156.653 165.233C158.125 162.089 158.06 159.027 156.472 156.829C154.594 154.229 151.313 154.765 148.137 155.281C145.023 155.79 141.807 156.313 139.229 154.458C133.677 150.459 138.215 141.426 138.286 141.289C138.566 140.746 138.354 140.073 137.812 139.792C137.269 139.512 136.599 139.724 136.316 140.267C136.087 140.708 130.812 151.129 137.935 156.262C141.26 158.658 145.272 158.002 148.496 157.475C151.661 156.959 153.652 156.717 154.676 158.132C155.776 159.652 155.765 161.898 154.645 164.29C152.508 168.86 146.481 173.733 137.839 174.324C134.978 174.519 131.809 173.972 128.664 172.834C128.753 171.744 128.609 170.633 128.224 169.526C127.172 166.512 124.689 166.05 122.286 165.606C119.694 165.128 117.01 164.632 114.842 161.19C111.721 156.242 112.988 151.484 113.012 151.395C113.179 150.807 112.841 150.192 112.254 150.021C111.666 149.851 111.048 150.192 110.881 150.78C110.813 151.013 109.283 156.529 112.967 162.376C115.655 166.642 119.11 167.277 121.886 167.793C124.263 168.234 125.533 168.542 126.13 170.257C127.285 173.573 125.287 176.16 123.406 177.746C117.714 182.541 105.469 184.636 97.5984 180.261C92.8726 177.636 82.1031 169.711 84.1553 152.882C84.227 152.294 83.8241 151.751 83.2402 151.652C82.6563 151.553 82.0963 151.928 81.97 152.506C79.0437 165.794 66.5737 174.013 51.6487 172.482C44.0479 171.703 37.0754 165.374 34.7262 159.7C33.6233 157.034 33.6233 154.816 34.7262 153.46C36.1535 151.706 38.95 152.284 42.187 152.957C45.5674 153.658 49.402 154.454 52.7141 152.691C59.7959 148.924 60.7997 139.468 60.8407 139.068C60.9022 138.456 60.4549 137.913 59.8437 137.854C59.2359 137.793 58.6895 138.241 58.6315 138.852C58.6247 138.938 57.7164 147.516 51.6726 150.732C49.0673 152.116 45.7996 151.44 42.6377 150.784C39.0217 150.032 35.2828 149.259 33.0053 152.058C32.1243 153.142 31.6873 154.512 31.6873 156.084C29.4371 154.697 28.4025 152.243 27.9551 150.715C27.0537 147.629 27.4327 144.727 28.0951 144.006C29.3073 142.69 31.817 143.189 34.7194 143.77C37.8778 144.403 41.4563 145.117 44.7104 143.736C50.4468 141.303 51.816 132.636 53.2706 123.463C54.3394 116.702 55.4457 109.713 58.3822 105.988C66.2596 95.9846 81.5841 95.5403 93.0536 96.9313C114.681 99.5526 139.304 114.813 144.286 125.469C145.665 128.415 145.491 131.518 145.324 134.515C145.03 139.755 144.729 145.175 154.014 147.092C160.01 148.33 163.636 147.362 166.552 146.583C168.963 145.941 170.554 145.513 172.62 146.593C173.685 147.151 174.48 148.282 174.853 149.782C175.549 152.568 174.767 155.975 172.766 158.901H172.76Z" fill="black"/>
</svg>
