<svg width="360" height="724" viewBox="0 0 360 724" fill="none" xmlns="http://www.w3.org/2000/svg">
<g clip-path="url(#clip0_1083_16995)">
<path d="M-10 359.508C-10 359.508 21.1284 347 66.3721 347C111.616 347 128.03 359.508 157.749 359.508C187.468 359.508 193.268 349.502 223.843 349.502C254.417 349.502 261.513 359.508 300.547 359.508C339.582 359.508 370 349.502 370 349.502L370 724.5H-10V359.508Z" fill="#5DCBF5"/>
<path d="M66.37 347C111.617 347 128.028 361.189 157.747 361.189C187.467 361.189 193.267 349.838 223.841 349.838C254.416 349.838 259.744 361.132 300.547 361.189C339.584 361.246 370 349.838 370 349.838V360.243C370 360.243 332.351 361.605 300.549 364.595C261.596 368.254 254.416 355.892 223.844 355.892C193.272 355.892 187.469 361.946 157.75 361.946C136.763 361.946 113.725 355.695 90.5477 352.468C67.1722 349.214 60.4034 348.903 47.1139 349.384C17.2467 350.462 -10 375 -10 375V361.189C-10 361.189 21.1259 347 66.37 347Z" fill="#418EAB"/>
<path d="M260.897 371.034C259.09 370.673 257.743 369.495 257.887 368.403C258.032 367.311 259.614 366.719 261.42 367.08C263.227 367.441 264.574 368.619 264.43 369.711C264.285 370.803 262.703 371.396 260.897 371.034Z" fill="#418EAB"/>
<path d="M74.8838 359.68C72.7736 359.503 71.1203 358.326 71.191 357.05C71.2618 355.775 73.0298 354.884 75.14 355.061C77.2503 355.238 78.9036 356.415 78.8328 357.69C78.7621 358.966 76.994 359.857 74.8838 359.68Z" fill="#418EAB"/>
<path d="M7.45503 369.34C7.15911 368.115 8.56171 366.523 10.5879 365.783C12.614 365.044 14.4964 365.437 14.7923 366.662C15.0882 367.887 13.6856 369.479 11.6595 370.218C9.63335 370.958 7.75095 370.565 7.45503 369.34Z" fill="#418EAB"/>
<path d="M58 356.5C58 357.881 60.2381 359 63 359C65.762 359 68 357.881 68 356.5C68 355.119 65.762 354 63 354C60.2381 354 58 355.119 58 356.5Z" fill="#418EAB"/>
<path d="M271.887 374.009C269.15 373.462 267.048 372.133 267.193 371.041C267.337 369.949 269.673 369.507 272.411 370.055C275.148 370.602 277.25 371.931 277.105 373.023C276.961 374.115 274.625 374.556 271.887 374.009Z" fill="#418EAB"/>
<path d="M168.731 311.363C168.731 311.363 156.75 303.049 151.178 311.293C147.559 316.649 151.205 321.371 144.862 321.588C144.484 321.602 144.249 322.01 144.444 322.335C145.463 324.029 147.947 330.598 153.822 328.094C161.26 324.922 157.517 318.318 164.884 317.467" fill="#C05534"/>
<path d="M168.731 311.363C168.731 311.363 156.75 303.049 151.178 311.293C147.559 316.649 151.205 321.371 144.862 321.588C144.484 321.602 144.249 322.01 144.444 322.335C145.463 324.029 147.947 330.598 153.822 328.094C161.26 324.922 157.517 318.318 164.884 317.467" stroke="#231F20" stroke-miterlimit="10"/>
<path d="M221.291 309.811C221.463 309.116 222.437 309.077 222.648 309.759C224.025 314.192 225.423 323.782 213.467 327.395C197.689 332.162 175.716 333.031 175.716 333.031L164.598 328.814C164.598 328.814 158.338 313.002 160.862 302.645C160.939 302.322 160.75 301.998 160.42 301.93C158.266 301.513 151.502 298.655 158.196 278.954C158.347 278.513 158.183 278.034 157.801 277.768C156.099 276.586 152.177 272.53 158.811 262.804C166.976 250.833 170.882 242.489 178.624 247.598C183.634 250.908 192.205 258.202 192.205 258.202C192.205 258.202 200.94 264.5 197.704 268.05C197.453 268.325 197.445 268.745 197.707 269.007C200.817 272.089 216.781 288.572 206.871 292.911C206.543 293.056 206.426 293.479 206.653 293.759C207.58 294.916 209.316 297.966 208.359 303.863C207.62 308.408 207.738 316.617 212.175 317.161C217.368 317.798 219.994 315.015 221.297 309.806L221.291 309.811Z" fill="#EC6A3B"/>
<mask id="mask0_1083_16995" style="mask-type:luminance" maskUnits="userSpaceOnUse" x="155" y="246" width="69" height="88">
<path d="M221.291 309.811C221.463 309.116 222.437 309.077 222.648 309.759C224.025 314.192 225.423 323.782 213.467 327.395C197.689 332.162 175.716 333.031 175.716 333.031L164.598 328.814C164.598 328.814 158.338 313.002 160.862 302.645C160.939 302.322 160.75 301.998 160.42 301.93C158.266 301.513 151.502 298.655 158.196 278.954C158.347 278.513 158.183 278.034 157.801 277.768C156.099 276.586 152.177 272.53 158.811 262.804C166.976 250.833 170.882 242.489 178.624 247.598C183.634 250.908 192.205 258.202 192.205 258.202C192.205 258.202 200.94 264.5 197.704 268.05C197.453 268.325 197.445 268.745 197.707 269.007C200.817 272.089 216.781 288.572 206.871 292.911C206.543 293.056 206.426 293.479 206.653 293.759C207.58 294.916 209.316 297.966 208.359 303.863C207.62 308.408 207.738 316.617 212.175 317.161C217.368 317.798 219.994 315.015 221.297 309.806L221.291 309.811Z" fill="white"/>
</mask>
<g mask="url(#mask0_1083_16995)">
<path d="M162.973 253.053C162.973 253.053 154.515 268.82 161.188 271.754L157.629 280.688L151.801 274.654L153.813 258.97L162.974 253.047L162.973 253.053Z" fill="#C05534"/>
<path d="M169.354 292.748C169.354 292.748 164.209 296.501 160.895 295.225C157.582 293.95 155.573 286.247 156.11 280.184C156.646 274.122 151.135 293.498 151.135 293.498L153.036 300.433L158.075 304.217L160.505 304.515C160.505 304.515 162.278 296.794 169.354 292.748Z" fill="#C05534"/>
</g>
<path d="M221.297 309.806C221.403 308.939 222.437 309.077 222.648 309.759C224.025 314.192 225.423 323.782 213.467 327.395C197.689 332.162 175.716 333.031 175.716 333.031L164.598 328.814C164.598 328.814 158.338 313.002 160.862 302.645C160.939 302.322 160.75 301.998 160.42 301.93C158.266 301.513 151.502 298.655 158.196 278.954C158.347 278.513 158.183 278.034 157.801 277.768C156.099 276.586 152.177 272.53 158.811 262.804C166.976 250.833 170.882 242.489 178.624 247.598C183.634 250.908 192.205 258.202 192.205 258.202C192.205 258.202 200.94 264.5 197.704 268.05C197.453 268.325 197.445 268.745 197.707 269.007C200.817 272.089 216.781 288.572 206.871 292.911C206.543 293.056 206.426 293.479 206.653 293.759C207.58 294.916 209.316 297.966 208.359 303.863C207.62 308.408 207.738 316.617 212.175 317.161C217.368 317.798 219.994 315.015 221.297 309.806Z" stroke="#231F20" stroke-miterlimit="10" stroke-linecap="round"/>
<path d="M248.87 307.94L246.636 304.993C246.636 304.993 249.396 298.383 246.915 298.052C246.915 298.052 245.865 297.819 244.87 299.599C244.772 299.779 244.52 299.791 244.398 299.629C243.514 298.482 240.652 295.151 238.619 297.182C235.96 299.835 236.427 303.156 239.716 305.21C244.397 308.135 245.794 310.395 245.794 310.395L248.865 307.934L248.87 307.94Z" fill="#B18765" stroke="#231F20" stroke-miterlimit="10"/>
<path d="M284.591 312.42C284.591 312.42 293.235 313.157 297.981 323.153C302.728 333.144 297.074 351.595 297.074 351.595L245.621 347.317C245.621 347.317 247.911 331.133 255.572 318.919C255.572 318.919 245.816 316.624 242.21 309.075C241.994 308.616 242.121 308.063 242.537 307.776L247.561 304.297C247.965 304.019 248.505 304.063 248.849 304.411C250.638 306.216 256.455 311.309 263.63 309.532C272.304 307.387 284.58 312.424 284.58 312.424L284.591 312.42Z" fill="white" stroke="#231F20" stroke-miterlimit="10"/>
<path d="M289.214 313.889C289.214 313.889 282.58 320.302 268.398 317.016C256.652 314.291 264.057 306.102 264.057 306.102L289.214 313.889Z" fill="#D1D3D4"/>
<path d="M334.941 334.738C321.89 336.117 275.251 335.366 141.129 317.303C139.86 317.131 138.806 318.27 139.134 319.513C140.769 325.722 147.539 341.64 153.499 349.8C153.499 349.8 158.335 357.047 170.487 358.537C191.717 361.141 270.87 372.751 300.372 371.548C300.454 371.547 300.535 371.546 300.616 371.556C301.673 371.686 312.529 372.055 336.578 337.53C337.449 336.276 336.458 334.574 334.941 334.738Z" fill="#B18765"/>
<mask id="mask1_1083_16995" style="mask-type:luminance" maskUnits="userSpaceOnUse" x="139" y="317" width="198" height="55">
<path d="M334.941 334.738C321.89 336.117 275.251 335.366 141.129 317.303C139.86 317.131 138.806 318.27 139.134 319.513C140.769 325.722 147.539 341.64 153.499 349.8C153.499 349.8 158.335 357.047 170.487 358.537C191.717 361.141 270.87 372.751 300.372 371.548C300.454 371.547 300.535 371.546 300.616 371.556C301.673 371.686 312.529 372.055 336.578 337.53C337.449 336.276 336.458 334.574 334.941 334.738Z" fill="white"/>
</mask>
<g mask="url(#mask1_1083_16995)">
<path d="M231.958 324.639C231.958 324.639 248.512 338.461 250.722 376.239L254.491 376.412C254.491 376.412 253.845 342.827 234.326 322.726L231.958 324.639Z" fill="#967257"/>
<path d="M328.674 326.311L342.995 335.666L313.127 375.409L247.682 371.783L159.174 360.927C159.174 360.927 139.361 342.611 139.432 342.029C139.502 341.447 132.367 309.827 132.367 309.827L140.95 309.508C140.95 309.508 143.817 344.431 173.141 352.516C202.465 360.601 276.699 369.951 296.915 364.056C317.132 358.16 324.554 325.8 324.554 325.8L328.675 326.306L328.674 326.311Z" fill="#967257"/>
<path d="M334.922 331.21C334.922 331.21 310.639 369.719 293.783 371.626" stroke="#231F20" stroke-miterlimit="10"/>
</g>
<path d="M334.941 334.738C321.89 336.117 275.251 335.366 141.129 317.303C139.86 317.131 138.806 318.27 139.134 319.513C140.769 325.722 147.539 341.64 153.499 349.8C153.499 349.8 158.335 357.047 170.487 358.537C191.717 361.141 270.87 372.751 300.372 371.548C300.454 371.547 300.535 371.546 300.616 371.556C301.673 371.686 312.529 372.055 336.578 337.53C337.449 336.276 336.458 334.574 334.941 334.738Z" stroke="#231F20" stroke-miterlimit="10"/>
<path d="M143.31 330.817C143.31 330.817 279.727 351.501 321.672 349.479" stroke="#231F20" stroke-miterlimit="10"/>
<path d="M231.51 316.023L237.675 323.934C237.958 324.297 237.894 324.823 237.532 325.107L237.013 325.515C236.65 325.799 236.127 325.735 235.844 325.372L229.68 317.46C229.397 317.097 229.46 316.572 229.823 316.287L230.342 315.879C230.704 315.595 231.227 315.659 231.51 316.023Z" fill="#B18765" stroke="#231F20" stroke-miterlimit="10"/>
<path d="M149.829 344.042C149.829 344.042 268.223 364.003 310.168 361.98" stroke="#231F20" stroke-miterlimit="10"/>
<path d="M237.064 319.826C239.543 320.13 241.309 322.396 241.006 324.885C240.703 327.373 238.446 329.146 235.967 328.842C233.488 328.538 231.722 326.272 232.025 323.783C232.328 321.295 234.585 319.522 237.064 319.826ZM236.308 326.041C237.247 326.157 238.096 325.484 238.21 324.547C238.324 323.61 237.656 322.752 236.722 322.637C235.788 322.523 234.934 323.194 234.819 324.131C234.705 325.069 235.374 325.927 236.308 326.041Z" fill="#B18765" stroke="#231F20" stroke-miterlimit="10"/>
<path d="M236.959 323.02L288.897 389.678C289.181 390.041 289.117 390.567 288.755 390.851L288.235 391.259C287.873 391.543 287.35 391.479 287.067 391.116L235.128 324.458C234.845 324.095 234.909 323.569 235.271 323.285L235.791 322.877C236.153 322.593 236.676 322.657 236.959 323.02Z" fill="#B18765" stroke="#231F20" stroke-miterlimit="10"/>
<path d="M285.755 398.965C286.585 401.095 287.859 403.017 289.501 404.607L298.75 414.329C299.791 415.665 301.717 415.901 303.053 414.857L307.882 411.065C309.212 410.02 309.448 408.086 308.407 406.745L301.427 395.688C300.227 393.6 298.597 391.787 296.644 390.378C296.644 390.378 289.836 385.694 287.808 387.283L285.099 389.41C282.847 391.179 285.756 398.954 285.756 398.954L285.755 398.965Z" fill="#B18765" stroke="#231F20" stroke-miterlimit="10"/>
<path d="M267.376 285.817C267.376 285.817 257.776 279.506 253.304 287.087C248.831 294.667 254.75 304.375 263.924 302.505C273.098 300.634 267.376 285.817 267.376 285.817Z" fill="#B18765" stroke="#231F20" stroke-miterlimit="10"/>
<path d="M263.884 287.658C263.595 287.71 258.333 284.856 256.125 289.576C253.918 294.297 256.561 297.54 258.626 299.007C260.691 300.474 263.884 287.658 263.884 287.658Z" fill="#FCC38A"/>
<path d="M264.34 282.739C264.34 282.739 267.35 270.846 286.895 276.464C286.895 276.464 300.819 279.368 301.649 288.884C301.649 288.884 306.803 287.379 310.554 291.545C314.305 295.712 313.254 300.858 311.025 304.007C308.796 307.156 303.664 310.801 297.716 308.361C297.716 308.361 289.144 319.287 269.915 313.933C269.915 313.933 256.459 310.145 257.186 300.678C257.912 291.217 261.106 295.315 264.341 282.734L264.34 282.739Z" fill="#B18765"/>
<mask id="mask2_1083_16995" style="mask-type:luminance" maskUnits="userSpaceOnUse" x="257" y="274" width="57" height="42">
<path d="M264.34 282.739C264.34 282.739 267.35 270.846 286.895 276.464C286.895 276.464 300.819 279.368 301.649 288.884C301.649 288.884 306.803 287.379 310.554 291.545C314.305 295.712 313.254 300.858 311.025 304.007C308.796 307.156 303.664 310.801 297.716 308.361C297.716 308.361 289.144 319.287 269.915 313.933C269.915 313.933 256.459 310.145 257.186 300.678C257.912 291.217 261.106 295.315 264.341 282.734L264.34 282.739Z" fill="white"/>
</mask>
<g mask="url(#mask2_1083_16995)">
<path d="M263.532 284.942C263.532 284.942 268.411 277.422 276.948 285.171C277.364 285.551 277.952 285.694 278.433 285.403C280.66 284.063 286.925 281.131 291.622 286.966C291.622 286.966 295.174 291.829 292.511 295.319C292.149 295.793 292.203 296.462 292.633 296.87C294.962 299.074 298.761 306.833 288.99 314.682L277.685 322.43C277.685 322.43 258.151 310.32 257.502 309.923C256.854 309.527 252.854 301.946 252.854 301.946L263.531 284.947L263.532 284.942Z" fill="#FCC38A"/>
</g>
<path d="M264.34 282.739C264.34 282.739 267.35 270.846 286.895 276.464C286.895 276.464 300.819 279.368 301.649 288.884C301.649 288.884 306.803 287.379 310.554 291.545C314.305 295.712 313.254 300.858 311.025 304.007C308.796 307.156 303.664 310.801 297.716 308.361C297.716 308.361 289.52 318.661 269.915 313.933C269.915 313.933 255.931 310.988 257.186 300.678C258.094 293.213 261.106 295.315 264.341 282.734L264.34 282.739Z" stroke="#231F20" stroke-miterlimit="10"/>
<path d="M296.657 279.711C296.657 279.711 282.621 283.494 266.553 278.123C250.484 272.752 278.039 272.999 278.039 272.999L296.657 279.711Z" fill="#3A3735" stroke="#231F20" stroke-miterlimit="10"/>
<path d="M301.2 285.627C290.646 277.755 278.777 274.601 267.376 273.478C267.341 273.423 267.295 273.32 267.252 273.155C267.161 272.813 267.11 272.34 267.087 271.836C267.064 271.339 267.068 270.842 267.079 270.466C267.084 270.279 267.091 270.124 267.096 270.016C267.099 269.961 267.102 269.919 267.103 269.891L267.104 269.876C267.596 267.2 268.611 265.431 269.922 264.331C271.238 263.227 272.907 262.75 274.79 262.766C278.585 262.798 283.133 264.833 286.936 267.527C291.46 270.733 295.271 271.329 298.337 271.808C298.634 271.854 298.923 271.899 299.206 271.946C300.811 272.209 302.139 272.503 303.28 273.199C304.404 273.884 305.393 274.989 306.238 276.963L301.2 285.627ZM301.2 285.627C301.228 285.617 301.258 285.606 301.29 285.594C301.508 285.515 301.817 285.393 302.18 285.226C302.91 284.891 303.841 284.379 304.679 283.669C305.516 282.959 306.238 282.07 306.587 280.981C306.933 279.903 306.931 278.581 306.238 276.963L301.2 285.627Z" fill="white" stroke="#231F20" stroke-miterlimit="10"/>
<path d="M283.004 294.365C282.047 294.248 281.366 293.374 281.483 292.413C281.6 291.452 282.47 290.768 283.427 290.886C284.384 291.003 285.065 291.877 284.948 292.838C284.832 293.799 283.961 294.483 283.004 294.365Z" fill="#231F20" stroke="#231F20" stroke-miterlimit="10"/>
<path d="M267.476 292.461C266.519 292.344 265.838 291.47 265.955 290.509C266.072 289.548 266.943 288.864 267.9 288.981C268.857 289.099 269.538 289.973 269.421 290.934C269.304 291.895 268.434 292.578 267.476 292.461Z" fill="#231F20" stroke="#231F20" stroke-miterlimit="10"/>
<path d="M274.261 294.791C272.758 294.607 271.621 293.796 271.72 292.981C271.819 292.166 273.117 291.655 274.62 291.839C276.122 292.023 277.259 292.833 277.16 293.649C277.061 294.464 275.763 294.975 274.261 294.791Z" fill="#231F20" stroke="#231F20" stroke-miterlimit="10"/>
<path d="M267.461 296.521C264.576 295.035 264.235 304.949 273.723 306.271C283.211 307.593 285.231 298.689 281.984 298.838C274.971 299.153 271.422 298.559 267.461 296.521Z" fill="#231F20"/>
<mask id="mask3_1083_16995" style="mask-type:luminance" maskUnits="userSpaceOnUse" x="265" y="296" width="19" height="11">
<path d="M267.461 296.521C264.576 295.035 264.235 304.949 273.723 306.271C283.211 307.593 285.231 298.689 281.984 298.838C274.971 299.153 271.422 298.559 267.461 296.521Z" fill="white"/>
</mask>
<g mask="url(#mask3_1083_16995)">
<path d="M283.339 306.061C283.339 306.061 281.36 303.572 276.026 302.972C270.692 302.373 267.864 306.142 267.864 306.142C267.864 306.142 277.684 313.601 283.339 306.061Z" fill="#F79F88"/>
</g>
<path d="M267.461 296.521C264.576 295.035 264.235 304.949 273.723 306.271C283.211 307.593 285.231 298.689 281.984 298.838C274.971 299.153 271.422 298.559 267.461 296.521Z" stroke="#231F20" stroke-miterlimit="10"/>
<path d="M301.11 293.377C301.11 293.377 301.004 300.066 298.931 304.3C298.931 304.3 306.228 306.764 308.487 299.874C310.747 292.984 303.272 291.357 301.111 293.371L301.11 293.377Z" fill="#FCC38A"/>
<path d="M280.267 326.54C280.267 326.54 282.539 329.754 279.479 333.014L269.561 332.181C269.561 332.181 269.371 329.85 271.512 327.604C274.031 324.961 280.267 326.54 280.267 326.54Z" fill="#B18765" stroke="#231F20" stroke-miterlimit="10"/>
<path d="M290.977 326.438C290.977 326.438 286.716 327.758 280.26 326.534" stroke="#231F20" stroke-miterlimit="10" stroke-linecap="round"/>
<path d="M177.081 310.14C177.081 310.14 170.955 304.326 164.972 308.119C159.52 311.578 159.271 319.665 153.387 317.276C153.039 317.135 152.656 317.416 152.704 317.788C152.95 319.748 154.209 324.44 160.594 324.545C168.674 324.684 167.923 317.118 175.003 319.343" fill="#EC6A3B"/>
<path d="M177.081 310.14C177.081 310.14 170.955 304.326 164.972 308.119C159.52 311.578 159.271 319.665 153.387 317.276C153.039 317.135 152.656 317.416 152.704 317.788C152.95 319.748 154.209 324.44 160.594 324.545C168.674 324.684 167.923 317.118 175.003 319.343" stroke="#231F20" stroke-miterlimit="10" stroke-linecap="round"/>
<path d="M193.755 288.661C193.755 288.661 200.142 287.723 206.654 293.77L193.755 288.661Z" fill="#EC6A3B"/>
<path d="M193.755 288.661C193.755 288.661 200.142 287.723 206.654 293.77" stroke="#231F20" stroke-miterlimit="10" stroke-linecap="round"/>
<path d="M177.008 289.778C177.008 289.778 165.663 291.316 160.865 302.645L177.008 289.778Z" fill="#EC6A3B"/>
<path d="M177.008 289.778C177.008 289.778 165.663 291.316 160.865 302.645" stroke="#231F20" stroke-miterlimit="10" stroke-linecap="round"/>
<path d="M164.461 265.924C164.461 265.924 159.941 273.04 158.198 278.954L164.461 265.924Z" fill="#EC6A3B"/>
<path d="M164.461 265.924C164.461 265.924 159.941 273.04 158.198 278.954" stroke="#231F20" stroke-miterlimit="10" stroke-linecap="round"/>
<path d="M189.291 262.076C189.291 262.076 193.465 264.463 197.714 269.013L189.291 262.076Z" fill="#EC6A3B"/>
<path d="M189.291 262.076C189.291 262.076 193.465 264.463 197.714 269.013" stroke="#231F20" stroke-miterlimit="10" stroke-linecap="round"/>
<path d="M185.315 305.65C183.519 305.43 182.299 303.317 182.589 300.932C182.879 298.546 184.57 296.79 186.366 297.011C188.162 297.231 189.382 299.343 189.092 301.729C188.801 304.115 187.11 305.87 185.315 305.65Z" fill="#231F20" stroke="#231F20" stroke-miterlimit="10" stroke-linecap="round"/>
<path d="M200.733 307.104C198.937 306.884 197.717 304.771 198.007 302.385C198.297 300 199.988 298.244 201.784 298.464C203.58 298.685 204.8 300.797 204.51 303.183C204.219 305.569 202.528 307.324 200.733 307.104Z" fill="#231F20" stroke="#231F20" stroke-miterlimit="10" stroke-linecap="round"/>
<path d="M202.175 303.727C201.363 303.627 200.812 302.671 200.943 301.591C201.075 300.512 201.839 299.717 202.651 299.817C203.463 299.916 204.015 300.872 203.883 301.952C203.752 303.032 202.987 303.827 202.175 303.727Z" fill="white"/>
<path d="M186.792 302.371C185.981 302.271 185.429 301.315 185.56 300.235C185.692 299.156 186.456 298.361 187.268 298.46C188.08 298.56 188.632 299.516 188.5 300.596C188.369 301.676 187.604 302.471 186.792 302.371Z" fill="white"/>
<path d="M66.37 346C111.617 346 128.028 357.806 157.747 357.806C187.467 357.806 193.267 348.361 223.841 348.361C254.416 348.361 259.744 357.758 300.547 357.806C339.584 357.853 370 348.361 370 348.361V350.722C370 350.722 332.351 360.041 300.549 362.528C261.596 365.572 254.416 350.25 223.844 350.25C193.272 350.25 187.469 359.694 157.75 359.694C136.763 359.694 113.725 354.809 90.5477 352.123C67.1722 349.416 60.4034 348.843 47.1139 349.243C17.2467 350.14 -10 363 -10 363V357.806C-10 357.806 21.1259 346 66.37 346Z" fill="white"/>
<path d="M211.371 392.441L213.222 398.808L211.371 405.163L221.637 402.091C221.637 402.091 249.005 410.014 259.493 398.808C259.493 398.808 247.512 387.167 222.044 395.948L211.371 392.441Z" fill="#2DABE0"/>
<path d="M241.652 400.686H240.594L240.287 399.766H238.44L238.126 400.686H237.068L238.959 395.488H239.754L241.652 400.686ZM240.017 398.912L239.382 397.021L238.725 398.912H240.017ZM243.307 400.686H242.293V395.488H243.307V400.686Z" fill="#5DCBF5"/>
<path d="M250.004 433L252.536 441.029L250.004 449.041L264.046 445.168C264.046 445.168 301.48 455.158 315.826 441.029C315.826 441.029 299.438 426.351 264.603 437.422L250.004 433Z" fill="#2DABE0"/>
<path d="M278.07 442.904H277.012L276.705 441.985H274.858L274.544 442.904H273.486L275.377 437.707H276.172L278.07 442.904ZM276.435 441.13L275.8 439.24L275.143 441.13H276.435ZM281.799 442.904H280.85V440.605C280.85 440.366 280.786 440.191 280.66 440.079C280.538 439.967 280.392 439.911 280.222 439.911C280.047 439.911 279.896 439.967 279.769 440.079C279.647 440.191 279.587 440.366 279.587 440.605V442.904H278.638V439.101H279.565V439.451C279.813 439.189 280.129 439.057 280.514 439.057C280.889 439.057 281.188 439.169 281.412 439.393C281.67 439.651 281.799 440.011 281.799 440.473V442.904ZM285.699 442.904H284.772V442.576C284.64 442.707 284.504 442.802 284.363 442.861C284.227 442.914 284.051 442.941 283.837 442.941C283.414 442.941 283.09 442.829 282.866 442.605C282.657 442.386 282.552 442.101 282.552 441.751C282.552 441.43 282.664 441.167 282.888 440.963C283.112 440.753 283.438 440.649 283.866 440.649H284.75V440.459C284.75 440.249 284.694 440.099 284.582 440.006C284.47 439.909 284.29 439.86 284.042 439.86C283.745 439.86 283.501 439.97 283.312 440.189L282.713 439.597C282.898 439.393 283.09 439.252 283.29 439.174C283.494 439.096 283.757 439.057 284.078 439.057C285.159 439.057 285.699 439.505 285.699 440.4V442.904ZM284.75 441.503V441.298H284.027C283.652 441.298 283.465 441.444 283.465 441.736C283.465 442.024 283.657 442.167 284.042 442.167C284.29 442.167 284.477 442.106 284.604 441.985C284.701 441.902 284.75 441.741 284.75 441.503ZM288.336 442.904H287.795C287.43 442.904 287.153 442.797 286.963 442.583C286.778 442.369 286.686 442.114 286.686 441.817V437.707H287.635V441.758C287.635 441.987 287.747 442.101 287.971 442.101H288.336V442.904ZM291.92 439.101L290.292 443.518C290.209 443.737 290.114 443.9 290.007 444.007C289.812 444.201 289.54 444.299 289.189 444.299H288.817V443.445H289.036C289.172 443.445 289.272 443.42 289.335 443.372C289.403 443.328 289.462 443.238 289.51 443.102L289.671 442.634L288.372 439.101H289.372L290.16 441.452L290.919 439.101H291.92ZM294.191 442.904H293.673C293.313 442.904 293.038 442.797 292.848 442.583C292.663 442.369 292.57 442.114 292.57 441.817V439.933H292.169V439.21H292.57V438.086H293.519V439.21H294.191V439.933H293.519V441.758C293.519 441.987 293.629 442.101 293.848 442.101H294.191V442.904ZM295.998 442.904H295.049V439.21H295.998V442.904ZM296.006 438.451H295.035V437.677H296.006V438.451ZM299.827 442.43C299.496 442.775 299.077 442.948 298.571 442.948C298.41 442.948 298.255 442.931 298.104 442.897C297.953 442.858 297.8 442.795 297.644 442.707C297.493 442.615 297.362 442.498 297.25 442.357C297.138 442.211 297.045 442.024 296.972 441.795C296.904 441.561 296.87 441.296 296.87 440.999C296.87 440.702 296.904 440.439 296.972 440.211C297.045 439.977 297.138 439.79 297.25 439.648C297.362 439.507 297.493 439.39 297.644 439.298C297.8 439.206 297.953 439.142 298.104 439.108C298.255 439.074 298.41 439.057 298.571 439.057C299.082 439.057 299.501 439.227 299.827 439.568L299.184 440.211C298.999 440.011 298.795 439.911 298.571 439.911C298.347 439.911 298.167 439.994 298.031 440.159C297.89 440.335 297.819 440.615 297.819 440.999C297.819 441.388 297.89 441.671 298.031 441.846C298.167 442.011 298.347 442.094 298.571 442.094C298.795 442.094 298.999 441.994 299.184 441.795L299.827 442.43ZM303.322 441.707C303.322 442.111 303.171 442.42 302.87 442.634C302.568 442.844 302.181 442.948 301.709 442.948C301.358 442.948 301.057 442.912 300.804 442.839C300.55 442.766 300.312 442.62 300.088 442.401L300.709 441.78C300.942 442.019 301.281 442.138 301.723 442.138C301.908 442.138 302.067 442.106 302.198 442.043C302.329 441.975 302.395 441.875 302.395 441.744C302.395 441.534 302.261 441.418 301.994 441.393L301.38 441.335C300.65 441.262 300.285 440.907 300.285 440.269C300.285 439.889 300.426 439.592 300.709 439.378C300.996 439.164 301.344 439.057 301.753 439.057C302.4 439.057 302.884 439.206 303.205 439.502L302.621 440.094C302.432 439.923 302.137 439.838 301.738 439.838C301.558 439.838 301.422 439.875 301.329 439.948C301.242 440.016 301.198 440.101 301.198 440.203C301.198 440.393 301.329 440.503 301.592 440.532L302.191 440.59C302.945 440.663 303.322 441.036 303.322 441.707Z" fill="#5DCBF5"/>
<path d="M140 530L143.425 541.068L140 552.114L158.998 546.774C158.998 546.774 209.644 560.547 229.053 541.068C229.053 541.068 206.881 520.834 159.752 536.096L140 530Z" fill="#2DABE0"/>
<path d="M173.302 539.196C173.341 539.449 173.361 539.831 173.361 540.342C173.361 540.853 173.341 541.238 173.302 541.496C173.268 541.749 173.178 541.977 173.032 542.182C172.667 542.688 172.144 542.941 171.463 542.941H169.586V537.743H171.463C172.144 537.743 172.667 537.996 173.032 538.502C173.178 538.707 173.268 538.938 173.302 539.196ZM172.309 541.277C172.334 541.092 172.346 540.78 172.346 540.342C172.346 539.904 172.334 539.593 172.309 539.408C172.285 539.223 172.227 539.077 172.134 538.97C171.964 538.755 171.711 538.648 171.375 538.648H170.601V542.036H171.375C171.711 542.036 171.964 541.929 172.134 541.715C172.227 541.607 172.285 541.461 172.309 541.277ZM177.202 542.941H176.275V542.613C176.143 542.744 176.007 542.839 175.866 542.897C175.73 542.951 175.555 542.978 175.34 542.978C174.917 542.978 174.593 542.866 174.369 542.642C174.16 542.423 174.056 542.138 174.056 541.788C174.056 541.466 174.168 541.204 174.391 540.999C174.615 540.79 174.941 540.685 175.37 540.685H176.253V540.495C176.253 540.286 176.197 540.135 176.085 540.043C175.973 539.945 175.793 539.897 175.545 539.897C175.248 539.897 175.005 540.006 174.815 540.225L174.216 539.634C174.401 539.43 174.593 539.288 174.793 539.211C174.997 539.133 175.26 539.094 175.581 539.094C176.662 539.094 177.202 539.541 177.202 540.437V542.941ZM176.253 541.539V541.335H175.53C175.156 541.335 174.968 541.481 174.968 541.773C174.968 542.06 175.16 542.204 175.545 542.204C175.793 542.204 175.98 542.143 176.107 542.021C176.204 541.938 176.253 541.778 176.253 541.539ZM181.387 542.941H180.437V540.641C180.437 540.403 180.374 540.228 180.248 540.116C180.126 540.004 179.98 539.948 179.81 539.948C179.634 539.948 179.484 540.004 179.357 540.116C179.235 540.228 179.174 540.403 179.174 540.641V542.941H178.225V539.138H179.153V539.488C179.401 539.225 179.717 539.094 180.102 539.094C180.476 539.094 180.776 539.206 181 539.43C181.258 539.687 181.387 540.048 181.387 540.51V542.941ZM185.871 542.941H184.695L183.761 541.357L183.359 541.809V542.941H182.41V537.743H183.359V540.693L184.622 539.138H185.769L184.411 540.671L185.871 542.941ZM188.342 541.298H186.094V540.415H188.342V541.298ZM192.166 541.744C192.166 542.148 192.015 542.457 191.714 542.671C191.412 542.88 191.025 542.985 190.553 542.985C190.202 542.985 189.901 542.948 189.648 542.875C189.394 542.802 189.156 542.656 188.932 542.437L189.553 541.817C189.786 542.055 190.124 542.174 190.567 542.174C190.752 542.174 190.91 542.143 191.042 542.08C191.173 542.011 191.239 541.912 191.239 541.78C191.239 541.571 191.105 541.454 190.837 541.43L190.224 541.371C189.494 541.298 189.129 540.943 189.129 540.306C189.129 539.926 189.27 539.629 189.553 539.415C189.84 539.201 190.188 539.094 190.597 539.094C191.244 539.094 191.728 539.242 192.049 539.539L191.465 540.13C191.276 539.96 190.981 539.875 190.582 539.875C190.402 539.875 190.266 539.911 190.173 539.984C190.086 540.053 190.042 540.138 190.042 540.24C190.042 540.43 190.173 540.539 190.436 540.568L191.035 540.627C191.789 540.7 192.166 541.072 192.166 541.744ZM196.123 542.941H195.174V540.641C195.174 540.403 195.11 540.228 194.984 540.116C194.862 540.004 194.716 539.948 194.546 539.948C194.371 539.948 194.22 540.004 194.093 540.116C193.972 540.228 193.911 540.403 193.911 540.641V542.941H192.962V537.743H193.911V539.488C194.149 539.225 194.458 539.094 194.838 539.094C195.213 539.094 195.512 539.206 195.736 539.43C195.994 539.687 196.123 540.048 196.123 540.51V542.941ZM200.023 542.941H199.096V542.613C198.964 542.744 198.828 542.839 198.687 542.897C198.551 542.951 198.376 542.978 198.161 542.978C197.738 542.978 197.414 542.866 197.19 542.642C196.981 542.423 196.877 542.138 196.877 541.788C196.877 541.466 196.988 541.204 197.212 540.999C197.436 540.79 197.762 540.685 198.191 540.685H199.074V540.495C199.074 540.286 199.018 540.135 198.906 540.043C198.794 539.945 198.614 539.897 198.366 539.897C198.069 539.897 197.826 540.006 197.636 540.225L197.037 539.634C197.222 539.43 197.414 539.288 197.614 539.211C197.818 539.133 198.081 539.094 198.402 539.094C199.483 539.094 200.023 539.541 200.023 540.437V542.941ZM199.074 541.539V541.335H198.351C197.976 541.335 197.789 541.481 197.789 541.773C197.789 542.06 197.981 542.204 198.366 542.204C198.614 542.204 198.801 542.143 198.928 542.021C199.025 541.938 199.074 541.778 199.074 541.539ZM203.828 539.451L203.112 540.174C202.962 540.023 202.794 539.948 202.609 539.948C202.448 539.948 202.304 540.009 202.178 540.13C202.056 540.252 201.995 540.425 201.995 540.649V542.941H201.046V539.138H201.974V539.503C202.071 539.386 202.205 539.288 202.375 539.211C202.55 539.133 202.735 539.094 202.93 539.094C203.29 539.094 203.589 539.213 203.828 539.451ZM207.177 542.941H206.25V542.583C206.012 542.851 205.698 542.985 205.308 542.985C204.909 542.985 204.6 542.87 204.381 542.642C204.216 542.471 204.109 542.26 204.06 542.007C204.011 541.754 203.987 541.43 203.987 541.036C203.987 540.646 204.011 540.325 204.06 540.072C204.109 539.819 204.216 539.607 204.381 539.437C204.6 539.208 204.907 539.094 205.301 539.094C205.69 539.094 206 539.22 206.228 539.473V537.743H207.177V542.941ZM206.228 541.036C206.228 540.68 206.184 540.41 206.097 540.225C206.014 540.04 205.841 539.948 205.579 539.948C205.442 539.948 205.328 539.975 205.235 540.028C205.148 540.082 205.082 540.162 205.038 540.269C204.999 540.376 204.973 540.488 204.958 540.605C204.943 540.717 204.936 540.86 204.936 541.036C204.936 541.211 204.943 541.357 204.958 541.474C204.973 541.586 204.999 541.698 205.038 541.809C205.082 541.917 205.148 541.997 205.235 542.05C205.328 542.104 205.442 542.131 205.579 542.131C205.715 542.131 205.827 542.104 205.914 542.05C206.007 541.997 206.075 541.917 206.119 541.809C206.163 541.702 206.192 541.59 206.206 541.474C206.221 541.352 206.228 541.206 206.228 541.036ZM209.189 542.941H208.24V539.247H209.189V542.941ZM209.196 538.488H208.225V537.714H209.196V538.488ZM213.411 542.941H212.462V540.641C212.462 540.403 212.399 540.228 212.273 540.116C212.151 540.004 212.005 539.948 211.835 539.948C211.659 539.948 211.508 540.004 211.382 540.116C211.26 540.228 211.199 540.403 211.199 540.641V542.941H210.25V539.138H211.177V539.488C211.426 539.225 211.742 539.094 212.127 539.094C212.501 539.094 212.801 539.206 213.024 539.43C213.282 539.687 213.411 540.048 213.411 540.51V542.941ZM217.421 542.802C217.421 543.265 217.268 543.642 216.961 543.934C216.659 544.231 216.255 544.379 215.749 544.379C215.448 544.379 215.19 544.343 214.975 544.27C214.761 544.197 214.559 544.068 214.37 543.883L214.961 543.284C215.16 543.479 215.409 543.576 215.706 543.576C215.968 543.576 216.161 543.498 216.282 543.343C216.409 543.192 216.472 543.007 216.472 542.788V542.401C216.243 542.654 215.942 542.78 215.567 542.78C215.187 542.78 214.885 542.668 214.662 542.445C214.496 542.279 214.389 542.084 214.34 541.861C214.297 541.632 214.275 541.323 214.275 540.933C214.275 540.544 214.297 540.237 214.34 540.014C214.389 539.79 214.496 539.595 214.662 539.43C214.885 539.206 215.19 539.094 215.574 539.094C215.949 539.094 216.258 539.228 216.501 539.495V539.138H217.421V542.802ZM216.472 540.933C216.472 540.627 216.431 540.386 216.348 540.211C216.265 540.035 216.097 539.948 215.844 539.948C215.708 539.948 215.596 539.975 215.508 540.028C215.426 540.077 215.362 540.152 215.319 540.254C215.28 540.357 215.253 540.459 215.238 540.561C215.229 540.663 215.224 540.787 215.224 540.933C215.224 541.079 215.229 541.204 215.238 541.306C215.253 541.408 215.28 541.51 215.319 541.612C215.358 541.715 215.421 541.792 215.508 541.846C215.596 541.9 215.708 541.926 215.844 541.926C215.98 541.926 216.092 541.9 216.18 541.846C216.268 541.792 216.331 541.715 216.37 541.612C216.409 541.51 216.436 541.408 216.45 541.306C216.465 541.204 216.472 541.079 216.472 540.933Z" fill="#5DCBF5"/>
<path d="M337 505.878L334.468 513.907L337 521.919L322.958 518.046C322.958 518.046 285.524 528.036 271.178 513.907C271.178 513.907 287.566 499.229 322.401 510.3L337 505.878Z" fill="#2DABE0"/>
<path d="M288.268 511.49H285.859V512.768H287.91V513.673H285.859V515.783H284.844V510.585H288.268V511.49ZM291.733 515.783H290.806V515.454C290.674 515.586 290.538 515.681 290.397 515.739C290.26 515.792 290.085 515.819 289.871 515.819C289.448 515.819 289.124 515.707 288.9 515.483C288.691 515.264 288.586 514.98 288.586 514.629C288.586 514.308 288.698 514.045 288.922 513.841C289.146 513.632 289.472 513.527 289.9 513.527H290.784V513.337C290.784 513.128 290.728 512.977 290.616 512.884C290.504 512.787 290.324 512.738 290.075 512.738C289.779 512.738 289.535 512.848 289.345 513.067L288.747 512.476C288.932 512.271 289.124 512.13 289.324 512.052C289.528 511.974 289.791 511.935 290.112 511.935C291.192 511.935 291.733 512.383 291.733 513.279V515.783ZM290.784 514.381V514.177H290.061C289.686 514.177 289.499 514.323 289.499 514.615C289.499 514.902 289.691 515.045 290.075 515.045C290.324 515.045 290.511 514.985 290.638 514.863C290.735 514.78 290.784 514.62 290.784 514.381ZM295.538 512.293L294.822 513.016C294.671 512.865 294.503 512.79 294.318 512.79C294.158 512.79 294.014 512.85 293.888 512.972C293.766 513.094 293.705 513.267 293.705 513.49V515.783H292.756V511.979H293.683V512.344C293.781 512.227 293.914 512.13 294.085 512.052C294.26 511.974 294.445 511.935 294.64 511.935C295 511.935 295.299 512.055 295.538 512.293ZM298.624 515.308C298.293 515.654 297.875 515.827 297.368 515.827C297.208 515.827 297.052 515.809 296.901 515.775C296.75 515.736 296.597 515.673 296.441 515.586C296.29 515.493 296.159 515.376 296.047 515.235C295.935 515.089 295.843 514.902 295.77 514.673C295.702 514.439 295.667 514.174 295.667 513.877C295.667 513.58 295.702 513.318 295.77 513.089C295.843 512.855 295.935 512.668 296.047 512.527C296.159 512.386 296.29 512.269 296.441 512.176C296.597 512.084 296.75 512.021 296.901 511.986C297.052 511.952 297.208 511.935 297.368 511.935C297.88 511.935 298.298 512.106 298.624 512.446L297.982 513.089C297.797 512.889 297.592 512.79 297.368 512.79C297.145 512.79 296.965 512.872 296.828 513.038C296.687 513.213 296.617 513.493 296.617 513.877C296.617 514.267 296.687 514.549 296.828 514.724C296.965 514.89 297.145 514.972 297.368 514.972C297.592 514.972 297.797 514.873 297.982 514.673L298.624 515.308ZM302.206 515.783H301.278V515.454C301.147 515.586 301.011 515.681 300.87 515.739C300.733 515.792 300.558 515.819 300.344 515.819C299.921 515.819 299.597 515.707 299.373 515.483C299.164 515.264 299.059 514.98 299.059 514.629C299.059 514.308 299.171 514.045 299.395 513.841C299.619 513.632 299.945 513.527 300.373 513.527H301.257V513.337C301.257 513.128 301.201 512.977 301.089 512.884C300.977 512.787 300.797 512.738 300.548 512.738C300.252 512.738 300.008 512.848 299.818 513.067L299.22 512.476C299.405 512.271 299.597 512.13 299.797 512.052C300.001 511.974 300.264 511.935 300.585 511.935C301.665 511.935 302.206 512.383 302.206 513.279V515.783ZM301.257 514.381V514.177H300.534C300.159 514.177 299.972 514.323 299.972 514.615C299.972 514.902 300.164 515.045 300.548 515.045C300.797 515.045 300.984 514.985 301.111 514.863C301.208 514.78 301.257 514.62 301.257 514.381ZM306.091 514.585C306.091 514.989 305.94 515.298 305.638 515.513C305.336 515.722 304.949 515.827 304.477 515.827C304.127 515.827 303.825 515.79 303.572 515.717C303.319 515.644 303.081 515.498 302.857 515.279L303.477 514.658C303.711 514.897 304.049 515.016 304.492 515.016C304.677 515.016 304.835 514.985 304.967 514.921C305.098 514.853 305.164 514.753 305.164 514.622C305.164 514.413 305.03 514.296 304.762 514.272L304.149 514.213C303.419 514.14 303.054 513.785 303.054 513.147C303.054 512.768 303.195 512.471 303.477 512.257C303.764 512.042 304.112 511.935 304.521 511.935C305.169 511.935 305.653 512.084 305.974 512.381L305.39 512.972C305.2 512.802 304.906 512.717 304.507 512.717C304.327 512.717 304.19 512.753 304.098 512.826C304.01 512.894 303.966 512.979 303.966 513.082C303.966 513.271 304.098 513.381 304.361 513.41L304.959 513.468C305.714 513.541 306.091 513.914 306.091 514.585ZM308.523 515.783H308.005C307.645 515.783 307.37 515.676 307.18 515.461C306.995 515.247 306.903 514.992 306.903 514.695V512.811H306.501V512.089H306.903V510.964H307.852V512.089H308.523V512.811H307.852V514.637C307.852 514.865 307.961 514.98 308.18 514.98H308.523V515.783ZM312.471 514.177H310.091C310.091 514.43 310.164 514.634 310.31 514.79C310.456 514.946 310.66 515.023 310.923 515.023C311.118 515.023 311.276 514.997 311.397 514.943C311.524 514.885 311.653 514.792 311.784 514.666L312.361 515.228C312.157 515.437 311.945 515.59 311.726 515.688C311.512 515.78 311.242 515.827 310.916 515.827C310.672 515.827 310.451 515.797 310.251 515.739C310.057 515.676 309.874 515.573 309.704 515.432C309.533 515.291 309.4 515.089 309.302 514.826C309.205 514.564 309.156 514.247 309.156 513.877C309.156 513.269 309.307 512.794 309.609 512.454C309.911 512.108 310.312 511.935 310.813 511.935C311.334 511.935 311.741 512.106 312.033 512.446C312.325 512.782 312.471 513.225 312.471 513.775V514.177ZM311.536 513.527C311.531 513.361 311.502 513.225 311.448 513.118C311.332 512.855 311.12 512.724 310.813 512.724C310.507 512.724 310.295 512.855 310.178 513.118C310.125 513.225 310.095 513.361 310.091 513.527H311.536ZM316.127 512.293L315.412 513.016C315.261 512.865 315.093 512.79 314.908 512.79C314.747 512.79 314.604 512.85 314.477 512.972C314.355 513.094 314.295 513.267 314.295 513.49V515.783H313.346V511.979H314.273V512.344C314.37 512.227 314.504 512.13 314.674 512.052C314.849 511.974 315.034 511.935 315.229 511.935C315.589 511.935 315.889 512.055 316.127 512.293Z" fill="#5DCBF5"/>
<path d="M179.781 396.65L177.42 404.402L179.781 412.138L166.683 408.398C166.683 408.398 131.766 418.044 118.384 404.402C118.384 404.402 133.671 390.23 166.164 400.919L179.781 396.65Z" fill="#2DABE0"/>
<path d="M137.423 402.527C137.462 402.78 137.482 403.162 137.482 403.674C137.482 404.185 137.462 404.569 137.423 404.827C137.389 405.08 137.299 405.309 137.153 405.513C136.788 406.019 136.265 406.272 135.584 406.272H133.707V401.075H135.584C136.265 401.075 136.788 401.328 137.153 401.834C137.299 402.038 137.389 402.269 137.423 402.527ZM136.431 404.608C136.455 404.423 136.467 404.112 136.467 403.674C136.467 403.235 136.455 402.924 136.431 402.739C136.406 402.554 136.348 402.408 136.255 402.301C136.085 402.087 135.832 401.98 135.496 401.98H134.722V405.367H135.496C135.832 405.367 136.085 405.26 136.255 405.046C136.348 404.939 136.406 404.793 136.431 404.608ZM141.571 404.666H139.191C139.191 404.919 139.264 405.124 139.41 405.28C139.556 405.435 139.761 405.513 140.024 405.513C140.218 405.513 140.377 405.486 140.498 405.433C140.625 405.375 140.754 405.282 140.885 405.155L141.462 405.718C141.257 405.927 141.046 406.08 140.827 406.178C140.613 406.27 140.342 406.316 140.016 406.316C139.773 406.316 139.552 406.287 139.352 406.229C139.157 406.165 138.975 406.063 138.805 405.922C138.634 405.781 138.5 405.579 138.403 405.316C138.306 405.053 138.257 404.737 138.257 404.367C138.257 403.759 138.408 403.284 138.71 402.943C139.011 402.598 139.413 402.425 139.914 402.425C140.435 402.425 140.841 402.595 141.133 402.936C141.425 403.272 141.571 403.715 141.571 404.265V404.666ZM140.637 404.017C140.632 403.851 140.603 403.715 140.549 403.608C140.432 403.345 140.221 403.214 139.914 403.214C139.608 403.214 139.396 403.345 139.279 403.608C139.225 403.715 139.196 403.851 139.191 404.017H140.637ZM145.783 401.542C146.094 401.853 146.25 402.238 146.25 402.695C146.25 403.153 146.094 403.537 145.783 403.849C145.476 404.16 145.06 404.316 144.534 404.316H143.534V406.272H142.519V401.075H144.534C145.06 401.075 145.476 401.23 145.783 401.542ZM145.031 403.214C145.167 403.082 145.235 402.909 145.235 402.695C145.235 402.481 145.167 402.308 145.031 402.177C144.894 402.046 144.712 401.98 144.483 401.98H143.534V403.403H144.483C144.712 403.403 144.894 403.34 145.031 403.214ZM148.118 406.272H147.103V401.075H148.118V406.272ZM153.307 406.272H152.401L150.343 403.082V406.272H149.328V401.075H150.233L152.292 404.258V401.075H153.307V406.272Z" fill="#5DCBF5"/>
<path d="M30.2422 405.863L32.1781 412.784L30.2422 419.691L40.9802 416.352C40.9802 416.352 69.6063 424.964 80.5766 412.784C80.5766 412.784 68.0446 400.131 41.4061 409.674L30.2422 405.863Z" fill="#2DABE0"/>
<path d="M56.9039 410.916C56.9428 411.169 56.9623 411.551 56.9623 412.062C56.9623 412.573 56.9428 412.957 56.9039 413.215C56.8698 413.468 56.7798 413.697 56.6338 413.902C56.2687 414.408 55.7455 414.661 55.0642 414.661H53.188V409.463H55.0642C55.7455 409.463 56.2687 409.716 56.6338 410.222C56.7798 410.427 56.8698 410.658 56.9039 410.916ZM55.911 412.996C55.9354 412.811 55.9475 412.5 55.9475 412.062C55.9475 411.624 55.9354 411.312 55.911 411.127C55.8867 410.942 55.8283 410.796 55.7358 410.689C55.5655 410.475 55.3124 410.368 54.9766 410.368H54.2027V413.756H54.9766C55.3124 413.756 55.5655 413.648 55.7358 413.434C55.8283 413.327 55.8867 413.181 55.911 412.996ZM61.0518 413.055H58.6719C58.6719 413.308 58.7449 413.512 58.8909 413.668C59.0369 413.824 59.2413 413.902 59.5041 413.902C59.6988 413.902 59.857 413.875 59.9787 413.821C60.1052 413.763 60.2342 413.67 60.3656 413.544L60.9423 414.106C60.7379 414.315 60.5262 414.469 60.3072 414.566C60.093 414.658 59.8229 414.705 59.4968 414.705C59.2535 414.705 59.0321 414.675 58.8325 414.617C58.6378 414.554 58.4553 414.451 58.285 414.31C58.1146 414.169 57.9808 413.967 57.8835 413.704C57.7861 413.442 57.7374 413.125 57.7374 412.755C57.7374 412.147 57.8883 411.672 58.1901 411.332C58.4918 410.986 58.8933 410.813 59.3946 410.813C59.9154 410.813 60.3218 410.984 60.6138 411.324C60.9058 411.66 61.0518 412.103 61.0518 412.653V413.055ZM60.1174 412.405C60.1125 412.239 60.0833 412.103 60.0298 411.996C59.913 411.733 59.7013 411.602 59.3946 411.602C59.088 411.602 58.8763 411.733 58.7595 411.996C58.706 412.103 58.6768 412.239 58.6719 412.405H60.1174ZM65.4237 410.368H63.0146V411.646H65.066V412.551H63.0146V414.661H61.9998V409.463H65.4237V410.368ZM67.182 414.661H66.2329V410.967H67.182V414.661ZM67.1893 410.208H66.2183V409.434H67.1893V410.208Z" fill="#5DCBF5"/>
<path d="M130.609 449.006L128.163 456.758L130.609 464.494L117.039 460.755C117.039 460.755 80.8636 470.4 67 456.758C67 456.758 82.8371 442.587 116.501 453.276L130.609 449.006Z" fill="#2DABE0"/>
<path d="M86.2376 457.096C86.2376 457.587 86.0575 457.974 85.6973 458.256C85.3372 458.534 84.8748 458.673 84.3103 458.673C83.8966 458.673 83.5388 458.621 83.2371 458.519C82.9353 458.412 82.6604 458.235 82.4121 457.986L83.0692 457.329C83.3612 457.621 83.7773 457.767 84.3176 457.767C84.6193 457.767 84.8481 457.711 85.0038 457.599C85.1644 457.487 85.2447 457.327 85.2447 457.118C85.2447 456.938 85.1912 456.794 85.0841 456.687C84.9916 456.599 84.8359 456.541 84.6169 456.512L83.9963 456.417C83.5583 456.353 83.2225 456.21 82.9889 455.986C82.7407 455.743 82.6166 455.402 82.6166 454.964C82.6166 454.492 82.7796 454.112 83.1057 453.825C83.4318 453.533 83.8722 453.387 84.4271 453.387C85.1279 453.387 85.6876 453.589 86.1062 453.993L85.4637 454.628C85.2204 454.39 84.8651 454.27 84.3979 454.27C84.1399 454.27 83.9428 454.334 83.8065 454.46C83.6703 454.582 83.6021 454.738 83.6021 454.927C83.6021 455.083 83.6508 455.207 83.7481 455.3C83.8601 455.402 84.0182 455.468 84.2227 455.497L84.8432 455.592C85.2861 455.655 85.617 455.791 85.836 456.001C86.1037 456.249 86.2376 456.614 86.2376 457.096ZM90.1785 456.723C90.1785 457.088 90.1468 457.385 90.0836 457.614C90.0252 457.838 89.9132 458.035 89.7478 458.205C89.446 458.517 89.0518 458.673 88.5651 458.673C88.0833 458.673 87.6915 458.517 87.3897 458.205C87.2242 458.03 87.1099 457.831 87.0466 457.607C86.9882 457.378 86.959 457.084 86.959 456.723C86.959 456.363 86.9882 456.071 87.0466 455.847C87.1099 455.623 87.2242 455.424 87.3897 455.249C87.6915 454.937 88.0833 454.781 88.5651 454.781C89.0615 454.781 89.4557 454.937 89.7478 455.249C89.9132 455.424 90.0252 455.623 90.0836 455.847C90.1468 456.071 90.1785 456.363 90.1785 456.723ZM89.2294 456.723C89.2294 456.251 89.1564 455.945 89.0104 455.804C88.8985 455.692 88.75 455.636 88.5651 455.636C88.385 455.636 88.239 455.692 88.1271 455.804C87.9811 455.945 87.9081 456.251 87.9081 456.723C87.9081 457.2 87.9811 457.509 88.1271 457.651C88.239 457.762 88.385 457.818 88.5651 457.818C88.75 457.818 88.8985 457.762 89.0104 457.651C89.1564 457.509 89.2294 457.2 89.2294 456.723ZM92.6969 458.629H92.1567C91.7916 458.629 91.5142 458.522 91.3244 458.308C91.1395 458.093 91.047 457.838 91.047 457.541V453.431H91.9961V457.483C91.9961 457.711 92.108 457.826 92.3319 457.826H92.6969V458.629ZM96.3339 458.629H95.4068V458.3C95.2754 458.432 95.1391 458.527 94.998 458.585C94.8617 458.639 94.6865 458.665 94.4723 458.665C94.0489 458.665 93.7253 458.553 93.5014 458.329C93.2921 458.11 93.1875 457.826 93.1875 457.475C93.1875 457.154 93.2994 456.891 93.5233 456.687C93.7472 456.478 94.0732 456.373 94.5015 456.373H95.3849V456.183C95.3849 455.974 95.3289 455.823 95.217 455.731C95.105 455.633 94.925 455.585 94.6767 455.585C94.3799 455.585 94.1365 455.694 93.9467 455.913L93.3481 455.322C93.533 455.117 93.7253 454.976 93.9248 454.898C94.1292 454.82 94.392 454.781 94.7132 454.781C95.7937 454.781 96.3339 455.229 96.3339 456.125V458.629ZM95.3849 457.227V457.023H94.6621C94.2874 457.023 94.1 457.169 94.1 457.461C94.1 457.748 94.2923 457.891 94.6767 457.891C94.925 457.891 95.1123 457.831 95.2389 457.709C95.3362 457.626 95.3849 457.466 95.3849 457.227ZM100.518 458.629H99.5693V456.329C99.5693 456.091 99.5061 455.915 99.3795 455.804C99.2579 455.692 99.1118 455.636 98.9415 455.636C98.7663 455.636 98.6154 455.692 98.4889 455.804C98.3672 455.915 98.3064 456.091 98.3064 456.329V458.629H97.3573V454.825H98.2845V455.176C98.5327 454.913 98.849 454.781 99.2335 454.781C99.6083 454.781 99.9076 454.893 100.131 455.117C100.389 455.375 100.518 455.735 100.518 456.198V458.629ZM104.419 458.629H103.491V458.3C103.36 458.432 103.224 458.527 103.083 458.585C102.946 458.639 102.771 458.665 102.557 458.665C102.134 458.665 101.81 458.553 101.586 458.329C101.377 458.11 101.272 457.826 101.272 457.475C101.272 457.154 101.384 456.891 101.608 456.687C101.832 456.478 102.158 456.373 102.586 456.373H103.47V456.183C103.47 455.974 103.414 455.823 103.302 455.731C103.19 455.633 103.01 455.585 102.761 455.585C102.465 455.585 102.221 455.694 102.031 455.913L101.433 455.322C101.618 455.117 101.81 454.976 102.009 454.898C102.214 454.82 102.477 454.781 102.798 454.781C103.878 454.781 104.419 455.229 104.419 456.125V458.629ZM103.47 457.227V457.023H102.747C102.372 457.023 102.185 457.169 102.185 457.461C102.185 457.748 102.377 457.891 102.761 457.891C103.01 457.891 103.197 457.831 103.324 457.709C103.421 457.626 103.47 457.466 103.47 457.227Z" fill="#5DCBF5"/>
<path d="M103.387 495.425L99.9616 506.494L103.387 517.539L84.3887 512.2C84.3887 512.2 33.7426 525.972 14.3336 506.494C14.3336 506.494 36.5056 486.259 83.6352 501.521L103.387 495.425Z" fill="#2DABE0"/>
<path d="M38.6524 507.813H37.5939L37.2872 506.893H35.4402L35.1263 507.813H34.0678L35.9586 502.615H36.7543L38.6524 507.813ZM37.0171 506.039L36.382 504.148L35.7249 506.039H37.0171ZM42.4026 505.908C42.4026 506.302 42.3783 506.626 42.3296 506.879C42.2809 507.132 42.1739 507.343 42.0084 507.514C41.7894 507.743 41.4828 507.857 41.0885 507.857C40.6943 507.857 40.3877 507.73 40.1687 507.477V509.207H39.2196V504.01H40.1395V504.367C40.378 504.1 40.6943 503.966 41.0885 503.966C41.4828 503.966 41.7894 504.08 42.0084 504.309C42.1739 504.479 42.2809 504.691 42.3296 504.944C42.3783 505.197 42.4026 505.518 42.4026 505.908ZM41.4317 506.346C41.4463 506.229 41.4536 506.083 41.4536 505.908C41.4536 505.732 41.4463 505.589 41.4317 505.477C41.4171 505.36 41.3879 505.248 41.344 505.141C41.3051 505.034 41.2394 504.954 41.1469 504.9C41.0593 504.847 40.9474 504.82 40.8111 504.82C40.6748 504.82 40.5605 504.847 40.468 504.9C40.3804 504.954 40.3147 505.034 40.2709 505.141C40.232 505.248 40.2052 505.36 40.1906 505.477C40.176 505.589 40.1687 505.732 40.1687 505.908C40.1687 506.083 40.176 506.229 40.1906 506.346C40.2052 506.458 40.232 506.57 40.2709 506.682C40.3147 506.789 40.3804 506.869 40.468 506.922C40.5605 506.976 40.6748 507.003 40.8111 507.003C40.9474 507.003 41.0593 506.976 41.1469 506.922C41.2394 506.869 41.3051 506.789 41.344 506.682C41.3879 506.57 41.4171 506.458 41.4317 506.346ZM46.4877 505.908C46.4877 506.302 46.4634 506.626 46.4147 506.879C46.366 507.132 46.259 507.343 46.0935 507.514C45.8745 507.743 45.5679 507.857 45.1736 507.857C44.7794 507.857 44.4728 507.73 44.2538 507.477V509.207H43.3047V504.01H44.2246V504.367C44.4631 504.1 44.7794 503.966 45.1736 503.966C45.5679 503.966 45.8745 504.08 46.0935 504.309C46.259 504.479 46.366 504.691 46.4147 504.944C46.4634 505.197 46.4877 505.518 46.4877 505.908ZM45.5168 506.346C45.5314 506.229 45.5387 506.083 45.5387 505.908C45.5387 505.732 45.5314 505.589 45.5168 505.477C45.5022 505.36 45.473 505.248 45.4291 505.141C45.3902 505.034 45.3245 504.954 45.232 504.9C45.1444 504.847 45.0325 504.82 44.8962 504.82C44.7599 504.82 44.6456 504.847 44.5531 504.9C44.4655 504.954 44.3998 505.034 44.356 505.141C44.3171 505.248 44.2903 505.36 44.2757 505.477C44.2611 505.589 44.2538 505.732 44.2538 505.908C44.2538 506.083 44.2611 506.229 44.2757 506.346C44.2903 506.458 44.3171 506.57 44.356 506.682C44.3998 506.789 44.4655 506.869 44.5531 506.922C44.6456 506.976 44.7599 507.003 44.8962 507.003C45.0325 507.003 45.1444 506.976 45.232 506.922C45.3245 506.869 45.3902 506.789 45.4291 506.682C45.473 506.57 45.5022 506.458 45.5168 506.346ZM50.1567 507.339C49.8257 507.684 49.4072 507.857 48.901 507.857C48.7404 507.857 48.5847 507.84 48.4338 507.806C48.2829 507.767 48.1296 507.704 47.9739 507.616C47.823 507.524 47.6916 507.407 47.5796 507.266C47.4677 507.12 47.3752 506.932 47.3022 506.703C47.2341 506.47 47.2 506.205 47.2 505.908C47.2 505.611 47.2341 505.348 47.3022 505.119C47.3752 504.886 47.4677 504.698 47.5796 504.557C47.6916 504.416 47.823 504.299 47.9739 504.207C48.1296 504.114 48.2829 504.051 48.4338 504.017C48.5847 503.983 48.7404 503.966 48.901 503.966C49.412 503.966 49.8306 504.136 50.1567 504.477L49.5142 505.119C49.3293 504.92 49.1249 504.82 48.901 504.82C48.6771 504.82 48.4971 504.903 48.3608 505.068C48.2196 505.243 48.1491 505.523 48.1491 505.908C48.1491 506.297 48.2196 506.579 48.3608 506.755C48.4971 506.92 48.6771 507.003 48.901 507.003C49.1249 507.003 49.3293 506.903 49.5142 506.703L50.1567 507.339ZM54.0585 507.813H53.1095V505.513C53.1095 505.275 53.0462 505.1 52.9197 504.988C52.798 504.876 52.652 504.82 52.4816 504.82C52.3064 504.82 52.1556 504.876 52.029 504.988C51.9073 505.1 51.8465 505.275 51.8465 505.513V507.813H50.8975V502.615H51.8465V504.36C52.085 504.097 52.394 503.966 52.7737 503.966C53.1484 503.966 53.4477 504.078 53.6716 504.302C53.9296 504.56 54.0585 504.92 54.0585 505.382V507.813ZM57.9587 507.813H57.0316V507.485C56.9002 507.616 56.7639 507.711 56.6228 507.769C56.4865 507.823 56.3113 507.85 56.0971 507.85C55.6737 507.85 55.35 507.738 55.1262 507.514C54.9169 507.295 54.8122 507.01 54.8122 506.66C54.8122 506.338 54.9242 506.076 55.1481 505.871C55.3719 505.662 55.698 505.557 56.1263 505.557H57.0097V505.367C57.0097 505.158 56.9537 505.007 56.8418 504.915C56.7298 504.818 56.5497 504.769 56.3015 504.769C56.0046 504.769 55.7613 504.878 55.5715 505.097L54.9729 504.506C55.1578 504.302 55.35 504.16 55.5496 504.083C55.754 504.005 56.0168 503.966 56.338 503.966C57.4185 503.966 57.9587 504.414 57.9587 505.309V507.813ZM57.0097 506.411V506.207H56.2869C55.9122 506.207 55.7248 506.353 55.7248 506.645C55.7248 506.932 55.917 507.076 56.3015 507.076C56.5497 507.076 56.7371 507.015 56.8637 506.893C56.961 506.811 57.0097 506.65 57.0097 506.411ZM59.9312 507.813H58.9821V504.119H59.9312V507.813ZM59.9385 503.36H58.9675V502.586H59.9385V503.36ZM64.1537 507.813H63.2046V505.513C63.2046 505.275 63.1413 505.1 63.0148 504.988C62.8931 504.876 62.7471 504.82 62.5768 504.82C62.4015 504.82 62.2507 504.876 62.1241 504.988C62.0025 505.1 61.9416 505.275 61.9416 505.513V507.813H60.9926V504.01H61.9197V504.36C62.1679 504.097 62.4843 503.966 62.8688 503.966C63.2435 503.966 63.5428 504.078 63.7667 504.302C64.0247 504.56 64.1537 504.92 64.1537 505.382V507.813ZM68.0392 506.616C68.0392 507.02 67.8884 507.329 67.5866 507.543C67.2849 507.752 66.8979 507.857 66.4258 507.857C66.0754 507.857 65.7737 507.82 65.5206 507.747C65.2675 507.674 65.029 507.528 64.8052 507.309L65.4257 506.689C65.6593 506.927 65.9976 507.047 66.4405 507.047C66.6254 507.047 66.7836 507.015 66.915 506.952C67.0464 506.884 67.1121 506.784 67.1121 506.652C67.1121 506.443 66.9782 506.326 66.7106 506.302L66.0973 506.244C65.3673 506.171 65.0023 505.815 65.0023 505.178C65.0023 504.798 65.1434 504.501 65.4257 504.287C65.7128 504.073 66.0608 503.966 66.4697 503.966C67.117 503.966 67.6012 504.114 67.9224 504.411L67.3384 505.002C67.1486 504.832 66.8541 504.747 66.4551 504.747C66.275 504.747 66.1387 504.783 66.0462 504.856C65.9586 504.925 65.9148 505.01 65.9148 505.112C65.9148 505.302 66.0462 505.411 66.309 505.44L66.9077 505.499C67.6621 505.572 68.0392 505.944 68.0392 506.616Z" fill="#5DCBF5"/>
<path d="M252.055 471.501L248.63 482.569L252.055 493.615L233.057 488.275C233.057 488.275 182.411 502.048 163.002 482.569C163.002 482.569 185.174 462.335 232.303 477.597L252.055 471.501Z" fill="#2DABE0"/>
<path d="M178.662 484.442H175.245V483.624L177.464 480.149H175.34V479.244H178.662V480.047L176.435 483.537H178.662V484.442ZM182.61 482.836H180.23C180.23 483.089 180.303 483.293 180.449 483.449C180.595 483.605 180.8 483.683 181.062 483.683C181.257 483.683 181.415 483.656 181.537 483.602C181.664 483.544 181.793 483.452 181.924 483.325L182.501 483.887C182.296 484.096 182.085 484.25 181.866 484.347C181.651 484.44 181.381 484.486 181.055 484.486C180.812 484.486 180.59 484.457 180.391 484.398C180.196 484.335 180.014 484.233 179.843 484.092C179.673 483.95 179.539 483.748 179.442 483.486C179.344 483.223 179.296 482.906 179.296 482.537C179.296 481.928 179.447 481.454 179.748 481.113C180.05 480.767 180.452 480.595 180.953 480.595C181.474 480.595 181.88 480.765 182.172 481.106C182.464 481.442 182.61 481.884 182.61 482.434V482.836ZM181.676 482.186C181.671 482.021 181.642 481.884 181.588 481.777C181.471 481.515 181.26 481.383 180.953 481.383C180.646 481.383 180.435 481.515 180.318 481.777C180.264 481.884 180.235 482.021 180.23 482.186H181.676ZM186.267 480.952L185.551 481.675C185.4 481.524 185.232 481.449 185.047 481.449C184.887 481.449 184.743 481.51 184.617 481.631C184.495 481.753 184.434 481.926 184.434 482.15V484.442H183.485V480.638H184.412V481.004C184.51 480.887 184.643 480.789 184.814 480.712C184.989 480.634 185.174 480.595 185.369 480.595C185.729 480.595 186.028 480.714 186.267 480.952ZM189.645 482.537C189.645 482.902 189.614 483.199 189.55 483.427C189.492 483.651 189.38 483.848 189.215 484.019C188.913 484.33 188.519 484.486 188.032 484.486C187.55 484.486 187.158 484.33 186.857 484.019C186.691 483.843 186.577 483.644 186.513 483.42C186.455 483.191 186.426 482.897 186.426 482.537C186.426 482.176 186.455 481.884 186.513 481.661C186.577 481.437 186.691 481.237 186.857 481.062C187.158 480.75 187.55 480.595 188.032 480.595C188.528 480.595 188.923 480.75 189.215 481.062C189.38 481.237 189.492 481.437 189.55 481.661C189.614 481.884 189.645 482.176 189.645 482.537ZM188.696 482.537C188.696 482.065 188.623 481.758 188.477 481.617C188.365 481.505 188.217 481.449 188.032 481.449C187.852 481.449 187.706 481.505 187.594 481.617C187.448 481.758 187.375 482.065 187.375 482.537C187.375 483.014 187.448 483.323 187.594 483.464C187.706 483.576 187.852 483.632 188.032 483.632C188.217 483.632 188.365 483.576 188.477 483.464C188.623 483.323 188.696 483.014 188.696 482.537ZM192.697 482.799H190.448V481.916H192.697V482.799ZM197.119 484.442H195.944L195.009 482.858L194.608 483.31V484.442H193.659V479.244H194.608V482.193L195.871 480.638H197.017L195.659 482.172L197.119 484.442ZM200.898 484.442H199.949V482.142C199.949 481.904 199.885 481.729 199.759 481.617C199.637 481.505 199.491 481.449 199.321 481.449C199.146 481.449 198.995 481.505 198.868 481.617C198.747 481.729 198.686 481.904 198.686 482.142V484.442H197.737V480.638H198.664V480.989C198.912 480.726 199.228 480.595 199.613 480.595C199.988 480.595 200.287 480.707 200.511 480.931C200.769 481.188 200.898 481.549 200.898 482.011V484.442ZM204.98 482.537C204.98 482.902 204.949 483.199 204.886 483.427C204.827 483.651 204.715 483.848 204.55 484.019C204.248 484.33 203.854 484.486 203.367 484.486C202.885 484.486 202.493 484.33 202.192 484.019C202.026 483.843 201.912 483.644 201.849 483.42C201.79 483.191 201.761 482.897 201.761 482.537C201.761 482.176 201.79 481.884 201.849 481.661C201.912 481.437 202.026 481.237 202.192 481.062C202.493 480.75 202.885 480.595 203.367 480.595C203.863 480.595 204.258 480.75 204.55 481.062C204.715 481.237 204.827 481.437 204.886 481.661C204.949 481.884 204.98 482.176 204.98 482.537ZM204.031 482.537C204.031 482.065 203.958 481.758 203.812 481.617C203.7 481.505 203.552 481.449 203.367 481.449C203.187 481.449 203.041 481.505 202.929 481.617C202.783 481.758 202.71 482.065 202.71 482.537C202.71 483.014 202.783 483.323 202.929 483.464C203.041 483.576 203.187 483.632 203.367 483.632C203.552 483.632 203.7 483.576 203.812 483.464C203.958 483.323 204.031 483.014 204.031 482.537ZM210.829 480.638L209.668 484.442H208.887L208.091 482.055L207.295 484.442H206.514L205.346 480.638H206.354L206.967 482.989L207.741 480.638H208.434L209.215 482.989L209.829 480.638H210.829ZM213.003 484.442H212.462C212.097 484.442 211.82 484.335 211.63 484.121C211.445 483.907 211.353 483.651 211.353 483.354V479.244H212.302V483.296C212.302 483.525 212.414 483.639 212.638 483.639H213.003V484.442ZM216.817 482.836H214.437C214.437 483.089 214.51 483.293 214.656 483.449C214.802 483.605 215.006 483.683 215.269 483.683C215.464 483.683 215.622 483.656 215.743 483.602C215.87 483.544 215.999 483.452 216.13 483.325L216.707 483.887C216.503 484.096 216.291 484.25 216.072 484.347C215.858 484.44 215.588 484.486 215.262 484.486C215.018 484.486 214.797 484.457 214.597 484.398C214.403 484.335 214.22 484.233 214.05 484.092C213.879 483.95 213.746 483.748 213.648 483.486C213.551 483.223 213.502 482.906 213.502 482.537C213.502 481.928 213.653 481.454 213.955 481.113C214.257 480.767 214.658 480.595 215.159 480.595C215.68 480.595 216.087 480.765 216.379 481.106C216.671 481.442 216.817 481.884 216.817 482.434V482.836ZM215.882 482.186C215.877 482.021 215.848 481.884 215.795 481.777C215.678 481.515 215.466 481.383 215.159 481.383C214.853 481.383 214.641 481.515 214.524 481.777C214.471 481.884 214.442 482.021 214.437 482.186H215.882ZM220.721 484.442H219.794V484.084C219.556 484.352 219.242 484.486 218.852 484.486C218.453 484.486 218.144 484.371 217.925 484.143C217.76 483.972 217.653 483.761 217.604 483.508C217.555 483.254 217.531 482.931 217.531 482.537C217.531 482.147 217.555 481.826 217.604 481.573C217.653 481.32 217.76 481.108 217.925 480.938C218.144 480.709 218.451 480.595 218.845 480.595C219.234 480.595 219.544 480.721 219.772 480.974V479.244H220.721V484.442ZM219.772 482.537C219.772 482.181 219.728 481.911 219.641 481.726C219.558 481.541 219.385 481.449 219.123 481.449C218.986 481.449 218.872 481.476 218.779 481.529C218.692 481.583 218.626 481.663 218.582 481.77C218.543 481.877 218.517 481.989 218.502 482.106C218.487 482.218 218.48 482.361 218.48 482.537C218.48 482.712 218.487 482.858 218.502 482.975C218.517 483.087 218.543 483.199 218.582 483.31C218.626 483.418 218.692 483.498 218.779 483.551C218.872 483.605 218.986 483.632 219.123 483.632C219.259 483.632 219.371 483.605 219.458 483.551C219.551 483.498 219.619 483.418 219.663 483.31C219.707 483.203 219.736 483.091 219.75 482.975C219.765 482.853 219.772 482.707 219.772 482.537ZM224.77 484.303C224.77 484.766 224.616 485.143 224.31 485.435C224.008 485.732 223.604 485.88 223.098 485.88C222.796 485.88 222.538 485.844 222.324 485.771C222.11 485.698 221.908 485.569 221.718 485.384L222.309 484.785C222.509 484.98 222.757 485.077 223.054 485.077C223.317 485.077 223.509 484.999 223.631 484.844C223.757 484.693 223.821 484.508 223.821 484.289V483.902C223.592 484.155 223.29 484.281 222.915 484.281C222.536 484.281 222.234 484.169 222.01 483.946C221.845 483.78 221.738 483.585 221.689 483.362C221.645 483.133 221.623 482.824 221.623 482.434C221.623 482.045 221.645 481.738 221.689 481.515C221.738 481.291 221.845 481.096 222.01 480.931C222.234 480.707 222.538 480.595 222.923 480.595C223.297 480.595 223.607 480.729 223.85 480.996V480.638H224.77V484.303ZM223.821 482.434C223.821 482.128 223.779 481.887 223.697 481.712C223.614 481.536 223.446 481.449 223.193 481.449C223.057 481.449 222.945 481.476 222.857 481.529C222.774 481.578 222.711 481.653 222.667 481.755C222.628 481.858 222.602 481.96 222.587 482.062C222.577 482.164 222.572 482.288 222.572 482.434C222.572 482.58 222.577 482.705 222.587 482.807C222.602 482.909 222.628 483.011 222.667 483.113C222.706 483.216 222.769 483.293 222.857 483.347C222.945 483.4 223.057 483.427 223.193 483.427C223.329 483.427 223.441 483.4 223.529 483.347C223.616 483.293 223.68 483.216 223.718 483.113C223.757 483.011 223.784 482.909 223.799 482.807C223.813 482.705 223.821 482.58 223.821 482.434ZM228.958 482.836H226.578C226.578 483.089 226.651 483.293 226.797 483.449C226.943 483.605 227.147 483.683 227.41 483.683C227.605 483.683 227.763 483.656 227.885 483.602C228.011 483.544 228.14 483.452 228.272 483.325L228.848 483.887C228.644 484.096 228.432 484.25 228.213 484.347C227.999 484.44 227.729 484.486 227.403 484.486C227.16 484.486 226.938 484.457 226.739 484.398C226.544 484.335 226.361 484.233 226.191 484.092C226.021 483.95 225.887 483.748 225.79 483.486C225.692 483.223 225.643 482.906 225.643 482.537C225.643 481.928 225.794 481.454 226.096 481.113C226.398 480.767 226.799 480.595 227.301 480.595C227.821 480.595 228.228 480.765 228.52 481.106C228.812 481.442 228.958 481.884 228.958 482.434V482.836ZM228.023 482.186C228.019 482.021 227.989 481.884 227.936 481.777C227.819 481.515 227.607 481.383 227.301 481.383C226.994 481.383 226.782 481.515 226.666 481.777C226.612 481.884 226.583 482.021 226.578 482.186H228.023Z" fill="#5DCBF5"/>
<path opacity="0.6" d="M31 388L30.5385 390.002L31 392L28.44 391.034C28.44 391.034 21.6154 393.525 19 390.002C19 390.002 21.9877 386.342 28.3385 389.103L31 388Z" fill="#2DABE0"/>
<path opacity="0.6" d="M49 579L49.4615 581.002L49 583L51.56 582.034C51.56 582.034 58.3846 584.525 61 581.002C61 581.002 58.0123 577.342 51.6615 580.103L49 579Z" fill="#2DABE0"/>
<path opacity="0.6" d="M94 605L94.4615 607.002L94 609L96.56 608.034C96.56 608.034 103.385 610.525 106 607.002C106 607.002 103.012 603.342 96.6615 606.103L94 605Z" fill="#2DABE0"/>
<path opacity="0.6" d="M40 438L40.4615 440.002L40 442L42.56 441.034C42.56 441.034 49.3846 443.525 52 440.002C52 440.002 49.0123 436.342 42.6615 439.103L40 438Z" fill="#2DABE0"/>
<path opacity="0.6" d="M40 629L39.5385 631.002L40 633L37.44 632.034C37.44 632.034 30.6154 634.525 28 631.002C28 631.002 30.9877 627.342 37.3385 630.103L40 629Z" fill="#2DABE0"/>
<path opacity="0.6" d="M21 476L21.4615 478.002L21 480L23.56 479.034C23.56 479.034 30.3846 481.525 33 478.002C33 478.002 30.0123 474.342 23.6615 477.103L21 476Z" fill="#2DABE0"/>
<path opacity="0.6" d="M42 705L41.5385 707.002L42 709L39.44 708.034C39.44 708.034 32.6154 710.525 30 707.002C30 707.002 32.9877 703.342 39.3385 706.103L42 705Z" fill="#2DABE0"/>
<path opacity="0.6" d="M57 645L57.4615 647.002L57 649L59.56 648.034C59.56 648.034 66.3846 650.525 69 647.002C69 647.002 66.0123 643.342 59.6615 646.103L57 645Z" fill="#2DABE0"/>
<path opacity="0.6" d="M119 687L119.462 689.002L119 691L121.56 690.034C121.56 690.034 128.385 692.525 131 689.002C131 689.002 128.012 685.342 121.662 688.103L119 687Z" fill="#2DABE0"/>
<path opacity="0.6" d="M94 544L93.5385 546.002L94 548L91.44 547.034C91.44 547.034 84.6154 549.525 82 546.002C82 546.002 84.9877 542.342 91.3385 545.103L94 544Z" fill="#2DABE0"/>
<path opacity="0.6" d="M161 445L161.462 447.002L161 449L163.56 448.034C163.56 448.034 170.385 450.525 173 447.002C173 447.002 170.012 443.342 163.662 446.103L161 445Z" fill="#2DABE0"/>
<path opacity="0.6" d="M88 374L88.4615 376.002L88 378L90.56 377.034C90.56 377.034 97.3846 379.525 100 376.002C100 376.002 97.0123 372.342 90.6615 375.103L88 374Z" fill="#2DABE0"/>
<path opacity="0.6" d="M223 432L222.538 434.002L223 436L220.44 435.034C220.44 435.034 213.615 437.525 211 434.002C211 434.002 213.988 430.342 220.338 433.103L223 432Z" fill="#2DABE0"/>
<path opacity="0.6" d="M324 388L324.462 390.002L324 392L326.56 391.034C326.56 391.034 333.385 393.525 336 390.002C336 390.002 333.012 386.342 326.662 389.103L324 388Z" fill="#2DABE0"/>
<path opacity="0.6" d="M348 423L347.538 425.002L348 427L345.44 426.034C345.44 426.034 338.615 428.525 336 425.002C336 425.002 338.988 421.342 345.338 424.103L348 423Z" fill="#2DABE0"/>
<path opacity="0.6" d="M288 593L287.538 595.002L288 597L285.44 596.034C285.44 596.034 278.615 598.525 276 595.002C276 595.002 278.988 591.342 285.338 594.103L288 593Z" fill="#2DABE0"/>
<path opacity="0.6" d="M335 572L335.462 574.002L335 576L337.56 575.034C337.56 575.034 344.385 577.525 347 574.002C347 574.002 344.012 570.342 337.662 573.103L335 572Z" fill="#2DABE0"/>
<path opacity="0.6" d="M328 473L327.538 475.002L328 477L325.44 476.034C325.44 476.034 318.615 478.525 316 475.002C316 475.002 318.988 471.342 325.338 474.103L328 473Z" fill="#2DABE0"/>
<path opacity="0.6" d="M286 633L286.462 635.002L286 637L288.56 636.034C288.56 636.034 295.385 638.525 298 635.002C298 635.002 295.012 631.342 288.662 634.103L286 633Z" fill="#2DABE0"/>
<path opacity="0.6" d="M288 483L287.538 485.002L288 487L285.44 486.034C285.44 486.034 278.615 488.525 276 485.002C276 485.002 278.988 481.342 285.338 484.103L288 483Z" fill="#2DABE0"/>
<path opacity="0.6" d="M327 653L326.538 655.002L327 657L324.44 656.034C324.44 656.034 317.615 658.525 315 655.002C315 655.002 317.988 651.342 324.338 654.103L327 653Z" fill="#2DABE0"/>
<path opacity="0.6" d="M251 685L250.538 687.002L251 689L248.44 688.034C248.44 688.034 241.615 690.525 239 687.002C239 687.002 241.988 683.342 248.338 686.103L251 685Z" fill="#2DABE0"/>
<path opacity="0.6" d="M226 511L226.462 513.002L226 515L228.56 514.034C228.56 514.034 235.385 516.525 238 513.002C238 513.002 235.012 509.342 228.662 512.103L226 511Z" fill="#2DABE0"/>
<path opacity="0.6" d="M288 543L287.538 545.002L288 547L285.44 546.034C285.44 546.034 278.615 548.525 276 545.002C276 545.002 278.988 541.342 285.338 544.103L288 543Z" fill="#2DABE0"/>
<path opacity="0.6" d="M326 703L326.462 705.002L326 707L328.56 706.034C328.56 706.034 335.385 708.525 338 705.002C338 705.002 335.012 701.342 328.662 704.103L326 703Z" fill="#2DABE0"/>
<path opacity="0.6" d="M134 501L134.462 503.002L134 505L136.56 504.034C136.56 504.034 143.385 506.525 146 503.002C146 503.002 143.012 499.342 136.662 502.103L134 501Z" fill="#2DABE0"/>
</g>
<defs>
<clipPath id="clip0_1083_16995">
<rect width="360" height="724" fill="white"/>
</clipPath>
</defs>
</svg>
