<svg width="1440" height="1005" viewBox="0 0 1440 1005" fill="none" xmlns="http://www.w3.org/2000/svg">
<path d="M1150.59 507C979.13 507 916.94 544.5 804.32 544.5C691.7 544.5 669.72 514.5 553.86 514.5C438 514.5 417.81 544.35 263.19 544.5C115.26 544.65 0 514.5 0 514.5V522C0 522 142.67 551.6 263.18 559.5C410.79 569.17 438 520.5 553.85 520.5C669.7 520.5 691.69 550.5 804.31 550.5C883.84 550.5 971.14 534.98 1058.97 526.45C1147.55 517.85 1173.2 516.03 1223.56 517.3C1336.74 520.15 1439.99 561 1439.99 561V544.5C1439.99 544.5 1322.04 507 1150.59 507Z" fill="white"/>
<path d="M1440 547.5C1440 547.5 1322.04 510 1150.59 510C979.14 510 916.94 547.5 804.32 547.5C691.7 547.5 669.72 517.5 553.86 517.5C438 517.5 411.11 547.5 263.19 547.5C115.27 547.5 0 517.5 0 517.5V1004.32H1440V547.5Z" fill="#5DCBF5"/>
<g clip-path="url(#clip0_3003_20297)">
<path d="M1150.59 510C979.13 510 916.94 547.5 804.32 547.5C691.7 547.5 669.72 517.5 553.86 517.5C438 517.5 417.81 547.35 263.19 547.5C115.26 547.65 0 517.5 0 517.5V545C0 545 142.67 548.6 263.18 556.5C410.79 566.17 438 533.5 553.85 533.5C669.7 533.5 691.69 549.5 804.31 549.5C883.84 549.5 971.14 532.98 1058.97 524.45C1147.55 515.85 1173.2 515.03 1223.56 516.3C1336.74 519.15 1439.99 584 1439.99 584V547.5C1439.99 547.5 1322.04 510 1150.59 510Z" fill="#418EAB"/>
<path d="M417.411 564.143C422.066 563.386 425.538 560.916 425.166 558.626C424.793 556.337 420.717 555.095 416.062 555.852C411.407 556.609 407.935 559.079 408.307 561.369C408.68 563.658 412.755 564.9 417.411 564.143Z" fill="#418EAB"/>
<path d="M1145.42 535.843C1150.13 535.522 1153.82 533.386 1153.66 531.072C1153.5 528.757 1149.56 527.141 1144.85 527.462C1140.15 527.783 1136.46 529.919 1136.62 532.233C1136.78 534.547 1140.72 536.163 1145.42 535.843Z" fill="#418EAB"/>
<path d="M1378.47 563.737C1379.13 561.514 1376 558.622 1371.48 557.28C1366.96 555.937 1362.76 556.651 1362.1 558.875C1361.44 561.098 1364.57 563.989 1369.09 565.332C1373.61 566.675 1377.81 565.961 1378.47 563.737Z" fill="#418EAB"/>
<path d="M1184.15 529.91C1184.15 532.23 1178.81 534.11 1172.22 534.11C1165.63 534.11 1160.29 532.23 1160.29 529.91C1160.29 527.59 1165.63 525.71 1172.22 525.71C1178.81 525.71 1184.15 527.59 1184.15 529.91Z" fill="#418EAB"/>
<path d="M389.09 570.379C396.143 569.232 401.56 566.445 401.187 564.156C400.815 561.866 394.795 560.941 387.741 562.088C380.687 563.236 375.271 566.022 375.643 568.312C376.016 570.601 382.036 571.527 389.09 570.379Z" fill="#418EAB"/>
</g>
<path opacity="0.6" d="M947 710L948.5 714.83L947 719.65L955.32 717.32C955.32 717.32 977.5 723.33 986 714.83C986 714.83 976.29 706 955.65 712.66L947 710Z" fill="#2DABE0"/>
<path opacity="0.6" d="M1195 835L1196.5 839.83L1195 844.65L1203.32 842.32C1203.32 842.32 1225.5 848.33 1234 839.83C1234 839.83 1224.29 831 1203.65 837.66L1195 835Z" fill="#2DABE0"/>
<path opacity="0.6" d="M1370 816L1368.5 820.83L1370 825.65L1361.68 823.32C1361.68 823.32 1339.5 829.33 1331 820.83C1331 820.83 1340.71 812 1361.35 818.66L1370 816Z" fill="#2DABE0"/>
<path opacity="0.6" d="M1321 645L1319.5 649.83L1321 654.65L1312.68 652.32C1312.68 652.32 1290.5 658.33 1282 649.83C1282 649.83 1291.71 641 1312.35 647.66L1321 645Z" fill="#2DABE0"/>
<path opacity="0.6" d="M1135 681L1133.5 685.83L1135 690.65L1126.68 688.32C1126.68 688.32 1104.5 694.33 1096 685.83C1096 685.83 1105.71 677 1126.35 683.66L1135 681Z" fill="#2DABE0"/>
<path opacity="0.6" d="M466 601L467.5 605.83L466 610.65L474.32 608.32C474.32 608.32 496.5 614.33 505 605.83C505 605.83 495.29 597 474.65 603.66L466 601Z" fill="#2DABE0"/>
<path opacity="0.6" d="M906 601L904.5 605.83L906 610.65L897.68 608.32C897.68 608.32 875.5 614.33 867 605.83C867 605.83 876.71 597 897.35 603.66L906 601Z" fill="#2DABE0"/>
<path opacity="0.6" d="M109 814L107.5 818.83L109 823.65L100.68 821.32C100.68 821.32 78.5 827.33 70 818.83C70 818.83 79.71 810 100.35 816.66L109 814Z" fill="#2DABE0"/>
<path opacity="0.6" d="M54 625L55.5 629.83L54 634.65L62.32 632.32C62.32 632.32 84.5 638.33 93 629.83C93 629.83 83.29 621 62.65 627.66L54 625Z" fill="#2DABE0"/>
<path opacity="0.6" d="M461 798L462.5 802.83L461 807.65L469.32 805.32C469.32 805.32 491.5 811.33 500 802.83C500 802.83 490.29 794 469.65 800.66L461 798Z" fill="#2DABE0"/>
<path opacity="0.6" d="M259 743L260.5 747.83L259 752.65L267.32 750.32C267.32 750.32 289.5 756.33 298 747.83C298 747.83 288.29 739 267.65 745.66L259 743Z" fill="#2DABE0"/>
<path d="M1205 566L1208.35 577.512L1205 589L1223.56 583.447C1223.56 583.447 1273.04 597.771 1292 577.512C1292 577.512 1270.34 556.466 1224.3 572.34L1205 566Z" fill="#2DABE0"/>
<path d="M1259.75 582.251H1257.83L1257.28 580.588H1253.94L1253.37 582.251H1251.46L1254.88 572.854H1256.31L1259.75 582.251ZM1256.79 579.044L1255.64 575.625L1254.45 579.044H1256.79ZM1262.74 582.251H1260.9V572.854H1262.74V582.251Z" fill="#5DCBF5"/>
<path d="M967 592L971.577 606.515L967 621L992.387 613.998C992.387 613.998 1060.06 632.059 1086 606.515C1086 606.515 1056.37 579.979 993.394 599.994L967 592Z" fill="#2DABE0"/>
<path d="M1017.75 611.251H1015.83L1015.28 609.588H1011.94L1011.37 611.251H1009.46L1012.88 601.854H1014.31L1017.75 611.251ZM1014.79 608.044L1013.64 604.625L1012.45 608.044H1014.79ZM1024.49 611.251H1022.77V607.093C1022.77 606.662 1022.66 606.346 1022.43 606.143C1022.21 605.941 1021.94 605.84 1021.63 605.84C1021.32 605.84 1021.05 605.941 1020.82 606.143C1020.6 606.346 1020.49 606.662 1020.49 607.093V611.251H1018.77V604.375H1020.45V605.008C1020.9 604.533 1021.47 604.295 1022.16 604.295C1022.84 604.295 1023.38 604.498 1023.79 604.902C1024.25 605.369 1024.49 606.02 1024.49 606.856V611.251ZM1031.54 611.251H1029.86V610.657C1029.62 610.895 1029.38 611.066 1029.12 611.172C1028.88 611.269 1028.56 611.317 1028.17 611.317C1027.41 611.317 1026.82 611.115 1026.42 610.71C1026.04 610.314 1025.85 609.799 1025.85 609.166C1025.85 608.585 1026.05 608.11 1026.46 607.74C1026.86 607.362 1027.45 607.173 1028.22 607.173H1029.82V606.829C1029.82 606.451 1029.72 606.178 1029.52 606.011C1029.32 605.835 1028.99 605.747 1028.54 605.747C1028 605.747 1027.56 605.945 1027.22 606.341L1026.14 605.272C1026.47 604.902 1026.82 604.647 1027.18 604.507C1027.55 604.366 1028.03 604.295 1028.61 604.295C1030.56 604.295 1031.54 605.105 1031.54 606.724V611.251ZM1029.82 608.717V608.347H1028.51C1027.84 608.347 1027.5 608.611 1027.5 609.139C1027.5 609.658 1027.85 609.918 1028.54 609.918C1028.99 609.918 1029.33 609.808 1029.56 609.588C1029.73 609.438 1029.82 609.148 1029.82 608.717ZM1036.3 611.251H1035.33C1034.67 611.251 1034.17 611.057 1033.82 610.67C1033.49 610.283 1033.32 609.821 1033.32 609.284V601.854H1035.04V609.179C1035.04 609.592 1035.24 609.799 1035.64 609.799H1036.3V611.251ZM1042.78 604.375L1039.84 612.36C1039.69 612.756 1039.52 613.05 1039.33 613.244C1038.97 613.596 1038.48 613.772 1037.85 613.772H1037.17V612.228H1037.57C1037.82 612.228 1038 612.184 1038.11 612.096C1038.23 612.016 1038.34 611.854 1038.43 611.607L1038.72 610.763L1036.37 604.375H1038.18L1039.6 608.624L1040.98 604.375H1042.78ZM1046.89 611.251H1045.95C1045.3 611.251 1044.8 611.057 1044.46 610.67C1044.13 610.283 1043.96 609.821 1043.96 609.284V605.879H1043.23V604.573H1043.96V602.54H1045.68V604.573H1046.89V605.879H1045.68V609.179C1045.68 609.592 1045.87 609.799 1046.27 609.799H1046.89V611.251ZM1050.16 611.251H1048.44V604.573H1050.16V611.251ZM1050.17 603.2H1048.42V601.801H1050.17V603.2ZM1057.08 610.393C1056.48 611.018 1055.72 611.33 1054.81 611.33C1054.52 611.33 1054.24 611.299 1053.96 611.238C1053.69 611.167 1053.41 611.053 1053.13 610.895C1052.86 610.727 1052.62 610.516 1052.42 610.261C1052.22 609.997 1052.05 609.658 1051.92 609.245C1051.79 608.822 1051.73 608.343 1051.73 607.806C1051.73 607.269 1051.79 606.794 1051.92 606.381C1052.05 605.958 1052.22 605.62 1052.42 605.364C1052.62 605.109 1052.86 604.898 1053.13 604.731C1053.41 604.564 1053.69 604.449 1053.96 604.388C1054.24 604.326 1054.52 604.295 1054.81 604.295C1055.73 604.295 1056.49 604.603 1057.08 605.219L1055.92 606.381C1055.58 606.02 1055.21 605.84 1054.81 605.84C1054.4 605.84 1054.08 605.989 1053.83 606.288C1053.58 606.605 1053.45 607.111 1053.45 607.806C1053.45 608.51 1053.58 609.02 1053.83 609.337C1054.08 609.636 1054.4 609.786 1054.81 609.786C1055.21 609.786 1055.58 609.606 1055.92 609.245L1057.08 610.393ZM1063.4 609.086C1063.4 609.817 1063.13 610.375 1062.58 610.763C1062.03 611.141 1061.33 611.33 1060.48 611.33C1059.85 611.33 1059.3 611.264 1058.84 611.132C1058.39 611 1057.96 610.736 1057.55 610.34L1058.67 609.218C1059.1 609.65 1059.71 609.865 1060.51 609.865C1060.84 609.865 1061.13 609.808 1061.37 609.694C1061.6 609.57 1061.72 609.39 1061.72 609.152C1061.72 608.774 1061.48 608.563 1061 608.519L1059.89 608.413C1058.57 608.281 1057.91 607.639 1057.91 606.486C1057.91 605.8 1058.16 605.263 1058.67 604.876C1059.19 604.489 1059.82 604.295 1060.56 604.295C1061.73 604.295 1062.61 604.564 1063.19 605.1L1062.13 606.17C1061.79 605.862 1061.26 605.708 1060.53 605.708C1060.21 605.708 1059.96 605.774 1059.8 605.906C1059.64 606.029 1059.56 606.183 1059.56 606.368C1059.56 606.711 1059.8 606.909 1060.27 606.961L1061.35 607.067C1062.72 607.199 1063.4 607.872 1063.4 609.086Z" fill="#5DCBF5"/>
<path d="M252 621L255.5 633.513L252 646L271.413 639.964C271.413 639.964 323.167 655.534 343 633.513C343 633.513 320.343 610.637 272.183 627.891L252 621Z" fill="#2DABE0"/>
<path d="M300.204 631.48C300.275 631.938 300.31 632.628 300.31 633.552C300.31 634.476 300.275 635.171 300.204 635.638C300.143 636.095 299.98 636.509 299.716 636.878C299.056 637.793 298.11 638.251 296.878 638.251H293.486V628.854H296.878C298.11 628.854 299.056 629.311 299.716 630.226C299.98 630.596 300.143 631.014 300.204 631.48ZM298.409 635.242C298.453 634.907 298.475 634.344 298.475 633.552C298.475 632.76 298.453 632.197 298.409 631.863C298.365 631.529 298.26 631.265 298.092 631.071C297.784 630.684 297.327 630.49 296.72 630.49H295.321V636.614H296.72C297.327 636.614 297.784 636.421 298.092 636.034C298.26 635.84 298.365 635.576 298.409 635.242ZM307.703 635.347H303.401C303.401 635.805 303.533 636.174 303.797 636.456C304.06 636.738 304.43 636.878 304.905 636.878C305.257 636.878 305.543 636.83 305.763 636.733C305.992 636.628 306.225 636.46 306.463 636.232L307.505 637.248C307.136 637.626 306.753 637.903 306.357 638.079C305.97 638.247 305.482 638.33 304.892 638.33C304.452 638.33 304.052 638.277 303.691 638.172C303.339 638.057 303.009 637.873 302.701 637.617C302.393 637.362 302.151 636.997 301.975 636.522C301.799 636.047 301.711 635.475 301.711 634.806C301.711 633.706 301.984 632.848 302.529 632.232C303.075 631.608 303.801 631.295 304.707 631.295C305.649 631.295 306.383 631.603 306.911 632.219C307.439 632.826 307.703 633.627 307.703 634.621V635.347ZM306.014 634.173C306.005 633.873 305.952 633.627 305.855 633.434C305.644 632.958 305.262 632.721 304.707 632.721C304.153 632.721 303.77 632.958 303.559 633.434C303.462 633.627 303.409 633.873 303.401 634.173H306.014ZM315.607 630.49H311.252V632.8H314.96V634.437H311.252V638.251H309.417V628.854H315.607V630.49ZM318.786 638.251H317.07V631.573H318.786V638.251ZM318.799 630.2H317.044V628.801H318.799V630.2Z" fill="#5DCBF5"/>
<path d="M1006 765L1012.19 785.011L1006 804.98L1040.35 795.327C1040.35 795.327 1131.91 820.226 1167 785.011C1167 785.011 1126.92 748.428 1041.71 776.02L1006 765Z" fill="#2DABE0"/>
<path d="M1066.2 782.97C1066.27 783.427 1066.31 784.118 1066.31 785.042C1066.31 785.966 1066.27 786.661 1066.2 787.127C1066.14 787.585 1065.98 787.999 1065.72 788.368C1065.06 789.283 1064.11 789.741 1062.88 789.741H1059.49V780.343H1062.88C1064.11 780.343 1065.06 780.801 1065.72 781.716C1065.98 782.086 1066.14 782.504 1066.2 782.97ZM1064.41 786.731C1064.45 786.397 1064.48 785.834 1064.48 785.042C1064.48 784.25 1064.45 783.687 1064.41 783.353C1064.37 783.018 1064.26 782.754 1064.09 782.561C1063.78 782.174 1063.33 781.98 1062.72 781.98H1061.32V788.104H1062.72C1063.33 788.104 1063.78 787.911 1064.09 787.523C1064.26 787.33 1064.37 787.066 1064.41 786.731ZM1073.25 789.741H1071.58V789.147C1071.34 789.384 1071.09 789.556 1070.84 789.662C1070.59 789.758 1070.28 789.807 1069.89 789.807C1069.12 789.807 1068.54 789.604 1068.13 789.2C1067.76 788.804 1067.57 788.289 1067.57 787.655C1067.57 787.075 1067.77 786.599 1068.17 786.23C1068.58 785.852 1069.17 785.662 1069.94 785.662H1071.54V785.319C1071.54 784.941 1071.44 784.668 1071.24 784.501C1071.03 784.325 1070.71 784.237 1070.26 784.237C1069.72 784.237 1069.28 784.435 1068.94 784.831L1067.86 783.762C1068.19 783.392 1068.54 783.137 1068.9 782.996C1069.27 782.856 1069.74 782.785 1070.32 782.785C1072.28 782.785 1073.25 783.595 1073.25 785.214V789.741ZM1071.54 787.207V786.837H1070.23C1069.55 786.837 1069.22 787.101 1069.22 787.629C1069.22 788.148 1069.56 788.408 1070.26 788.408C1070.71 788.408 1071.05 788.298 1071.27 788.078C1071.45 787.928 1071.54 787.638 1071.54 787.207ZM1080.82 789.741H1079.1V785.583C1079.1 785.152 1078.99 784.835 1078.76 784.633C1078.54 784.431 1078.28 784.329 1077.97 784.329C1077.65 784.329 1077.38 784.431 1077.15 784.633C1076.93 784.835 1076.82 785.152 1076.82 785.583V789.741H1075.1V782.864H1076.78V783.498C1077.23 783.023 1077.8 782.785 1078.5 782.785C1079.17 782.785 1079.72 782.987 1080.12 783.392C1080.59 783.859 1080.82 784.51 1080.82 785.346V789.741ZM1088.93 789.741H1086.8L1085.11 786.877L1084.39 787.695V789.741H1082.67V780.343H1084.39V785.676L1086.67 782.864H1088.74L1086.29 785.636L1088.93 789.741ZM1093.4 786.771H1089.33V785.174H1093.4V786.771ZM1100.31 787.576C1100.31 788.306 1100.04 788.865 1099.49 789.252C1098.94 789.631 1098.24 789.82 1097.39 789.82C1096.76 789.82 1096.21 789.754 1095.75 789.622C1095.3 789.49 1094.87 789.226 1094.46 788.83L1095.58 787.708C1096.01 788.139 1096.62 788.355 1097.42 788.355C1097.75 788.355 1098.04 788.298 1098.28 788.183C1098.51 788.06 1098.63 787.88 1098.63 787.642C1098.63 787.264 1098.39 787.053 1097.91 787.009L1096.8 786.903C1095.48 786.771 1094.82 786.129 1094.82 784.976C1094.82 784.29 1095.07 783.753 1095.58 783.366C1096.1 782.979 1096.73 782.785 1097.47 782.785C1098.64 782.785 1099.52 783.053 1100.1 783.59L1099.04 784.659C1098.7 784.351 1098.17 784.197 1097.44 784.197C1097.12 784.197 1096.87 784.263 1096.71 784.395C1096.55 784.519 1096.47 784.672 1096.47 784.857C1096.47 785.2 1096.71 785.398 1097.18 785.451L1098.26 785.557C1099.63 785.689 1100.31 786.362 1100.31 787.576ZM1107.46 789.741H1105.75V785.583C1105.75 785.152 1105.63 784.835 1105.4 784.633C1105.18 784.431 1104.92 784.329 1104.61 784.329C1104.29 784.329 1104.02 784.431 1103.79 784.633C1103.57 784.835 1103.46 785.152 1103.46 785.583V789.741H1101.75V780.343H1103.46V783.498C1103.89 783.023 1104.45 782.785 1105.14 782.785C1105.82 782.785 1106.36 782.987 1106.76 783.392C1107.23 783.859 1107.46 784.51 1107.46 785.346V789.741ZM1114.51 789.741H1112.84V789.147C1112.6 789.384 1112.35 789.556 1112.1 789.662C1111.85 789.758 1111.53 789.807 1111.15 789.807C1110.38 789.807 1109.8 789.604 1109.39 789.2C1109.01 788.804 1108.82 788.289 1108.82 787.655C1108.82 787.075 1109.03 786.599 1109.43 786.23C1109.84 785.852 1110.43 785.662 1111.2 785.662H1112.8V785.319C1112.8 784.941 1112.7 784.668 1112.49 784.501C1112.29 784.325 1111.97 784.237 1111.52 784.237C1110.98 784.237 1110.54 784.435 1110.2 784.831L1109.11 783.762C1109.45 783.392 1109.8 783.137 1110.16 782.996C1110.53 782.856 1111 782.785 1111.58 782.785C1113.54 782.785 1114.51 783.595 1114.51 785.214V789.741ZM1112.8 787.207V786.837H1111.49C1110.81 786.837 1110.47 787.101 1110.47 787.629C1110.47 788.148 1110.82 788.408 1111.52 788.408C1111.97 788.408 1112.3 788.298 1112.53 788.078C1112.71 787.928 1112.8 787.638 1112.8 787.207ZM1121.39 783.432L1120.1 784.738C1119.83 784.466 1119.52 784.329 1119.19 784.329C1118.9 784.329 1118.64 784.439 1118.41 784.659C1118.19 784.879 1118.08 785.192 1118.08 785.596V789.741H1116.36V782.864H1118.04V783.524C1118.22 783.313 1118.46 783.137 1118.77 782.996C1119.08 782.856 1119.42 782.785 1119.77 782.785C1120.42 782.785 1120.96 783.001 1121.39 783.432ZM1127.45 789.741H1125.77V789.094C1125.34 789.578 1124.77 789.82 1124.07 789.82C1123.35 789.82 1122.79 789.613 1122.39 789.2C1122.09 788.892 1121.9 788.509 1121.81 788.051C1121.72 787.594 1121.68 787.009 1121.68 786.296C1121.68 785.592 1121.72 785.011 1121.81 784.554C1121.9 784.096 1122.09 783.713 1122.39 783.405C1122.79 782.992 1123.34 782.785 1124.06 782.785C1124.76 782.785 1125.32 783.014 1125.73 783.471V780.343H1127.45V789.741ZM1125.73 786.296C1125.73 785.654 1125.65 785.165 1125.49 784.831C1125.34 784.497 1125.03 784.329 1124.56 784.329C1124.31 784.329 1124.1 784.378 1123.94 784.475C1123.78 784.571 1123.66 784.716 1123.58 784.91C1123.51 785.104 1123.46 785.306 1123.43 785.517C1123.41 785.72 1123.4 785.979 1123.4 786.296C1123.4 786.613 1123.41 786.877 1123.43 787.088C1123.46 787.29 1123.51 787.493 1123.58 787.695C1123.66 787.889 1123.78 788.034 1123.94 788.131C1124.1 788.227 1124.31 788.276 1124.56 788.276C1124.8 788.276 1125.01 788.227 1125.16 788.131C1125.33 788.034 1125.45 787.889 1125.53 787.695C1125.61 787.501 1125.67 787.299 1125.69 787.088C1125.72 786.868 1125.73 786.604 1125.73 786.296ZM1131.08 789.741H1129.37V783.062H1131.08V789.741ZM1131.1 781.69H1129.34V780.291H1131.1V781.69ZM1138.72 789.741H1137V785.583C1137 785.152 1136.89 784.835 1136.66 784.633C1136.44 784.431 1136.17 784.329 1135.87 784.329C1135.55 784.329 1135.28 784.431 1135.05 784.633C1134.83 784.835 1134.72 785.152 1134.72 785.583V789.741H1133V782.864H1134.68V783.498C1135.13 783.023 1135.7 782.785 1136.39 782.785C1137.07 782.785 1137.61 782.987 1138.02 783.392C1138.48 783.859 1138.72 784.51 1138.72 785.346V789.741ZM1145.97 789.49C1145.97 790.326 1145.69 791.008 1145.14 791.536C1144.59 792.072 1143.86 792.341 1142.94 792.341C1142.4 792.341 1141.93 792.275 1141.55 792.143C1141.16 792.011 1140.79 791.778 1140.45 791.443L1141.52 790.361C1141.88 790.713 1142.33 790.889 1142.87 790.889C1143.34 790.889 1143.69 790.748 1143.91 790.467C1144.14 790.194 1144.25 789.86 1144.25 789.464V788.764C1143.84 789.222 1143.29 789.45 1142.61 789.45C1141.93 789.45 1141.38 789.248 1140.98 788.843C1140.68 788.544 1140.49 788.192 1140.4 787.787C1140.32 787.374 1140.28 786.815 1140.28 786.111C1140.28 785.407 1140.32 784.853 1140.4 784.448C1140.49 784.043 1140.68 783.691 1140.98 783.392C1141.38 782.987 1141.93 782.785 1142.63 782.785C1143.31 782.785 1143.86 783.027 1144.3 783.511V782.864H1145.97V789.49ZM1144.25 786.111C1144.25 785.557 1144.18 785.121 1144.03 784.804C1143.88 784.488 1143.57 784.329 1143.12 784.329C1142.87 784.329 1142.67 784.378 1142.51 784.475C1142.36 784.563 1142.24 784.699 1142.17 784.884C1142.1 785.068 1142.05 785.253 1142.02 785.438C1142 785.623 1141.99 785.847 1141.99 786.111C1141.99 786.375 1142 786.599 1142.02 786.784C1142.05 786.969 1142.1 787.154 1142.17 787.339C1142.24 787.523 1142.35 787.664 1142.51 787.761C1142.67 787.858 1142.87 787.906 1143.12 787.906C1143.36 787.906 1143.56 787.858 1143.72 787.761C1143.88 787.664 1144 787.523 1144.07 787.339C1144.14 787.154 1144.19 786.969 1144.21 786.784C1144.24 786.599 1144.25 786.375 1144.25 786.111Z" fill="#5DCBF5"/>
<path d="M193 699L188.577 713.015L193 727L168.467 720.239C168.467 720.239 103.064 737.678 78 713.015C78 713.015 106.632 687.394 167.494 706.718L193 699Z" fill="#2DABE0"/>
<path d="M112.776 714.969C112.776 715.858 112.451 716.557 111.799 717.068C111.148 717.569 110.312 717.82 109.292 717.82C108.544 717.82 107.897 717.728 107.352 717.543C106.806 717.349 106.309 717.028 105.86 716.579L107.048 715.391C107.576 715.919 108.328 716.183 109.305 716.183C109.85 716.183 110.264 716.082 110.546 715.88C110.836 715.677 110.981 715.387 110.981 715.009C110.981 714.683 110.884 714.423 110.691 714.23C110.524 714.072 110.242 713.966 109.846 713.913L108.724 713.742C107.932 713.627 107.325 713.368 106.903 712.963C106.454 712.523 106.23 711.907 106.23 711.115C106.23 710.262 106.524 709.575 107.114 709.056C107.704 708.528 108.5 708.264 109.503 708.264C110.77 708.264 111.782 708.629 112.539 709.36L111.377 710.508C110.937 710.077 110.295 709.861 109.45 709.861C108.984 709.861 108.627 709.976 108.381 710.204C108.135 710.424 108.012 710.706 108.012 711.049C108.012 711.331 108.099 711.555 108.275 711.722C108.478 711.907 108.764 712.026 109.133 712.079L110.255 712.25C111.056 712.365 111.654 712.611 112.05 712.989C112.534 713.438 112.776 714.098 112.776 714.969ZM119.901 714.296C119.901 714.956 119.844 715.493 119.729 715.906C119.624 716.311 119.421 716.667 119.122 716.975C118.577 717.538 117.864 717.82 116.984 717.82C116.113 717.82 115.405 717.538 114.859 716.975C114.56 716.658 114.353 716.298 114.239 715.893C114.133 715.479 114.08 714.947 114.08 714.296C114.08 713.645 114.133 713.117 114.239 712.712C114.353 712.307 114.56 711.947 114.859 711.63C115.405 711.067 116.113 710.785 116.984 710.785C117.882 710.785 118.594 711.067 119.122 711.63C119.421 711.947 119.624 712.307 119.729 712.712C119.844 713.117 119.901 713.645 119.901 714.296ZM118.185 714.296C118.185 713.442 118.053 712.888 117.789 712.633C117.587 712.431 117.318 712.329 116.984 712.329C116.659 712.329 116.395 712.431 116.192 712.633C115.928 712.888 115.796 713.442 115.796 714.296C115.796 715.158 115.928 715.717 116.192 715.972C116.395 716.175 116.659 716.276 116.984 716.276C117.318 716.276 117.587 716.175 117.789 715.972C118.053 715.717 118.185 715.158 118.185 714.296ZM124.454 717.741H123.477C122.817 717.741 122.316 717.547 121.973 717.16C121.638 716.773 121.471 716.311 121.471 715.774V708.343H123.187V715.669C123.187 716.082 123.389 716.289 123.794 716.289H124.454V717.741ZM131.029 717.741H129.353V717.147C129.116 717.384 128.869 717.556 128.614 717.662C128.368 717.758 128.051 717.807 127.664 717.807C126.898 717.807 126.313 717.604 125.908 717.2C125.53 716.804 125.341 716.289 125.341 715.655C125.341 715.075 125.543 714.599 125.948 714.23C126.353 713.852 126.942 713.662 127.717 713.662H129.314V713.319C129.314 712.941 129.212 712.668 129.01 712.501C128.808 712.325 128.482 712.237 128.033 712.237C127.497 712.237 127.057 712.435 126.714 712.831L125.631 711.762C125.966 711.392 126.313 711.137 126.674 710.996C127.044 710.856 127.519 710.785 128.099 710.785C130.053 710.785 131.029 711.595 131.029 713.214V717.741ZM129.314 715.207V714.837H128.007C127.33 714.837 126.991 715.101 126.991 715.629C126.991 716.148 127.338 716.408 128.033 716.408C128.482 716.408 128.821 716.298 129.05 716.078C129.226 715.928 129.314 715.638 129.314 715.207ZM138.595 717.741H136.879V713.583C136.879 713.152 136.764 712.835 136.536 712.633C136.316 712.431 136.052 712.329 135.744 712.329C135.427 712.329 135.154 712.431 134.925 712.633C134.705 712.835 134.595 713.152 134.595 713.583V717.741H132.88V710.864H134.556V711.498C135.005 711.023 135.577 710.785 136.272 710.785C136.949 710.785 137.49 710.987 137.895 711.392C138.361 711.859 138.595 712.51 138.595 713.346V717.741ZM145.646 717.741H143.97V717.147C143.732 717.384 143.486 717.556 143.23 717.662C142.984 717.758 142.667 717.807 142.28 717.807C141.515 717.807 140.93 717.604 140.525 717.2C140.146 716.804 139.957 716.289 139.957 715.655C139.957 715.075 140.16 714.599 140.564 714.23C140.969 713.852 141.559 713.662 142.333 713.662H143.93V713.319C143.93 712.941 143.829 712.668 143.626 712.501C143.424 712.325 143.098 712.237 142.65 712.237C142.113 712.237 141.673 712.435 141.33 712.831L140.248 711.762C140.582 711.392 140.93 711.137 141.29 710.996C141.66 710.856 142.135 710.785 142.716 710.785C144.669 710.785 145.646 711.595 145.646 713.214V717.741ZM143.93 715.207V714.837H142.623C141.946 714.837 141.607 715.101 141.607 715.629C141.607 716.148 141.955 716.408 142.65 716.408C143.098 716.408 143.437 716.298 143.666 716.078C143.842 715.928 143.93 715.638 143.93 715.207Z" fill="#5DCBF5"/>
<path d="M1358 706L1353.42 720.515L1358 735L1332.61 727.998C1332.61 727.998 1264.94 746.059 1239 720.515C1239 720.515 1268.63 693.979 1331.61 713.994L1358 706Z" fill="#2DABE0"/>
<path d="M1269.89 717.49H1265.54V719.8H1269.25V721.437H1265.54V725.251H1263.7V715.854H1269.89V717.49ZM1276.16 725.251H1274.48V724.657C1274.24 724.895 1274 725.066 1273.74 725.172C1273.5 725.269 1273.18 725.317 1272.79 725.317C1272.03 725.317 1271.44 725.115 1271.04 724.71C1270.66 724.314 1270.47 723.799 1270.47 723.166C1270.47 722.585 1270.67 722.11 1271.08 721.74C1271.48 721.362 1272.07 721.173 1272.85 721.173H1274.44V720.829C1274.44 720.451 1274.34 720.178 1274.14 720.011C1273.94 719.835 1273.61 719.747 1273.16 719.747C1272.63 719.747 1272.19 719.945 1271.84 720.341L1270.76 719.272C1271.09 718.902 1271.44 718.647 1271.8 718.507C1272.17 718.366 1272.65 718.295 1273.23 718.295C1275.18 718.295 1276.16 719.105 1276.16 720.724V725.251ZM1274.44 722.717V722.347H1273.14C1272.46 722.347 1272.12 722.611 1272.12 723.139C1272.12 723.658 1272.47 723.918 1273.16 723.918C1273.61 723.918 1273.95 723.808 1274.18 723.588C1274.35 723.438 1274.44 723.148 1274.44 722.717ZM1283.04 718.942L1281.74 720.249C1281.47 719.976 1281.17 719.84 1280.83 719.84C1280.54 719.84 1280.28 719.95 1280.05 720.17C1279.83 720.39 1279.72 720.702 1279.72 721.107V725.251H1278.01V718.375H1279.68V719.034C1279.86 718.823 1280.1 718.647 1280.41 718.507C1280.73 718.366 1281.06 718.295 1281.41 718.295C1282.07 718.295 1282.61 718.511 1283.04 718.942ZM1288.62 724.393C1288.02 725.018 1287.26 725.33 1286.35 725.33C1286.06 725.33 1285.78 725.299 1285.5 725.238C1285.23 725.167 1284.95 725.053 1284.67 724.895C1284.4 724.727 1284.16 724.516 1283.96 724.261C1283.76 723.997 1283.59 723.658 1283.46 723.245C1283.33 722.822 1283.27 722.343 1283.27 721.806C1283.27 721.269 1283.33 720.794 1283.46 720.381C1283.59 719.958 1283.76 719.62 1283.96 719.364C1284.16 719.109 1284.4 718.898 1284.67 718.731C1284.95 718.564 1285.23 718.449 1285.5 718.388C1285.78 718.326 1286.06 718.295 1286.35 718.295C1287.27 718.295 1288.03 718.603 1288.62 719.219L1287.46 720.381C1287.12 720.02 1286.75 719.84 1286.35 719.84C1285.94 719.84 1285.62 719.989 1285.37 720.288C1285.12 720.605 1284.99 721.111 1284.99 721.806C1284.99 722.51 1285.12 723.02 1285.37 723.337C1285.62 723.636 1285.94 723.786 1286.35 723.786C1286.75 723.786 1287.12 723.606 1287.46 723.245L1288.62 724.393ZM1295.09 725.251H1293.42V724.657C1293.18 724.895 1292.93 725.066 1292.68 725.172C1292.43 725.269 1292.11 725.317 1291.73 725.317C1290.96 725.317 1290.38 725.115 1289.97 724.71C1289.59 724.314 1289.4 723.799 1289.4 723.166C1289.4 722.585 1289.61 722.11 1290.01 721.74C1290.42 721.362 1291.01 721.173 1291.78 721.173H1293.38V720.829C1293.38 720.451 1293.28 720.178 1293.07 720.011C1292.87 719.835 1292.55 719.747 1292.1 719.747C1291.56 719.747 1291.12 719.945 1290.78 720.341L1289.69 719.272C1290.03 718.902 1290.38 718.647 1290.74 718.507C1291.11 718.366 1291.58 718.295 1292.16 718.295C1294.12 718.295 1295.09 719.105 1295.09 720.724V725.251ZM1293.38 722.717V722.347H1292.07C1291.39 722.347 1291.05 722.611 1291.05 723.139C1291.05 723.658 1291.4 723.918 1292.1 723.918C1292.55 723.918 1292.88 723.808 1293.11 723.588C1293.29 723.438 1293.38 723.148 1293.38 722.717ZM1302.12 723.086C1302.12 723.817 1301.84 724.375 1301.3 724.763C1300.75 725.141 1300.05 725.33 1299.2 725.33C1298.57 725.33 1298.02 725.264 1297.56 725.132C1297.11 725 1296.67 724.736 1296.27 724.34L1297.39 723.218C1297.81 723.65 1298.43 723.865 1299.23 723.865C1299.56 723.865 1299.85 723.808 1300.08 723.694C1300.32 723.57 1300.44 723.39 1300.44 723.152C1300.44 722.774 1300.2 722.563 1299.71 722.519L1298.61 722.413C1297.29 722.281 1296.63 721.639 1296.63 720.486C1296.63 719.8 1296.88 719.263 1297.39 718.876C1297.91 718.489 1298.54 718.295 1299.28 718.295C1300.45 718.295 1301.32 718.564 1301.91 719.1L1300.85 720.17C1300.51 719.862 1299.97 719.708 1299.25 719.708C1298.93 719.708 1298.68 719.774 1298.51 719.906C1298.36 720.029 1298.28 720.183 1298.28 720.368C1298.28 720.711 1298.51 720.909 1298.99 720.961L1300.07 721.067C1301.43 721.199 1302.12 721.872 1302.12 723.086ZM1306.51 725.251H1305.58C1304.93 725.251 1304.43 725.057 1304.09 724.67C1303.75 724.283 1303.58 723.821 1303.58 723.284V719.879H1302.86V718.573H1303.58V716.54H1305.3V718.573H1306.51V719.879H1305.3V723.179C1305.3 723.592 1305.5 723.799 1305.89 723.799H1306.51V725.251ZM1313.65 722.347H1309.35C1309.35 722.805 1309.48 723.174 1309.74 723.456C1310.01 723.738 1310.38 723.878 1310.85 723.878C1311.2 723.878 1311.49 723.83 1311.71 723.733C1311.94 723.628 1312.17 723.46 1312.41 723.232L1313.45 724.248C1313.08 724.626 1312.7 724.903 1312.3 725.079C1311.92 725.247 1311.43 725.33 1310.84 725.33C1310.4 725.33 1310 725.277 1309.64 725.172C1309.29 725.057 1308.96 724.873 1308.65 724.617C1308.34 724.362 1308.1 723.997 1307.92 723.522C1307.75 723.047 1307.66 722.475 1307.66 721.806C1307.66 720.706 1307.93 719.848 1308.48 719.232C1309.02 718.608 1309.75 718.295 1310.65 718.295C1311.6 718.295 1312.33 718.603 1312.86 719.219C1313.39 719.826 1313.65 720.627 1313.65 721.621V722.347ZM1311.96 721.173C1311.95 720.873 1311.9 720.627 1311.8 720.434C1311.59 719.958 1311.21 719.721 1310.65 719.721C1310.1 719.721 1309.72 719.958 1309.51 720.434C1309.41 720.627 1309.36 720.873 1309.35 721.173H1311.96ZM1320.26 718.942L1318.97 720.249C1318.7 719.976 1318.39 719.84 1318.06 719.84C1317.77 719.84 1317.51 719.95 1317.28 720.17C1317.06 720.39 1316.95 720.702 1316.95 721.107V725.251H1315.23V718.375H1316.91V719.034C1317.08 718.823 1317.33 718.647 1317.63 718.507C1317.95 718.366 1318.29 718.295 1318.64 718.295C1319.29 718.295 1319.83 718.511 1320.26 718.942Z" fill="#5DCBF5"/>
<path d="M330 801L323.808 821.011L330 840.98L295.653 831.327C295.653 831.327 204.09 856.226 169 821.011C169 821.011 209.085 784.428 294.291 812.02L330 801Z" fill="#2DABE0"/>
<path d="M212.964 824.741H211.05L210.496 823.078H207.157L206.589 824.741H204.675L208.094 815.343H209.532L212.964 824.741ZM210.008 821.533L208.859 818.115L207.671 821.533H210.008ZM219.744 821.296C219.744 822.009 219.7 822.594 219.612 823.051C219.524 823.509 219.33 823.892 219.031 824.2C218.635 824.613 218.081 824.82 217.368 824.82C216.656 824.82 216.101 824.591 215.705 824.134V827.262H213.989V817.864H215.653V818.511C216.084 818.027 216.656 817.785 217.368 817.785C218.081 817.785 218.635 817.992 219.031 818.405C219.33 818.713 219.524 819.096 219.612 819.554C219.7 820.011 219.744 820.592 219.744 821.296ZM217.989 822.088C218.015 821.877 218.028 821.613 218.028 821.296C218.028 820.979 218.015 820.72 217.989 820.517C217.962 820.306 217.909 820.104 217.83 819.91C217.76 819.716 217.641 819.571 217.474 819.475C217.316 819.378 217.113 819.329 216.867 819.329C216.62 819.329 216.414 819.378 216.246 819.475C216.088 819.571 215.969 819.716 215.89 819.91C215.82 820.104 215.771 820.306 215.745 820.517C215.718 820.72 215.705 820.979 215.705 821.296C215.705 821.613 215.718 821.877 215.745 822.088C215.771 822.29 215.82 822.493 215.89 822.695C215.969 822.889 216.088 823.034 216.246 823.131C216.414 823.227 216.62 823.276 216.867 823.276C217.113 823.276 217.316 823.227 217.474 823.131C217.641 823.034 217.76 822.889 217.83 822.695C217.909 822.493 217.962 822.29 217.989 822.088ZM227.13 821.296C227.13 822.009 227.086 822.594 226.998 823.051C226.91 823.509 226.716 823.892 226.417 824.2C226.021 824.613 225.467 824.82 224.754 824.82C224.041 824.82 223.487 824.591 223.091 824.134V827.262H221.375V817.864H223.038V818.511C223.469 818.027 224.041 817.785 224.754 817.785C225.467 817.785 226.021 817.992 226.417 818.405C226.716 818.713 226.91 819.096 226.998 819.554C227.086 820.011 227.13 820.592 227.13 821.296ZM225.374 822.088C225.401 821.877 225.414 821.613 225.414 821.296C225.414 820.979 225.401 820.72 225.374 820.517C225.348 820.306 225.295 820.104 225.216 819.91C225.145 819.716 225.027 819.571 224.859 819.475C224.701 819.378 224.499 819.329 224.252 819.329C224.006 819.329 223.799 819.378 223.632 819.475C223.474 819.571 223.355 819.716 223.276 819.91C223.205 820.104 223.157 820.306 223.13 820.517C223.104 820.72 223.091 820.979 223.091 821.296C223.091 821.613 223.104 821.877 223.13 822.088C223.157 822.29 223.205 822.493 223.276 822.695C223.355 822.889 223.474 823.034 223.632 823.131C223.799 823.227 224.006 823.276 224.252 823.276C224.499 823.276 224.701 823.227 224.859 823.131C225.027 823.034 225.145 822.889 225.216 822.695C225.295 822.493 225.348 822.29 225.374 822.088ZM233.763 823.883C233.164 824.508 232.408 824.82 231.493 824.82C231.202 824.82 230.921 824.789 230.648 824.728C230.375 824.657 230.098 824.543 229.816 824.384C229.544 824.217 229.306 824.006 229.104 823.751C228.901 823.487 228.734 823.148 228.602 822.735C228.479 822.312 228.417 821.833 228.417 821.296C228.417 820.759 228.479 820.284 228.602 819.87C228.734 819.448 228.901 819.109 229.104 818.854C229.306 818.599 229.544 818.388 229.816 818.221C230.098 818.053 230.375 817.939 230.648 817.877C230.921 817.816 231.202 817.785 231.493 817.785C232.416 817.785 233.173 818.093 233.763 818.709L232.601 819.87C232.267 819.51 231.897 819.329 231.493 819.329C231.088 819.329 230.762 819.479 230.516 819.778C230.261 820.095 230.133 820.601 230.133 821.296C230.133 822 230.261 822.51 230.516 822.827C230.762 823.126 231.088 823.276 231.493 823.276C231.897 823.276 232.267 823.095 232.601 822.735L233.763 823.883ZM240.817 824.741H239.101V820.583C239.101 820.152 238.987 819.835 238.758 819.633C238.538 819.431 238.274 819.329 237.966 819.329C237.649 819.329 237.376 819.431 237.148 819.633C236.928 819.835 236.818 820.152 236.818 820.583V824.741H235.102V815.343H236.818V818.498C237.249 818.023 237.808 817.785 238.494 817.785C239.171 817.785 239.713 817.987 240.117 818.392C240.584 818.859 240.817 819.51 240.817 820.346V824.741ZM247.868 824.741H246.192V824.147C245.954 824.384 245.708 824.556 245.453 824.662C245.206 824.758 244.89 824.807 244.502 824.807C243.737 824.807 243.152 824.604 242.747 824.2C242.369 823.804 242.18 823.289 242.18 822.655C242.18 822.075 242.382 821.599 242.787 821.23C243.191 820.852 243.781 820.662 244.555 820.662H246.152V820.319C246.152 819.941 246.051 819.668 245.849 819.501C245.646 819.325 245.321 819.237 244.872 819.237C244.335 819.237 243.895 819.435 243.552 819.831L242.47 818.762C242.804 818.392 243.152 818.137 243.513 817.996C243.882 817.856 244.357 817.785 244.938 817.785C246.891 817.785 247.868 818.595 247.868 820.214V824.741ZM246.152 822.207V821.837H244.846C244.168 821.837 243.829 822.101 243.829 822.629C243.829 823.148 244.177 823.408 244.872 823.408C245.321 823.408 245.66 823.298 245.888 823.078C246.064 822.928 246.152 822.638 246.152 822.207ZM251.434 824.741H249.718V818.062H251.434V824.741ZM251.447 816.69H249.692V815.291H251.447V816.69ZM259.068 824.741H257.352V820.583C257.352 820.152 257.238 819.835 257.009 819.633C256.789 819.431 256.525 819.329 256.217 819.329C255.9 819.329 255.628 819.431 255.399 819.633C255.179 819.835 255.069 820.152 255.069 820.583V824.741H253.353V817.864H255.029V818.498C255.478 818.023 256.05 817.785 256.745 817.785C257.423 817.785 257.964 817.987 258.368 818.392C258.835 818.859 259.068 819.51 259.068 820.346V824.741ZM266.093 822.576C266.093 823.306 265.82 823.865 265.274 824.252C264.729 824.631 264.029 824.82 263.176 824.82C262.542 824.82 261.997 824.754 261.539 824.622C261.082 824.49 260.651 824.226 260.246 823.83L261.368 822.708C261.79 823.139 262.402 823.355 263.202 823.355C263.537 823.355 263.823 823.298 264.06 823.183C264.298 823.06 264.417 822.88 264.417 822.642C264.417 822.264 264.175 822.053 263.691 822.009L262.582 821.903C261.262 821.771 260.602 821.129 260.602 819.976C260.602 819.29 260.857 818.753 261.368 818.366C261.887 817.979 262.516 817.785 263.255 817.785C264.425 817.785 265.301 818.053 265.882 818.59L264.826 819.659C264.483 819.351 263.95 819.197 263.229 819.197C262.903 819.197 262.657 819.263 262.49 819.395C262.331 819.519 262.252 819.672 262.252 819.857C262.252 820.2 262.49 820.398 262.965 820.451L264.047 820.557C265.411 820.689 266.093 821.362 266.093 822.576Z" fill="#5DCBF5"/>
<path d="M808 617L803.731 631.015L808 645L784.32 638.239C784.32 638.239 721.192 655.678 697 631.015C697 631.015 724.636 605.394 783.381 624.718L808 617Z" fill="#2DABE0"/>
<path d="M731.423 628.97C731.493 629.427 731.528 630.118 731.528 631.042C731.528 631.966 731.493 632.661 731.423 633.127C731.361 633.585 731.199 633.999 730.935 634.368C730.275 635.283 729.329 635.741 728.097 635.741H724.705V626.343H728.097C729.329 626.343 730.275 626.801 730.935 627.716C731.199 628.086 731.361 628.504 731.423 628.97ZM729.628 632.731C729.672 632.397 729.694 631.834 729.694 631.042C729.694 630.25 729.672 629.687 729.628 629.353C729.584 629.018 729.478 628.754 729.311 628.561C729.003 628.174 728.546 627.98 727.938 627.98H726.539V634.104H727.938C728.546 634.104 729.003 633.911 729.311 633.523C729.478 633.33 729.584 633.066 729.628 632.731ZM738.922 632.837H734.619C734.619 633.295 734.751 633.664 735.015 633.946C735.279 634.227 735.649 634.368 736.124 634.368C736.476 634.368 736.762 634.32 736.982 634.223C737.211 634.117 737.444 633.95 737.681 633.721L738.724 634.738C738.354 635.116 737.972 635.393 737.576 635.569C737.189 635.736 736.7 635.82 736.111 635.82C735.671 635.82 735.27 635.767 734.91 635.662C734.558 635.547 734.228 635.362 733.92 635.107C733.612 634.852 733.37 634.487 733.194 634.012C733.018 633.537 732.93 632.965 732.93 632.296C732.93 631.196 733.203 630.338 733.748 629.722C734.294 629.097 735.02 628.785 735.926 628.785C736.867 628.785 737.602 629.093 738.13 629.709C738.658 630.316 738.922 631.117 738.922 632.111V632.837ZM737.233 631.662C737.224 631.363 737.171 631.117 737.074 630.923C736.863 630.448 736.48 630.211 735.926 630.211C735.372 630.211 734.989 630.448 734.778 630.923C734.681 631.117 734.628 631.363 734.619 631.662H737.233ZM746.536 627.188C747.099 627.751 747.38 628.446 747.38 629.273C747.38 630.101 747.099 630.796 746.536 631.359C745.981 631.922 745.229 632.204 744.279 632.204H742.47V635.741H740.636V626.343H744.279C745.229 626.343 745.981 626.625 746.536 627.188ZM745.176 630.211C745.423 629.973 745.546 629.661 745.546 629.273C745.546 628.886 745.423 628.574 745.176 628.336C744.93 628.099 744.6 627.98 744.186 627.98H742.47V630.554H744.186C744.6 630.554 744.93 630.439 745.176 630.211ZM750.758 635.741H748.924V626.343H750.758V635.741ZM760.138 635.741H758.502L754.78 629.973V635.741H752.945V626.343H754.582L758.304 632.098V626.343H760.138V635.741Z" fill="#5DCBF5"/>
<path d="M505 703.51L498.808 723.521L505 743.49L470.653 733.837C470.653 733.837 379.09 758.736 344 723.521C344 723.521 384.085 686.938 469.291 714.53L505 703.51Z" fill="#2DABE0"/>
<path d="M372.314 728.251H366.137V726.773L370.15 720.49H366.309V718.854H372.314V720.305L368.289 726.614H372.314V728.251ZM379.453 725.347H375.15C375.15 725.805 375.282 726.174 375.546 726.456C375.81 726.738 376.179 726.878 376.655 726.878C377.007 726.878 377.292 726.83 377.512 726.733C377.741 726.628 377.974 726.46 378.212 726.232L379.255 727.248C378.885 727.626 378.502 727.903 378.106 728.079C377.719 728.247 377.231 728.33 376.641 728.33C376.201 728.33 375.801 728.277 375.44 728.172C375.088 728.057 374.758 727.873 374.45 727.617C374.142 727.362 373.9 726.997 373.724 726.522C373.549 726.047 373.461 725.475 373.461 724.806C373.461 723.706 373.733 722.848 374.279 722.232C374.824 721.608 375.55 721.295 376.457 721.295C377.398 721.295 378.133 721.603 378.661 722.219C379.189 722.826 379.453 723.627 379.453 724.621V725.347ZM377.763 724.173C377.754 723.873 377.702 723.627 377.605 723.434C377.394 722.958 377.011 722.721 376.457 722.721C375.902 722.721 375.519 722.958 375.308 723.434C375.212 723.627 375.159 723.873 375.15 724.173H377.763ZM386.063 721.942L384.77 723.249C384.497 722.976 384.193 722.84 383.859 722.84C383.569 722.84 383.309 722.95 383.08 723.17C382.86 723.39 382.75 723.702 382.75 724.107V728.251H381.035V721.375H382.711V722.034C382.887 721.823 383.129 721.647 383.437 721.507C383.753 721.366 384.088 721.295 384.44 721.295C385.091 721.295 385.632 721.511 386.063 721.942ZM392.171 724.806C392.171 725.466 392.114 726.003 392 726.416C391.894 726.821 391.692 727.177 391.393 727.485C390.847 728.049 390.134 728.33 389.255 728.33C388.383 728.33 387.675 728.049 387.13 727.485C386.83 727.169 386.624 726.808 386.509 726.403C386.404 725.99 386.351 725.457 386.351 724.806C386.351 724.155 386.404 723.627 386.509 723.222C386.624 722.818 386.83 722.457 387.13 722.14C387.675 721.577 388.383 721.295 389.255 721.295C390.152 721.295 390.865 721.577 391.393 722.14C391.692 722.457 391.894 722.818 392 723.222C392.114 723.627 392.171 724.155 392.171 724.806ZM390.456 724.806C390.456 723.953 390.324 723.398 390.06 723.143C389.857 722.941 389.589 722.84 389.255 722.84C388.929 722.84 388.665 722.941 388.463 723.143C388.199 723.398 388.067 723.953 388.067 724.806C388.067 725.668 388.199 726.227 388.463 726.482C388.665 726.685 388.929 726.786 389.255 726.786C389.589 726.786 389.857 726.685 390.06 726.482C390.324 726.227 390.456 725.668 390.456 724.806ZM397.688 725.281H393.623V723.684H397.688V725.281ZM405.683 728.251H403.558L401.869 725.387L401.143 726.205V728.251H399.427V718.854H401.143V724.186L403.426 721.375H405.499L403.044 724.146L405.683 728.251ZM412.515 728.251H410.799V724.093C410.799 723.662 410.685 723.346 410.456 723.143C410.236 722.941 409.972 722.84 409.664 722.84C409.347 722.84 409.074 722.941 408.846 723.143C408.626 723.346 408.516 723.662 408.516 724.093V728.251H406.8V721.375H408.476V722.008C408.925 721.533 409.497 721.295 410.192 721.295C410.869 721.295 411.411 721.498 411.815 721.902C412.282 722.369 412.515 723.02 412.515 723.856V728.251ZM419.896 724.806C419.896 725.466 419.839 726.003 419.724 726.416C419.619 726.821 419.417 727.177 419.117 727.485C418.572 728.049 417.859 728.33 416.979 728.33C416.108 728.33 415.4 728.049 414.854 727.485C414.555 727.169 414.348 726.808 414.234 726.403C414.128 725.99 414.076 725.457 414.076 724.806C414.076 724.155 414.128 723.627 414.234 723.222C414.348 722.818 414.555 722.457 414.854 722.14C415.4 721.577 416.108 721.295 416.979 721.295C417.877 721.295 418.589 721.577 419.117 722.14C419.417 722.457 419.619 722.818 419.724 723.222C419.839 723.627 419.896 724.155 419.896 724.806ZM418.18 724.806C418.18 723.953 418.048 723.398 417.784 723.143C417.582 722.941 417.314 722.84 416.979 722.84C416.654 722.84 416.39 722.941 416.187 723.143C415.923 723.398 415.791 723.953 415.791 724.806C415.791 725.668 415.923 726.227 416.187 726.482C416.39 726.685 416.654 726.786 416.979 726.786C417.314 726.786 417.582 726.685 417.784 726.482C418.048 726.227 418.18 725.668 418.18 724.806ZM430.469 721.375L428.371 728.251H426.958L425.52 723.935L424.081 728.251H422.669L420.557 721.375H422.379L423.487 725.624L424.886 721.375H426.14L427.552 725.624L428.661 721.375H430.469ZM434.4 728.251H433.423C432.763 728.251 432.261 728.057 431.918 727.67C431.584 727.283 431.417 726.821 431.417 726.284V718.854H433.133V726.179C433.133 726.592 433.335 726.799 433.74 726.799H434.4V728.251ZM441.295 725.347H436.992C436.992 725.805 437.124 726.174 437.388 726.456C437.652 726.738 438.022 726.878 438.497 726.878C438.849 726.878 439.135 726.83 439.355 726.733C439.583 726.628 439.817 726.46 440.054 726.232L441.097 727.248C440.727 727.626 440.345 727.903 439.949 728.079C439.561 728.247 439.073 728.33 438.484 728.33C438.044 728.33 437.643 728.277 437.283 728.172C436.931 728.057 436.601 727.873 436.293 727.617C435.985 727.362 435.743 726.997 435.567 726.522C435.391 726.047 435.303 725.475 435.303 724.806C435.303 723.706 435.576 722.848 436.121 722.232C436.667 721.608 437.392 721.295 438.299 721.295C439.24 721.295 439.975 721.603 440.503 722.219C441.031 722.826 441.295 723.627 441.295 724.621V725.347ZM439.605 724.173C439.597 723.873 439.544 723.627 439.447 723.434C439.236 722.958 438.853 722.721 438.299 722.721C437.744 722.721 437.362 722.958 437.151 723.434C437.054 723.627 437.001 723.873 436.992 724.173H439.605ZM448.354 728.251H446.678V727.604C446.247 728.088 445.679 728.33 444.975 728.33C444.254 728.33 443.695 728.123 443.299 727.71C443 727.402 442.806 727.019 442.718 726.562C442.63 726.104 442.586 725.519 442.586 724.806C442.586 724.102 442.63 723.522 442.718 723.064C442.806 722.606 443 722.224 443.299 721.916C443.695 721.502 444.249 721.295 444.962 721.295C445.666 721.295 446.225 721.524 446.638 721.982V718.854H448.354V728.251ZM446.638 724.806C446.638 724.164 446.559 723.675 446.401 723.341C446.251 723.007 445.939 722.84 445.464 722.84C445.217 722.84 445.01 722.888 444.843 722.985C444.685 723.082 444.566 723.227 444.487 723.42C444.417 723.614 444.368 723.816 444.342 724.027C444.315 724.23 444.302 724.489 444.302 724.806C444.302 725.123 444.315 725.387 444.342 725.598C444.368 725.8 444.417 726.003 444.487 726.205C444.566 726.399 444.685 726.544 444.843 726.641C445.01 726.738 445.217 726.786 445.464 726.786C445.71 726.786 445.912 726.738 446.071 726.641C446.238 726.544 446.361 726.399 446.44 726.205C446.52 726.012 446.572 725.809 446.599 725.598C446.625 725.378 446.638 725.114 446.638 724.806ZM455.673 728C455.673 728.836 455.396 729.518 454.842 730.046C454.296 730.583 453.566 730.851 452.651 730.851C452.105 730.851 451.639 730.785 451.252 730.653C450.865 730.521 450.499 730.288 450.156 729.954L451.225 728.871C451.586 729.223 452.035 729.399 452.572 729.399C453.047 729.399 453.394 729.258 453.614 728.977C453.843 728.704 453.957 728.37 453.957 727.974V727.274C453.544 727.732 452.998 727.961 452.321 727.961C451.635 727.961 451.089 727.758 450.684 727.353C450.385 727.054 450.192 726.702 450.104 726.298C450.024 725.884 449.985 725.325 449.985 724.621C449.985 723.917 450.024 723.363 450.104 722.958C450.192 722.554 450.385 722.202 450.684 721.902C451.089 721.498 451.639 721.295 452.334 721.295C453.012 721.295 453.57 721.537 454.01 722.021V721.375H455.673V728ZM453.957 724.621C453.957 724.067 453.883 723.631 453.733 723.315C453.584 722.998 453.28 722.84 452.822 722.84C452.576 722.84 452.374 722.888 452.215 722.985C452.066 723.073 451.951 723.209 451.872 723.394C451.802 723.579 451.753 723.763 451.727 723.948C451.709 724.133 451.701 724.357 451.701 724.621C451.701 724.885 451.709 725.11 451.727 725.295C451.753 725.479 451.802 725.664 451.872 725.849C451.943 726.034 452.057 726.174 452.215 726.271C452.374 726.368 452.576 726.416 452.822 726.416C453.069 726.416 453.271 726.368 453.43 726.271C453.588 726.174 453.702 726.034 453.773 725.849C453.843 725.664 453.891 725.479 453.918 725.295C453.944 725.11 453.957 724.885 453.957 724.621ZM463.245 725.347H458.942C458.942 725.805 459.074 726.174 459.338 726.456C459.602 726.738 459.972 726.878 460.447 726.878C460.799 726.878 461.085 726.83 461.305 726.733C461.534 726.628 461.767 726.46 462.004 726.232L463.047 727.248C462.678 727.626 462.295 727.903 461.899 728.079C461.512 728.247 461.023 728.33 460.434 728.33C459.994 728.33 459.594 728.277 459.233 728.172C458.881 728.057 458.551 727.873 458.243 727.617C457.935 727.362 457.693 726.997 457.517 726.522C457.341 726.047 457.253 725.475 457.253 724.806C457.253 723.706 457.526 722.848 458.071 722.232C458.617 721.608 459.343 721.295 460.249 721.295C461.191 721.295 461.925 721.603 462.453 722.219C462.981 722.826 463.245 723.627 463.245 724.621V725.347ZM461.556 724.173C461.547 723.873 461.494 723.627 461.397 723.434C461.186 722.958 460.803 722.721 460.249 722.721C459.695 722.721 459.312 722.958 459.101 723.434C459.004 723.627 458.951 723.873 458.942 724.173H461.556Z" fill="#5DCBF5"/>
<defs>
<clipPath id="clip0_3003_20297">
<rect width="1440" height="74" fill="white" transform="translate(0 510)"/>
</clipPath>
</defs>
</svg>
