<svg width="532" height="434" viewBox="0 0 532 434" fill="none" xmlns="http://www.w3.org/2000/svg">
<path d="M269.402 285.187L259.33 301.227C259.33 301.227 256.936 305.622 260.356 308.631C263.776 311.641 271.283 305.485 271.283 305.485C271.283 305.485 277.337 305.143 281.475 315.386C285.613 325.629 291.256 324.432 296.027 320.499C300.798 316.566 305.757 303.091 287.152 282.947C268.547 262.803 269.402 285.17 269.402 285.17V285.187Z" fill="#B18667" stroke="#2B2B2B" stroke-miterlimit="10"/>
<path d="M167.4 337.086C167.4 337.086 147.034 322.414 144.64 343.909C140.622 379.99 140.878 417.216 140.878 417.216C140.878 417.216 145.718 420.294 157.978 413.112C170.239 405.947 180.14 409.35 180.482 408.341C180.824 407.333 170.581 345.961 170.581 345.961L167.4 337.086Z" fill="#535B4C" stroke="#2B2B2B" stroke-miterlimit="10"/>
<path d="M92.1096 314.292C92.1096 314.292 80.1567 302.339 67.5369 314.292C54.9 326.245 62.9883 363.369 47.2734 403.656C47.2734 403.656 47.2734 410.137 65.3652 408.769C83.457 407.401 87.561 415.25 92.3319 412.531C97.1028 409.795 94.5549 352.442 94.5549 352.442L92.1096 314.292Z" fill="#535B4C" stroke="#2B2B2B" stroke-miterlimit="10"/>
<path d="M163.638 144.249C162.732 152.166 128.173 269.951 109.141 273.474C77.1636 279.39 65.5527 259.623 66.459 251.705C67.3653 243.788 85.5768 131.116 85.5768 131.116C104.814 133.305 164.545 136.315 163.638 144.249Z" fill="#535B4C" stroke="#2B2B2B" stroke-miterlimit="10"/>
<path d="M155.225 139.039C156.128 131.11 141.267 122.905 122.031 120.714C102.795 118.522 86.4688 123.173 85.5654 131.102C84.662 139.031 99.5235 147.235 118.759 149.427C137.995 151.618 154.321 146.968 155.225 139.039Z" fill="#535B4C" stroke="#2B2B2B" stroke-miterlimit="10"/>
<path d="M38.6194 222.139C38.1064 222.823 34.3615 227.834 35.7295 234.657C37.0975 241.48 42.7234 255.997 38.2945 257.861C34.1563 259.606 30.3259 257.365 26.5126 251.808C26.1364 251.261 25.2985 251.312 25.0078 251.911C22.99 255.997 16.6972 267.42 10.6438 264.171C3.30793 260.238 -5.90897 239.513 20.5447 224.055C20.5447 224.055 27.7096 212.444 33.5236 212.957C39.3376 213.47 38.6194 222.105 38.6194 222.105V222.139Z" fill="#B18667" stroke="#2B2B2B" stroke-miterlimit="10"/>
<path d="M113.572 237.051L101.961 247.157C101.961 247.157 91.3765 276.654 93.4285 314.206C93.4285 314.206 78.7738 305.895 73.3189 318.532C67.864 331.169 73.9003 339.377 84.5536 352.442C100.371 371.816 128.586 381.46 135.751 364.052C141.873 349.175 157.212 313.402 161.555 303.279C162.034 302.15 163.607 302.048 164.24 303.108L178.775 327.322C179.476 328.502 178.929 330.023 177.646 330.485L159.298 337.103C159.298 337.103 148.302 341.891 157.947 354.511C163.162 361.334 199.927 366.122 199.927 366.122C199.927 366.122 238.847 373.167 243.96 351.45C249.911 326.227 217.044 259.281 217.044 259.281L113.555 237.085L113.572 237.051Z" fill="#90A8AC" stroke="#2B2B2B" stroke-miterlimit="10"/>
<path d="M130.638 156.014L85.3228 152.457C85.3228 152.457 51.67 147.139 36.0919 175.474C28.3969 189.444 13.5541 220.19 13.5541 220.19C13.5541 220.19 10.0315 230.313 21.6253 234.417C33.2362 238.521 42.5557 231.801 48.7117 223.61C52.8328 218.121 61.2289 207.468 66.3247 201.021C68.9239 197.738 73.1305 196.165 77.2345 196.951L111.315 203.398C112.546 203.637 113.333 204.834 113.059 206.048L101.961 247.174C101.961 247.174 165.453 274.825 222.123 269.028L232.041 233.836C232.4 232.588 233.717 231.869 234.965 232.246L248.474 236.418C253.142 238.675 256.477 242.984 257.537 248.046L264.497 281.305C264.497 281.305 268.943 290.18 281.562 290.522C294.199 290.864 293.515 282.673 293.515 282.673L291.651 238.966C291.651 238.966 294.148 201.739 246.011 184.348C199.482 167.539 130.621 156.014 130.621 156.014H130.638Z" fill="white" stroke="#2B2B2B" stroke-miterlimit="10"/>
<path d="M127.746 166.701C127.746 166.701 136.313 225.218 220.069 223.867C303.825 222.499 240.555 159.69 240.555 159.69L127.746 166.719V166.701Z" fill="#D0D2D3"/>
<path d="M127.559 146.181C127.559 146.181 134.724 192.83 98.8821 217.694C98.8821 217.694 93.1708 223.593 98.8821 228.689C104.594 233.785 114.341 227.321 114.341 227.321C114.341 227.321 135.75 214.684 144.967 172.02C154.184 129.355 127.559 146.199 127.559 146.199V146.181Z" fill="#535B4C" stroke="#2B2B2B" stroke-miterlimit="10"/>
<path d="M233.389 192.009C233.389 192.009 236.313 220.942 227.336 250.508C227.336 250.508 253.773 229.236 248.865 192.009H233.372H233.389Z" fill="#535B4C" stroke="#2B2B2B" stroke-miterlimit="10"/>
<path d="M213.11 211.315C270.539 211.315 317.095 164.759 317.095 107.33C317.095 49.9007 270.539 3.34497 213.11 3.34497C155.681 3.34497 109.125 49.9007 109.125 107.33C109.125 164.759 155.681 211.315 213.11 211.315Z" fill="#A9DFF2" stroke="#2B2B2B" stroke-miterlimit="10"/>
<path d="M275.575 116.513C275.575 116.513 297.429 111.28 295.377 132.45C293.325 153.62 276.191 171.455 266.666 171.866C257.141 172.276 275.575 116.513 275.575 116.513Z" fill="#B18667" stroke="#2B2B2B" stroke-miterlimit="10"/>
<path d="M269.216 126.072C269.216 126.072 290.164 119.898 289.018 135.083C287.65 153.175 274.226 159.69 274.226 159.69L263.949 139.05L269.216 126.072Z" fill="#FDC389"/>
<path d="M138.313 145.48C138.313 145.48 136.637 200.388 208.696 206.219C280.756 212.05 280.328 158.784 277.815 151.311C275.301 143.821 285.356 109.297 271.539 96.8136C257.722 84.3306 163.45 81.834 163.45 81.834C163.45 81.834 157.824 82.7574 154.883 91.9059C154.883 91.9059 130.088 72.3777 119.708 101.909C109.072 132.142 138.313 145.48 138.313 145.48Z" fill="#B18667"/>
<mask id="mask0_1215_8357" style="mask-type:luminance" maskUnits="userSpaceOnUse" x="117" y="81" width="163" height="126">
<path d="M138.313 145.48C138.313 145.48 136.637 200.388 208.696 206.219C280.756 212.05 280.328 158.784 277.815 151.311C275.301 143.821 285.356 109.297 271.539 96.8136C257.722 84.3306 163.45 81.834 163.45 81.834C163.45 81.834 157.824 82.7574 154.883 91.9059C154.883 91.9059 130.088 72.3777 119.708 101.909C109.072 132.142 138.313 145.48 138.313 145.48Z" fill="white"/>
</mask>
<g mask="url(#mask0_1215_8357)">
<path d="M145.867 197.002C145.867 197.002 130.169 144.437 167.943 142.607C167.943 142.607 159.068 102.32 193.439 98.2327C197.389 97.7539 223.142 104.269 232.872 126.79C232.872 126.79 279.007 87.6991 281.179 132.142C283.642 182.792 271.278 202.919 271.278 202.919L197.081 216.12L145.884 197.002H145.867Z" fill="#FDC389"/>
<path d="M140.534 136.007C140.534 136.007 141.867 115.521 151.272 102.217C151.272 102.217 133.027 87.5112 128.256 107.33C123.485 127.149 140.551 136.024 140.551 136.024L140.534 136.007Z" fill="#FDC389"/>
</g>
<path d="M138.313 145.48C138.313 145.48 136.637 200.388 208.696 206.219C280.756 212.05 280.328 158.784 277.815 151.311C275.301 143.821 285.356 109.297 271.539 96.8136C257.722 84.3306 163.45 81.834 163.45 81.834C163.45 81.834 157.824 82.7574 154.883 91.9059C154.883 91.9059 130.088 72.3777 119.708 101.909C109.072 132.142 138.313 145.48 138.313 145.48Z" stroke="#2B2B2B" stroke-miterlimit="10"/>
<path d="M189.65 94.0948C189.65 94.0948 218.173 117.436 259.059 120.36C299.945 123.285 285 101.67 285 101.67L286.932 94.4881L160.803 72.1726L159.059 83.8348L189.633 94.1119L189.65 94.0948Z" fill="#3A3836" stroke="#2B2B2B" stroke-miterlimit="10"/>
<path d="M160.921 80.1239C160.921 80.1239 143.444 60.3221 160.219 43.6496C176.995 26.9771 201.704 33.5264 227.645 40.5716C253.585 47.6168 284.041 38.5709 293.035 68.4104C293.035 68.4104 298.37 87.323 285.887 98.438C285.887 98.438 282.707 104.697 248.148 100.028C199.994 93.5303 160.938 80.1239 160.938 80.1239H160.921Z" fill="white" stroke="#2B2B2B" stroke-miterlimit="10"/>
<path d="M189.121 139.598C188.01 143.206 190.113 146.592 193.807 147.139C197.5 147.686 201.399 145.207 202.511 141.581C203.622 137.956 201.519 134.587 197.825 134.04C194.132 133.493 190.233 135.973 189.121 139.598Z" fill="#2B2B2B" stroke="#2B2B2B" stroke-miterlimit="10"/>
<path d="M249.172 148.524C248.061 152.132 250.164 155.518 253.858 156.065C257.551 156.612 261.45 154.133 262.562 150.508C263.673 146.882 261.57 143.514 257.876 142.967C254.183 142.419 250.284 144.899 249.172 148.524Z" fill="#2B2B2B" stroke="#2B2B2B" stroke-miterlimit="10"/>
<path d="M216.412 150.508C215.472 153.568 219.405 156.766 225.219 157.621C231.033 158.476 236.488 156.698 237.428 153.637C238.369 150.576 234.436 147.378 228.622 146.523C222.808 145.668 217.353 147.447 216.412 150.508Z" fill="#2B2B2B" stroke="#2B2B2B" stroke-miterlimit="10"/>
<path d="M227.336 171.147C231.731 171.558 227.507 183.391 214.767 180.603C202.028 177.833 204.114 165.367 208.287 166.804C218.17 170.19 221.813 170.617 227.336 171.13V171.147Z" fill="#2B2B2B"/>
<mask id="mask1_1215_8357" style="mask-type:luminance" maskUnits="userSpaceOnUse" x="205" y="166" width="25" height="16">
<path d="M227.336 171.147C231.731 171.558 227.507 183.391 214.767 180.603C202.028 177.833 204.114 165.367 208.287 166.804C218.17 170.19 221.813 170.617 227.336 171.13V171.147Z" fill="white"/>
</mask>
<g mask="url(#mask1_1215_8357)">
<path d="M202.574 175.833C202.574 175.833 206.268 173.593 213.364 175.337C220.461 177.081 222.308 183.203 222.308 183.203C222.308 183.203 206.268 188.076 202.574 175.833Z" fill="#F79F88"/>
</g>
<path d="M227.336 171.147C231.731 171.558 227.507 183.391 214.767 180.603C202.028 177.833 204.114 165.367 208.287 166.804C218.17 170.19 221.813 170.617 227.336 171.13V171.147Z" stroke="#2B2B2B" stroke-miterlimit="10"/>
<path d="M15.2434 247.123C15.2434 247.123 7.22351 258.563 10.6264 264.189" stroke="#2B2B2B" stroke-miterlimit="10" stroke-linecap="round"/>
<path d="M9.79156 243.378C9.79156 243.378 4.23407 250.081 4.96937 257.656" stroke="#2B2B2B" stroke-miterlimit="10" stroke-linecap="round"/>
<path d="M92.3858 241.719C91.6505 245.378 93.6512 249.021 97.1396 250.354C110.7 255.536 139.513 270.926 169.079 273.593C206.973 277.013 223.167 270.276 223.167 270.276C223.167 270.276 227.1 264.992 225.561 256.784C225.561 256.784 199.466 262.273 172.482 258.186C150.338 254.818 118.737 241.394 102.218 235.973C97.8749 234.554 93.275 237.239 92.3858 241.719Z" fill="#535B4C" stroke="#2B2B2B" stroke-miterlimit="10"/>
<path d="M346.404 179.629C346.643 179.509 346.694 179.202 346.489 179.013C343.121 176.072 324.67 161.623 343.634 133.818C360.46 109.143 401.192 90.9827 409.52 84.6728C410.512 83.9203 410.238 82.3472 409.041 82.0051C405.399 80.9621 400.371 77.9866 402.8 69.505C406.442 56.7655 477.014 16.666 477.014 16.666C477.014 16.666 485.666 12.3397 491.583 25.0792C497.499 37.8187 527.185 120.856 505.4 118.77C504.374 118.668 503.467 119.454 503.519 120.48L508.392 215.368C508.392 215.368 514.309 245.772 490.642 251.688C490.642 251.688 477.441 275.355 475.629 308.58C473.816 341.805 495.516 390.763 474.226 413.386C473.029 414.669 470.875 414.002 470.618 412.275C469.148 402.408 463.898 376.912 447.909 367.096C431.699 357.144 418.087 333.58 419.045 325.099C419.096 324.654 418.651 324.346 418.241 324.552C411.931 327.886 379.697 343.327 365.864 317.729C365.864 317.729 324.516 324.107 323.079 290.181C323.079 290.181 272.395 279.51 266.684 228.381C266.684 228.381 268.052 221.216 275.217 224.277C282.381 227.355 306.475 249.089 321.831 227.577C321.831 227.577 321.711 192.061 346.404 179.612V179.629Z" fill="#EB6B3B"/>
<mask id="mask2_1215_8357" style="mask-type:luminance" maskUnits="userSpaceOnUse" x="266" y="15" width="248" height="400">
<path d="M346.404 179.629C346.643 179.509 346.694 179.202 346.489 179.013C343.121 176.072 324.67 161.623 343.634 133.818C360.46 109.143 401.192 90.9827 409.52 84.6728C410.512 83.9203 410.238 82.3472 409.041 82.0051C405.399 80.9621 400.371 77.9866 402.8 69.505C406.442 56.7655 477.014 16.666 477.014 16.666C477.014 16.666 485.666 12.3397 491.583 25.0792C497.499 37.8187 527.185 120.856 505.4 118.77C504.374 118.668 503.467 119.454 503.519 120.48L508.392 215.368C508.392 215.368 514.309 245.772 490.642 251.688C490.642 251.688 477.441 275.355 475.629 308.58C473.816 341.805 495.516 390.763 474.226 413.386C473.029 414.669 470.875 414.002 470.618 412.275C469.148 402.408 463.898 376.912 447.909 367.096C431.699 357.144 418.087 333.58 419.045 325.099C419.096 324.654 418.651 324.346 418.241 324.552C411.931 327.886 379.697 343.327 365.864 317.729C365.864 317.729 324.516 324.107 323.079 290.181C323.079 290.181 272.395 279.51 266.684 228.381C266.684 228.381 268.052 221.216 275.217 224.277C282.381 227.355 306.475 249.089 321.831 227.577C321.831 227.577 321.711 192.061 346.404 179.612V179.629Z" fill="white"/>
</mask>
<g mask="url(#mask2_1215_8357)">
<path d="M270.328 244.575C270.328 244.575 299.398 281.083 331.136 280.057C362.873 279.031 355.486 293.72 365.849 296.097C376.211 298.474 393.961 294.387 405.555 307.024C417.166 319.661 439.003 291.326 442.765 318.464C446.527 345.602 464.618 373.252 490.559 377.681C516.5 382.127 478.948 433.325 478.948 433.325L331.136 376.313L277.202 298.474L270.328 244.558" fill="#D45830"/>
<path d="M343.636 133.818C343.636 133.818 339.156 158.801 362.412 156.869C405.897 153.227 454.718 159.861 476.896 193.668C499.092 227.458 504.547 231.476 512.738 223.952C519.424 217.813 501.127 256.186 501.127 256.186L487.687 257.844C487.687 257.844 492.184 221.028 440.012 196.113C371.458 163.367 323.031 197.481 323.031 197.481L321.543 164.718L343.602 133.852" fill="#D45830"/>
<path d="M485.411 14.2036C485.411 14.2036 516.106 96.01 496.338 100.234C489.173 101.756 491.841 112.871 492.217 146.318C492.593 179.766 494.303 203.655 473.818 189.325C453.332 174.995 508.633 247.362 508.633 247.362L531.513 233.135V63.7081L502.152 15.9649L485.429 14.2207L485.411 14.2036Z" fill="#D45830"/>
</g>
<path d="M346.404 179.629C346.643 179.509 346.694 179.202 346.489 179.013C343.121 176.072 324.67 161.623 343.634 133.818C360.46 109.143 401.192 90.9827 409.52 84.6728C410.512 83.9204 410.238 82.3471 409.041 82.0051C405.399 80.962 400.371 77.9866 402.8 69.505C406.442 56.7655 477.014 16.666 477.014 16.666C477.014 16.666 485.666 12.3397 491.583 25.0792C497.499 37.8187 527.185 120.856 505.4 118.77C504.374 118.668 503.467 119.454 503.519 120.48L508.392 215.368C508.392 215.368 514.309 245.772 490.642 251.688C490.642 251.688 477.441 275.355 475.629 308.58C473.816 341.805 495.516 390.763 474.226 413.386C473.029 414.669 470.875 414.002 470.618 412.275C469.148 402.408 463.898 376.912 447.909 367.096C431.699 357.144 418.087 333.58 419.045 325.099C419.096 324.654 418.651 324.346 418.241 324.552C411.931 327.886 379.697 343.327 365.864 317.729C365.864 317.729 324.516 324.107 323.079 290.181C323.079 290.181 272.395 279.51 266.684 228.381C266.684 228.381 268.052 221.216 275.217 224.277C282.381 227.355 306.475 249.089 321.831 227.577C321.831 227.577 321.711 192.061 346.404 179.612V179.629Z" stroke="#2B2B2B" stroke-miterlimit="10" stroke-linecap="round"/>
<path d="M481.613 215.026C481.613 215.026 497.055 228.775 490.659 251.278" stroke="#2B2B2B" stroke-miterlimit="10" stroke-linecap="round"/>
<path d="M362.324 175.046C362.324 175.046 394.643 164.239 429.903 182.331" stroke="#2B2B2B" stroke-miterlimit="10" stroke-linecap="round"/>
<path d="M323.062 289.736C323.062 289.736 338.196 292.386 347.755 286.743" stroke="#2B2B2B" stroke-miterlimit="10" stroke-linecap="round"/>
<path d="M365.848 317.284C365.848 317.284 379.169 315.232 385.53 306.579" stroke="#2B2B2B" stroke-miterlimit="10" stroke-linecap="round"/>
<path d="M418.223 324.124C418.223 324.124 427.422 318.19 433.339 311.949" stroke="#2B2B2B" stroke-miterlimit="10" stroke-linecap="round"/>
<path d="M377.97 213.778C378.68 204.957 373.845 197.372 367.17 196.835C360.496 196.298 354.51 203.013 353.801 211.833C353.091 220.654 357.926 228.24 364.6 228.777C371.275 229.314 377.261 222.599 377.97 213.778Z" fill="#2B2B2B" stroke="#2B2B2B" stroke-miterlimit="10" stroke-linecap="round"/>
<path d="M367.919 208.735C368.24 204.743 366.051 201.311 363.029 201.067C360.007 200.824 357.297 203.863 356.976 207.854C356.655 211.846 358.844 215.278 361.866 215.522C364.888 215.765 367.598 212.726 367.919 208.735Z" fill="white"/>
<path d="M445.447 232.029C446.157 223.208 441.321 215.622 434.647 215.085C427.973 214.548 421.987 221.263 421.277 230.084C420.568 238.904 425.403 246.49 432.077 247.027C438.751 247.564 444.737 240.849 445.447 232.029Z" fill="#2B2B2B" stroke="#2B2B2B" stroke-miterlimit="10" stroke-linecap="round"/>
<path d="M435.411 226.985C435.732 222.994 433.543 219.561 430.521 219.318C427.499 219.075 424.789 222.113 424.468 226.105C424.147 230.096 426.336 233.529 429.358 233.772C432.38 234.015 435.09 230.977 435.411 226.985Z" fill="white"/>
<path d="M286.641 305.109C286.641 305.109 291.514 311.949 291.48 323.115" stroke="#2B2B2B" stroke-miterlimit="10" stroke-linecap="round"/>
<path d="M293.531 302.766C293.531 302.766 298.422 310.615 296.028 320.516" stroke="#2B2B2B" stroke-miterlimit="10" stroke-linecap="round"/>
</svg>
