<svg width="904" height="266" viewBox="0 0 904 266" fill="none" xmlns="http://www.w3.org/2000/svg">
<g clip-path="url(#clip0_1701_6554)">
<path d="M53 29H1015" stroke="#B0B0B0" stroke-opacity="0.4"/>
<path d="M53 119H1015" stroke="#B0B0B0" stroke-opacity="0.4"/>
<path d="M82 0V239" stroke="#B0B0B0" stroke-opacity="0.4"/>
<path d="M140 0V239" stroke="#B0B0B0" stroke-opacity="0.4"/>
<path d="M198 0V239" stroke="#B0B0B0" stroke-opacity="0.4"/>
<path d="M256 0V239" stroke="#B0B0B0" stroke-opacity="0.4"/>
<path d="M314 0V239" stroke="#B0B0B0" stroke-opacity="0.4"/>
<path d="M372 0V239" stroke="#B0B0B0" stroke-opacity="0.4"/>
<path d="M604 0V239" stroke="#B0B0B0" stroke-opacity="0.4"/>
<path d="M836 0V239" stroke="#B0B0B0" stroke-opacity="0.4"/>
<path d="M430 0V239" stroke="#B0B0B0" stroke-opacity="0.4"/>
<path d="M662 0V239" stroke="#B0B0B0" stroke-opacity="0.4"/>
<path d="M894 0V239" stroke="#B0B0B0" stroke-opacity="0.4"/>
<path d="M488 0V239" stroke="#B0B0B0" stroke-opacity="0.4"/>
<path d="M720 0V239" stroke="#B0B0B0" stroke-opacity="0.4"/>
<path d="M546 0V239" stroke="#B0B0B0" stroke-opacity="0.4"/>
<path d="M778 0V239" stroke="#B0B0B0" stroke-opacity="0.4"/>
<path opacity="0.7" d="M19.0785 209.112C19.0785 207.924 19.2945 207.084 19.7625 206.592C20.0625 206.28 20.4465 206.088 20.9985 206.088C21.5505 206.088 21.9345 206.28 22.2345 206.592C22.7025 207.084 22.9185 207.924 22.9185 209.112C22.9185 210.3 22.7025 211.14 22.2345 211.632C21.9345 211.944 21.5505 212.136 20.9985 212.136C20.4465 212.136 20.0625 211.944 19.7625 211.632C19.2945 211.14 19.0785 210.3 19.0785 209.112ZM17.9145 209.112C17.9145 210.18 18.0945 211.164 18.6105 211.932C19.1145 212.688 19.8945 213.18 20.9985 213.18C22.1025 213.18 22.8825 212.688 23.3865 211.932C23.9025 211.164 24.0825 210.18 24.0825 209.112C24.0825 208.044 23.9025 207.06 23.3865 206.292C22.8825 205.536 22.1025 205.044 20.9985 205.044C19.8945 205.044 19.1145 205.536 18.6105 206.292C18.0945 207.06 17.9145 208.044 17.9145 209.112Z" fill="#1D1D1F"/>
<path opacity="0.7" d="M11.8229 118.02C11.8109 117.9 11.7989 117.78 11.7989 117.672C11.7989 116.784 12.2789 116.076 13.2989 116.076C14.2829 116.076 14.7629 116.736 14.7629 117.444C14.7629 118.044 14.4269 118.596 13.6949 119.064L12.3989 119.904C11.0789 120.756 10.5749 121.728 10.5509 123H15.9989V121.908H12.0029C12.1109 121.428 12.5069 121.104 12.9509 120.816L14.4869 119.832C15.3749 119.268 15.9509 118.452 15.9509 117.432C15.9509 116.136 14.9909 115.044 13.3229 115.044C11.6189 115.044 10.6349 116.232 10.6349 117.564C10.6349 117.66 10.6349 117.768 10.6469 117.876L11.8229 118.02ZM18.2464 119.112C18.2464 117.924 18.4624 117.084 18.9304 116.592C19.2304 116.28 19.6144 116.088 20.1664 116.088C20.7184 116.088 21.1024 116.28 21.4024 116.592C21.8704 117.084 22.0864 117.924 22.0864 119.112C22.0864 120.3 21.8704 121.14 21.4024 121.632C21.1024 121.944 20.7184 122.136 20.1664 122.136C19.6144 122.136 19.2304 121.944 18.9304 121.632C18.4624 121.14 18.2464 120.3 18.2464 119.112ZM17.0824 119.112C17.0824 120.18 17.2624 121.164 17.7784 121.932C18.2824 122.688 19.0624 123.18 20.1664 123.18C21.2704 123.18 22.0504 122.688 22.5544 121.932C23.0704 121.164 23.2504 120.18 23.2504 119.112C23.2504 118.044 23.0704 117.06 22.5544 116.292C22.0504 115.536 21.2704 115.044 20.1664 115.044C19.0624 115.044 18.2824 115.536 17.7784 116.292C17.2624 117.06 17.0824 118.044 17.0824 119.112ZM30.2015 123H31.6895L28.1015 118.284L31.6415 114.492H30.0935L26.1095 118.872V114.492H24.9335V123H26.1095V120.432L27.3215 119.136L30.2015 123Z" fill="#1D1D1F"/>
<path opacity="0.7" d="M13.3419 33V25.224H12.3099C12.1299 26.064 11.3859 26.664 10.3059 26.688V27.516H12.1899V33H13.3419ZM16.0589 29.112C16.0589 27.924 16.2749 27.084 16.7429 26.592C17.0429 26.28 17.4269 26.088 17.9789 26.088C18.5309 26.088 18.9149 26.28 19.2149 26.592C19.6829 27.084 19.8989 27.924 19.8989 29.112C19.8989 30.3 19.6829 31.14 19.2149 31.632C18.9149 31.944 18.5309 32.136 17.9789 32.136C17.4269 32.136 17.0429 31.944 16.7429 31.632C16.2749 31.14 16.0589 30.3 16.0589 29.112ZM14.8949 29.112C14.8949 30.18 15.0749 31.164 15.5909 31.932C16.0949 32.688 16.8749 33.18 17.9789 33.18C19.0829 33.18 19.8629 32.688 20.3669 31.932C20.8829 31.164 21.0629 30.18 21.0629 29.112C21.0629 28.044 20.8829 27.06 20.3669 26.292C19.8629 25.536 19.0829 25.044 17.9789 25.044C16.8749 25.044 16.0949 25.536 15.5909 26.292C15.0749 27.06 14.8949 28.044 14.8949 29.112ZM23.3714 29.112C23.3714 27.924 23.5874 27.084 24.0554 26.592C24.3554 26.28 24.7394 26.088 25.2914 26.088C25.8434 26.088 26.2274 26.28 26.5274 26.592C26.9954 27.084 27.2114 27.924 27.2114 29.112C27.2114 30.3 26.9954 31.14 26.5274 31.632C26.2274 31.944 25.8434 32.136 25.2914 32.136C24.7394 32.136 24.3554 31.944 24.0554 31.632C23.5874 31.14 23.3714 30.3 23.3714 29.112ZM22.2074 29.112C22.2074 30.18 22.3874 31.164 22.9034 31.932C23.4074 32.688 24.1874 33.18 25.2914 33.18C26.3954 33.18 27.1754 32.688 27.6794 31.932C28.1954 31.164 28.3754 30.18 28.3754 29.112C28.3754 28.044 28.1954 27.06 27.6794 26.292C27.1754 25.536 26.3954 25.044 25.2914 25.044C24.1874 25.044 23.4074 25.536 22.9034 26.292C22.3874 27.06 22.2074 28.044 22.2074 29.112ZM35.3265 33H36.8145L33.2265 28.284L36.7665 24.492H35.2185L31.2345 28.872V24.492H30.0585V33H31.2345V30.432L32.4465 29.136L35.3265 33Z" fill="#1D1D1F"/>
<path d="M91.5 117C91.5 114.791 93.2909 113 95.5 113H125.5C127.709 113 129.5 114.791 129.5 117V209H91.5V117Z" fill="#8CABDF"/>
<path d="M150 60C150 57.7909 151.791 56 154 56H184C186.209 56 188 57.7909 188 60V79H150V60Z" fill="#ECCFA4"/>
<path d="M208 162C208 159.791 209.791 158 212 158H242C244.209 158 246 159.791 246 162V181H208V162Z" fill="#ECCFA4"/>
<path d="M266 41C266 38.7909 267.791 37 270 37H300C302.209 37 304 38.7909 304 41V91H266V41Z" fill="#ECCFA4"/>
<path d="M730 51C730 48.7909 731.791 47 734 47H764C766.209 47 768 48.7909 768 51V101H730V51Z" fill="#ECCFA4"/>
<path d="M382 117C382 114.791 383.791 113 386 113H416C418.209 113 420 114.791 420 117V186H382V117Z" fill="#ECCFA4"/>
<path opacity="0.7" d="M97.6042 255.052L96.6714 254.415L97.8561 251.532L94.4846 253.104L94.0282 252.126L98.8135 249.894L99.2598 250.851L98.115 253.649C99.1482 253.167 100.615 253.331 101.289 254.777C101.842 255.963 101.43 257.465 99.7883 258.231C98.1569 258.992 96.7355 258.357 96.1326 257.235L97.0651 256.509C97.5448 257.424 98.4929 257.697 99.3412 257.301C100.309 256.85 100.552 256.008 100.223 255.301C99.7916 254.377 98.8694 254.33 98.1734 254.655C97.9559 254.756 97.7587 254.901 97.6042 255.052ZM105.665 255.279L104.621 255.766L102.304 250.796L100.596 251.592L100.246 250.841C101.215 250.363 101.636 249.505 101.444 248.668L102.379 248.231L105.665 255.279ZM118.505 249.292L117.45 249.784L114.65 243.78L114.818 251.011L113.839 251.467L108.429 246.681L111.229 252.685L110.174 253.177L106.578 245.466L108.025 244.791L113.67 249.799L113.484 242.245L114.909 241.581L118.505 249.292ZM119.323 247.202C118.887 246.267 119.329 245.425 120.17 244.874L121.488 244.008C121.783 243.817 121.794 243.614 121.708 243.429C121.469 242.918 120.934 242.651 120.141 243.021C119.423 243.356 119.228 243.989 119.447 244.629L118.362 244.857C118.004 243.805 118.582 242.688 119.713 242.161C121.279 241.431 122.304 242.039 122.781 243.061L124.003 245.682C124.216 246.139 124.386 246.39 124.469 246.511L123.468 246.977C123.386 246.857 123.262 246.676 123.084 246.296C123.028 246.772 122.74 247.516 121.804 247.952C120.738 248.449 119.708 248.029 119.323 247.202ZM121.545 247.027C122.382 246.636 122.869 245.919 122.337 244.777L122.225 244.538L120.738 245.523C120.333 245.791 120.124 246.193 120.342 246.661C120.524 247.052 121.023 247.27 121.545 247.027ZM126.435 239.159L126.942 240.246C126.78 240.296 126.623 240.356 126.481 240.422C125.622 240.822 125.259 241.548 125.796 242.701L127.019 245.322L125.996 245.798L123.557 240.567L124.557 240.101L124.983 241.014C124.989 240.032 125.55 239.532 126.083 239.283C126.224 239.217 126.376 239.173 126.435 239.159Z" fill="#1D1D1F"/>
<rect x="150" y="78.3477" width="38" height="131" fill="#8CABDF"/>
<path opacity="0.7" d="M155.282 253.246C155.784 254.323 156.335 254.993 156.967 255.241C157.37 255.397 157.8 255.408 158.3 255.175C158.8 254.942 159.067 254.606 159.207 254.196C159.423 253.552 159.264 252.7 158.762 251.623C158.26 250.546 157.709 249.876 157.077 249.628C156.673 249.472 156.244 249.461 155.744 249.694C155.244 249.927 154.977 250.263 154.837 250.673C154.621 251.317 154.78 252.169 155.282 253.246ZM154.227 253.738C153.776 252.77 153.523 251.802 153.666 250.888C153.803 249.99 154.302 249.214 155.303 248.748C156.303 248.281 157.218 248.397 157.994 248.869C158.787 249.347 159.366 250.163 159.817 251.131C160.268 252.099 160.521 253.067 160.378 253.981C160.241 254.879 159.742 255.655 158.741 256.121C157.741 256.588 156.826 256.472 156.049 255.999C155.257 255.521 154.678 254.706 154.227 253.738ZM164.977 253.015L163.933 253.502L161.615 248.532L159.908 249.328L159.558 248.577C160.527 248.099 160.947 247.241 160.755 246.404L161.691 245.967L164.977 253.015ZM174.825 248.423L172.984 246.66L169.569 248.252L169.757 250.786L168.615 251.318L168.087 242.177L169.316 241.604L175.978 247.885L174.825 248.423ZM169.191 243.013L169.488 247.085L172.142 245.847L169.191 243.013ZM178.882 249.047L177.87 249.518L174.467 242.221L175.457 241.759L175.838 242.575C175.877 241.921 176.304 241.219 177.152 240.823C178.718 240.093 180.119 240.91 180.829 242.432C181.554 243.987 181.214 245.615 179.681 246.331C178.876 246.706 178.089 246.609 177.589 246.273L178.882 249.047ZM179.785 242.919C179.298 241.875 178.345 241.366 177.388 241.812C176.453 242.248 176.198 243.32 176.685 244.364C177.187 245.441 178.167 245.924 179.103 245.488C180.049 245.047 180.287 243.996 179.785 242.919ZM183.793 237.806L184.3 238.894C184.137 238.943 183.98 239.003 183.839 239.069C182.98 239.47 182.616 240.195 183.154 241.348L184.376 243.969L183.354 244.446L180.914 239.215L181.915 238.748L182.341 239.661C182.346 238.679 182.907 238.179 183.44 237.931C183.582 237.865 183.733 237.821 183.793 237.806Z" fill="#1D1D1F"/>
<rect x="208" y="168.348" width="38" height="41" fill="#8CABDF"/>
<path opacity="0.7" d="M212.294 253.706C212.796 254.783 213.347 255.453 213.979 255.701C214.383 255.857 214.812 255.869 215.312 255.636C215.812 255.402 216.079 255.066 216.219 254.657C216.436 254.013 216.276 253.16 215.774 252.084C215.272 251.007 214.721 250.337 214.089 250.089C213.686 249.933 213.256 249.921 212.756 250.154C212.256 250.388 211.989 250.724 211.849 251.134C211.633 251.777 211.792 252.63 212.294 253.706ZM211.239 254.198C210.788 253.23 210.535 252.263 210.678 251.348C210.815 250.45 211.314 249.675 212.315 249.208C213.316 248.742 214.23 248.858 215.007 249.33C215.799 249.808 216.378 250.624 216.829 251.592C217.281 252.56 217.533 253.528 217.39 254.442C217.253 255.34 216.754 256.115 215.753 256.582C214.753 257.048 213.838 256.932 213.062 256.46C212.269 255.982 211.69 255.166 211.239 254.198ZM218.448 249.632L217.321 249.999C217.265 249.906 217.219 249.808 217.178 249.721C216.615 248.514 217.005 247.021 218.55 246.301C220.061 245.596 221.393 246.18 221.941 247.355C222.372 248.279 222.194 249.262 221.628 250.148L220.652 251.689C220.371 252.138 220.149 252.599 220.254 253.08L223.876 251.391L224.337 252.381L219.4 254.683C218.884 253.52 218.93 252.426 219.766 251.096L220.586 249.787C221.051 249.054 221.122 248.411 220.869 247.868C220.57 247.226 219.856 246.831 218.964 247.246C218.04 247.677 217.904 248.522 218.279 249.327C218.325 249.425 218.386 249.528 218.448 249.632ZM233.813 247.962L231.972 246.199L228.557 247.791L228.745 250.325L227.603 250.858L227.074 241.717L228.303 241.144L234.966 247.424L233.813 247.962ZM228.179 242.552L228.476 246.624L231.129 245.387L228.179 242.552ZM237.87 248.586L236.858 249.058L233.455 241.76L234.445 241.299L234.825 242.114C234.865 241.46 235.292 240.758 236.14 240.362C237.706 239.632 239.107 240.449 239.817 241.972C240.542 243.527 240.202 245.155 238.669 245.87C237.864 246.245 237.077 246.149 236.576 245.813L237.87 248.586ZM238.772 242.458C238.286 241.414 237.333 240.905 236.376 241.351C235.441 241.788 235.186 242.86 235.673 243.904C236.175 244.98 237.155 245.464 238.09 245.027C239.036 244.586 239.275 243.535 238.772 242.458ZM242.78 237.345L243.288 238.433C243.125 238.482 242.968 238.542 242.827 238.608C241.967 239.009 241.604 239.735 242.141 240.887L243.364 243.508L242.341 243.985L239.902 238.754L240.903 238.287L241.329 239.201C241.334 238.219 241.895 237.719 242.428 237.47C242.57 237.404 242.721 237.36 242.78 237.345Z" fill="#1D1D1F"/>
<rect x="266" y="90" width="38" height="119" fill="#8CABDF"/>
<path opacity="0.7" d="M270.193 253.754C270.695 254.83 271.246 255.5 271.878 255.748C272.282 255.904 272.711 255.916 273.211 255.683C273.712 255.449 273.978 255.113 274.118 254.704C274.335 254.06 274.175 253.207 273.673 252.131C273.171 251.054 272.621 250.384 271.988 250.136C271.585 249.98 271.156 249.968 270.655 250.201C270.155 250.435 269.888 250.771 269.748 251.181C269.532 251.824 269.691 252.677 270.193 253.754ZM269.138 254.245C268.687 253.278 268.434 252.31 268.577 251.396C268.715 250.497 269.214 249.722 270.214 249.255C271.215 248.789 272.129 248.905 272.906 249.377C273.698 249.855 274.277 250.671 274.728 251.639C275.18 252.607 275.432 253.575 275.289 254.489C275.152 255.387 274.653 256.162 273.653 256.629C272.652 257.096 271.737 256.979 270.961 256.507C270.169 256.029 269.59 255.213 269.138 254.245ZM277.786 250.518L276.853 249.88L278.037 246.997L274.666 248.57L274.209 247.591L278.995 245.359L279.441 246.316L278.296 249.114C279.329 248.633 280.796 248.796 281.47 250.243C282.023 251.428 281.612 252.931 279.97 253.697C278.338 254.457 276.917 253.822 276.314 252.7L277.246 251.974C277.726 252.889 278.674 253.162 279.523 252.766C280.49 252.315 280.734 251.473 280.404 250.766C279.973 249.842 279.051 249.795 278.355 250.12C278.137 250.221 277.94 250.366 277.786 250.518ZM291.914 247.915L290.072 246.152L286.658 247.744L286.846 250.278L285.704 250.811L285.175 241.67L286.404 241.097L293.067 247.377L291.914 247.915ZM286.28 242.505L286.577 246.577L289.23 245.34L286.28 242.505ZM295.97 248.539L294.959 249.011L291.556 241.713L292.546 241.252L292.926 242.067C292.965 241.413 293.393 240.711 294.241 240.315C295.807 239.585 297.207 240.402 297.917 241.924C298.643 243.48 298.303 245.108 296.769 245.823C295.965 246.198 295.178 246.102 294.677 245.766L295.97 248.539ZM296.873 242.411C296.387 241.367 295.434 240.858 294.477 241.304C293.542 241.74 293.287 242.813 293.774 243.857C294.276 244.933 295.256 245.416 296.191 244.98C297.137 244.539 297.375 243.488 296.873 242.411ZM300.881 237.298L301.389 238.386C301.226 238.435 301.069 238.495 300.927 238.561C300.068 238.962 299.705 239.688 300.242 240.84L301.465 243.461L300.442 243.938L298.003 238.707L299.003 238.24L299.429 239.154C299.435 238.172 299.996 237.672 300.529 237.423C300.67 237.357 300.822 237.313 300.881 237.298Z" fill="#1D1D1F"/>
<path d="M323.5 129.348C323.5 127.139 325.291 125.348 327.5 125.348H357.5C359.709 125.348 361.5 127.139 361.5 129.348V209.348H323.5V129.348Z" fill="#8CABDF"/>
<path opacity="0.7" d="M328.05 253.82C328.552 254.897 329.103 255.567 329.735 255.815C330.138 255.971 330.568 255.983 331.068 255.75C331.568 255.516 331.835 255.18 331.975 254.771C332.191 254.127 332.032 253.274 331.53 252.198C331.028 251.121 330.477 250.451 329.845 250.203C329.441 250.047 329.012 250.035 328.512 250.268C328.012 250.502 327.745 250.838 327.605 251.247C327.388 251.891 327.548 252.744 328.05 253.82ZM326.995 254.312C326.544 253.344 326.291 252.377 326.434 251.462C326.571 250.564 327.07 249.789 328.071 249.322C329.071 248.856 329.986 248.972 330.762 249.444C331.555 249.922 332.134 250.738 332.585 251.706C333.036 252.674 333.289 253.641 333.146 254.556C333.009 255.454 332.51 256.229 331.509 256.696C330.509 257.162 329.594 257.046 328.817 256.574C328.025 256.096 327.446 255.28 326.995 254.312ZM334.415 253.209L333.842 251.98L334.893 246.34L336.361 245.655L338.445 250.125L339.652 249.562L340.114 250.552L338.907 251.115L339.647 252.702L338.614 253.184L337.873 251.596L334.415 253.209ZM337.412 250.607L335.804 247.159L334.932 251.763L337.412 250.607ZM350.057 247.848L348.216 246.085L344.801 247.678L344.989 250.211L343.847 250.744L343.319 241.603L344.548 241.03L351.21 247.31L350.057 247.848ZM344.423 242.438L344.72 246.51L347.374 245.273L344.423 242.438ZM354.114 248.472L353.102 248.944L349.699 241.646L350.689 241.185L351.07 242C351.109 241.347 351.536 240.644 352.384 240.249C353.95 239.518 355.351 240.335 356.061 241.858C356.786 243.413 356.446 245.041 354.913 245.756C354.108 246.131 353.321 246.035 352.821 245.699L354.114 248.472ZM355.017 242.344C354.53 241.3 353.577 240.791 352.62 241.237C351.685 241.674 351.43 242.746 351.917 243.79C352.419 244.867 353.399 245.35 354.335 244.913C355.281 244.472 355.519 243.421 355.017 242.344ZM359.025 237.232L359.532 238.319C359.37 238.368 359.212 238.429 359.071 238.494C358.212 238.895 357.848 239.621 358.386 240.773L359.608 243.395L358.586 243.871L356.146 238.64L357.147 238.173L357.573 239.087C357.578 238.105 358.139 237.605 358.672 237.356C358.814 237.29 358.965 237.246 359.025 237.232Z" fill="#1D1D1F"/>
<path d="M555.5 95.3477C555.5 93.1385 557.291 91.3477 559.5 91.3477H589.5C591.709 91.3477 593.5 93.1385 593.5 95.3477V209.348H555.5V95.3477Z" fill="#8CABDF"/>
<path opacity="0.7" d="M560.156 253.771C560.658 254.848 561.209 255.518 561.841 255.766C562.245 255.922 562.674 255.933 563.174 255.7C563.674 255.467 563.941 255.131 564.081 254.721C564.298 254.077 564.138 253.225 563.636 252.148C563.134 251.071 562.583 250.401 561.951 250.153C561.548 249.997 561.118 249.985 560.618 250.219C560.118 250.452 559.851 250.788 559.711 251.198C559.495 251.842 559.654 252.694 560.156 253.771ZM559.101 254.263C558.65 253.295 558.397 252.327 558.54 251.413C558.677 250.515 559.176 249.739 560.177 249.273C561.177 248.806 562.092 248.922 562.869 249.394C563.661 249.872 564.24 250.688 564.691 251.656C565.143 252.624 565.395 253.592 565.252 254.506C565.115 255.404 564.616 256.18 563.615 256.646C562.615 257.113 561.7 256.997 560.924 256.524C560.131 256.046 559.552 255.231 559.101 254.263ZM567.986 249.484C568.732 249.123 569.073 248.408 568.754 247.723C568.46 247.092 567.715 246.83 566.921 247.2C566.127 247.57 565.85 248.309 566.144 248.94C566.463 249.625 567.231 249.823 567.986 249.484ZM569.518 252.768C570.464 252.327 570.754 251.557 570.444 250.893C570.13 250.219 569.338 249.94 568.402 250.376C567.467 250.812 567.172 251.598 567.486 252.273C567.795 252.936 568.572 253.21 569.518 252.768ZM569.949 253.693C568.329 254.448 566.977 253.993 566.45 252.862C566.049 252.003 566.342 251.098 566.976 250.498C566.223 250.558 565.418 250.165 565.053 249.382C564.515 248.229 565.162 246.948 566.511 246.319C567.859 245.69 569.257 246.018 569.794 247.171C570.149 247.932 569.953 248.818 569.412 249.362C570.274 249.251 571.161 249.619 571.562 250.478C572.089 251.609 571.57 252.937 569.949 253.693ZM581.951 247.898L580.11 246.135L576.695 247.727L576.883 250.261L575.741 250.793L575.213 241.652L576.441 241.079L583.104 247.36L581.951 247.898ZM576.317 242.488L576.614 246.56L579.267 245.322L576.317 242.488ZM586.008 248.522L584.996 248.993L581.593 241.696L582.583 241.234L582.963 242.05C583.003 241.396 583.43 240.694 584.278 240.298C585.844 239.568 587.245 240.385 587.955 241.907C588.68 243.462 588.34 245.09 586.807 245.806C586.002 246.181 585.215 246.084 584.714 245.748L586.008 248.522ZM586.911 242.394C586.424 241.35 585.471 240.841 584.514 241.287C583.579 241.723 583.324 242.795 583.811 243.839C584.313 244.916 585.293 245.399 586.228 244.963C587.175 244.522 587.413 243.471 586.911 242.394ZM590.919 237.281L591.426 238.369C591.263 238.418 591.106 238.478 590.965 238.544C590.105 238.945 589.742 239.67 590.28 240.823L591.502 243.444L590.479 243.921L588.04 238.69L589.041 238.223L589.467 239.137C589.472 238.154 590.033 237.654 590.566 237.406C590.708 237.34 590.859 237.296 590.919 237.281Z" fill="#1D1D1F"/>
<path d="M787.5 192.348C787.5 190.139 789.291 188.348 791.5 188.348H821.5C823.709 188.348 825.5 190.139 825.5 192.348V209.348H787.5V192.348Z" fill="#8CABDF"/>
<path opacity="0.7" d="M796.759 255.915L795.715 256.401L793.397 251.431L791.689 252.227L791.339 251.477C792.308 250.999 792.729 250.141 792.537 249.303L793.472 248.867L796.759 255.915ZM797.051 250.283L795.924 250.65C795.868 250.557 795.822 250.459 795.782 250.372C795.219 249.165 795.609 247.672 797.153 246.952C798.665 246.247 799.996 246.831 800.544 248.006C800.975 248.93 800.798 249.913 800.231 250.8L799.255 252.341C798.974 252.789 798.752 253.25 798.857 253.731L802.479 252.042L802.941 253.032L798.003 255.334C797.487 254.171 797.533 253.077 798.369 251.747L799.189 250.438C799.655 249.705 799.726 249.063 799.472 248.519C799.173 247.877 798.459 247.482 797.567 247.898C796.643 248.329 796.507 249.173 796.882 249.978C796.928 250.076 796.99 250.18 797.051 250.283ZM812.417 248.613L810.575 246.85L807.16 248.443L807.348 250.976L806.206 251.509L805.678 242.368L806.907 241.795L813.569 248.076L812.417 248.613ZM806.782 243.203L807.079 247.276L809.733 246.038L806.782 243.203ZM816.473 249.237L815.461 249.709L812.059 242.411L813.048 241.95L813.429 242.766C813.468 242.112 813.895 241.409 814.743 241.014C816.31 240.283 817.71 241.1 818.42 242.623C819.145 244.178 818.805 245.806 817.272 246.521C816.467 246.896 815.681 246.8 815.18 246.464L816.473 249.237ZM817.376 243.11C816.889 242.066 815.937 241.556 814.98 242.003C814.044 242.439 813.789 243.511 814.276 244.555C814.778 245.632 815.758 246.115 816.694 245.679C817.64 245.237 817.878 244.186 817.376 243.11ZM821.384 237.997L821.891 239.084C821.729 239.134 821.571 239.194 821.43 239.26C820.571 239.66 820.207 240.386 820.745 241.539L821.967 244.16L820.945 244.636L818.505 239.405L819.506 238.939L819.932 239.852C819.937 238.87 820.499 238.37 821.031 238.121C821.173 238.055 821.324 238.011 821.384 237.997Z" fill="#1D1D1F"/>
<rect x="382" y="126.441" width="38" height="83" fill="#8CABDF"/>
<path opacity="0.7" d="M386.22 253.741C386.722 254.818 387.273 255.488 387.905 255.736C388.308 255.892 388.738 255.904 389.238 255.67C389.738 255.437 390.005 255.101 390.145 254.691C390.361 254.048 390.202 253.195 389.7 252.118C389.198 251.042 388.647 250.372 388.015 250.123C387.611 249.967 387.182 249.956 386.682 250.189C386.182 250.422 385.915 250.759 385.775 251.168C385.558 251.812 385.718 252.664 386.22 253.741ZM385.165 254.233C384.713 253.265 384.461 252.297 384.604 251.383C384.741 250.485 385.24 249.709 386.241 249.243C387.241 248.776 388.156 248.893 388.932 249.365C389.725 249.843 390.304 250.658 390.755 251.626C391.206 252.594 391.459 253.562 391.316 254.476C391.179 255.374 390.68 256.15 389.679 256.617C388.678 257.083 387.764 256.967 386.987 256.495C386.195 256.017 385.616 255.201 385.165 254.233ZM392.38 252.828L393.26 252.047C393.731 252.887 394.646 253.175 395.527 252.764C396.365 252.374 396.78 251.504 396.375 250.634C395.923 249.666 394.988 249.507 394.173 249.887C393.672 250.12 393.285 250.539 393.128 250.997C392.692 251.028 392.311 251.033 391.891 251.07L391.171 247.142L394.891 245.408L395.347 246.387L392.335 247.791L392.756 250.058C392.909 249.563 393.393 249.125 393.948 248.866C395.329 248.222 396.752 248.631 397.431 250.089C398.05 251.416 397.53 252.969 395.963 253.699C394.463 254.399 392.995 253.892 392.38 252.828ZM407.887 247.927L406.046 246.164L402.631 247.757L402.819 250.291L401.677 250.823L401.149 241.682L402.378 241.109L409.04 247.39L407.887 247.927ZM402.253 242.517L402.55 246.59L405.204 245.352L402.253 242.517ZM411.944 248.551L410.932 249.023L407.53 241.725L408.519 241.264L408.9 242.08C408.939 241.426 409.366 240.723 410.214 240.328C411.781 239.598 413.181 240.414 413.891 241.937C414.616 243.492 414.276 245.12 412.743 245.835C411.938 246.211 411.152 246.114 410.651 245.778L411.944 248.551ZM412.847 242.424C412.36 241.38 411.408 240.87 410.45 241.317C409.515 241.753 409.26 242.825 409.747 243.869C410.249 244.946 411.229 245.429 412.165 244.993C413.111 244.551 413.349 243.5 412.847 242.424ZM416.855 237.311L417.362 238.398C417.2 238.448 417.042 238.508 416.901 238.574C416.042 238.974 415.678 239.7 416.216 240.853L417.438 243.474L416.416 243.95L413.976 238.719L414.977 238.253L415.403 239.166C415.408 238.184 415.97 237.684 416.502 237.435C416.644 237.369 416.795 237.325 416.855 237.311Z" fill="#1D1D1F"/>
<path d="M613.5 87.3477C613.5 85.1385 615.291 83.3477 617.5 83.3477H647.5C649.709 83.3477 651.5 85.1385 651.5 87.3477V209.348H613.5V87.3477Z" fill="#8CABDF"/>
<path opacity="0.7" d="M618.013 253.838C617.511 252.761 617.351 251.908 617.568 251.265C617.708 250.855 617.974 250.519 618.475 250.286C618.975 250.052 619.404 250.064 619.808 250.22C620.44 250.468 620.991 251.138 621.493 252.215C621.995 253.292 622.154 254.144 621.938 254.788C621.798 255.197 621.531 255.534 621.031 255.767C620.53 256 620.101 255.989 619.698 255.833C619.065 255.584 618.515 254.914 618.013 253.838ZM616.958 254.33C617.409 255.298 617.988 256.113 618.78 256.591C619.557 257.063 620.471 257.18 621.472 256.713C622.473 256.247 622.972 255.471 623.109 254.573C623.252 253.659 622.999 252.691 622.548 251.723C622.096 250.755 621.517 249.939 620.725 249.461C619.949 248.989 619.034 248.873 618.034 249.339C617.033 249.806 616.534 250.582 616.397 251.48C616.254 252.394 616.506 253.362 616.958 254.33ZM625.241 254.453C625.7 254.53 626.521 254.359 627.065 254.105C629.436 253 629.868 250.918 628.661 248.329C627.612 246.078 625.791 245.722 624.409 246.366C623.028 247.01 622.267 248.557 622.946 250.015C623.671 251.57 625.275 251.828 626.493 251.26C627.45 250.814 627.867 250.09 627.899 249.506C628.5 250.907 628.326 252.352 626.619 253.148C626.162 253.361 625.569 253.452 625.178 253.409L625.241 254.453ZM627.058 248.071C627.494 249.006 627.013 249.906 626.23 250.271C625.425 250.646 624.459 250.448 624.013 249.491C623.582 248.566 624.063 247.667 624.846 247.302C625.618 246.942 626.632 247.157 627.058 248.071ZM640.095 247.831L641.247 247.293L634.585 241.012L633.356 241.585L633.885 250.726L635.027 250.194L634.838 247.66L638.253 246.068L640.095 247.831ZM634.46 242.421L637.411 245.256L634.757 246.493L634.46 242.421ZM644.151 248.455L642.858 245.682C643.359 246.017 644.145 246.114 644.95 245.739C646.483 245.024 646.823 243.395 646.098 241.84C645.388 240.318 643.988 239.501 642.422 240.231C641.573 240.627 641.146 241.329 641.107 241.983L640.726 241.167L639.737 241.629L643.14 248.926L644.151 248.455ZM645.054 242.327C645.556 243.404 645.318 244.455 644.372 244.896C643.436 245.332 642.456 244.849 641.954 243.772C641.468 242.728 641.722 241.656 642.658 241.22C643.615 240.774 644.567 241.283 645.054 242.327ZM649.062 237.214C649.002 237.229 648.851 237.273 648.71 237.339C648.177 237.587 647.615 238.087 647.61 239.07L647.184 238.156L646.183 238.623L648.623 243.854L649.645 243.377L648.423 240.756C647.885 239.603 648.249 238.878 649.108 238.477C649.249 238.411 649.407 238.351 649.569 238.302L649.062 237.214Z" fill="#1D1D1F"/>
<path d="M845.5 196.348C845.5 194.139 847.291 192.348 849.5 192.348H879.5C881.709 192.348 883.5 194.139 883.5 196.348V209.348H845.5V196.348Z" fill="#8CABDF"/>
<path opacity="0.7" d="M854.658 255.962L853.614 256.449L851.296 251.478L849.588 252.275L849.239 251.524C850.207 251.046 850.628 250.188 850.436 249.35L851.371 248.914L854.658 255.962ZM856.389 251.169L855.456 250.531L856.641 247.649L853.269 249.221L852.813 248.242L857.598 246.011L858.044 246.968L856.9 249.766C857.933 249.284 859.399 249.447 860.074 250.894C860.627 252.079 860.215 253.582 858.573 254.348C856.942 255.108 855.52 254.474 854.917 253.351L855.85 252.625C856.329 253.54 857.278 253.813 858.126 253.418C859.094 252.966 859.337 252.125 859.007 251.418C858.576 250.493 857.654 250.447 856.958 250.771C856.741 250.873 856.543 251.018 856.389 251.169ZM870.517 248.566L868.676 246.803L865.261 248.396L865.449 250.929L864.307 251.462L863.779 242.321L865.008 241.748L871.67 248.029L870.517 248.566ZM864.883 243.156L865.18 247.228L867.834 245.991L864.883 243.156ZM874.574 249.19L873.562 249.662L870.159 242.364L871.149 241.903L871.53 242.719C871.569 242.065 871.996 241.362 872.844 240.967C874.41 240.236 875.811 241.053 876.521 242.576C877.246 244.131 876.906 245.759 875.373 246.474C874.568 246.849 873.781 246.753 873.281 246.417L874.574 249.19ZM875.477 243.063C874.99 242.019 874.037 241.509 873.08 241.956C872.145 242.392 871.89 243.464 872.377 244.508C872.879 245.585 873.859 246.068 874.795 245.632C875.741 245.19 875.979 244.139 875.477 243.063ZM879.485 237.95L879.992 239.037C879.829 239.087 879.672 239.147 879.531 239.213C878.672 239.613 878.308 240.339 878.846 241.492L880.068 244.113L879.046 244.589L876.606 239.358L877.607 238.892L878.033 239.805C878.038 238.823 878.599 238.323 879.132 238.074C879.274 238.008 879.425 237.964 879.485 237.95Z" fill="#1D1D1F"/>
<path d="M439.5 79.3477C439.5 77.1385 441.291 75.3477 443.5 75.3477H473.5C475.709 75.3477 477.5 77.1385 477.5 79.3477V209.348H439.5V79.3477Z" fill="#ECCFA4"/>
<path opacity="0.7" d="M444.044 253.823C444.547 254.9 445.097 255.57 445.729 255.818C446.133 255.974 446.562 255.985 447.063 255.752C447.563 255.519 447.83 255.183 447.97 254.773C448.186 254.129 448.027 253.277 447.525 252.2C447.023 251.123 446.472 250.453 445.84 250.205C445.436 250.049 445.007 250.037 444.507 250.271C444.006 250.504 443.739 250.84 443.599 251.25C443.383 251.894 443.542 252.746 444.044 253.823ZM442.99 254.315C442.538 253.347 442.285 252.379 442.429 251.465C442.566 250.567 443.065 249.791 444.065 249.325C445.066 248.858 445.981 248.974 446.757 249.446C447.549 249.924 448.128 250.74 448.58 251.708C449.031 252.676 449.284 253.644 449.141 254.558C449.003 255.456 448.504 256.232 447.504 256.698C446.503 257.165 445.588 257.049 444.812 256.576C444.02 256.098 443.441 255.283 442.99 254.315ZM453.246 245.52L453.326 246.542C452.994 246.512 452.455 246.578 451.922 246.826C450.454 247.511 450.032 249.019 450.619 250.506C450.684 249.906 451.117 249.161 452.053 248.725C453.445 248.076 454.873 248.469 455.588 250.002C456.293 251.514 455.48 252.979 454.099 253.623C452.75 254.252 450.911 253.971 449.826 251.643C448.603 249.022 449.486 246.797 451.541 245.839C452.183 245.539 452.813 245.444 453.246 245.52ZM451.466 251.925C451.897 252.849 452.906 253.054 453.678 252.694C454.505 252.308 454.947 251.44 454.511 250.505C454.07 249.558 453.11 249.344 452.294 249.725C451.478 250.105 451.025 250.978 451.466 251.925ZM466.063 247.846L464.221 246.083L460.806 247.675L460.995 250.209L459.853 250.741L459.324 241.6L460.553 241.027L467.216 247.308L466.063 247.846ZM460.429 242.436L460.725 246.508L463.379 245.27L460.429 242.436ZM470.119 248.47L469.108 248.941L465.705 241.644L466.694 241.182L467.075 241.998C467.114 241.344 467.541 240.642 468.39 240.246C469.956 239.516 471.356 240.333 472.066 241.855C472.791 243.41 472.452 245.038 470.918 245.754C470.113 246.129 469.327 246.032 468.826 245.696L470.119 248.47ZM471.022 242.342C470.535 241.298 469.583 240.789 468.626 241.235C467.69 241.671 467.436 242.743 467.923 243.787C468.425 244.864 469.405 245.347 470.34 244.911C471.286 244.47 471.524 243.419 471.022 242.342ZM475.03 237.229L475.537 238.317C475.375 238.366 475.217 238.426 475.076 238.492C474.217 238.893 473.854 239.618 474.391 240.771L475.613 243.392L474.591 243.869L472.152 238.638L473.152 238.171L473.578 239.085C473.584 238.102 474.145 237.602 474.678 237.354C474.819 237.288 474.971 237.244 475.03 237.229Z" fill="#1D1D1F"/>
<rect x="439.5" y="105.441" width="38" height="104" fill="#8CABDF"/>
<path d="M671.5 117.348C671.5 115.139 673.291 113.348 675.5 113.348H705.5C707.709 113.348 709.5 115.139 709.5 117.348V209.348H671.5V117.348Z" fill="#8CABDF"/>
<path opacity="0.7" d="M680.297 256.13L677.01 249.083L676.075 249.519C676.267 250.356 675.846 251.214 674.877 251.692L675.227 252.443L676.935 251.647L679.252 256.617L680.297 256.13ZM681.116 251.458C680.614 250.381 680.455 249.529 680.671 248.885C680.811 248.476 681.078 248.139 681.578 247.906C682.078 247.673 682.507 247.684 682.911 247.84C683.543 248.088 684.094 248.758 684.596 249.835C685.098 250.912 685.257 251.764 685.041 252.408C684.901 252.818 684.634 253.154 684.134 253.387C683.634 253.621 683.205 253.609 682.801 253.453C682.169 253.205 681.618 252.535 681.116 251.458ZM680.061 251.95C680.512 252.918 681.091 253.734 681.884 254.212C682.66 254.684 683.575 254.8 684.575 254.333C685.576 253.867 686.075 253.091 686.212 252.193C686.355 251.279 686.102 250.311 685.651 249.343C685.2 248.375 684.621 247.56 683.829 247.082C683.052 246.609 682.137 246.493 681.137 246.96C680.136 247.426 679.637 248.202 679.5 249.1C679.357 250.014 679.61 250.982 680.061 251.95ZM696.879 248.398L698.031 247.86L691.369 241.579L690.14 242.153L690.668 251.294L691.81 250.761L691.622 248.227L695.037 246.635L696.879 248.398ZM691.244 242.988L694.195 245.823L691.541 247.06L691.244 242.988ZM700.935 249.022L699.642 246.249C700.143 246.584 700.929 246.681 701.734 246.306C703.267 245.591 703.607 243.963 702.882 242.407C702.172 240.885 700.772 240.068 699.205 240.798C698.357 241.194 697.93 241.896 697.891 242.55L697.51 241.734L696.521 242.196L699.924 249.494L700.935 249.022ZM701.838 242.894C702.34 243.971 702.102 245.022 701.156 245.463C700.22 245.899 699.24 245.416 698.738 244.34C698.251 243.295 698.506 242.223 699.442 241.787C700.399 241.341 701.351 241.85 701.838 242.894ZM705.846 237.781C705.786 237.796 705.635 237.84 705.493 237.906C704.961 238.154 704.399 238.654 704.394 239.637L703.968 238.723L702.967 239.19L705.407 244.421L706.429 243.944L705.207 241.323C704.669 240.17 705.033 239.445 705.892 239.044C706.033 238.978 706.191 238.918 706.353 238.869L705.846 237.781Z" fill="#1D1D1F"/>
<path d="M497.5 88.3477C497.5 86.1385 499.291 84.3477 501.5 84.3477H531.5C533.709 84.3477 535.5 86.1385 535.5 88.3477V209.348H497.5V88.3477Z" fill="#8CABDF"/>
<path opacity="0.7" d="M502.544 253.59C503.046 254.667 503.596 255.337 504.229 255.585C504.632 255.741 505.061 255.753 505.562 255.519C506.062 255.286 506.329 254.95 506.469 254.54C506.685 253.897 506.526 253.044 506.024 251.967C505.522 250.891 504.971 250.221 504.339 249.972C503.935 249.816 503.506 249.805 503.006 250.038C502.505 250.271 502.239 250.608 502.099 251.017C501.882 251.661 502.042 252.513 502.544 253.59ZM501.489 254.082C501.037 253.114 500.785 252.146 500.928 251.232C501.065 250.334 501.564 249.558 502.565 249.092C503.565 248.625 504.48 248.742 505.256 249.214C506.048 249.692 506.627 250.507 507.079 251.475C507.53 252.443 507.783 253.411 507.64 254.325C507.503 255.223 507.004 255.999 506.003 256.466C505.002 256.932 504.088 256.816 503.311 256.344C502.519 255.866 501.94 255.05 501.489 254.082ZM511.181 245.273L511.658 246.295C511.248 247.121 510.085 249.822 511.487 253.71L510.389 254.222C508.792 249.975 510.463 246.799 510.463 246.799L506.493 248.65L506.037 247.671L511.181 245.273ZM523.564 248.078L521.722 246.315L518.307 247.908L518.495 250.442L517.354 250.974L516.825 241.833L518.054 241.26L524.716 247.541L523.564 248.078ZM517.929 242.669L518.226 246.741L520.88 245.503L517.929 242.669ZM527.62 248.702L526.609 249.174L523.206 241.877L524.195 241.415L524.576 242.231C524.615 241.577 525.042 240.874 525.891 240.479C527.457 239.749 528.857 240.565 529.567 242.088C530.292 243.643 529.952 245.271 528.419 245.986C527.614 246.362 526.828 246.265 526.327 245.929L527.62 248.702ZM528.523 242.575C528.036 241.531 527.084 241.021 526.127 241.468C525.191 241.904 524.936 242.976 525.423 244.02C525.925 245.097 526.905 245.58 527.841 245.144C528.787 244.703 529.025 243.651 528.523 242.575ZM532.531 237.462L533.038 238.549C532.876 238.599 532.718 238.659 532.577 238.725C531.718 239.125 531.354 239.851 531.892 241.004L533.114 243.625L532.092 244.102L529.652 238.87L530.653 238.404L531.079 239.317C531.084 238.335 531.646 237.835 532.179 237.586C532.32 237.521 532.471 237.476 532.531 237.462Z" fill="#1D1D1F"/>
<rect x="730" y="92.3477" width="38" height="117" fill="#8CABDF"/>
<path opacity="0.7" d="M739.746 255.454L738.702 255.941L736.385 250.971L734.677 251.767L734.327 251.016C735.296 250.538 735.717 249.68 735.525 248.843L736.46 248.407L739.746 255.454ZM743.58 253.666L742.536 254.153L740.219 249.183L738.511 249.979L738.161 249.229C739.13 248.75 739.551 247.892 739.359 247.055L740.294 246.619L743.58 253.666ZM753.429 249.074L751.587 247.311L748.172 248.903L748.361 251.437L747.219 251.97L746.69 242.829L747.919 242.255L754.582 248.536L753.429 249.074ZM747.795 243.664L748.091 247.736L750.745 246.499L747.795 243.664ZM757.485 249.698L756.474 250.17L753.071 242.872L754.061 242.41L754.441 243.226C754.48 242.572 754.907 241.87 755.756 241.474C757.322 240.744 758.722 241.561 759.432 243.083C760.157 244.639 759.818 246.267 758.284 246.982C757.479 247.357 756.693 247.26 756.192 246.925L757.485 249.698ZM758.388 243.57C757.901 242.526 756.949 242.017 755.992 242.463C755.056 242.899 754.802 243.972 755.289 245.016C755.791 246.092 756.771 246.575 757.706 246.139C758.652 245.698 758.89 244.647 758.388 243.57ZM762.396 238.457L762.903 239.545C762.741 239.594 762.584 239.654 762.442 239.72C761.583 240.121 761.22 240.846 761.757 241.999L762.979 244.62L761.957 245.097L759.518 239.866L760.518 239.399L760.944 240.313C760.95 239.33 761.511 238.83 762.044 238.582C762.185 238.516 762.337 238.472 762.396 238.457Z" fill="#1D1D1F"/>
<path d="M56 209H1018" stroke="#E0E0E0"/>
</g>
<defs>
<clipPath id="clip0_1701_6554">
<rect width="904" height="266" fill="white"/>
</clipPath>
</defs>
</svg>
