<svg width="40" height="40" viewBox="0 0 40 40" fill="none" xmlns="http://www.w3.org/2000/svg">
<path d="M17 20C17 19.0111 17.2932 18.0444 17.8427 17.2222C18.3921 16.3999 19.173 15.759 20.0866 15.3806C21.0002 15.0022 22.0055 14.9031 22.9755 15.0961C23.9454 15.289 24.8363 15.7652 25.5355 16.4645C26.2348 17.1637 26.711 18.0546 26.9039 19.0246C27.0969 19.9945 26.9978 20.9998 26.6194 21.9134C26.241 22.827 25.6001 23.6079 24.7779 24.1573C23.9556 24.7068 22.9889 25 22 25H16.5C15.5717 25 14.6815 24.6313 14.0251 23.9749C13.3687 23.3185 13 22.4283 13 21.5C13 20.5717 13.3687 19.6815 14.0251 19.0251C14.6815 18.3688 15.5717 18 16.5 18C16.7928 17.9999 17.0846 18.0356 17.3688 18.1063" stroke="#2B2B2B" stroke-width="1.5" stroke-linecap="round" stroke-linejoin="round"/>
</svg>
