<svg width="32" height="32" viewBox="0 0 32 32" fill="none" xmlns="http://www.w3.org/2000/svg">
<path d="M22.6667 13.5H15.1667C14.2462 13.5 13.5 14.2462 13.5 15.1667V22.6667C13.5 23.5871 14.2462 24.3333 15.1667 24.3333H22.6667C23.5871 24.3333 24.3333 23.5871 24.3333 22.6667V15.1667C24.3333 14.2462 23.5871 13.5 22.6667 13.5Z" stroke="black" stroke-width="1.33333" stroke-linecap="round" stroke-linejoin="round"/>
<path d="M10.167 18.5013H9.33366C8.89163 18.5013 8.46771 18.3257 8.15515 18.0131C7.84259 17.7006 7.66699 17.2767 7.66699 16.8346V9.33464C7.66699 8.89261 7.84259 8.46868 8.15515 8.15612C8.46771 7.84356 8.89163 7.66797 9.33366 7.66797H16.8337C17.2757 7.66797 17.6996 7.84356 18.0122 8.15612C18.3247 8.46868 18.5003 8.89261 18.5003 9.33464V10.168" stroke="black" stroke-width="1.33333" stroke-linecap="round" stroke-linejoin="round"/>
</svg>
