<svg width="40" height="40" viewBox="0 0 40 40" fill="none" xmlns="http://www.w3.org/2000/svg">
<path d="M18 21.25C18.5523 21.25 19 20.8023 19 20.25C19 19.6977 18.5523 19.25 18 19.25C17.4477 19.25 17 19.6977 17 20.25C17 20.8023 17.4477 21.25 18 21.25Z" fill="#2B2B2B"/>
<path d="M22 21.25C22.5523 21.25 23 20.8023 23 20.25C23 19.6977 22.5523 19.25 22 19.25C21.4477 19.25 21 19.6977 21 20.25C21 20.8023 21.4477 21.25 22 21.25Z" fill="#2B2B2B"/>
<path d="M21.457 22.9125L22.4445 24.8812C22.4932 24.9835 22.576 25.0657 22.6786 25.1136C22.7813 25.1615 22.8974 25.1721 23.007 25.1437C24.5383 24.7687 25.8633 24.1187 26.8258 23.2812C26.8983 23.2172 26.951 23.1337 26.9776 23.0407C27.0042 22.9476 27.0036 22.8489 26.9758 22.7562L24.857 15.6812C24.8364 15.6088 24.7991 15.5423 24.7481 15.4869C24.6971 15.4315 24.6338 15.3889 24.5633 15.3625C23.9647 15.1169 23.3456 14.9245 22.7133 14.7875C22.5918 14.7609 22.4647 14.7799 22.3563 14.841C22.248 14.9021 22.1659 15.001 22.1258 15.1187L21.4695 17.0937" stroke="#2B2B2B" stroke-width="1.5" stroke-linecap="round" stroke-linejoin="round"/>
<path d="M18.544 22.9125L17.5565 24.8812C17.5078 24.9835 17.4251 25.0657 17.3224 25.1136C17.2198 25.1615 17.1036 25.1721 16.994 25.1437C15.4627 24.7687 14.1377 24.1187 13.1752 23.2812C13.1027 23.2172 13.05 23.1337 13.0234 23.0407C12.9968 22.9476 12.9974 22.8489 13.0252 22.7562L15.144 15.6812C15.1646 15.6088 15.2019 15.5423 15.2529 15.4869C15.304 15.4315 15.3672 15.3889 15.4377 15.3625C16.0363 15.1169 16.6554 14.9245 17.2877 14.7875C17.4092 14.7609 17.5363 14.7799 17.6447 14.841C17.753 14.9021 17.8351 15.001 17.8752 15.1187L18.5315 17.0937" stroke="#2B2B2B" stroke-width="1.5" stroke-linecap="round" stroke-linejoin="round"/>
<path d="M23.3172 22.5C22.3672 22.8187 21.2234 23 19.9984 23C18.7734 23 17.6297 22.8187 16.6797 22.5" stroke="#2B2B2B" stroke-width="1.5" stroke-linecap="round" stroke-linejoin="round"/>
<path d="M23 17.4C22.0236 17.1273 21.0138 16.9926 20 17C18.9862 16.9926 17.9764 17.1273 17 17.4" stroke="#2B2B2B" stroke-width="1.5" stroke-linecap="round" stroke-linejoin="round"/>
</svg>
