<svg width="31" height="32" viewBox="0 0 31 32" fill="none" xmlns="http://www.w3.org/2000/svg">
<g clip-path="url(#clip0_2772_8767)">
<mask id="mask0_2772_8767" style="mask-type:luminance" maskUnits="userSpaceOnUse" x="0" y="0" width="31" height="32">
<path d="M30.6178 0.720703H0.109375V31.2292H30.6178V0.720703Z" fill="white"/>
</mask>
<g mask="url(#mask0_2772_8767)">
<path d="M15.3633 31.0294C7.03931 31.0294 0.3125 24.3027 0.3125 15.9786C0.3125 7.65445 7.03931 0.927734 15.3633 0.927734C23.6875 0.927734 30.4142 7.65445 30.4142 15.9786C30.4142 24.3027 23.6875 31.0294 15.3633 31.0294Z" fill="black"/>
<path d="M5.99219 15.9775C5.99219 19.4176 8.78737 22.2128 12.2275 22.2128C15.6677 22.2128 18.4628 19.4176 18.4628 15.9775C18.4628 12.5374 15.6677 9.74219 12.2275 9.74219C8.78737 9.74219 5.99219 12.5374 5.99219 15.9775Z" fill="#FFF000"/>
<path d="M23.4097 13.7363H20.4609V18.1902H23.4097C24.6383 18.1902 25.6519 17.1765 25.6519 15.9479C25.6519 14.7192 24.6383 13.7363 23.4097 13.7363Z" fill="#FFF000"/>
</g>
</g>
<defs>
<clipPath id="clip0_2772_8767">
<rect width="30.5085" height="30.5085" fill="white" transform="translate(0.109375 0.720703)"/>
</clipPath>
</defs>
</svg>
