<svg width="1440" height="141" viewBox="0 0 1440 141" fill="none" xmlns="http://www.w3.org/2000/svg">
<path d="M0 36.4315C0 36.4315 67.4116 13.6042 161.54 33.6426C161.54 33.6426 217.823 -8.84681 357.755 1.67501C497.688 12.1968 509.326 53.9181 681.215 55.975C853.103 58.0319 1078.09 8.0778 1243.91 13.6042C1409.74 19.1306 1440 44.8809 1440 44.8809V140H0.189976L0 36.4315Z" fill="#3973B2"/>
<path d="M0 59.1295C0 59.1295 62.8595 62.5684 139.485 75.722C230.066 91.2736 426.345 90.2327 542.999 70.5381C646.306 53.0986 693.859 53.3027 797.125 66.5992C916.319 81.9467 1219.78 86.0897 1440 62.2419V140H0V59.1295Z" fill="#F9DC85"/>
<path d="M648.191 103.73C648.191 103.73 626.531 105.28 632.981 95.8697C639.431 86.4497 651.461 84.0297 661.991 93.7997C672.511 103.57 648.191 103.74 648.191 103.74V103.73Z" fill="#9B998C" stroke="#231F20" stroke-miterlimit="10"/>
<path d="M631.769 109.67C631.769 109.67 616.039 110.8 620.729 103.96C625.419 97.1203 634.149 95.3603 641.789 102.46C649.429 109.55 631.769 109.67 631.769 109.67Z" fill="#9B998C" stroke="#231F20" stroke-miterlimit="10"/>
<path d="M773.18 123.35C773.18 123.35 757.45 124.52 762.12 117.67C766.79 110.82 775.52 109.04 783.18 116.11C790.84 123.19 773.18 123.35 773.18 123.35Z" fill="#9B998C" stroke="#231F20" stroke-miterlimit="10"/>
<path d="M1169.02 126.876C1169.02 126.876 1149.2 128.356 1155.09 119.686C1160.97 111.016 1171.98 108.766 1181.63 117.716C1191.28 126.666 1169.03 126.876 1169.03 126.876H1169.02Z" fill="#9B998C"/>
<path d="M1097.81 123.885C1097.81 123.885 1084.87 124.875 1088.71 119.115C1092.55 113.355 1099.74 111.845 1106.04 117.795C1112.34 123.745 1097.8 123.885 1097.8 123.885H1097.81Z" fill="#9B998C"/>
<path d="M929.729 103.05C929.729 103.05 919.829 103.93 922.779 98.9897C925.729 94.0597 931.239 92.7497 936.039 97.8197C940.839 102.89 929.729 103.05 929.729 103.05Z" fill="#9B998C"/>
<path d="M342.499 115.452C342.499 115.452 332.599 116.332 335.549 111.392C338.499 106.462 344.009 105.152 348.809 110.222C353.609 115.292 342.499 115.452 342.499 115.452Z" fill="#9B998C"/>
<path d="M180.204 96.2206C180.204 96.2206 168.054 97.2706 171.674 91.3106C175.294 85.3406 182.054 83.7706 187.944 89.9006C193.844 96.0306 180.194 96.2206 180.194 96.2206H180.204Z" fill="#9B998C"/>
<path d="M208.898 111.317C208.898 111.317 193.198 112.557 197.868 105.377C202.538 98.1972 211.258 96.3172 218.888 103.717C226.518 111.117 208.898 111.317 208.898 111.317Z" fill="#9B998C"/>
<path d="M1134.81 111.885C1134.81 111.885 1121.87 112.875 1125.71 107.115C1129.55 101.355 1136.74 99.8447 1143.04 105.795C1149.34 111.745 1134.8 111.885 1134.8 111.885H1134.81Z" fill="#9B998C"/>
<path d="M272.001 104.43C272.001 104.43 260.231 92.3797 272.001 90.9797C272.001 90.9797 261.351 76.9697 268.081 74.7297C274.811 72.4897 291.331 94.8997 291.331 94.8997C291.331 94.8997 299.171 88.1797 307.581 105.55C307.581 105.55 288.531 101.35 272.001 104.43Z" fill="#91C082"/>
<path d="M1134.91 93.1999C1134.91 93.1999 1136.81 79.5499 1145.94 83.3699C1145.94 83.3699 1149.74 70.9299 1156.97 76.3499C1156.97 76.3499 1160.96 67.7199 1169.33 67.9199C1177.7 68.1199 1168 91.1999 1168 91.1999C1168 91.1999 1151.46 87.9899 1134.91 93.2099V93.1999Z" fill="#91C082"/>
<path d="M1210.01 107.051C1210.01 107.051 1216.47 92.7606 1227.78 92.1706C1227.78 92.1706 1236.72 66.8606 1249.65 67.0006C1262.59 67.1306 1252.57 86.1406 1252.57 86.1406C1252.57 86.1406 1262.49 88.3606 1258.22 97.4506L1254.43 104.621C1254.43 104.621 1236.18 98.3406 1210 107.051H1210.01Z" fill="#91C082"/>
<path d="M149.187 122.599C149.187 122.599 142.337 106.069 130.747 111.109C130.747 111.109 122.057 90.5186 110.457 91.0086C98.8572 91.4986 108.877 112.789 108.877 112.789C108.877 112.789 101.497 113.069 102.027 119.509C102.027 119.509 131.007 115.309 149.187 122.589V122.599Z" fill="#91C082"/>
<path d="M96.6327 76.812C96.6327 76.812 94.6227 63.162 84.9527 66.982C84.9527 66.982 80.9227 54.542 73.2727 59.962C73.2727 59.962 68.1227 48.422 60.1927 51.532C52.2627 54.642 61.6027 74.812 61.6027 74.812C61.6027 74.812 79.1127 71.602 96.6327 76.822V76.812Z" fill="#91C082"/>
<path d="M1377.81 123.885C1377.81 123.885 1364.87 124.875 1368.71 119.115C1372.55 113.355 1379.74 111.845 1386.04 117.795C1392.34 123.745 1377.8 123.885 1377.8 123.885H1377.81Z" fill="#9B998C"/>
<path d="M1298.02 101.876C1298.02 101.876 1278.2 103.356 1284.09 94.6862C1289.97 86.0162 1300.98 83.7663 1310.63 92.7163C1320.28 101.666 1298.03 101.876 1298.03 101.876H1298.02Z" fill="#9B998C"/>
<path d="M1361.19 79.8574C1361.19 79.8574 1373.82 67.8074 1361.19 66.4074C1361.19 66.4074 1372.62 52.3974 1365.4 50.1574C1358.18 47.9174 1340.44 70.3274 1340.44 70.3274C1340.44 70.3274 1332.02 63.6074 1323 80.9774C1323 80.9774 1343.45 76.7774 1361.19 79.8574Z" fill="#91C082"/>
</svg>
