<svg width="1440" height="842" viewBox="0 0 1440 842" fill="none" xmlns="http://www.w3.org/2000/svg">
<g clip-path="url(#clip0_3020_21008)">
<path d="M0 620.782C0 620.782 67.4111 576.432 161.539 615.363C161.539 615.363 217.821 532.813 357.753 553.255C497.684 573.698 509.323 654.756 681.21 658.752C853.097 662.748 1078.08 565.695 1243.91 576.432C1409.73 587.169 1439.99 637.198 1439.99 637.198V822H0.189975L0 620.782Z" fill="#3973B2"/>
<path d="M0 742.624C0 742.624 62.8617 746 139.482 758.91C230.07 774.174 426.334 773.153 542.998 753.822C646.315 736.705 693.848 736.905 797.125 749.956C916.319 765.02 1219.78 769.086 1440 745.679V822H0V742.624Z" fill="#F9DC85"/>
<path d="M1095.98 768.035C1118.94 759.431 1151.77 749.726 1177.79 752.33C1177.79 752.33 1236.06 720.479 1304.41 727.15C1304.41 727.15 1389.01 689.52 1439.99 714.941V775.136C1439.99 775.136 1381.17 761.104 1334.1 777.379C1290.61 792.423 1216 765.711 1097.88 776.448C1092.85 776.909 1091.24 769.817 1095.97 768.045L1095.98 768.035Z" fill="#91C082"/>
<path d="M1187.85 778.09C1204.38 771.129 1230.71 764.128 1261.29 771.049C1261.29 771.049 1302.18 736.254 1366.05 752.53C1366.05 752.53 1411.44 732.659 1440 745.679V785.362C1440 785.362 1424.31 781.265 1388.46 782.087C1359.27 782.758 1337.76 790.82 1304.71 789.568C1278.53 788.577 1237.32 778.832 1189.65 784.691C1185.68 785.182 1184.16 779.643 1187.85 778.09Z" fill="#70A460"/>
<path d="M344.005 768.035C321.048 759.431 288.222 749.726 262.195 752.33C262.195 752.33 203.933 720.48 135.582 727.15C135.582 727.14 50.9833 689.511 0 714.931V775.126C0 775.126 58.8222 761.094 105.886 777.369C149.38 792.413 223.99 765.701 342.105 776.438C347.134 776.899 348.744 769.808 344.015 768.035H344.005Z" fill="#70A460"/>
<path d="M252.157 778.09C235.619 771.129 209.292 764.128 178.716 771.049C178.716 771.049 137.822 736.254 73.9502 752.53C73.9502 752.53 28.5662 732.659 0 745.679V785.362C0 785.362 15.6879 781.265 51.5432 782.087C80.7293 782.758 102.247 790.82 135.292 789.568C161.469 788.577 202.683 778.832 250.357 784.691C254.326 785.182 255.846 779.643 252.157 778.09Z" fill="#91C082"/>
</g>
<path d="M1321.49 147.16C1324.26 147.16 1326.51 144.913 1326.51 142.14C1326.51 139.368 1324.26 137.12 1321.49 137.12C1318.72 137.12 1316.47 139.368 1316.47 142.14C1316.47 144.913 1318.72 147.16 1321.49 147.16Z" stroke="white" stroke-width="3" stroke-miterlimit="10"/>
<path d="M1210.57 658.72C1213.34 658.72 1215.59 656.472 1215.59 653.7C1215.59 650.927 1213.34 648.68 1210.57 648.68C1207.8 648.68 1205.55 650.927 1205.55 653.7C1205.55 656.472 1207.8 658.72 1210.57 658.72Z" stroke="white" stroke-width="3" stroke-miterlimit="10"/>
<path d="M1227.4 685.59C1230.18 685.59 1232.42 683.342 1232.42 680.57C1232.42 677.797 1230.18 675.55 1227.4 675.55C1224.63 675.55 1222.38 677.797 1222.38 680.57C1222.38 683.342 1224.63 685.59 1227.4 685.59Z" stroke="white" stroke-width="3" stroke-miterlimit="10"/>
<path d="M138.18 413.28C140.953 413.28 143.2 411.033 143.2 408.26C143.2 405.488 140.953 403.24 138.18 403.24C135.408 403.24 133.16 405.488 133.16 408.26C133.16 411.033 135.408 413.28 138.18 413.28Z" stroke="white" stroke-width="3" stroke-miterlimit="10"/>
<path d="M158.27 183.56C161.042 183.56 163.29 181.312 163.29 178.54C163.29 175.768 161.042 173.52 158.27 173.52C155.498 173.52 153.25 175.768 153.25 178.54C153.25 181.312 155.498 183.56 158.27 183.56Z" stroke="white" stroke-width="3" stroke-miterlimit="10"/>
<path d="M267.59 741.06C270.363 741.06 272.61 738.812 272.61 736.04C272.61 733.268 270.363 731.02 267.59 731.02C264.818 731.02 262.57 733.268 262.57 736.04C262.57 738.812 264.818 741.06 267.59 741.06Z" stroke="white" stroke-width="3" stroke-miterlimit="10"/>
<path d="M104.52 364.56C107.292 364.56 109.54 362.313 109.54 359.54C109.54 356.768 107.292 354.52 104.52 354.52C101.748 354.52 99.5 356.768 99.5 359.54C99.5 362.313 101.748 364.56 104.52 364.56Z" stroke="white" stroke-width="3" stroke-miterlimit="10"/>
<path d="M1304.73 183.56C1307.5 183.56 1309.75 181.312 1309.75 178.54C1309.75 175.768 1307.5 173.52 1304.73 173.52C1301.96 173.52 1299.71 175.768 1299.71 178.54C1299.71 181.312 1301.96 183.56 1304.73 183.56Z" stroke="white" stroke-width="3" stroke-miterlimit="10"/>
<path d="M926.349 549.561C926.349 549.561 956.163 578.06 944.902 630.375C931.442 692.923 888.488 698.424 888.488 698.424L926.349 549.561Z" fill="#C09C38" stroke="#231F20" stroke-miterlimit="10"/>
<path d="M311.696 539.871C311.696 539.871 301.817 526.432 296.677 507.361C289.693 481.381 284.399 481.026 279.294 483.014C275.442 484.516 275.667 498.559 275.998 505.397C276.033 506.095 275.088 506.32 274.804 505.681C270.444 495.684 258.213 470.438 245.557 475.359C230.231 481.322 250.367 503.895 250.367 503.895C250.367 503.895 229.676 480.707 222.101 494.821C214.526 508.934 240.476 522.942 240.476 522.942C240.476 522.942 219.537 510.047 217.256 524.515C214.975 538.984 237.333 540.333 246.515 546.922C255.696 553.512 263.472 566.313 291.383 565.851L305.764 579.101L313.953 557.511L311.673 539.871H311.696Z" fill="#B18765" stroke="#231F20" stroke-linecap="round" stroke-linejoin="round"/>
<path d="M747.097 452.006C747.097 452.006 748.692 435.396 743.327 416.384C736.013 390.487 740.338 387.257 745.773 386.559C753.466 385.565 756.361 399.762 759.575 405.807C759.906 406.423 760.84 406.139 760.745 405.441C759.375 394.616 762.731 365.962 773.354 363.632C789.413 360.106 781.307 389.647 781.307 389.647C781.307 389.647 786.293 360.851 800.923 367.346C814.382 373.309 799.564 400.921 799.564 400.921C799.564 400.921 810.281 379.686 820.302 390.345C828.267 398.827 811.18 414.243 806.666 424.606C802.152 434.982 802.045 449.971 777.844 463.895L772.279 482.647L744.036 474.389L747.097 452.006Z" fill="#B18765" stroke="#231F20" stroke-linecap="round" stroke-linejoin="round"/>
<path d="M430.302 523.663C430.302 523.663 360.122 519.688 364.092 562.775C368.062 605.862 386.603 744.398 386.603 744.398C386.603 744.398 387.927 773.56 440.901 761.635C493.876 749.71 482.615 554.151 430.314 523.663H430.302Z" fill="#525A4B" stroke="#231F20" stroke-miterlimit="10"/>
<path d="M307.538 531.566C306.77 540.676 302.244 557.049 281.104 568.205C279.213 569.199 278.492 571.542 279.556 573.399C288.796 589.595 308.412 639.839 414.398 663.453C418.321 664.329 421.216 667.677 421.476 671.699L425.671 736.448L498.333 805.231L667.337 716.56L662.717 627.488C662.717 627.488 753.754 567.283 781.003 469.834C781.889 466.664 780.07 463.375 776.938 462.405C769.683 460.169 756.53 455.531 744.513 448.149C742.457 446.883 739.774 447.463 738.439 449.474C728.678 464.144 689.198 510.401 638.539 529.295C581.334 550.625 442.226 545.538 442.226 545.538L437.05 557.451C437.05 557.451 380.235 569.909 312.335 529.153C309.972 527.733 307.786 528.821 307.55 531.578L307.538 531.566Z" fill="white" stroke="#231F20" stroke-miterlimit="10"/>
<path d="M1193.33 262.398C1169.73 238.133 1061.58 257.145 1042.37 262.398C1013.24 270.348 1027.13 293.548 1027.13 293.548C1027.13 293.548 946.969 306.609 897.362 338.622C866.354 358.627 876.836 387.009 876.836 387.009C806.644 424.595 826.52 486.445 826.52 486.445C802.685 446.67 817.917 417.508 808.641 400.934C799.377 384.359 784.145 396.296 784.145 396.296C743.093 437.395 766.928 514.956 766.928 514.956C766.928 514.956 772.351 576.629 861.734 617.196L813.935 658.142L840.665 756.998C840.665 756.998 955.359 812.838 1061.1 782.599C1061.1 782.599 1082.41 769.834 1056.26 763.54C1013.28 753.188 990.951 738.353 990.951 738.353C1110.51 778.127 1188.67 714.313 1182.58 687.316C1178.85 670.729 1163.31 679.413 1123.65 673.391C1092.99 668.73 1071.05 647.175 1063.87 639.225C1157.18 604.632 1144.98 487.119 1144.98 487.119C1172.79 492.419 1168.63 394.971 1168.63 394.971C1186.7 410.883 1195.96 389.671 1195.96 389.671C1195.96 389.671 1217.81 287.585 1193.31 262.398H1193.33Z" fill="#EC6A3B"/>
<mask id="mask0_3020_21008" style="mask-type:luminance" maskUnits="userSpaceOnUse" x="760" y="250" width="445" height="542">
<path d="M1193.33 262.398C1169.73 238.133 1061.58 257.145 1042.37 262.398C1013.24 270.348 1027.13 293.548 1027.13 293.548C1027.13 293.548 946.969 306.609 897.362 338.622C866.354 358.627 876.836 387.009 876.836 387.009C806.644 424.595 826.52 486.445 826.52 486.445C802.685 446.67 817.917 417.508 808.641 400.934C799.377 384.359 784.145 396.296 784.145 396.296C743.093 437.395 766.928 514.956 766.928 514.956C766.928 514.956 772.351 576.629 861.734 617.196L813.935 658.142L840.665 756.998C840.665 756.998 955.359 812.838 1061.1 782.599C1061.1 782.599 1082.41 769.834 1056.26 763.54C1013.28 753.188 990.951 738.353 990.951 738.353C1110.51 778.127 1188.67 714.313 1182.58 687.316C1178.85 670.729 1163.31 679.413 1123.65 673.391C1092.99 668.73 1071.05 647.175 1063.87 639.225C1157.18 604.632 1144.98 487.119 1144.98 487.119C1172.79 492.419 1168.63 394.971 1168.63 394.971C1186.7 410.883 1195.96 389.671 1195.96 389.671C1195.96 389.671 1217.81 287.585 1193.31 262.398H1193.33Z" fill="white"/>
</mask>
<g mask="url(#mask0_3020_21008)">
<path d="M1145 756.312C1145 756.312 1170.55 712.929 1125.52 717.141C1080.5 721.352 978.51 742.068 897.151 640.301C815.792 538.535 782.989 456.111 744.04 474.39C705.092 492.668 718.327 675.615 718.327 675.615L719.674 825.047L1056.01 841.989L1122.21 822.764L1145 756.3V756.312Z" fill="#D35730"/>
<path d="M1167.9 604.561C1167.9 604.561 1042.1 624.07 1039.45 623.999C1036.81 623.928 1118.25 575.529 1119.57 506.592C1120.89 437.656 1032.17 411.143 1032.17 411.143C1032.17 411.143 1019.59 405.086 1022.91 397.834C1026.23 390.582 1086.47 395.894 1135.46 427.706C1135.46 427.706 1149.37 437.762 1155.33 418.49C1161.28 399.218 1164.84 363.336 1164.84 363.336C1164.84 363.336 1187.78 377.332 1191.75 344.182C1195.72 311.033 1200.35 269.271 1182.48 245.409C1164.62 221.547 1218.24 241.434 1218.24 241.434L1250.02 305.733L1167.91 604.561H1167.9Z" fill="#D35730"/>
</g>
<path d="M1193.33 262.398C1169.73 238.133 1061.58 257.145 1042.37 262.398C1013.24 270.348 1027.13 293.548 1027.13 293.548C1027.13 293.548 946.969 306.609 897.362 338.622C866.354 358.627 876.836 387.009 876.836 387.009C806.644 424.595 826.52 486.445 826.52 486.445C802.685 446.67 817.917 417.508 808.641 400.934C799.377 384.359 784.145 396.296 784.145 396.296C743.093 437.395 766.928 514.956 766.928 514.956C766.928 514.956 772.351 576.629 861.734 617.196L813.935 658.142L840.665 756.998C840.665 756.998 955.359 812.838 1061.1 782.599C1061.1 782.599 1082.41 769.834 1056.26 763.54C1013.28 753.188 990.951 738.353 990.951 738.353C1110.51 778.127 1188.67 714.313 1182.58 687.316C1178.85 670.729 1163.31 679.413 1123.65 673.391C1092.99 668.73 1071.05 647.175 1063.87 639.225C1157.18 604.632 1144.98 487.119 1144.98 487.119C1172.79 492.419 1168.63 394.971 1168.63 394.971C1186.7 410.883 1195.96 389.671 1195.96 389.671C1195.96 389.671 1217.81 287.585 1193.31 262.398H1193.33Z" stroke="#231F20" stroke-linecap="round" stroke-linejoin="round"/>
<path d="M899.801 455.894C904.448 442.258 899.864 428.352 889.561 424.832C879.258 421.313 867.139 429.513 862.492 443.149C857.845 456.784 862.43 470.69 872.733 474.21C883.035 477.729 895.154 469.529 899.801 455.894Z" fill="#231F20" stroke="#231F20" stroke-miterlimit="10" stroke-linecap="round"/>
<path d="M885.985 443.925C888.088 437.753 886.013 431.459 881.349 429.866C876.686 428.273 871.201 431.984 869.097 438.156C866.994 444.327 869.069 450.621 873.733 452.214C878.396 453.807 883.882 450.096 885.985 443.925Z" fill="white"/>
<path d="M1017.09 493.016C1021.74 479.38 1017.15 465.474 1006.85 461.954C996.548 458.435 984.428 466.635 979.781 480.271C975.134 493.906 979.719 507.813 990.022 511.332C1000.32 514.851 1012.44 506.651 1017.09 493.016Z" fill="#231F20" stroke="#231F20" stroke-miterlimit="10" stroke-linecap="round"/>
<path d="M1003.29 481.051C1005.39 474.879 1003.32 468.585 998.654 466.992C993.991 465.399 988.505 469.11 986.402 475.282C984.299 481.453 986.374 487.747 991.037 489.34C995.701 490.933 1001.19 487.222 1003.29 481.051Z" fill="white"/>
<path d="M893.958 545.183C893.958 545.183 888.888 467.433 925.071 472.272C964.8 477.572 943.34 567.72 992.995 580.32" stroke="#231F20" stroke-miterlimit="10" stroke-linecap="round"/>
<path d="M1013.24 604.064C1015.65 604.868 1040.28 621.55 1133.12 571.838C1214.38 528.337 1125.39 716.265 1024.17 703.05" fill="#EC6A3B"/>
<path d="M1013.24 604.064C1015.65 604.868 1040.28 621.55 1133.12 571.838C1214.38 528.337 1125.39 716.265 1024.17 703.05" stroke="#231F20" stroke-linecap="round" stroke-linejoin="round"/>
<path d="M936.286 381.448C936.286 381.448 912.452 373.451 876.848 387.02" stroke="#231F20" stroke-linecap="round" stroke-linejoin="round"/>
<path d="M1144.99 487.119C1144.99 487.119 1139.76 454.325 1111.08 441.039" stroke="#231F20" stroke-linecap="round" stroke-linejoin="round"/>
<path d="M438.395 565.863C438.395 565.863 502.749 613.99 600.013 590.328C711.753 563.154 587.05 461.896 587.05 461.896L438.395 565.851V565.863Z" fill="#D1D3D4"/>
<path d="M420.812 688.049C420.812 688.049 492.777 630.6 423.684 552.826C423.684 552.826 419.489 541.776 434.933 542.664L445.521 550.614C445.521 550.614 518.018 639.331 423.672 712.361C423.672 712.361 409.764 703.63 420.8 688.061L420.812 688.049Z" fill="#525A4B" stroke="#231F20" stroke-miterlimit="10"/>
<path d="M631.363 659.325C631.363 659.325 678.595 600.55 634.235 524.101C634.235 524.101 630.04 513.052 645.484 513.939L656.072 521.889C656.072 521.889 706.837 618.84 634.223 683.636C634.223 683.636 620.314 674.905 631.351 659.336L631.363 659.325Z" fill="#525A4B" stroke="#231F20" stroke-miterlimit="10"/>
<path d="M526.596 580.675C628.347 580.675 710.832 498.094 710.832 396.225C710.832 294.356 628.347 211.774 526.596 211.774C424.845 211.774 342.359 294.356 342.359 396.225C342.359 498.094 424.845 580.675 526.596 580.675Z" fill="#A9DFF2" stroke="#231F20" stroke-miterlimit="10"/>
<path d="M425.667 736.448L419.711 828.75H583.989L587.286 820.41L620.633 738.625C620.633 738.625 526.594 755.768 425.667 736.448Z" fill="#91A8AC" stroke="#231F20" stroke-miterlimit="10"/>
<path d="M425.351 741.582C425.351 741.582 516.601 765.953 626.072 741.582L628.943 725.835C628.943 725.835 492.329 740.635 424.618 720.204C424.618 720.204 414.881 730.603 425.351 741.594V741.582Z" fill="#525A4B" stroke="#231F20" stroke-miterlimit="10"/>
<path d="M597.023 366.589C597.023 366.589 641.927 328.329 667.156 372.232C692.385 416.136 667.062 473.869 620.917 464.073C574.772 454.277 597.023 366.589 597.023 366.589Z" fill="#B18765" stroke="#231F20" stroke-miterlimit="10"/>
<path d="M621.938 373.309C623.332 373.569 647.06 356.936 659.326 383.093C671.592 409.262 660.366 427.765 651.184 436.224C642.002 444.683 621.938 373.309 621.938 373.309Z" fill="#FCC38A"/>
<path d="M626.486 360.154C626.486 360.154 605.239 291.004 491.443 329.832C491.443 329.832 410.06 351.032 407.933 407.298C407.933 407.298 381.901 398.757 367.992 423.033C357.664 441.039 363.774 466.475 376.725 485.191C386.899 499.884 408.016 510.839 434.781 507.704C434.781 507.704 490.651 582.663 602.663 545.503C602.663 545.503 686.468 513.797 670.586 447.487C662.078 411.995 644.176 410.031 626.486 360.165V360.154Z" fill="#B18765"/>
<mask id="mask1_3020_21008" style="mask-type:luminance" maskUnits="userSpaceOnUse" x="362" y="317" width="311" height="239">
<path d="M626.486 360.154C626.486 360.154 605.239 291.004 491.443 329.832C491.443 329.832 410.06 351.032 407.933 407.298C407.933 407.298 381.901 398.757 367.992 423.033C357.664 441.039 363.774 466.475 376.725 485.191C386.899 499.884 408.016 510.839 434.781 507.704C434.781 507.704 490.651 582.663 602.663 545.503C602.663 545.503 686.468 513.797 670.586 447.487C662.078 411.995 644.176 410.031 626.486 360.165V360.154Z" fill="white"/>
</mask>
<g mask="url(#mask1_3020_21008)">
<path d="M646.289 378.373C646.289 378.373 603.004 315.47 552.747 378.16C550.656 380.762 546.981 381.52 544.026 379.946C530.473 372.718 492.647 357.291 466.603 393.007C466.603 393.007 447.034 422.702 463.778 442.459C466.047 445.132 465.941 449.108 463.518 451.639C450.413 465.292 430.23 512.105 490.248 555.476L559.27 597.782C559.27 597.782 671.081 520.73 674.792 518.198C678.502 515.666 699.914 469.858 699.914 469.858L646.289 378.361V378.373Z" fill="#FCC38A"/>
</g>
<path d="M626.486 360.154C626.486 360.154 605.239 291.004 491.443 329.832C491.443 329.832 410.06 351.032 407.933 407.298C407.933 407.298 381.901 398.757 367.992 423.033C357.664 441.039 363.774 466.475 376.725 485.191C386.899 499.884 408.016 510.839 434.781 507.704C434.781 507.704 490.651 582.663 602.663 545.503C602.663 545.503 686.468 513.797 670.586 447.487C662.078 411.995 644.176 410.031 626.486 360.165V360.154Z" stroke="#231F20" stroke-miterlimit="10"/>
<path d="M411.608 384.051C411.265 384.252 411.442 384.796 411.844 384.737C419.135 383.673 441.54 365.607 478.609 351.979C482.26 350.642 486.125 349.979 490.012 349.979C508.293 350.003 566.869 349.116 601.776 337.179C662.727 316.345 605.25 306.159 605.25 306.159L537.906 260.99L420.506 337.557L411.608 384.051Z" fill="#3A3735" stroke="#231F20" stroke-miterlimit="10"/>
<path d="M409.999 384.997C409.999 384.997 376.073 382.17 383.293 347.01C389.249 317.989 417.846 315.162 459.748 276.914C507.595 233.247 602.224 215.134 608.061 282.876C608.061 282.876 610.602 305.342 605.237 306.135C538.519 316.084 469.722 337.533 409.988 384.974L409.999 384.997Z" fill="white" stroke="#231F20" stroke-miterlimit="10"/>
<path d="M517.91 434.26C523.607 434.26 528.226 429.636 528.226 423.932C528.226 418.228 523.607 413.604 517.91 413.604C512.212 413.604 507.594 418.228 507.594 423.932C507.594 429.636 512.212 434.26 517.91 434.26Z" fill="#231F20" stroke="#231F20" stroke-miterlimit="10"/>
<path d="M609.078 418.478C614.775 418.478 619.394 413.854 619.394 408.15C619.394 402.446 614.775 397.822 609.078 397.822C603.38 397.822 598.762 402.446 598.762 408.15C598.762 413.854 603.38 418.478 609.078 418.478Z" fill="#231F20" stroke="#231F20" stroke-miterlimit="10"/>
<path d="M571.428 434.029C580.239 432.504 586.713 427.4 585.889 422.629C585.065 417.859 577.255 415.227 568.445 416.753C559.634 418.278 553.16 423.382 553.984 428.152C554.808 432.923 562.618 435.554 571.428 434.029Z" fill="#231F20" stroke="#231F20" stroke-miterlimit="10"/>
<path d="M612.102 442.246C628.705 432.663 633.621 490.917 577.963 501.505C522.318 512.093 507.795 460.24 527.009 460.145C568.533 459.944 589.307 455.401 612.102 442.246Z" fill="#231F20"/>
<mask id="mask2_3020_21008" style="mask-type:luminance" maskUnits="userSpaceOnUse" x="518" y="441" width="106" height="62">
<path d="M612.102 442.246C628.705 432.663 633.621 490.917 577.963 501.505C522.318 512.093 507.795 460.24 527.009 460.145C568.533 459.944 589.307 455.401 612.102 442.246Z" fill="white"/>
</mask>
<g mask="url(#mask2_3020_21008)">
<path d="M521.113 503.09C521.113 503.09 532.068 487.852 563.406 482.753C594.744 477.642 612.517 499.02 612.517 499.02C612.517 499.02 556.718 545.834 521.102 503.09H521.113Z" fill="#F79F88"/>
</g>
<path d="M612.102 442.246C628.705 432.663 633.621 490.917 577.963 501.505C522.318 512.093 507.795 460.24 527.009 460.145C568.533 459.944 589.307 455.401 612.102 442.246Z" stroke="#231F20" stroke-miterlimit="10"/>
<path d="M408.418 424.121C408.418 424.121 413.086 468.793 426.592 493.129C426.592 493.129 396.058 496.453 381.133 463.541C367.012 432.414 395.207 415.875 408.418 424.109V424.121Z" fill="#FCC38A"/>
<path d="M934.691 520.718L914.957 512.969C914.378 512.637 913.74 512.377 913.054 512.223L718.1 463.387C714.496 462.559 708.245 464.333 705.976 470.958L656.853 632.611C655.672 636.491 656.499 640.691 659.039 643.85L698.449 692.698L857.019 725.244L867.689 705.511L868.103 703.961C877.486 704.127 884.552 703.523 884.552 703.523C892.339 703.724 895.329 692.675 895.329 692.675C895.329 692.675 935.341 542.462 937.988 532.323C940.635 522.185 934.679 520.729 934.679 520.729L934.691 520.718Z" fill="#C7A95C"/>
<mask id="mask3_3020_21008" style="mask-type:luminance" maskUnits="userSpaceOnUse" x="656" y="463" width="283" height="263">
<path d="M934.691 520.718L914.957 512.969C914.378 512.637 913.74 512.377 913.054 512.223L718.1 463.387C714.496 462.559 708.245 464.333 705.976 470.958L656.853 632.611C655.672 636.491 656.499 640.691 659.039 643.85L698.449 692.698L857.019 725.244L867.689 705.511L868.103 703.961C877.486 704.127 884.552 703.523 884.552 703.523C892.339 703.724 895.329 692.675 895.329 692.675C895.329 692.675 935.341 542.462 937.988 532.323C940.635 522.185 934.679 520.729 934.679 520.729L934.691 520.718Z" fill="white"/>
</mask>
<g mask="url(#mask3_3020_21008)">
<path d="M904.286 510.07C904.286 510.07 920.073 513.442 916.587 528.869C913.101 544.296 872.369 692.414 872.369 692.414C872.369 692.414 867.701 705.511 857.751 703.724C847.801 701.938 872.369 724.629 872.369 724.629L924.894 717.14L979.264 488.763L904.286 510.058V510.07Z" fill="#998041"/>
</g>
<path d="M934.691 520.718L914.957 512.969C914.378 512.637 913.74 512.377 913.054 512.223L718.1 463.387C714.496 462.559 708.245 464.333 705.976 470.958L656.853 632.611C655.672 636.491 656.499 640.691 659.039 643.85L698.449 692.698L857.019 725.244L867.689 705.511L868.103 703.961C877.486 704.127 884.552 703.523 884.552 703.523C892.339 703.724 895.329 692.675 895.329 692.675C895.329 692.675 935.341 542.462 937.988 532.323C940.635 522.185 934.679 520.729 934.679 520.729L934.691 520.718Z" stroke="#231F20" stroke-miterlimit="10"/>
<path d="M673.611 634.35C670.161 633.356 668.176 629.736 669.192 626.282L712.111 484.102C713.15 480.553 716.778 478.435 720.382 479.264L897.942 523.699C901.712 524.575 904.052 528.337 903.177 532.099L862.031 682.832C861.227 685.86 858.096 687.635 855.094 686.771L673.611 634.35Z" fill="#82603A"/>
<mask id="mask4_3020_21008" style="mask-type:luminance" maskUnits="userSpaceOnUse" x="668" y="479" width="236" height="208">
<path d="M673.611 634.35C670.161 633.356 668.176 629.736 669.192 626.282L712.111 484.102C713.15 480.553 716.778 478.435 720.382 479.264L897.942 523.699C901.712 524.575 904.052 528.337 903.177 532.099L862.031 682.832C861.227 685.86 858.096 687.635 855.094 686.771L673.611 634.35Z" fill="white"/>
</mask>
<g mask="url(#mask4_3020_21008)">
<path d="M725.489 502.073L682.759 645.222L627.102 627.784L668.921 478.353L894.682 416.609L919.367 544.154L733.004 497.672C729.719 496.891 726.41 498.831 725.465 502.073H725.489Z" fill="#674A2D"/>
</g>
<path d="M673.611 634.35C670.161 633.356 668.176 629.736 669.192 626.282L712.111 484.102C713.15 480.553 716.778 478.435 720.382 479.264L897.942 523.699C901.712 524.575 904.052 528.337 903.177 532.099L862.031 682.832C861.227 685.86 858.096 687.635 855.094 686.771L673.611 634.35Z" stroke="#231F20" stroke-miterlimit="10"/>
<path d="M505.503 828.75L502.75 724.629L695.814 784.385L857.751 733.017L849.102 828.75H505.503Z" fill="#C5A85B"/>
<mask id="mask5_3020_21008" style="mask-type:luminance" maskUnits="userSpaceOnUse" x="502" y="724" width="356" height="105">
<path d="M505.503 828.75L502.75 724.629L695.814 784.385L857.751 733.017L849.102 828.75H505.503Z" fill="white"/>
</mask>
<g mask="url(#mask5_3020_21008)">
<path d="M514.44 712.42L500.555 726.617L500.023 741.18L697.353 810.921L859.114 750.053L859.953 737.489L830.221 725.303L514.44 712.42Z" fill="#998041"/>
</g>
<path d="M505.503 828.75L502.75 724.629L695.814 784.385L857.751 733.017L849.102 828.75H505.503Z" stroke="#231F20" stroke-linecap="round" stroke-linejoin="round"/>
<path d="M653.225 640.49L501.556 688.569C497.893 689.386 495.293 692.639 495.293 696.389V719.01C495.293 722.381 497.396 725.386 500.551 726.546L680.25 790.3C695.801 797.422 708.811 792.11 710.43 791.661L859.949 737.43C863.128 736.542 865.432 733.81 865.774 730.521L868.091 708.043C868.492 704.15 866.034 700.542 862.265 699.489L657.113 640.585C655.848 640.23 654.501 640.194 653.213 640.49H653.225Z" fill="#C5A85B"/>
<mask id="mask6_3020_21008" style="mask-type:luminance" maskUnits="userSpaceOnUse" x="495" y="640" width="374" height="154">
<path d="M653.225 640.49L501.556 688.569C497.893 689.386 495.293 692.639 495.293 696.389V719.01C495.293 722.381 497.396 725.386 500.551 726.546L680.25 790.3C695.801 797.422 708.811 792.11 710.43 791.661L859.949 737.43C863.128 736.542 865.432 733.81 865.774 730.521L868.091 708.043C868.492 704.15 866.034 700.542 862.265 699.489L657.113 640.585C655.848 640.23 654.501 640.194 653.213 640.49H653.225Z" fill="white"/>
</mask>
<g mask="url(#mask6_3020_21008)">
<path d="M701.32 831.944V777.204C701.32 777.204 701.651 769.218 712.369 764.995C726.065 759.6 869.249 709.367 869.249 709.367C869.249 709.367 878.277 706.848 880.263 721.009C882.248 735.17 864.204 770.827 864.204 770.827L701.32 831.944Z" fill="#998041"/>
</g>
<path d="M653.225 640.49L501.556 688.569C497.893 689.386 495.293 692.639 495.293 696.389V719.01C495.293 722.381 497.396 725.386 500.551 726.546L680.25 790.3C695.801 797.422 708.811 792.11 710.43 791.661L859.949 737.43C863.128 736.542 865.432 733.81 865.774 730.521L868.091 708.043C868.492 704.15 866.034 700.542 862.265 699.489L657.113 640.585C655.848 640.23 654.501 640.194 653.213 640.49H653.225Z" stroke="#231F20" stroke-linecap="round" stroke-linejoin="round"/>
<path d="M628.931 772.046C628.931 772.046 628.931 804.722 595.998 797.671C563.064 790.62 570.674 751.378 570.674 751.378L628.92 772.046H628.931Z" fill="#998041" stroke="#231F20" stroke-miterlimit="10"/>
<path d="M524.105 698.282L690.628 755.317C697.624 757.151 704.631 755.909 705.163 755.767L843.526 708.551C846.327 707.841 846.386 703.878 843.609 703.074L664.052 651.812C663.591 651.682 657.529 650.262 652.105 651.966L524.401 692.84C521.624 693.479 521.423 697.359 524.117 698.282H524.105Z" fill="#674A2D"/>
<mask id="mask7_3020_21008" style="mask-type:luminance" maskUnits="userSpaceOnUse" x="522" y="651" width="324" height="106">
<path d="M524.105 698.282L690.628 755.317C697.624 757.151 704.631 755.909 705.163 755.767L843.526 708.551C846.327 707.841 846.386 703.878 843.609 703.074L664.052 651.812C663.591 651.682 657.529 650.262 652.105 651.966L524.401 692.84C521.624 693.479 521.423 697.359 524.117 698.282H524.105Z" fill="white"/>
</mask>
<g mask="url(#mask7_3020_21008)">
<path d="M717.428 684.866C717.428 689.007 709.251 692.379 699.148 692.379C689.044 692.379 680.867 689.019 680.867 684.866C680.867 683.683 680.914 680.643 680.914 680.643C683.892 678.147 691.94 677.366 699.148 677.366C704.631 677.366 713.954 678.076 717.298 679.649C717.298 679.649 717.417 682.973 717.417 684.866H717.428Z" fill="#DA9328" stroke="#DA9328" stroke-miterlimit="10"/>
<path d="M699.195 688.155C709.291 688.155 717.475 684.792 717.475 680.643C717.475 676.494 709.291 673.13 699.195 673.13C689.099 673.13 680.914 676.494 680.914 680.643C680.914 684.792 689.099 688.155 699.195 688.155Z" fill="#F9D231" stroke="#DA9328" stroke-miterlimit="10"/>
<path d="M682.203 684.523V686.535" stroke="#F9D231" stroke-linecap="round" stroke-linejoin="round"/>
<path d="M716.391 684.239V686.25" stroke="#F9D231" stroke-linecap="round" stroke-linejoin="round"/>
<path d="M698.758 688.983V690.995" stroke="#F9D231" stroke-linecap="round" stroke-linejoin="round"/>
<path d="M709.062 687.753V689.764" stroke="#F9D231" stroke-linecap="round" stroke-linejoin="round"/>
<path d="M713.031 686.25V688.25" stroke="#F9D231" stroke-linecap="round" stroke-linejoin="round"/>
<path d="M704.266 688.759V690.77" stroke="#F9D231" stroke-linecap="round" stroke-linejoin="round"/>
<path d="M693.629 688.759V690.77" stroke="#F9D231" stroke-linecap="round" stroke-linejoin="round"/>
<path d="M685.062 686.369V688.38" stroke="#F9D231" stroke-linecap="round" stroke-linejoin="round"/>
<path d="M688.703 687.753V689.764" stroke="#F9D231" stroke-linecap="round" stroke-linejoin="round"/>
<path d="M677.346 709.64C677.346 713.78 669.169 717.152 659.066 717.152C648.962 717.152 640.785 713.792 640.785 709.64C640.785 708.457 640.832 705.416 640.832 705.416C643.81 702.92 651.858 702.139 659.066 702.139C664.549 702.139 673.872 702.849 677.216 704.422C677.216 704.422 677.335 707.747 677.335 709.64H677.346Z" fill="#DA9328" stroke="#DA9328" stroke-miterlimit="10"/>
<path d="M659.101 712.929C669.197 712.929 677.382 709.565 677.382 705.416C677.382 701.267 669.197 697.904 659.101 697.904C649.005 697.904 640.82 701.267 640.82 705.416C640.82 709.565 649.005 712.929 659.101 712.929Z" fill="#F9D231" stroke="#DA9328" stroke-miterlimit="10"/>
<path d="M642.121 709.297V711.308" stroke="#F9D231" stroke-linecap="round" stroke-linejoin="round"/>
<path d="M676.305 709.001V711.012" stroke="#F9D231" stroke-linecap="round" stroke-linejoin="round"/>
<path d="M658.676 713.757V715.756" stroke="#F9D231" stroke-linecap="round" stroke-linejoin="round"/>
<path d="M668.98 712.515V714.526" stroke="#F9D231" stroke-linecap="round" stroke-linejoin="round"/>
<path d="M672.953 711.012V713.023" stroke="#F9D231" stroke-linecap="round" stroke-linejoin="round"/>
<path d="M664.18 713.52V715.531" stroke="#F9D231" stroke-linecap="round" stroke-linejoin="round"/>
<path d="M653.547 713.52V715.531" stroke="#F9D231" stroke-linecap="round" stroke-linejoin="round"/>
<path d="M644.98 711.142V713.141" stroke="#F9D231" stroke-linecap="round" stroke-linejoin="round"/>
<path d="M648.617 712.515V714.526" stroke="#F9D231" stroke-linecap="round" stroke-linejoin="round"/>
<path d="M652.839 700.53C652.839 704.671 644.661 708.042 634.558 708.042C624.455 708.042 616.277 704.682 616.277 700.53C616.277 699.347 616.325 696.306 616.325 696.306C619.302 693.81 627.35 693.029 634.558 693.029C640.041 693.029 649.364 693.739 652.709 695.313C652.709 695.313 652.827 698.637 652.827 700.53H652.839Z" fill="#DA9328" stroke="#DA9328" stroke-miterlimit="10"/>
<path d="M634.605 703.819C644.701 703.819 652.886 700.455 652.886 696.306C652.886 692.157 644.701 688.794 634.605 688.794C624.509 688.794 616.324 692.157 616.324 696.306C616.324 700.455 624.509 703.819 634.605 703.819Z" fill="#F9D231" stroke="#DA9328" stroke-miterlimit="10"/>
<path d="M617.625 700.187V702.198" stroke="#F9D231" stroke-linecap="round" stroke-linejoin="round"/>
<path d="M651.812 699.903V701.914" stroke="#F9D231" stroke-linecap="round" stroke-linejoin="round"/>
<path d="M634.18 704.646V706.658" stroke="#F9D231" stroke-linecap="round" stroke-linejoin="round"/>
<path d="M644.484 703.417V705.428" stroke="#F9D231" stroke-linecap="round" stroke-linejoin="round"/>
<path d="M648.457 701.914V703.925" stroke="#F9D231" stroke-linecap="round" stroke-linejoin="round"/>
<path d="M639.688 704.422V706.433" stroke="#F9D231" stroke-linecap="round" stroke-linejoin="round"/>
<path d="M629.051 704.422V706.433" stroke="#F9D231" stroke-linecap="round" stroke-linejoin="round"/>
<path d="M620.484 702.032V704.043" stroke="#F9D231" stroke-linecap="round" stroke-linejoin="round"/>
<path d="M624.125 703.417V705.428" stroke="#F9D231" stroke-linecap="round" stroke-linejoin="round"/>
<path d="M631.968 701.819C631.968 705.96 623.79 709.332 613.687 709.332C603.584 709.332 595.406 705.972 595.406 701.819C595.406 700.636 595.454 697.596 595.454 697.596C598.431 695.1 606.479 694.319 613.687 694.319C619.17 694.319 628.493 695.029 631.838 696.602C631.838 696.602 631.956 699.927 631.956 701.819H631.968Z" fill="#DA9328" stroke="#DA9328" stroke-miterlimit="10"/>
<path d="M613.734 705.108C623.83 705.108 632.014 701.745 632.014 697.596C632.014 693.447 623.83 690.083 613.734 690.083C603.638 690.083 595.453 693.447 595.453 697.596C595.453 701.745 603.638 705.108 613.734 705.108Z" fill="#F9D231" stroke="#DA9328" stroke-miterlimit="10"/>
<path d="M596.754 701.477V703.488" stroke="#F9D231" stroke-linecap="round" stroke-linejoin="round"/>
<path d="M630.938 701.181V703.192" stroke="#F9D231" stroke-linecap="round" stroke-linejoin="round"/>
<path d="M613.309 705.937V707.948" stroke="#F9D231" stroke-linecap="round" stroke-linejoin="round"/>
<path d="M623.613 704.706V706.705" stroke="#F9D231" stroke-linecap="round" stroke-linejoin="round"/>
<path d="M627.586 703.191V705.203" stroke="#F9D231" stroke-linecap="round" stroke-linejoin="round"/>
<path d="M618.805 705.7V707.711" stroke="#F9D231" stroke-linecap="round" stroke-linejoin="round"/>
<path d="M608.168 705.7V707.711" stroke="#F9D231" stroke-linecap="round" stroke-linejoin="round"/>
<path d="M599.613 703.322V705.322" stroke="#F9D231" stroke-linecap="round" stroke-linejoin="round"/>
<path d="M603.25 704.706V706.705" stroke="#F9D231" stroke-linecap="round" stroke-linejoin="round"/>
<path d="M638.893 687.233C638.893 691.373 630.716 694.745 620.613 694.745C610.509 694.745 602.332 691.385 602.332 687.233C602.332 686.049 602.379 683.009 602.379 683.009C605.357 680.513 613.404 679.732 620.613 679.732C626.096 679.732 635.419 680.442 638.763 682.015C638.763 682.015 638.882 685.34 638.882 687.233H638.893Z" fill="#DA9328" stroke="#DA9328" stroke-miterlimit="10"/>
<path d="M620.648 690.521C630.744 690.521 638.928 687.158 638.928 683.009C638.928 678.86 630.744 675.497 620.648 675.497C610.552 675.497 602.367 678.86 602.367 683.009C602.367 687.158 610.552 690.521 620.648 690.521Z" fill="#F9D231" stroke="#DA9328" stroke-miterlimit="10"/>
<path d="M603.668 686.89V688.901" stroke="#F9D231" stroke-linecap="round" stroke-linejoin="round"/>
<path d="M637.852 686.605V688.605" stroke="#F9D231" stroke-linecap="round" stroke-linejoin="round"/>
<path d="M620.223 691.35V693.361" stroke="#F9D231" stroke-linecap="round" stroke-linejoin="round"/>
<path d="M630.527 690.119V692.13" stroke="#F9D231" stroke-linecap="round" stroke-linejoin="round"/>
<path d="M634.5 688.605V690.616" stroke="#F9D231" stroke-linecap="round" stroke-linejoin="round"/>
<path d="M625.727 691.125V693.136" stroke="#F9D231" stroke-linecap="round" stroke-linejoin="round"/>
<path d="M615.094 691.125V693.136" stroke="#F9D231" stroke-linecap="round" stroke-linejoin="round"/>
<path d="M606.527 688.735V690.746" stroke="#F9D231" stroke-linecap="round" stroke-linejoin="round"/>
<path d="M610.164 690.119V692.13" stroke="#F9D231" stroke-linecap="round" stroke-linejoin="round"/>
<path d="M670.007 685.742C670.007 689.882 661.829 693.254 651.726 693.254C641.623 693.254 633.445 689.894 633.445 685.742C633.445 684.559 633.493 681.518 633.493 681.518C636.47 679.022 644.518 678.241 651.726 678.241C657.209 678.241 666.532 678.951 669.877 680.524C669.877 680.524 669.995 683.849 669.995 685.742H670.007Z" fill="#DA9328" stroke="#DA9328" stroke-miterlimit="10"/>
<path d="M651.773 689.031C661.869 689.031 670.053 685.667 670.053 681.518C670.053 677.369 661.869 674.006 651.773 674.006C641.677 674.006 633.492 677.369 633.492 681.518C633.492 685.667 641.677 689.031 651.773 689.031Z" fill="#F9D231" stroke="#DA9328" stroke-miterlimit="10"/>
<path d="M634.793 685.398V687.41" stroke="#F9D231" stroke-linecap="round" stroke-linejoin="round"/>
<path d="M668.969 685.115V687.126" stroke="#F9D231" stroke-linecap="round" stroke-linejoin="round"/>
<path d="M651.336 689.858V691.87" stroke="#F9D231" stroke-linecap="round" stroke-linejoin="round"/>
<path d="M661.641 688.628V690.64" stroke="#F9D231" stroke-linecap="round" stroke-linejoin="round"/>
<path d="M665.625 687.126V689.125" stroke="#F9D231" stroke-linecap="round" stroke-linejoin="round"/>
<path d="M656.844 689.634V691.645" stroke="#F9D231" stroke-linecap="round" stroke-linejoin="round"/>
<path d="M646.207 689.634V691.645" stroke="#F9D231" stroke-linecap="round" stroke-linejoin="round"/>
<path d="M637.641 687.244V689.255" stroke="#F9D231" stroke-linecap="round" stroke-linejoin="round"/>
<path d="M641.281 688.628V690.64" stroke="#F9D231" stroke-linecap="round" stroke-linejoin="round"/>
<path d="M682.866 692.71C682.866 696.851 674.689 700.222 664.585 700.222C654.482 700.222 646.305 696.863 646.305 692.71C646.305 691.527 646.352 688.487 646.352 688.487C649.33 685.99 657.377 685.209 664.585 685.209C670.068 685.209 679.392 685.919 682.736 687.493C682.736 687.493 682.854 690.817 682.854 692.71H682.866Z" fill="#DA9328" stroke="#DA9328" stroke-miterlimit="10"/>
<path d="M664.632 695.987C674.728 695.987 682.913 692.624 682.913 688.475C682.913 684.326 674.728 680.962 664.632 680.962C654.536 680.962 646.352 684.326 646.352 688.475C646.352 692.624 654.536 695.987 664.632 695.987Z" fill="#F9D231" stroke="#DA9328" stroke-miterlimit="10"/>
<path d="M647.641 692.367V694.367" stroke="#F9D231" stroke-linecap="round" stroke-linejoin="round"/>
<path d="M681.828 692.071V694.082" stroke="#F9D231" stroke-linecap="round" stroke-linejoin="round"/>
<path d="M664.195 696.827V698.827" stroke="#F9D231" stroke-linecap="round" stroke-linejoin="round"/>
<path d="M674.5 695.585V697.596" stroke="#F9D231" stroke-linecap="round" stroke-linejoin="round"/>
<path d="M678.469 694.083V696.094" stroke="#F9D231" stroke-linecap="round" stroke-linejoin="round"/>
<path d="M669.703 696.591V698.602" stroke="#F9D231" stroke-linecap="round" stroke-linejoin="round"/>
<path d="M659.066 696.591V698.602" stroke="#F9D231" stroke-linecap="round" stroke-linejoin="round"/>
<path d="M650.5 694.201V696.212" stroke="#F9D231" stroke-linecap="round" stroke-linejoin="round"/>
<path d="M654.141 695.585V697.596" stroke="#F9D231" stroke-linecap="round" stroke-linejoin="round"/>
<path d="M693.159 676.124C693.159 680.264 684.982 683.636 674.878 683.636C664.775 683.636 656.598 680.276 656.598 676.124C656.598 674.941 656.645 671.9 656.645 671.9C659.623 669.404 667.67 668.623 674.878 668.623C680.361 668.623 689.685 669.333 693.029 670.906C693.029 670.906 693.147 674.231 693.147 676.124H693.159Z" fill="#DA9328" stroke="#DA9328" stroke-miterlimit="10"/>
<path d="M674.925 679.413C685.021 679.413 693.206 676.049 693.206 671.9C693.206 667.751 685.021 664.388 674.925 664.388C664.829 664.388 656.645 667.751 656.645 671.9C656.645 676.049 664.829 679.413 674.925 679.413Z" fill="#F9D231" stroke="#DA9328" stroke-miterlimit="10"/>
<path d="M657.934 675.78V677.791" stroke="#F9D231" stroke-linecap="round" stroke-linejoin="round"/>
<path d="M692.117 675.497V677.496" stroke="#F9D231" stroke-linecap="round" stroke-linejoin="round"/>
<path d="M674.488 680.24V682.251" stroke="#F9D231" stroke-linecap="round" stroke-linejoin="round"/>
<path d="M684.793 679.01V681.021" stroke="#F9D231" stroke-linecap="round" stroke-linejoin="round"/>
<path d="M688.766 677.496V679.507" stroke="#F9D231" stroke-linecap="round" stroke-linejoin="round"/>
<path d="M679.992 680.016V682.027" stroke="#F9D231" stroke-linecap="round" stroke-linejoin="round"/>
<path d="M669.359 680.016V682.027" stroke="#F9D231" stroke-linecap="round" stroke-linejoin="round"/>
<path d="M660.793 677.626V679.637" stroke="#F9D231" stroke-linecap="round" stroke-linejoin="round"/>
<path d="M664.43 679.01V681.021" stroke="#F9D231" stroke-linecap="round" stroke-linejoin="round"/>
<path d="M671.639 700.53C671.639 704.671 663.462 708.042 653.359 708.042C643.255 708.042 635.078 704.682 635.078 700.53C635.078 699.347 635.125 696.306 635.125 696.306C638.103 693.81 646.151 693.029 653.359 693.029C658.842 693.029 668.165 693.739 671.509 695.313C671.509 695.313 671.628 698.637 671.628 700.53H671.639Z" fill="#DA9328" stroke="#DA9328" stroke-miterlimit="10"/>
<path d="M653.406 703.819C663.502 703.819 671.686 700.455 671.686 696.306C671.686 692.157 663.502 688.794 653.406 688.794C643.31 688.794 635.125 692.157 635.125 696.306C635.125 700.455 643.31 703.819 653.406 703.819Z" fill="#F9D231" stroke="#DA9328" stroke-miterlimit="10"/>
<path d="M636.414 700.187V702.198" stroke="#F9D231" stroke-linecap="round" stroke-linejoin="round"/>
<path d="M670.602 699.903V701.914" stroke="#F9D231" stroke-linecap="round" stroke-linejoin="round"/>
<path d="M652.969 704.646V706.658" stroke="#F9D231" stroke-linecap="round" stroke-linejoin="round"/>
<path d="M663.273 703.417V705.428" stroke="#F9D231" stroke-linecap="round" stroke-linejoin="round"/>
<path d="M667.242 701.914V703.925" stroke="#F9D231" stroke-linecap="round" stroke-linejoin="round"/>
<path d="M658.477 704.422V706.433" stroke="#F9D231" stroke-linecap="round" stroke-linejoin="round"/>
<path d="M647.84 704.422V706.433" stroke="#F9D231" stroke-linecap="round" stroke-linejoin="round"/>
<path d="M639.273 702.032V704.043" stroke="#F9D231" stroke-linecap="round" stroke-linejoin="round"/>
<path d="M642.914 703.417V705.428" stroke="#F9D231" stroke-linecap="round" stroke-linejoin="round"/>
<path d="M720.475 719.258C720.475 723.399 712.298 726.77 702.195 726.77C692.091 726.77 683.914 723.41 683.914 719.258C683.914 718.075 683.961 715.034 683.961 715.034C686.939 712.538 694.986 711.757 702.195 711.757C707.678 711.757 717.001 712.467 720.345 714.041C720.345 714.041 720.464 717.365 720.464 719.258H720.475Z" fill="#DA9328" stroke="#DA9328" stroke-miterlimit="10"/>
<path d="M702.242 722.547C712.338 722.547 720.522 719.183 720.522 715.034C720.522 710.885 712.338 707.522 702.242 707.522C692.145 707.522 683.961 710.885 683.961 715.034C683.961 719.183 692.145 722.547 702.242 722.547Z" fill="#F9D231" stroke="#DA9328" stroke-miterlimit="10"/>
<path d="M685.262 718.915V720.926" stroke="#F9D231" stroke-linecap="round" stroke-linejoin="round"/>
<path d="M719.438 718.619V720.63" stroke="#F9D231" stroke-linecap="round" stroke-linejoin="round"/>
<path d="M701.816 723.375V725.386" stroke="#F9D231" stroke-linecap="round" stroke-linejoin="round"/>
<path d="M712.121 722.145V724.144" stroke="#F9D231" stroke-linecap="round" stroke-linejoin="round"/>
<path d="M716.094 720.63V722.642" stroke="#F9D231" stroke-linecap="round" stroke-linejoin="round"/>
<path d="M707.312 723.15V725.15" stroke="#F9D231" stroke-linecap="round" stroke-linejoin="round"/>
<path d="M696.676 723.15V725.15" stroke="#F9D231" stroke-linecap="round" stroke-linejoin="round"/>
<path d="M688.121 720.76V722.76" stroke="#F9D231" stroke-linecap="round" stroke-linejoin="round"/>
<path d="M691.758 722.145V724.144" stroke="#F9D231" stroke-linecap="round" stroke-linejoin="round"/>
<path d="M749.917 722.31C749.917 726.451 741.74 729.823 731.636 729.823C721.533 729.823 713.355 726.463 713.355 722.31C713.355 721.127 713.403 718.087 713.403 718.087C716.381 715.59 724.428 714.81 731.636 714.81C737.119 714.81 746.443 715.519 749.787 717.093C749.787 717.093 749.905 720.417 749.905 722.31H749.917Z" fill="#DA9328" stroke="#DA9328" stroke-miterlimit="10"/>
<path d="M731.683 725.599C741.779 725.599 749.964 722.236 749.964 718.087C749.964 713.938 741.779 710.574 731.683 710.574C721.587 710.574 713.402 713.938 713.402 718.087C713.402 722.236 721.587 725.599 731.683 725.599Z" fill="#F9D231" stroke="#DA9328" stroke-miterlimit="10"/>
<path d="M714.703 721.967V723.978" stroke="#F9D231" stroke-linecap="round" stroke-linejoin="round"/>
<path d="M748.875 721.683V723.694" stroke="#F9D231" stroke-linecap="round" stroke-linejoin="round"/>
<path d="M731.246 726.427V728.438" stroke="#F9D231" stroke-linecap="round" stroke-linejoin="round"/>
<path d="M741.547 725.197V727.208" stroke="#F9D231" stroke-linecap="round" stroke-linejoin="round"/>
<path d="M745.52 723.694V725.694" stroke="#F9D231" stroke-linecap="round" stroke-linejoin="round"/>
<path d="M736.754 726.202V728.213" stroke="#F9D231" stroke-linecap="round" stroke-linejoin="round"/>
<path d="M726.117 726.202V728.213" stroke="#F9D231" stroke-linecap="round" stroke-linejoin="round"/>
<path d="M717.551 723.812V725.824" stroke="#F9D231" stroke-linecap="round" stroke-linejoin="round"/>
<path d="M721.191 725.197V727.208" stroke="#F9D231" stroke-linecap="round" stroke-linejoin="round"/>
<path d="M745.811 731.928C745.811 736.069 737.634 739.441 727.531 739.441C717.427 739.441 709.25 736.081 709.25 731.928C709.25 730.745 709.297 727.705 709.297 727.705C712.275 725.209 720.322 724.428 727.531 724.428C733.014 724.428 742.337 725.138 745.681 726.711C745.681 726.711 745.799 730.035 745.799 731.928H745.811Z" fill="#DA9328" stroke="#DA9328" stroke-miterlimit="10"/>
<path d="M727.578 735.217C737.674 735.217 745.858 731.854 745.858 727.705C745.858 723.556 737.674 720.192 727.578 720.192C717.481 720.192 709.297 723.556 709.297 727.705C709.297 731.854 717.481 735.217 727.578 735.217Z" fill="#F9D231" stroke="#DA9328" stroke-miterlimit="10"/>
<path d="M710.598 731.585V733.596" stroke="#F9D231" stroke-linecap="round" stroke-linejoin="round"/>
<path d="M744.77 731.301V733.312" stroke="#F9D231" stroke-linecap="round" stroke-linejoin="round"/>
<path d="M727.141 736.045V738.056" stroke="#F9D231" stroke-linecap="round" stroke-linejoin="round"/>
<path d="M737.445 734.815V736.826" stroke="#F9D231" stroke-linecap="round" stroke-linejoin="round"/>
<path d="M741.43 733.312V735.312" stroke="#F9D231" stroke-linecap="round" stroke-linejoin="round"/>
<path d="M732.648 735.82V737.832" stroke="#F9D231" stroke-linecap="round" stroke-linejoin="round"/>
<path d="M722.016 735.82V737.832" stroke="#F9D231" stroke-linecap="round" stroke-linejoin="round"/>
<path d="M713.445 733.431V735.442" stroke="#F9D231" stroke-linecap="round" stroke-linejoin="round"/>
<path d="M717.086 734.815V736.826" stroke="#F9D231" stroke-linecap="round" stroke-linejoin="round"/>
<path d="M667.858 729.16C667.858 733.3 659.681 736.672 649.578 736.672C639.474 736.672 631.297 733.312 631.297 729.16C631.297 727.977 631.344 724.936 631.344 724.936C634.322 722.44 642.369 721.659 649.578 721.659C655.061 721.659 664.384 722.369 667.728 723.943C667.728 723.943 667.846 727.267 667.846 729.16H667.858Z" fill="#DA9328" stroke="#DA9328" stroke-miterlimit="10"/>
<path d="M649.624 732.449C659.721 732.449 667.905 729.085 667.905 724.936C667.905 720.787 659.721 717.424 649.624 717.424C639.528 717.424 631.344 720.787 631.344 724.936C631.344 729.085 639.528 732.449 649.624 732.449Z" fill="#F9D231" stroke="#DA9328" stroke-miterlimit="10"/>
<path d="M632.633 728.816V730.828" stroke="#F9D231" stroke-linecap="round" stroke-linejoin="round"/>
<path d="M666.82 728.521V730.532" stroke="#F9D231" stroke-linecap="round" stroke-linejoin="round"/>
<path d="M649.188 733.276V735.288" stroke="#F9D231" stroke-linecap="round" stroke-linejoin="round"/>
<path d="M659.492 732.046V734.046" stroke="#F9D231" stroke-linecap="round" stroke-linejoin="round"/>
<path d="M663.461 730.532V732.543" stroke="#F9D231" stroke-linecap="round" stroke-linejoin="round"/>
<path d="M654.695 733.052V735.051" stroke="#F9D231" stroke-linecap="round" stroke-linejoin="round"/>
<path d="M644.059 733.052V735.051" stroke="#F9D231" stroke-linecap="round" stroke-linejoin="round"/>
<path d="M635.492 730.662V732.673" stroke="#F9D231" stroke-linecap="round" stroke-linejoin="round"/>
<path d="M639.133 732.046V734.046" stroke="#F9D231" stroke-linecap="round" stroke-linejoin="round"/>
<path d="M694.671 728.876C694.671 733.016 686.493 736.388 676.39 736.388C666.287 736.388 658.109 733.028 658.109 728.876C658.109 727.693 658.157 724.652 658.157 724.652C661.134 722.156 669.182 721.375 676.39 721.375C681.873 721.375 691.197 722.085 694.541 723.658C694.541 723.658 694.659 726.983 694.659 728.876H694.671Z" fill="#DA9328" stroke="#DA9328" stroke-miterlimit="10"/>
<path d="M676.437 732.164C686.533 732.164 694.718 728.801 694.718 724.652C694.718 720.503 686.533 717.14 676.437 717.14C666.341 717.14 658.156 720.503 658.156 724.652C658.156 728.801 666.341 732.164 676.437 732.164Z" fill="#F9D231" stroke="#DA9328" stroke-miterlimit="10"/>
<path d="M659.457 728.532V730.543" stroke="#F9D231" stroke-linecap="round" stroke-linejoin="round"/>
<path d="M693.633 728.236V730.248" stroke="#F9D231" stroke-linecap="round" stroke-linejoin="round"/>
<path d="M676 732.992V735.003" stroke="#F9D231" stroke-linecap="round" stroke-linejoin="round"/>
<path d="M686.305 731.762V733.773" stroke="#F9D231" stroke-linecap="round" stroke-linejoin="round"/>
<path d="M690.289 730.248V732.259" stroke="#F9D231" stroke-linecap="round" stroke-linejoin="round"/>
<path d="M681.508 732.768V734.767" stroke="#F9D231" stroke-linecap="round" stroke-linejoin="round"/>
<path d="M670.871 732.768V734.767" stroke="#F9D231" stroke-linecap="round" stroke-linejoin="round"/>
<path d="M662.305 730.378V732.389" stroke="#F9D231" stroke-linecap="round" stroke-linejoin="round"/>
<path d="M665.945 731.762V733.773" stroke="#F9D231" stroke-linecap="round" stroke-linejoin="round"/>
<path d="M611.456 693.112C611.456 697.253 603.279 700.625 593.175 700.625C583.072 700.625 574.895 697.265 574.895 693.112C574.895 691.929 574.942 688.889 574.942 688.889C577.92 686.393 585.967 685.612 593.175 685.612C598.658 685.612 607.982 686.322 611.326 687.895C611.326 687.895 611.444 691.219 611.444 693.112H611.456Z" fill="#DA9328" stroke="#DA9328" stroke-miterlimit="10"/>
<path d="M593.222 696.39C603.318 696.39 611.503 693.026 611.503 688.877C611.503 684.728 603.318 681.365 593.222 681.365C583.126 681.365 574.941 684.728 574.941 688.877C574.941 693.026 583.126 696.39 593.222 696.39Z" fill="#F9D231" stroke="#DA9328" stroke-miterlimit="10"/>
<path d="M576.242 692.77V694.769" stroke="#F9D231" stroke-linecap="round" stroke-linejoin="round"/>
<path d="M610.414 692.474V694.485" stroke="#F9D231" stroke-linecap="round" stroke-linejoin="round"/>
<path d="M592.785 697.229V699.229" stroke="#F9D231" stroke-linecap="round" stroke-linejoin="round"/>
<path d="M603.09 695.987V697.998" stroke="#F9D231" stroke-linecap="round" stroke-linejoin="round"/>
<path d="M607.062 694.485V696.497" stroke="#F9D231" stroke-linecap="round" stroke-linejoin="round"/>
<path d="M598.289 696.993V699.004" stroke="#F9D231" stroke-linecap="round" stroke-linejoin="round"/>
<path d="M587.656 696.993V699.004" stroke="#F9D231" stroke-linecap="round" stroke-linejoin="round"/>
<path d="M579.09 694.603V696.614" stroke="#F9D231" stroke-linecap="round" stroke-linejoin="round"/>
<path d="M582.727 695.987V697.998" stroke="#F9D231" stroke-linecap="round" stroke-linejoin="round"/>
<path d="M632.936 716.596C632.936 720.736 624.759 724.108 614.656 724.108C604.552 724.108 596.375 720.748 596.375 716.596C596.375 715.413 596.422 712.372 596.422 712.372C599.4 709.876 607.447 709.095 614.656 709.095C620.139 709.095 629.462 709.805 632.806 711.379C632.806 711.379 632.924 714.703 632.924 716.596H632.936Z" fill="#DA9328" stroke="#DA9328" stroke-miterlimit="10"/>
<path d="M614.703 719.885C624.799 719.885 632.983 716.521 632.983 712.372C632.983 708.223 624.799 704.86 614.703 704.86C604.606 704.86 596.422 708.223 596.422 712.372C596.422 716.521 604.606 719.885 614.703 719.885Z" fill="#F9D231" stroke="#DA9328" stroke-miterlimit="10"/>
<path d="M597.723 716.252V718.252" stroke="#F9D231" stroke-linecap="round" stroke-linejoin="round"/>
<path d="M631.898 715.957V717.968" stroke="#F9D231" stroke-linecap="round" stroke-linejoin="round"/>
<path d="M614.266 720.713V722.712" stroke="#F9D231" stroke-linecap="round" stroke-linejoin="round"/>
<path d="M624.57 719.471V721.482" stroke="#F9D231" stroke-linecap="round" stroke-linejoin="round"/>
<path d="M628.551 717.968V719.979" stroke="#F9D231" stroke-linecap="round" stroke-linejoin="round"/>
<path d="M619.773 720.476V722.487" stroke="#F9D231" stroke-linecap="round" stroke-linejoin="round"/>
<path d="M609.137 720.476V722.487" stroke="#F9D231" stroke-linecap="round" stroke-linejoin="round"/>
<path d="M600.57 718.086V720.098" stroke="#F9D231" stroke-linecap="round" stroke-linejoin="round"/>
<path d="M604.219 719.471V721.482" stroke="#F9D231" stroke-linecap="round" stroke-linejoin="round"/>
<path d="M705.944 702.731C705.944 706.871 697.767 710.243 687.663 710.243C677.56 710.243 669.383 706.883 669.383 702.731C669.383 701.547 669.43 698.507 669.43 698.507C672.408 696.011 680.455 695.23 687.663 695.23C693.146 695.23 702.47 695.94 705.814 697.513C705.814 697.513 705.932 700.838 705.932 702.731H705.944Z" fill="#DA9328" stroke="#DA9328" stroke-miterlimit="10"/>
<path d="M687.71 706.008C697.806 706.008 705.991 702.644 705.991 698.495C705.991 694.346 697.806 690.983 687.71 690.983C677.614 690.983 669.43 694.346 669.43 698.495C669.43 702.644 677.614 706.008 687.71 706.008Z" fill="#F9D231" stroke="#DA9328" stroke-miterlimit="10"/>
<path d="M670.73 702.375V704.387" stroke="#F9D231" stroke-linecap="round" stroke-linejoin="round"/>
<path d="M704.906 702.092V704.103" stroke="#F9D231" stroke-linecap="round" stroke-linejoin="round"/>
<path d="M687.285 706.836V708.847" stroke="#F9D231" stroke-linecap="round" stroke-linejoin="round"/>
<path d="M697.59 705.605V707.617" stroke="#F9D231" stroke-linecap="round" stroke-linejoin="round"/>
<path d="M701.562 704.103V706.114" stroke="#F9D231" stroke-linecap="round" stroke-linejoin="round"/>
<path d="M692.781 706.611V708.623" stroke="#F9D231" stroke-linecap="round" stroke-linejoin="round"/>
<path d="M682.145 706.611V708.623" stroke="#F9D231" stroke-linecap="round" stroke-linejoin="round"/>
<path d="M673.578 704.221V706.232" stroke="#F9D231" stroke-linecap="round" stroke-linejoin="round"/>
<path d="M677.227 705.605V707.617" stroke="#F9D231" stroke-linecap="round" stroke-linejoin="round"/>
<path d="M611.042 705.499C611.042 709.64 602.865 713.012 592.761 713.012C582.658 713.012 574.48 709.652 574.48 705.499C574.48 704.316 574.528 701.276 574.528 701.276C577.506 698.779 585.553 697.999 592.761 697.999C598.244 697.999 607.568 698.708 610.912 700.282C610.912 700.282 611.03 703.606 611.03 705.499H611.042Z" fill="#DA9328" stroke="#DA9328" stroke-miterlimit="10"/>
<path d="M592.808 708.788C602.904 708.788 611.089 705.425 611.089 701.276C611.089 697.127 602.904 693.763 592.808 693.763C582.712 693.763 574.527 697.127 574.527 701.276C574.527 705.425 582.712 708.788 592.808 708.788Z" fill="#F9D231" stroke="#DA9328" stroke-miterlimit="10"/>
<path d="M575.828 705.156V707.167" stroke="#F9D231" stroke-linecap="round" stroke-linejoin="round"/>
<path d="M610 704.86V706.872" stroke="#F9D231" stroke-linecap="round" stroke-linejoin="round"/>
<path d="M592.383 709.616V711.627" stroke="#F9D231" stroke-linecap="round" stroke-linejoin="round"/>
<path d="M602.688 708.386V710.397" stroke="#F9D231" stroke-linecap="round" stroke-linejoin="round"/>
<path d="M606.66 706.872V708.883" stroke="#F9D231" stroke-linecap="round" stroke-linejoin="round"/>
<path d="M597.875 709.392V711.391" stroke="#F9D231" stroke-linecap="round" stroke-linejoin="round"/>
<path d="M587.242 709.392V711.391" stroke="#F9D231" stroke-linecap="round" stroke-linejoin="round"/>
<path d="M578.676 707.001V709.013" stroke="#F9D231" stroke-linecap="round" stroke-linejoin="round"/>
<path d="M582.328 708.386V710.397" stroke="#F9D231" stroke-linecap="round" stroke-linejoin="round"/>
<path d="M661.511 714.916C661.511 719.057 653.333 722.429 643.23 722.429C633.126 722.429 624.949 719.069 624.949 714.916C624.949 713.733 624.996 710.693 624.996 710.693C627.974 708.196 636.022 707.416 643.23 707.416C648.713 707.416 658.036 708.125 661.381 709.699C661.381 709.699 661.499 713.023 661.499 714.916H661.511Z" fill="#DA9328" stroke="#DA9328" stroke-miterlimit="10"/>
<path d="M643.277 718.205C653.373 718.205 661.557 714.842 661.557 710.693C661.557 706.544 653.373 703.18 643.277 703.18C633.181 703.18 624.996 706.544 624.996 710.693C624.996 714.842 633.181 718.205 643.277 718.205Z" fill="#F9D231" stroke="#DA9328" stroke-miterlimit="10"/>
<path d="M626.285 714.573V716.584" stroke="#F9D231" stroke-linecap="round" stroke-linejoin="round"/>
<path d="M660.469 714.277V716.289" stroke="#F9D231" stroke-linecap="round" stroke-linejoin="round"/>
<path d="M642.84 719.033V721.044" stroke="#F9D231" stroke-linecap="round" stroke-linejoin="round"/>
<path d="M653.145 717.803V719.814" stroke="#F9D231" stroke-linecap="round" stroke-linejoin="round"/>
<path d="M657.117 716.289V718.3" stroke="#F9D231" stroke-linecap="round" stroke-linejoin="round"/>
<path d="M648.344 718.809V720.808" stroke="#F9D231" stroke-linecap="round" stroke-linejoin="round"/>
<path d="M637.711 718.809V720.808" stroke="#F9D231" stroke-linecap="round" stroke-linejoin="round"/>
<path d="M629.145 716.418V718.43" stroke="#F9D231" stroke-linecap="round" stroke-linejoin="round"/>
<path d="M632.781 717.803V719.814" stroke="#F9D231" stroke-linecap="round" stroke-linejoin="round"/>
<path d="M742.764 744.907C742.764 749.048 734.587 752.419 724.484 752.419C714.38 752.419 706.203 749.059 706.203 744.907C706.203 743.724 706.25 740.683 706.25 740.683C709.228 738.187 717.276 737.406 724.484 737.406C729.967 737.406 739.29 738.116 742.634 739.69C742.634 739.69 742.753 743.014 742.753 744.907H742.764Z" fill="#DA9328" stroke="#DA9328" stroke-miterlimit="10"/>
<path d="M724.531 748.196C734.627 748.196 742.811 744.832 742.811 740.683C742.811 736.534 734.627 733.171 724.531 733.171C714.435 733.171 706.25 736.534 706.25 740.683C706.25 744.832 714.435 748.196 724.531 748.196Z" fill="#F9D231" stroke="#DA9328" stroke-miterlimit="10"/>
<path d="M707.551 744.563V746.575" stroke="#F9D231" stroke-linecap="round" stroke-linejoin="round"/>
<path d="M741.723 744.28V746.291" stroke="#F9D231" stroke-linecap="round" stroke-linejoin="round"/>
<path d="M724.094 749.023V751.035" stroke="#F9D231" stroke-linecap="round" stroke-linejoin="round"/>
<path d="M734.398 747.793V749.805" stroke="#F9D231" stroke-linecap="round" stroke-linejoin="round"/>
<path d="M738.383 746.291V748.29" stroke="#F9D231" stroke-linecap="round" stroke-linejoin="round"/>
<path d="M729.602 748.799V750.81" stroke="#F9D231" stroke-linecap="round" stroke-linejoin="round"/>
<path d="M718.969 748.799V750.81" stroke="#F9D231" stroke-linecap="round" stroke-linejoin="round"/>
<path d="M710.398 746.409V748.42" stroke="#F9D231" stroke-linecap="round" stroke-linejoin="round"/>
<path d="M714.039 747.793V749.805" stroke="#F9D231" stroke-linecap="round" stroke-linejoin="round"/>
<path d="M695.542 743.865C695.542 748.006 687.365 751.378 677.261 751.378C667.158 751.378 658.98 748.018 658.98 743.865C658.98 742.682 659.028 739.642 659.028 739.642C662.006 737.146 670.053 736.365 677.261 736.365C682.744 736.365 692.068 737.075 695.412 738.648C695.412 738.648 695.53 741.972 695.53 743.865H695.542Z" fill="#DA9328" stroke="#DA9328" stroke-miterlimit="10"/>
<path d="M677.308 747.154C687.404 747.154 695.589 743.791 695.589 739.642C695.589 735.493 687.404 732.129 677.308 732.129C667.212 732.129 659.027 735.493 659.027 739.642C659.027 743.791 667.212 747.154 677.308 747.154Z" fill="#F9D231" stroke="#DA9328" stroke-miterlimit="10"/>
<path d="M660.328 743.522V745.533" stroke="#F9D231" stroke-linecap="round" stroke-linejoin="round"/>
<path d="M694.516 743.238V745.249" stroke="#F9D231" stroke-linecap="round" stroke-linejoin="round"/>
<path d="M676.883 747.982V749.994" stroke="#F9D231" stroke-linecap="round" stroke-linejoin="round"/>
<path d="M687.188 746.752V748.763" stroke="#F9D231" stroke-linecap="round" stroke-linejoin="round"/>
<path d="M691.16 745.25V747.261" stroke="#F9D231" stroke-linecap="round" stroke-linejoin="round"/>
<path d="M682.391 747.758V749.769" stroke="#F9D231" stroke-linecap="round" stroke-linejoin="round"/>
<path d="M671.754 747.757V749.769" stroke="#F9D231" stroke-linecap="round" stroke-linejoin="round"/>
<path d="M663.188 745.368V747.379" stroke="#F9D231" stroke-linecap="round" stroke-linejoin="round"/>
<path d="M666.828 746.752V748.763" stroke="#F9D231" stroke-linecap="round" stroke-linejoin="round"/>
<path d="M727.366 706.682C727.366 710.822 719.189 714.194 709.085 714.194C698.982 714.194 690.805 710.834 690.805 706.682C690.805 705.499 690.852 702.458 690.852 702.458C693.83 699.962 701.877 699.181 709.085 699.181C714.568 699.181 723.892 699.891 727.236 701.464C727.236 701.464 727.354 704.789 727.354 706.682H727.366Z" fill="#DA9328" stroke="#DA9328" stroke-miterlimit="10"/>
<path d="M709.12 709.959C719.217 709.959 727.401 706.595 727.401 702.446C727.401 698.298 719.217 694.934 709.12 694.934C699.024 694.934 690.84 698.298 690.84 702.446C690.84 706.595 699.024 709.959 709.12 709.959Z" fill="#F9D231" stroke="#DA9328" stroke-miterlimit="10"/>
<path d="M692.141 706.339V708.338" stroke="#F9D231" stroke-linecap="round" stroke-linejoin="round"/>
<path d="M726.328 706.043V708.054" stroke="#F9D231" stroke-linecap="round" stroke-linejoin="round"/>
<path d="M708.695 710.798V712.798" stroke="#F9D231" stroke-linecap="round" stroke-linejoin="round"/>
<path d="M719 709.557V711.568" stroke="#F9D231" stroke-linecap="round" stroke-linejoin="round"/>
<path d="M722.969 708.055V710.066" stroke="#F9D231" stroke-linecap="round" stroke-linejoin="round"/>
<path d="M714.203 710.562V712.574" stroke="#F9D231" stroke-linecap="round" stroke-linejoin="round"/>
<path d="M703.566 710.562V712.574" stroke="#F9D231" stroke-linecap="round" stroke-linejoin="round"/>
<path d="M695 708.172V710.184" stroke="#F9D231" stroke-linecap="round" stroke-linejoin="round"/>
<path d="M698.641 709.557V711.568" stroke="#F9D231" stroke-linecap="round" stroke-linejoin="round"/>
<path d="M732.46 694.71C732.46 698.85 724.282 702.222 714.179 702.222C704.076 702.222 695.898 698.862 695.898 694.71C695.898 693.526 695.946 690.486 695.946 690.486C698.924 687.99 706.971 687.209 714.179 687.209C719.662 687.209 728.986 687.919 732.33 689.492C732.33 689.492 732.448 692.817 732.448 694.71H732.46Z" fill="#DA9328" stroke="#DA9328" stroke-miterlimit="10"/>
<path d="M714.214 697.998C724.31 697.998 732.495 694.635 732.495 690.486C732.495 686.337 724.31 682.974 714.214 682.974C704.118 682.974 695.934 686.337 695.934 690.486C695.934 694.635 704.118 697.998 714.214 697.998Z" fill="#F9D231" stroke="#DA9328" stroke-miterlimit="10"/>
<path d="M697.234 694.366V696.377" stroke="#F9D231" stroke-linecap="round" stroke-linejoin="round"/>
<path d="M731.422 694.082V696.093" stroke="#F9D231" stroke-linecap="round" stroke-linejoin="round"/>
<path d="M713.789 698.826V700.837" stroke="#F9D231" stroke-linecap="round" stroke-linejoin="round"/>
<path d="M724.094 697.596V699.607" stroke="#F9D231" stroke-linecap="round" stroke-linejoin="round"/>
<path d="M728.062 696.094V698.093" stroke="#F9D231" stroke-linecap="round" stroke-linejoin="round"/>
<path d="M719.297 698.602V700.613" stroke="#F9D231" stroke-linecap="round" stroke-linejoin="round"/>
<path d="M708.664 698.602V700.613" stroke="#F9D231" stroke-linecap="round" stroke-linejoin="round"/>
<path d="M700.094 696.212V698.223" stroke="#F9D231" stroke-linecap="round" stroke-linejoin="round"/>
<path d="M703.734 697.596V699.607" stroke="#F9D231" stroke-linecap="round" stroke-linejoin="round"/>
<path d="M758.444 697.371C758.444 701.512 750.267 704.884 740.163 704.884C730.06 704.884 721.883 701.524 721.883 697.371C721.883 696.188 721.93 693.148 721.93 693.148C724.908 690.651 732.955 689.871 740.163 689.871C745.646 689.871 754.97 690.58 758.314 692.154C758.314 692.154 758.432 695.478 758.432 697.371H758.444Z" fill="#DA9328" stroke="#DA9328" stroke-miterlimit="10"/>
<path d="M740.21 700.66C750.306 700.66 758.491 697.297 758.491 693.148C758.491 688.999 750.306 685.635 740.21 685.635C730.114 685.635 721.93 688.999 721.93 693.148C721.93 697.297 730.114 700.66 740.21 700.66Z" fill="#F9D231" stroke="#DA9328" stroke-miterlimit="10"/>
<path d="M723.23 697.028V699.039" stroke="#F9D231" stroke-linecap="round" stroke-linejoin="round"/>
<path d="M757.402 696.744V698.744" stroke="#F9D231" stroke-linecap="round" stroke-linejoin="round"/>
<path d="M739.773 701.488V703.499" stroke="#F9D231" stroke-linecap="round" stroke-linejoin="round"/>
<path d="M750.078 700.258V702.269" stroke="#F9D231" stroke-linecap="round" stroke-linejoin="round"/>
<path d="M754.062 698.744V700.755" stroke="#F9D231" stroke-linecap="round" stroke-linejoin="round"/>
<path d="M745.281 701.263V703.274" stroke="#F9D231" stroke-linecap="round" stroke-linejoin="round"/>
<path d="M734.648 701.264V703.275" stroke="#F9D231" stroke-linecap="round" stroke-linejoin="round"/>
<path d="M726.078 698.874V700.885" stroke="#F9D231" stroke-linecap="round" stroke-linejoin="round"/>
<path d="M729.719 700.258V702.269" stroke="#F9D231" stroke-linecap="round" stroke-linejoin="round"/>
<path d="M783.003 698.72C783.003 702.861 774.825 706.233 764.722 706.233C754.619 706.233 746.441 702.873 746.441 698.72C746.441 697.537 746.489 694.497 746.489 694.497C749.467 692.001 757.514 691.22 764.722 691.22C770.205 691.22 779.529 691.93 782.873 693.503C782.873 693.503 782.991 696.827 782.991 698.72H783.003Z" fill="#DA9328" stroke="#DA9328" stroke-miterlimit="10"/>
<path d="M764.769 702.009C774.865 702.009 783.05 698.646 783.05 694.497C783.05 690.348 774.865 686.984 764.769 686.984C754.673 686.984 746.488 690.348 746.488 694.497C746.488 698.646 754.673 702.009 764.769 702.009Z" fill="#F9D231" stroke="#DA9328" stroke-miterlimit="10"/>
<path d="M747.777 698.377V700.388" stroke="#F9D231" stroke-linecap="round" stroke-linejoin="round"/>
<path d="M781.961 698.093V700.104" stroke="#F9D231" stroke-linecap="round" stroke-linejoin="round"/>
<path d="M764.332 702.837V704.848" stroke="#F9D231" stroke-linecap="round" stroke-linejoin="round"/>
<path d="M774.633 701.607V703.618" stroke="#F9D231" stroke-linecap="round" stroke-linejoin="round"/>
<path d="M778.605 700.104V702.116" stroke="#F9D231" stroke-linecap="round" stroke-linejoin="round"/>
<path d="M769.84 702.612V704.623" stroke="#F9D231" stroke-linecap="round" stroke-linejoin="round"/>
<path d="M759.203 702.612V704.623" stroke="#F9D231" stroke-linecap="round" stroke-linejoin="round"/>
<path d="M750.637 700.223V702.234" stroke="#F9D231" stroke-linecap="round" stroke-linejoin="round"/>
<path d="M754.277 701.607V703.618" stroke="#F9D231" stroke-linecap="round" stroke-linejoin="round"/>
<path d="M803.858 712.692C803.858 716.833 795.681 720.204 785.577 720.204C775.474 720.204 767.297 716.844 767.297 712.692C767.297 711.509 767.344 708.468 767.344 708.468C770.322 705.972 778.369 705.191 785.577 705.191C791.061 705.191 800.384 705.901 803.728 707.475C803.728 707.475 803.846 710.799 803.846 712.692H803.858Z" fill="#DA9328" stroke="#DA9328" stroke-miterlimit="10"/>
<path d="M785.624 715.981C795.721 715.981 803.905 712.617 803.905 708.468C803.905 704.319 795.721 700.956 785.624 700.956C775.528 700.956 767.344 704.319 767.344 708.468C767.344 712.617 775.528 715.981 785.624 715.981Z" fill="#F9D231" stroke="#DA9328" stroke-miterlimit="10"/>
<path d="M768.633 712.349V714.36" stroke="#F9D231" stroke-linecap="round" stroke-linejoin="round"/>
<path d="M802.82 712.065V714.064" stroke="#F9D231" stroke-linecap="round" stroke-linejoin="round"/>
<path d="M785.188 716.809V718.82" stroke="#F9D231" stroke-linecap="round" stroke-linejoin="round"/>
<path d="M795.492 715.579V717.59" stroke="#F9D231" stroke-linecap="round" stroke-linejoin="round"/>
<path d="M799.461 714.064V716.076" stroke="#F9D231" stroke-linecap="round" stroke-linejoin="round"/>
<path d="M790.695 716.584V718.595" stroke="#F9D231" stroke-linecap="round" stroke-linejoin="round"/>
<path d="M780.062 716.584V718.595" stroke="#F9D231" stroke-linecap="round" stroke-linejoin="round"/>
<path d="M771.492 714.194V716.206" stroke="#F9D231" stroke-linecap="round" stroke-linejoin="round"/>
<path d="M775.133 715.579V717.59" stroke="#F9D231" stroke-linecap="round" stroke-linejoin="round"/>
<path d="M829.96 717.128C829.96 721.269 821.783 724.64 811.679 724.64C801.576 724.64 793.398 721.281 793.398 717.128C793.398 715.945 793.446 712.904 793.446 712.904C796.424 710.408 804.471 709.627 811.679 709.627C817.162 709.627 826.486 710.337 829.83 711.911C829.83 711.911 829.948 715.235 829.948 717.128H829.96Z" fill="#DA9328" stroke="#DA9328" stroke-miterlimit="10"/>
<path d="M811.726 720.405C821.822 720.405 830.007 717.042 830.007 712.893C830.007 708.744 821.822 705.38 811.726 705.38C801.63 705.38 793.445 708.744 793.445 712.893C793.445 717.042 801.63 720.405 811.726 720.405Z" fill="#F9D231" stroke="#DA9328" stroke-miterlimit="10"/>
<path d="M794.746 716.785V718.785" stroke="#F9D231" stroke-linecap="round" stroke-linejoin="round"/>
<path d="M828.922 716.489V718.5" stroke="#F9D231" stroke-linecap="round" stroke-linejoin="round"/>
<path d="M811.301 721.233V723.245" stroke="#F9D231" stroke-linecap="round" stroke-linejoin="round"/>
<path d="M821.602 720.003V722.014" stroke="#F9D231" stroke-linecap="round" stroke-linejoin="round"/>
<path d="M825.578 718.5V720.512" stroke="#F9D231" stroke-linecap="round" stroke-linejoin="round"/>
<path d="M816.797 721.008V723.02" stroke="#F9D231" stroke-linecap="round" stroke-linejoin="round"/>
<path d="M806.164 721.008V723.02" stroke="#F9D231" stroke-linecap="round" stroke-linejoin="round"/>
<path d="M797.594 718.619V720.63" stroke="#F9D231" stroke-linecap="round" stroke-linejoin="round"/>
<path d="M801.246 720.003V722.014" stroke="#F9D231" stroke-linecap="round" stroke-linejoin="round"/>
<path d="M753.553 706.279C753.553 710.42 745.376 713.792 735.273 713.792C725.169 713.792 716.992 710.432 716.992 706.279C716.992 705.096 717.039 702.056 717.039 702.056C720.017 699.56 728.065 698.779 735.273 698.779C740.756 698.779 750.079 699.489 753.424 701.062C753.424 701.062 753.542 704.386 753.542 706.279H753.553Z" fill="#DA9328" stroke="#DA9328" stroke-miterlimit="10"/>
<path d="M735.32 709.557C745.416 709.557 753.6 706.193 753.6 702.044C753.6 697.895 745.416 694.532 735.32 694.532C725.224 694.532 717.039 697.895 717.039 702.044C717.039 706.193 725.224 709.557 735.32 709.557Z" fill="#F9D231" stroke="#DA9328" stroke-miterlimit="10"/>
<path d="M718.34 705.924V707.936" stroke="#F9D231" stroke-linecap="round" stroke-linejoin="round"/>
<path d="M752.512 705.641V707.652" stroke="#F9D231" stroke-linecap="round" stroke-linejoin="round"/>
<path d="M734.883 710.385V712.396" stroke="#F9D231" stroke-linecap="round" stroke-linejoin="round"/>
<path d="M745.188 709.154V711.165" stroke="#F9D231" stroke-linecap="round" stroke-linejoin="round"/>
<path d="M749.172 707.652V709.663" stroke="#F9D231" stroke-linecap="round" stroke-linejoin="round"/>
<path d="M740.391 710.16V712.171" stroke="#F9D231" stroke-linecap="round" stroke-linejoin="round"/>
<path d="M729.758 710.16V712.171" stroke="#F9D231" stroke-linecap="round" stroke-linejoin="round"/>
<path d="M721.188 707.77V709.781" stroke="#F9D231" stroke-linecap="round" stroke-linejoin="round"/>
<path d="M724.828 709.154V711.165" stroke="#F9D231" stroke-linecap="round" stroke-linejoin="round"/>
<path d="M763.327 728.485C763.327 732.626 755.15 735.998 745.046 735.998C734.943 735.998 726.766 732.638 726.766 728.485C726.766 727.302 726.813 724.262 726.813 724.262C729.791 721.766 737.838 720.985 745.046 720.985C750.529 720.985 759.853 721.695 763.197 723.268C763.197 723.268 763.315 726.593 763.315 728.485H763.327Z" fill="#DA9328" stroke="#DA9328" stroke-miterlimit="10"/>
<path d="M745.093 731.774C755.189 731.774 763.374 728.411 763.374 724.262C763.374 720.113 755.189 716.75 745.093 716.75C734.997 716.75 726.812 720.113 726.812 724.262C726.812 728.411 734.997 731.774 745.093 731.774Z" fill="#F9D231" stroke="#DA9328" stroke-miterlimit="10"/>
<path d="M728.102 728.142V730.153" stroke="#F9D231" stroke-linecap="round" stroke-linejoin="round"/>
<path d="M762.285 727.846V729.857" stroke="#F9D231" stroke-linecap="round" stroke-linejoin="round"/>
<path d="M744.656 732.603V734.614" stroke="#F9D231" stroke-linecap="round" stroke-linejoin="round"/>
<path d="M754.961 731.372V733.371" stroke="#F9D231" stroke-linecap="round" stroke-linejoin="round"/>
<path d="M758.93 729.858V731.869" stroke="#F9D231" stroke-linecap="round" stroke-linejoin="round"/>
<path d="M750.164 732.377V734.377" stroke="#F9D231" stroke-linecap="round" stroke-linejoin="round"/>
<path d="M739.531 732.377V734.377" stroke="#F9D231" stroke-linecap="round" stroke-linejoin="round"/>
<path d="M730.961 729.988V731.999" stroke="#F9D231" stroke-linecap="round" stroke-linejoin="round"/>
<path d="M734.602 731.372V733.371" stroke="#F9D231" stroke-linecap="round" stroke-linejoin="round"/>
<path d="M769.944 738.553C769.944 742.694 761.767 746.066 751.663 746.066C741.56 746.066 733.383 742.706 733.383 738.553C733.383 737.37 733.43 734.33 733.43 734.33C736.408 731.834 744.455 731.053 751.663 731.053C757.146 731.053 766.47 731.763 769.814 733.336C769.814 733.336 769.932 736.66 769.932 738.553H769.944Z" fill="#DA9328" stroke="#DA9328" stroke-miterlimit="10"/>
<path d="M751.71 741.842C761.806 741.842 769.991 738.479 769.991 734.33C769.991 730.181 761.806 726.817 751.71 726.817C741.614 726.817 733.43 730.181 733.43 734.33C733.43 738.479 741.614 741.842 751.71 741.842Z" fill="#F9D231" stroke="#DA9328" stroke-miterlimit="10"/>
<path d="M734.73 738.21V740.221" stroke="#F9D231" stroke-linecap="round" stroke-linejoin="round"/>
<path d="M768.906 737.926V739.926" stroke="#F9D231" stroke-linecap="round" stroke-linejoin="round"/>
<path d="M751.273 742.67V744.681" stroke="#F9D231" stroke-linecap="round" stroke-linejoin="round"/>
<path d="M761.578 741.44V743.451" stroke="#F9D231" stroke-linecap="round" stroke-linejoin="round"/>
<path d="M765.547 739.926V741.937" stroke="#F9D231" stroke-linecap="round" stroke-linejoin="round"/>
<path d="M756.781 742.445V744.457" stroke="#F9D231" stroke-linecap="round" stroke-linejoin="round"/>
<path d="M746.148 742.445V744.457" stroke="#F9D231" stroke-linecap="round" stroke-linejoin="round"/>
<path d="M737.578 740.056V742.067" stroke="#F9D231" stroke-linecap="round" stroke-linejoin="round"/>
<path d="M741.219 741.44V743.451" stroke="#F9D231" stroke-linecap="round" stroke-linejoin="round"/>
<path d="M796.6 727.35C796.6 731.49 788.423 734.862 778.32 734.862C768.216 734.862 760.039 731.502 760.039 727.35C760.039 726.167 760.086 723.126 760.086 723.126C763.064 720.63 771.111 719.849 778.32 719.849C783.803 719.849 793.126 720.559 796.47 722.132C796.47 722.132 796.589 725.457 796.589 727.35H796.6Z" fill="#DA9328" stroke="#DA9328" stroke-miterlimit="10"/>
<path d="M778.367 730.639C788.463 730.639 796.647 727.275 796.647 723.126C796.647 718.977 788.463 715.614 778.367 715.614C768.271 715.614 760.086 718.977 760.086 723.126C760.086 727.275 768.271 730.639 778.367 730.639Z" fill="#F9D231" stroke="#DA9328" stroke-miterlimit="10"/>
<path d="M761.387 727.006V729.018" stroke="#F9D231" stroke-linecap="round" stroke-linejoin="round"/>
<path d="M795.559 726.723V728.722" stroke="#F9D231" stroke-linecap="round" stroke-linejoin="round"/>
<path d="M777.93 731.467V733.478" stroke="#F9D231" stroke-linecap="round" stroke-linejoin="round"/>
<path d="M788.234 730.236V732.248" stroke="#F9D231" stroke-linecap="round" stroke-linejoin="round"/>
<path d="M792.219 728.722V730.733" stroke="#F9D231" stroke-linecap="round" stroke-linejoin="round"/>
<path d="M783.438 731.242V733.253" stroke="#F9D231" stroke-linecap="round" stroke-linejoin="round"/>
<path d="M772.805 731.242V733.253" stroke="#F9D231" stroke-linecap="round" stroke-linejoin="round"/>
<path d="M764.234 728.852V730.863" stroke="#F9D231" stroke-linecap="round" stroke-linejoin="round"/>
<path d="M767.887 730.236V732.248" stroke="#F9D231" stroke-linecap="round" stroke-linejoin="round"/>
<path d="M780.186 711.935C780.186 716.075 772.009 719.447 761.906 719.447C751.802 719.447 743.625 716.087 743.625 711.935C743.625 710.752 743.672 707.711 743.672 707.711C746.65 705.215 754.697 704.434 761.906 704.434C767.389 704.434 776.712 705.144 780.056 706.717C780.056 706.717 780.174 710.042 780.174 711.935H780.186Z" fill="#DA9328" stroke="#DA9328" stroke-miterlimit="10"/>
<path d="M761.953 715.224C772.049 715.224 780.233 711.86 780.233 707.711C780.233 703.562 772.049 700.199 761.953 700.199C751.856 700.199 743.672 703.562 743.672 707.711C743.672 711.86 751.856 715.224 761.953 715.224Z" fill="#F9D231" stroke="#DA9328" stroke-miterlimit="10"/>
<path d="M744.969 711.591V713.602" stroke="#F9D231" stroke-linecap="round" stroke-linejoin="round"/>
<path d="M779.148 711.296V713.307" stroke="#F9D231" stroke-linecap="round" stroke-linejoin="round"/>
<path d="M761.516 716.052V718.063" stroke="#F9D231" stroke-linecap="round" stroke-linejoin="round"/>
<path d="M771.82 714.821V716.832" stroke="#F9D231" stroke-linecap="round" stroke-linejoin="round"/>
<path d="M775.805 713.307V715.318" stroke="#F9D231" stroke-linecap="round" stroke-linejoin="round"/>
<path d="M767.023 715.827V717.838" stroke="#F9D231" stroke-linecap="round" stroke-linejoin="round"/>
<path d="M756.391 715.827V717.838" stroke="#F9D231" stroke-linecap="round" stroke-linejoin="round"/>
<path d="M747.82 713.437V715.448" stroke="#F9D231" stroke-linecap="round" stroke-linejoin="round"/>
<path d="M751.461 714.821V716.832" stroke="#F9D231" stroke-linecap="round" stroke-linejoin="round"/>
<path d="M717.014 731.372C717.014 735.513 708.837 738.885 698.734 738.885C688.63 738.885 680.453 735.525 680.453 731.372C680.453 730.189 680.5 727.149 680.5 727.149C683.478 724.652 691.526 723.872 698.734 723.872C704.217 723.872 713.54 724.581 716.884 726.155C716.884 726.155 717.003 729.479 717.003 731.372H717.014Z" fill="#DA9328" stroke="#DA9328" stroke-miterlimit="10"/>
<path d="M698.781 734.649C708.877 734.649 717.061 731.286 717.061 727.137C717.061 722.988 708.877 719.625 698.781 719.625C688.685 719.625 680.5 722.988 680.5 727.137C680.5 731.286 688.685 734.649 698.781 734.649Z" fill="#F9D231" stroke="#DA9328" stroke-miterlimit="10"/>
<path d="M681.801 731.029V733.029" stroke="#F9D231" stroke-linecap="round" stroke-linejoin="round"/>
<path d="M715.977 730.733V732.745" stroke="#F9D231" stroke-linecap="round" stroke-linejoin="round"/>
<path d="M698.344 735.489V737.489" stroke="#F9D231" stroke-linecap="round" stroke-linejoin="round"/>
<path d="M708.648 734.247V736.258" stroke="#F9D231" stroke-linecap="round" stroke-linejoin="round"/>
<path d="M712.633 732.744V734.755" stroke="#F9D231" stroke-linecap="round" stroke-linejoin="round"/>
<path d="M703.852 735.253V737.264" stroke="#F9D231" stroke-linecap="round" stroke-linejoin="round"/>
<path d="M693.215 735.253V737.264" stroke="#F9D231" stroke-linecap="round" stroke-linejoin="round"/>
<path d="M684.648 732.863V734.874" stroke="#F9D231" stroke-linecap="round" stroke-linejoin="round"/>
<path d="M688.289 734.247V736.258" stroke="#F9D231" stroke-linecap="round" stroke-linejoin="round"/>
<path d="M716.803 751.366C716.803 755.506 708.626 758.878 698.523 758.878C688.419 758.878 680.242 755.518 680.242 751.366C680.242 750.183 680.289 747.142 680.289 747.142C683.267 744.646 691.315 743.865 698.523 743.865C704.006 743.865 713.329 744.575 716.673 746.149C716.673 746.149 716.792 749.473 716.792 751.366H716.803Z" fill="#DA9328" stroke="#DA9328" stroke-miterlimit="10"/>
<path d="M698.57 754.655C708.666 754.655 716.85 751.291 716.85 747.142C716.85 742.993 708.666 739.63 698.57 739.63C688.474 739.63 680.289 742.993 680.289 747.142C680.289 751.291 688.474 754.655 698.57 754.655Z" fill="#F9D231" stroke="#DA9328" stroke-miterlimit="10"/>
<path d="M681.59 751.022V753.034" stroke="#F9D231" stroke-linecap="round" stroke-linejoin="round"/>
<path d="M715.773 750.739V752.75" stroke="#F9D231" stroke-linecap="round" stroke-linejoin="round"/>
<path d="M698.145 755.482V757.494" stroke="#F9D231" stroke-linecap="round" stroke-linejoin="round"/>
<path d="M708.445 754.252V756.264" stroke="#F9D231" stroke-linecap="round" stroke-linejoin="round"/>
<path d="M712.422 752.75V754.761" stroke="#F9D231" stroke-linecap="round" stroke-linejoin="round"/>
<path d="M703.648 755.258V757.269" stroke="#F9D231" stroke-linecap="round" stroke-linejoin="round"/>
<path d="M693.016 755.258V757.269" stroke="#F9D231" stroke-linecap="round" stroke-linejoin="round"/>
<path d="M684.449 752.868V754.879" stroke="#F9D231" stroke-linecap="round" stroke-linejoin="round"/>
<path d="M688.086 754.252V756.264" stroke="#F9D231" stroke-linecap="round" stroke-linejoin="round"/>
<path d="M690.616 716.087C690.616 720.228 682.439 723.599 672.335 723.599C662.232 723.599 654.055 720.24 654.055 716.087C654.055 714.904 654.102 711.863 654.102 711.863C657.08 709.367 665.127 708.586 672.335 708.586C677.818 708.586 687.142 709.296 690.486 710.87C690.486 710.87 690.604 714.194 690.604 716.087H690.616Z" fill="#DA9328" stroke="#DA9328" stroke-miterlimit="10"/>
<path d="M672.382 719.376C682.478 719.376 690.663 716.012 690.663 711.863C690.663 707.714 682.478 704.351 672.382 704.351C662.286 704.351 654.102 707.714 654.102 711.863C654.102 716.012 662.286 719.376 672.382 719.376Z" fill="#F9D231" stroke="#DA9328" stroke-miterlimit="10"/>
<path d="M655.391 715.744V717.755" stroke="#F9D231" stroke-linecap="round" stroke-linejoin="round"/>
<path d="M689.578 715.46V717.471" stroke="#F9D231" stroke-linecap="round" stroke-linejoin="round"/>
<path d="M671.945 720.204V722.215" stroke="#F9D231" stroke-linecap="round" stroke-linejoin="round"/>
<path d="M682.25 718.974V720.985" stroke="#F9D231" stroke-linecap="round" stroke-linejoin="round"/>
<path d="M686.219 717.471V719.47" stroke="#F9D231" stroke-linecap="round" stroke-linejoin="round"/>
<path d="M677.453 719.979V721.991" stroke="#F9D231" stroke-linecap="round" stroke-linejoin="round"/>
<path d="M666.816 719.979V721.991" stroke="#F9D231" stroke-linecap="round" stroke-linejoin="round"/>
<path d="M658.25 717.589V719.601" stroke="#F9D231" stroke-linecap="round" stroke-linejoin="round"/>
<path d="M661.891 718.974V720.985" stroke="#F9D231" stroke-linecap="round" stroke-linejoin="round"/>
<path d="M737.624 719.258C737.624 723.399 729.447 726.77 719.343 726.77C709.24 726.77 701.062 723.41 701.062 719.258C701.062 718.075 701.11 715.034 701.11 715.034C704.088 712.538 712.135 711.757 719.343 711.757C724.826 711.757 734.15 712.467 737.494 714.041C737.494 714.041 737.612 717.365 737.612 719.258H737.624Z" fill="#DA9328" stroke="#DA9328" stroke-miterlimit="10"/>
<path d="M719.39 722.547C729.486 722.547 737.671 719.183 737.671 715.034C737.671 710.885 729.486 707.522 719.39 707.522C709.294 707.522 701.109 710.885 701.109 715.034C701.109 719.183 709.294 722.547 719.39 722.547Z" fill="#F9D231" stroke="#DA9328" stroke-miterlimit="10"/>
<path d="M702.41 718.915V720.926" stroke="#F9D231" stroke-linecap="round" stroke-linejoin="round"/>
<path d="M736.586 718.619V720.63" stroke="#F9D231" stroke-linecap="round" stroke-linejoin="round"/>
<path d="M718.953 723.375V725.386" stroke="#F9D231" stroke-linecap="round" stroke-linejoin="round"/>
<path d="M729.258 722.145V724.144" stroke="#F9D231" stroke-linecap="round" stroke-linejoin="round"/>
<path d="M733.227 720.63V722.642" stroke="#F9D231" stroke-linecap="round" stroke-linejoin="round"/>
<path d="M724.461 723.15V725.15" stroke="#F9D231" stroke-linecap="round" stroke-linejoin="round"/>
<path d="M713.824 723.15V725.15" stroke="#F9D231" stroke-linecap="round" stroke-linejoin="round"/>
<path d="M705.258 720.76V722.76" stroke="#F9D231" stroke-linecap="round" stroke-linejoin="round"/>
<path d="M708.898 722.145V724.144" stroke="#F9D231" stroke-linecap="round" stroke-linejoin="round"/>
<path d="M635.999 710.16C635.999 714.3 627.822 717.672 617.718 717.672C607.615 717.672 599.438 714.312 599.438 710.16C599.438 708.977 599.485 705.936 599.485 705.936C602.463 703.44 610.51 702.659 617.718 702.659C623.201 702.659 632.525 703.369 635.869 704.942C635.869 704.942 635.987 708.267 635.987 710.16H635.999Z" fill="#DA9328" stroke="#DA9328" stroke-miterlimit="10"/>
<path d="M617.765 713.437C627.861 713.437 636.046 710.074 636.046 705.925C636.046 701.776 627.861 698.412 617.765 698.412C607.669 698.412 599.484 701.776 599.484 705.925C599.484 710.074 607.669 713.437 617.765 713.437Z" fill="#F9D231" stroke="#DA9328" stroke-miterlimit="10"/>
<path d="M600.773 709.817V711.816" stroke="#F9D231" stroke-linecap="round" stroke-linejoin="round"/>
<path d="M634.961 709.521V711.532" stroke="#F9D231" stroke-linecap="round" stroke-linejoin="round"/>
<path d="M617.328 714.265V716.276" stroke="#F9D231" stroke-linecap="round" stroke-linejoin="round"/>
<path d="M627.633 713.035V715.046" stroke="#F9D231" stroke-linecap="round" stroke-linejoin="round"/>
<path d="M631.602 711.532V713.543" stroke="#F9D231" stroke-linecap="round" stroke-linejoin="round"/>
<path d="M622.836 714.04V716.051" stroke="#F9D231" stroke-linecap="round" stroke-linejoin="round"/>
<path d="M612.199 714.04V716.051" stroke="#F9D231" stroke-linecap="round" stroke-linejoin="round"/>
<path d="M603.633 711.65V713.662" stroke="#F9D231" stroke-linecap="round" stroke-linejoin="round"/>
<path d="M607.273 713.035V715.046" stroke="#F9D231" stroke-linecap="round" stroke-linejoin="round"/>
<path d="M674.686 736.968C674.686 741.109 666.509 744.481 656.406 744.481C646.302 744.481 638.125 741.121 638.125 736.968C638.125 735.785 638.172 732.745 638.172 732.745C641.15 730.249 649.197 729.468 656.406 729.468C661.889 729.468 671.212 730.178 674.556 731.751C674.556 731.751 674.675 735.075 674.675 736.968H674.686Z" fill="#DA9328" stroke="#DA9328" stroke-miterlimit="10"/>
<path d="M656.453 740.257C666.549 740.257 674.733 736.894 674.733 732.745C674.733 728.596 666.549 725.232 656.453 725.232C646.356 725.232 638.172 728.596 638.172 732.745C638.172 736.894 646.356 740.257 656.453 740.257Z" fill="#F9D231" stroke="#DA9328" stroke-miterlimit="10"/>
<path d="M639.461 736.625V738.636" stroke="#F9D231" stroke-linecap="round" stroke-linejoin="round"/>
<path d="M673.648 736.341V738.341" stroke="#F9D231" stroke-linecap="round" stroke-linejoin="round"/>
<path d="M656.016 741.085V743.096" stroke="#F9D231" stroke-linecap="round" stroke-linejoin="round"/>
<path d="M666.32 739.855V741.866" stroke="#F9D231" stroke-linecap="round" stroke-linejoin="round"/>
<path d="M670.289 738.341V740.352" stroke="#F9D231" stroke-linecap="round" stroke-linejoin="round"/>
<path d="M661.523 740.86V742.872" stroke="#F9D231" stroke-linecap="round" stroke-linejoin="round"/>
<path d="M650.887 740.86V742.872" stroke="#F9D231" stroke-linecap="round" stroke-linejoin="round"/>
<path d="M642.32 738.471V740.482" stroke="#F9D231" stroke-linecap="round" stroke-linejoin="round"/>
<path d="M645.961 739.855V741.866" stroke="#F9D231" stroke-linecap="round" stroke-linejoin="round"/>
<path d="M640.69 727.35C640.69 731.49 632.513 734.862 622.41 734.862C612.306 734.862 604.129 731.502 604.129 727.35C604.129 726.167 604.176 723.126 604.176 723.126C607.154 720.63 615.201 719.849 622.41 719.849C627.893 719.849 637.216 720.559 640.56 722.132C640.56 722.132 640.678 725.457 640.678 727.35H640.69Z" fill="#DA9328" stroke="#DA9328" stroke-miterlimit="10"/>
<path d="M622.456 730.639C632.553 730.639 640.737 727.275 640.737 723.126C640.737 718.977 632.553 715.614 622.456 715.614C612.36 715.614 604.176 718.977 604.176 723.126C604.176 727.275 612.36 730.639 622.456 730.639Z" fill="#F9D231" stroke="#DA9328" stroke-miterlimit="10"/>
<path d="M605.477 727.006V729.018" stroke="#F9D231" stroke-linecap="round" stroke-linejoin="round"/>
<path d="M639.648 726.723V728.722" stroke="#F9D231" stroke-linecap="round" stroke-linejoin="round"/>
<path d="M622.031 731.467V733.478" stroke="#F9D231" stroke-linecap="round" stroke-linejoin="round"/>
<path d="M632.336 730.236V732.248" stroke="#F9D231" stroke-linecap="round" stroke-linejoin="round"/>
<path d="M636.309 728.722V730.733" stroke="#F9D231" stroke-linecap="round" stroke-linejoin="round"/>
<path d="M627.523 731.242V733.253" stroke="#F9D231" stroke-linecap="round" stroke-linejoin="round"/>
<path d="M616.891 731.242V733.253" stroke="#F9D231" stroke-linecap="round" stroke-linejoin="round"/>
<path d="M608.324 728.852V730.863" stroke="#F9D231" stroke-linecap="round" stroke-linejoin="round"/>
<path d="M611.977 730.236V732.248" stroke="#F9D231" stroke-linecap="round" stroke-linejoin="round"/>
<path d="M608.218 717.684C608.218 721.825 600.04 725.197 589.937 725.197C579.834 725.197 571.656 721.837 571.656 717.684C571.656 716.501 571.704 713.461 571.704 713.461C574.681 710.964 582.729 710.184 589.937 710.184C595.42 710.184 604.743 710.893 608.088 712.467C608.088 712.467 608.206 715.791 608.206 717.684H608.218Z" fill="#DA9328" stroke="#DA9328" stroke-miterlimit="10"/>
<path d="M589.984 720.973C600.08 720.973 608.264 717.61 608.264 713.461C608.264 709.312 600.08 705.948 589.984 705.948C579.888 705.948 571.703 709.312 571.703 713.461C571.703 717.61 579.888 720.973 589.984 720.973Z" fill="#F9D231" stroke="#DA9328" stroke-miterlimit="10"/>
<path d="M573.004 717.341V719.352" stroke="#F9D231" stroke-linecap="round" stroke-linejoin="round"/>
<path d="M607.18 717.057V719.068" stroke="#F9D231" stroke-linecap="round" stroke-linejoin="round"/>
<path d="M589.559 721.801V723.812" stroke="#F9D231" stroke-linecap="round" stroke-linejoin="round"/>
<path d="M599.852 720.571V722.582" stroke="#F9D231" stroke-linecap="round" stroke-linejoin="round"/>
<path d="M603.836 719.068V721.068" stroke="#F9D231" stroke-linecap="round" stroke-linejoin="round"/>
<path d="M595.055 721.576V723.587" stroke="#F9D231" stroke-linecap="round" stroke-linejoin="round"/>
<path d="M584.418 721.576V723.587" stroke="#F9D231" stroke-linecap="round" stroke-linejoin="round"/>
<path d="M575.852 719.187V721.198" stroke="#F9D231" stroke-linecap="round" stroke-linejoin="round"/>
<path d="M579.5 720.571V722.582" stroke="#F9D231" stroke-linecap="round" stroke-linejoin="round"/>
<path d="M580.897 707.983C580.897 712.124 572.72 715.496 562.617 715.496C552.513 715.496 544.336 712.136 544.336 707.983C544.336 706.8 544.383 703.76 544.383 703.76C547.361 701.264 555.408 700.483 562.617 700.483C568.1 700.483 577.423 701.193 580.767 702.766C580.767 702.766 580.885 706.091 580.885 707.983H580.897Z" fill="#DA9328" stroke="#DA9328" stroke-miterlimit="10"/>
<path d="M562.663 711.272C572.76 711.272 580.944 707.909 580.944 703.76C580.944 699.611 572.76 696.248 562.663 696.248C552.567 696.248 544.383 699.611 544.383 703.76C544.383 707.909 552.567 711.272 562.663 711.272Z" fill="#F9D231" stroke="#DA9328" stroke-miterlimit="10"/>
<path d="M545.672 707.641V709.652" stroke="#F9D231" stroke-linecap="round" stroke-linejoin="round"/>
<path d="M579.859 707.345V709.356" stroke="#F9D231" stroke-linecap="round" stroke-linejoin="round"/>
<path d="M562.227 712.101V714.112" stroke="#F9D231" stroke-linecap="round" stroke-linejoin="round"/>
<path d="M572.531 710.87V712.869" stroke="#F9D231" stroke-linecap="round" stroke-linejoin="round"/>
<path d="M576.5 709.356V711.367" stroke="#F9D231" stroke-linecap="round" stroke-linejoin="round"/>
<path d="M567.734 711.876V713.875" stroke="#F9D231" stroke-linecap="round" stroke-linejoin="round"/>
<path d="M557.098 711.876V713.875" stroke="#F9D231" stroke-linecap="round" stroke-linejoin="round"/>
<path d="M548.531 709.486V711.485" stroke="#F9D231" stroke-linecap="round" stroke-linejoin="round"/>
<path d="M552.172 710.87V712.869" stroke="#F9D231" stroke-linecap="round" stroke-linejoin="round"/>
</g>
<path d="M524.105 698.282L690.628 755.317C697.624 757.151 704.631 755.909 705.163 755.767L843.526 708.551C846.327 707.841 846.386 703.878 843.609 703.074L664.052 651.812C663.591 651.682 657.529 650.262 652.105 651.966L524.401 692.84C521.624 693.479 521.423 697.359 524.117 698.282H524.105Z" stroke="#231F20" stroke-miterlimit="10"/>
<path d="M622.43 769.928C622.43 769.928 622.43 805.905 589.497 795.553C557.45 785.485 564.173 749.26 564.173 749.26L622.419 769.928H622.43Z" fill="#C5A85B" stroke="#231F20" stroke-linecap="round" stroke-linejoin="round"/>
<path d="M595.274 768.84C593.442 765.669 589.649 764.439 586.801 766.084C583.953 767.728 583.126 771.632 584.946 774.803C585.572 775.879 586.411 776.731 587.38 777.323V785.166C587.38 786.681 588.597 787.899 590.11 787.899C591.622 787.899 592.84 786.681 592.84 785.166V777.855C593.04 777.772 593.23 777.677 593.419 777.571C596.266 775.927 597.094 772.022 595.274 768.852V768.84Z" fill="#82603A" stroke="#231F20" stroke-miterlimit="10"/>
<path d="M845.664 245.823L841.812 256.79L830.633 260.848L841.693 264.728L845.664 276.157L849.622 264.953L860.695 260.848L849.504 256.79L845.664 245.823Z" fill="white"/>
<path d="M992.674 659.159L989.247 668.943L979.273 672.551L989.141 676.017L992.674 686.215L996.219 676.218L1006.09 672.551L996.112 668.943L992.674 659.159Z" fill="white"/>
<path d="M1134.49 329.051L1131.81 336.705L1123.98 339.544L1131.72 342.254L1134.49 350.239L1137.25 342.419L1144.99 339.544L1137.17 336.705L1134.49 329.051Z" fill="white"/>
<path d="M273.01 409.167L269.098 420.324L257.719 424.453L268.98 428.392L273.01 440.022L277.039 428.629L288.301 424.453L276.921 420.324L273.01 409.167Z" fill="white"/>
<path d="M168.984 555.843L163.099 572.607L146 578.806L162.922 584.733L168.984 602.207L175.034 585.088L191.956 578.806L174.857 572.607L168.984 555.843Z" fill="white"/>
<path d="M294.997 664.494L290.141 678.336L276.031 683.447L289.999 688.345L294.997 702.766L299.996 688.64L313.963 683.447L299.854 678.336L294.997 664.494Z" fill="white"/>
<path d="M682.84 647.719L702.302 653.125" stroke="#4D4D4F" stroke-miterlimit="10" stroke-linecap="round"/>
<path d="M806.043 683.222L825.505 688.629" stroke="#4D4D4F" stroke-miterlimit="10" stroke-linecap="round"/>
<defs>
<clipPath id="clip0_3020_21008">
<rect width="1440" height="272" fill="white" transform="translate(0 550)"/>
</clipPath>
</defs>
</svg>
