<svg width="375" height="410" viewBox="0 0 375 410" fill="none" xmlns="http://www.w3.org/2000/svg">
<path d="M214.779 84.559C214.779 84.559 198.419 116.346 205.698 153.097C205.698 153.097 189.756 162.81 189.453 196.985C189.453 196.985 172.992 212.885 152.797 206.712C152.797 206.712 156.559 232.743 185.374 235.319C185.374 235.319 200.451 265.105 238.981 252.601C238.981 252.601 254.563 275.682 293.612 259.134C293.612 259.134 337.735 270.17 347.825 236.081C348.027 235.376 347.378 234.714 346.657 234.887C341.526 236.139 325.425 239.319 317.569 232.326C317.569 232.326 308.142 225.189 314.34 214.713C320.985 203.46 322.96 175.458 315.147 165.155C315.147 165.155 329.144 145.456 313.533 119.914C297.922 94.3727 292.272 78.2563 292.272 78.2563C292.272 78.2563 305.735 74.7596 296.581 61.3198C287.428 47.8799 242.715 21.8059 242.715 21.8059L207.442 65.3488C207.442 65.3488 195.089 80.127 214.779 84.559Z" fill="#EC6A3B"/>
<mask id="mask0_1038_19499" style="mask-type:luminance" maskUnits="userSpaceOnUse" x="152" y="21" width="196" height="245">
<path d="M214.779 84.559C214.779 84.559 198.419 116.346 205.698 153.097C205.698 153.097 189.756 162.81 189.453 196.985C189.453 196.985 172.992 212.885 152.797 206.712C152.797 206.712 156.559 232.743 185.374 235.319C185.374 235.319 200.451 265.105 238.981 252.601C238.981 252.601 254.563 275.682 293.612 259.134C293.612 259.134 337.735 270.17 347.825 236.081C348.027 235.376 347.378 234.714 346.657 234.887C341.526 236.139 325.425 239.319 317.569 232.326C317.569 232.326 308.142 225.189 314.34 214.713C320.985 203.46 322.96 175.458 315.147 165.155C315.147 165.155 329.144 145.456 313.533 119.914C297.922 94.3727 292.272 78.2563 292.272 78.2563C292.272 78.2563 305.735 74.7596 296.581 61.3198C287.428 47.8799 242.715 21.8059 242.715 21.8059L207.442 65.3488C207.442 65.3488 195.089 80.127 214.779 84.559Z" fill="white"/>
</mask>
<g mask="url(#mask0_1038_19499)">
<path d="M208.9 94.3008C208.9 94.3008 203.091 151.14 235.653 157.586C268.215 164.033 319.358 161.615 323.927 138.232C328.497 114.849 324.201 184.193 324.201 184.193L323.668 192.582C323.668 192.582 305.765 172.882 264.569 171.53C223.372 170.177 195.581 175.559 183.429 185.66C171.278 195.762 192.395 154.737 192.395 154.737C192.395 154.737 196.446 103.035 208.9 94.3008Z" fill="#D35730"/>
<path d="M298.977 167.616C298.977 167.616 317.816 167.645 325.355 159.054" stroke="#231F20" stroke-miterlimit="10" stroke-linecap="round"/>
<path d="M341.888 247.737C341.888 247.737 315.942 260.141 292.922 240.844C269.902 221.548 248.093 235.664 233.967 234.053C219.841 232.441 222.666 213.087 222.666 213.087C222.666 213.087 185.13 225.764 167.992 201.46C150.853 177.156 118.074 207.302 118.074 207.302L138.327 294.115L263.459 323.541L333.73 309.425L341.903 247.737" fill="#D35730"/>
<path d="M235.927 164.795C235.927 164.795 216.871 168.94 204.777 152.564" stroke="#231F20" stroke-miterlimit="10" stroke-linecap="round"/>
<path d="M218.485 221.404C218.485 221.404 203.681 236.024 185.375 235.304" stroke="#231F20" stroke-miterlimit="10" stroke-linecap="round"/>
<path d="M250.934 239.362C250.934 239.362 249.32 247.723 238.984 252.572" stroke="#231F20" stroke-miterlimit="10" stroke-linecap="round"/>
<path d="M280.598 244.514C280.598 244.514 280.598 256.601 293.6 259.105" stroke="#231F20" stroke-miterlimit="10" stroke-linecap="round"/>
</g>
<path d="M214.779 84.559C214.779 84.559 198.419 116.346 205.698 153.097C205.698 153.097 189.756 162.81 189.453 196.985C189.453 196.985 172.992 212.885 152.797 206.712C152.797 206.712 156.559 232.743 185.374 235.319C185.374 235.319 200.451 265.105 238.981 252.601C238.981 252.601 254.563 275.682 293.612 259.134C293.612 259.134 337.735 270.17 347.825 236.081C348.027 235.376 347.378 234.714 346.657 234.887C341.526 236.139 325.425 239.319 317.569 232.326C317.569 232.326 308.142 225.189 314.34 214.713C320.985 203.46 322.96 175.458 315.147 165.155C315.147 165.155 329.144 145.456 313.533 119.914C297.922 94.3727 292.272 78.2563 292.272 78.2563C292.272 78.2563 305.735 74.7596 296.581 61.3198C287.428 47.8799 242.715 21.8059 242.715 21.8059L207.442 65.3488C207.442 65.3488 195.089 80.127 214.779 84.559Z" stroke="#231F20" stroke-miterlimit="10" stroke-linecap="round"/>
<path d="M243.61 195.248C244.667 190.354 242.521 185.74 238.817 184.942C235.113 184.145 231.253 187.466 230.196 192.36C229.138 197.254 231.284 201.868 234.988 202.666C238.693 203.463 242.553 200.142 243.61 195.248Z" fill="#231F20" stroke="#231F20" stroke-miterlimit="10" stroke-linecap="round"/>
<path d="M238.363 191.68C238.842 189.466 237.867 187.378 236.186 187.016C234.505 186.654 232.755 188.155 232.276 190.37C231.798 192.584 232.773 194.672 234.454 195.034C236.135 195.396 237.885 193.894 238.363 191.68Z" fill="white"/>
<path d="M287.989 198.038C289.046 193.144 286.9 188.53 283.196 187.732C279.492 186.935 275.632 190.256 274.575 195.15C273.517 200.044 275.663 204.658 279.367 205.456C283.071 206.253 286.931 202.932 287.989 198.038Z" fill="#231F20" stroke="#231F20" stroke-miterlimit="10" stroke-linecap="round"/>
<path d="M282.742 194.456C283.221 192.242 282.246 190.153 280.565 189.792C278.884 189.43 277.133 190.931 276.655 193.145C276.177 195.359 277.152 197.447 278.833 197.809C280.514 198.171 282.264 196.67 282.742 194.456Z" fill="white"/>
<path d="M87.5449 190.274C87.5449 190.274 63.6601 185.368 63.2853 202.462C62.9394 218.233 61.7718 268.957 61.7718 268.957C61.7718 268.957 60.2727 280.353 84.7197 277.792C109.167 275.231 115.941 200.16 115.941 200.16L87.5449 190.289V190.274Z" fill="#525A4B" stroke="#231F20" stroke-miterlimit="10"/>
<path d="M155.798 212.449C155.798 212.449 169.333 214.449 167.906 229.774C166.479 245.099 165.888 263.647 165.888 263.647L152.973 244.898L155.798 212.449Z" fill="white" stroke="#231F20" stroke-miterlimit="10" stroke-linecap="round"/>
<path d="M61.9592 299.118C61.9592 299.118 62.9682 287.232 51.4654 288.642C51.4654 288.642 43.7969 288.038 43.3933 302.355C43.0473 314.658 38.377 336.919 37.0653 342.948C36.8347 343.999 37.2239 345.078 38.0888 345.711C39.7752 346.934 42.9176 348.431 47.0257 346.704C51.5663 344.805 57.4186 345.452 60.2582 345.941C61.224 346.114 62.1321 345.452 62.2763 344.488C63.0979 339.02 65.1159 321.666 61.9592 299.132V299.118Z" fill="#525A4B" stroke="#231F20" stroke-miterlimit="10"/>
<path d="M111.315 340.977C111.315 340.977 98.6592 332.976 95.7042 344.2C92.533 356.215 101.095 370.691 100.173 387.829C100.129 388.621 101.009 389.124 101.686 388.722C103.762 387.47 107.481 385.844 111.315 387.211C116.576 389.096 120.223 390.232 121.679 384.189C125.268 369.31 111.315 340.991 111.315 340.991V340.977Z" fill="#525A4B" stroke="#231F20" stroke-miterlimit="10"/>
<path d="M83.5818 246.624C83.5818 246.624 76.4898 268.986 73.7655 302.11C73.6934 302.959 72.7997 303.463 72.0358 303.075L54.6375 294.067C54.6375 294.067 48.4248 293.75 50.9185 301.851C53.4122 309.953 68.3024 325.191 75.7547 327.062C83.207 328.933 91.6106 330.645 101.182 318.011C105.895 311.795 111.056 300.312 113.593 295.923C113.996 295.218 115.063 295.477 115.121 296.283L116.202 320.371C116.332 322.587 115.683 324.789 114.371 326.587L101.845 343.855C101.845 343.855 99.3657 352.877 105.881 354.129C112.396 355.381 134.451 334.53 134.451 334.53C134.451 334.53 150.22 316.399 148.606 281.087C148.606 281.087 132.029 222.968 83.5818 246.624Z" fill="#91A8AC" stroke="#231F20" stroke-miterlimit="10"/>
<path d="M100.618 199.34C100.618 199.34 88.2795 222.766 79.3281 263.633C79.3281 263.633 89.3462 274.598 122.269 276.612C122.269 276.612 143.228 278.972 149.729 274.483L155.192 215.054L100.618 199.326V199.34Z" fill="white" stroke="#231F20" stroke-miterlimit="10"/>
<path d="M80.034 248.812C86.5926 248.207 109.007 244.452 106.932 221.155C106.932 221.155 106.456 204.376 95.7026 200.347C88.2215 197.541 110.132 201.211 110.132 201.211C110.132 201.211 134.074 248.783 79.6737 256.568C78.4052 256.755 77.1367 256.121 76.5457 254.985C76.0556 254.035 75.7529 252.783 76.3151 251.402C76.9205 249.905 78.4052 248.97 80.0196 248.826L80.034 248.812Z" fill="#525A4B" stroke="#231F20" stroke-miterlimit="10"/>
<path d="M75.8673 263.388C75.8673 263.388 74.4835 266.237 76.9772 268.439C79.4709 270.641 116.559 283.922 148.588 281.087C148.588 281.087 151.284 278.08 149.713 274.497C149.713 274.497 107.622 273.245 78.7213 261.69C78.7213 261.69 76.7033 261.503 75.8529 263.388H75.8673Z" fill="#525A4B" stroke="#231F20" stroke-miterlimit="10"/>
<path d="M142.045 223.644C180.95 223.644 212.489 192.16 212.489 153.322C212.489 114.484 180.95 83 142.045 83C103.14 83 71.6016 114.484 71.6016 153.322C71.6016 192.16 103.14 223.644 142.045 223.644Z" fill="#A9DFF2" stroke="#231F20" stroke-miterlimit="10"/>
<path d="M183.387 149.437C183.387 149.437 196.98 141.911 199.085 156.229C201.189 170.546 189.081 186.087 181.658 187.569C174.234 189.051 183.387 149.451 183.387 149.451V149.437Z" fill="#B18765" stroke="#231F20" stroke-miterlimit="10"/>
<path d="M182.954 180.288C182.954 180.288 195.321 174.763 194.37 158.877C194.37 158.877 194.428 152.401 187.624 153.783C180.82 155.164 182.954 180.288 182.954 180.288Z" fill="#FCC38A"/>
<path d="M94.1888 185.9C94.1888 185.9 104.236 219.327 152.063 213.845C186.658 209.873 187.134 186.231 186.355 178.518C186.182 176.82 186.312 175.108 186.759 173.453C188.589 166.56 192.481 147.883 183.962 138.328C174.795 128.039 99.7961 136.472 99.7961 136.472C99.7961 136.472 97.3744 141.882 97.3744 147.681C97.3744 147.681 78.9239 143.48 78.8518 163.855C78.7797 184.231 94.2033 185.871 94.2033 185.871L94.1888 185.9Z" fill="#B18765"/>
<mask id="mask1_1038_19499" style="mask-type:luminance" maskUnits="userSpaceOnUse" x="78" y="133" width="112" height="82">
<path d="M94.1888 185.9C94.1888 185.9 104.236 219.327 152.063 213.845C186.658 209.873 187.134 186.231 186.355 178.518C186.182 176.82 186.312 175.108 186.759 173.453C188.589 166.56 192.481 147.883 183.962 138.328C174.795 128.039 99.7961 136.472 99.7961 136.472C99.7961 136.472 97.3744 141.882 97.3744 147.681C97.3744 147.681 78.9239 143.48 78.8518 163.855C78.7797 184.231 94.2033 185.871 94.2033 185.871L94.1888 185.9Z" fill="white"/>
</mask>
<g mask="url(#mask1_1038_19499)">
<path d="M139.265 143.019C139.265 143.019 111.2 147.71 118.061 171.395C118.061 171.395 97.3188 178.907 116.058 211.542C134.811 244.178 180.534 205.686 180.534 205.686L193.492 191.627L197.586 159.553L193.492 141.048L183.935 138.328L139.251 143.019H139.265Z" fill="#FCC38A"/>
<path d="M96.3667 155.121L94.7811 178.849C94.7811 178.849 83.509 175.856 84.5036 163.51C85.4982 151.178 96.3667 155.121 96.3667 155.121Z" fill="#FCC38A"/>
</g>
<path d="M94.1888 185.9C94.1888 185.9 104.236 219.327 152.063 213.845C186.658 209.873 187.134 186.231 186.355 178.518C186.182 176.82 186.312 175.108 186.759 173.453C188.589 166.56 192.481 147.883 183.962 138.328C174.795 128.039 99.7961 136.472 99.7961 136.472C99.7961 136.472 97.3744 141.882 97.3744 147.681C97.3744 147.681 78.9239 143.48 78.8518 163.855C78.7797 184.231 94.2033 185.871 94.2033 185.871L94.1888 185.9Z" stroke="#231F20" stroke-miterlimit="10"/>
<path d="M148.792 234.825C148.792 234.825 145.564 229.587 142.94 225.155C140.317 220.723 138.587 207.614 146.255 203.786C153.924 199.959 163.106 204.578 160.886 216.334C158.666 228.091 155.841 229.386 157.873 236.034C159.906 242.682 148.807 234.825 148.807 234.825H148.792Z" fill="#B18765" stroke="#231F20" stroke-miterlimit="10"/>
<path d="M139.263 235.4C139.263 235.4 142.492 230.162 145.115 225.73C147.739 221.298 149.468 208.19 141.8 204.362C134.131 200.534 124.949 205.153 127.169 216.91C129.403 228.68 132.214 229.961 130.182 236.609C128.149 243.257 139.249 235.4 139.249 235.4H139.263Z" fill="#B18765" stroke="#231F20" stroke-miterlimit="10"/>
<path d="M97.5617 209.254C97.5617 209.254 81.821 208.089 82.2102 226.047C82.5994 244.005 94.7508 266.942 94.7508 266.942C94.7508 266.942 101.209 287.361 123.378 270.698C135.803 261.359 139.349 243.646 141.944 236.523C142.319 235.501 141.584 234.436 140.502 234.422C137.922 234.379 133.555 233.616 129.62 229.587C128.74 228.68 127.284 228.738 126.535 229.76L112.149 249.545C111.587 250.308 110.376 250.063 110.174 249.142L105.792 229.601" fill="white"/>
<path d="M97.5617 209.254C97.5617 209.254 81.821 208.089 82.2102 226.047C82.5994 244.005 94.7508 266.942 94.7508 266.942C94.7508 266.942 101.209 287.361 123.378 270.698C135.803 261.359 139.349 243.646 141.944 236.523C142.319 235.501 141.584 234.436 140.502 234.422C137.922 234.379 133.555 233.616 129.62 229.587C128.74 228.68 127.284 228.738 126.535 229.76L112.149 249.545C111.587 250.308 110.376 250.063 110.174 249.142L105.792 229.601" stroke="#231F20" stroke-miterlimit="10" stroke-linecap="round"/>
<path d="M99.7812 136.486C99.7812 136.486 108.675 146.3 124.257 149.077C124.257 149.077 144.091 164.618 170.412 162.402C196.733 160.186 185.98 140.746 185.98 140.746L102.001 132.788L99.7812 136.486Z" fill="#3A3735" stroke="#231F20" stroke-miterlimit="10"/>
<path d="M147.481 231.343C146.631 231.602 146.126 232.35 146.299 233.112C147.64 239.329 148.303 259.561 148.303 259.561C148.303 259.561 148.072 275.49 163.554 270.655C171.366 268.209 170.919 258.769 169.709 254.697C168.7 251.33 162.199 234.667 159.604 227.961C159.244 227.026 157.889 226.738 157.096 227.443C155.597 228.796 150.076 230.551 147.481 231.343Z" fill="white" stroke="#231F20" stroke-miterlimit="10" stroke-linecap="round"/>
<path d="M99.7836 136.486C99.2935 136.227 84.2159 114.47 105.722 103.908C127.229 93.3606 175.618 94.4686 190.263 116.499C190.263 116.499 200.094 130.745 185.622 144.257C185.622 144.257 137.045 156.66 99.7836 136.486Z" fill="white" stroke="#231F20" stroke-miterlimit="10"/>
<path d="M129.042 177.813C128.566 180.101 130.051 182.044 132.372 182.173C134.692 182.303 136.927 180.547 137.402 178.259C137.878 175.971 136.393 174.029 134.072 173.899C131.752 173.77 129.517 175.525 129.042 177.813Z" fill="#231F20" stroke="#231F20" stroke-miterlimit="10"/>
<path d="M166.522 179.799C166.047 182.087 167.531 184.029 169.852 184.159C172.173 184.288 174.407 182.533 174.883 180.245C175.358 177.957 173.874 176.014 171.553 175.885C169.232 175.755 166.998 177.511 166.522 179.799Z" fill="#231F20" stroke="#231F20" stroke-miterlimit="10"/>
<path d="M147.28 196.62C146.948 198.232 148.001 199.613 149.629 199.7C151.258 199.786 152.844 198.549 153.175 196.937C153.507 195.325 152.455 193.944 150.826 193.858C149.197 193.771 147.611 195.009 147.28 196.62Z" fill="#231F20" stroke="#231F20" stroke-miterlimit="10"/>
<path d="M146.471 182.922C146.067 184.864 148.676 186.591 152.309 186.778C155.941 186.965 159.199 185.555 159.588 183.612C159.977 181.67 157.383 179.943 153.75 179.756C150.118 179.569 146.86 180.979 146.471 182.922Z" fill="#231F20" stroke="#231F20" stroke-miterlimit="10"/>
</svg>
