<svg width="260" height="186" viewBox="0 0 260 186" fill="none" xmlns="http://www.w3.org/2000/svg">
<path d="M46 74L43.9546 79.7842L38 81.9231L43.8926 83.9698L46 90L48.1118 84.0928L54 81.9231L48.0498 79.7842L46 74Z" fill="#FFF8BC"/>
<path d="M212 68L209.443 75.2303L202 77.9039L209.366 80.4623L212 88L214.64 80.616L222 77.9039L214.562 75.2303L212 68Z" fill="#FFF8BC"/>
<path d="M176.5 28L173.56 36.3148L165 39.3895L173.471 42.3316L176.5 51L179.536 42.5084L188 39.3895L179.447 36.3148L176.5 28Z" fill="#FFF8BC"/>
<path d="M85.1983 155.92L146.088 174.01C147.468 174.42 148.948 174.31 150.248 173.7L193.688 153.46C196.028 152.37 197.528 150.02 197.528 147.43V120.85L139.198 99L87.1483 110.77L80.9883 123.66V150.28C80.9883 152.89 82.6983 155.18 85.1983 155.92Z" fill="#C5A85B"/>
<mask id="mask0_1038_19498" style="mask-type:luminance" maskUnits="userSpaceOnUse" x="80" y="99" width="118" height="76">
<path d="M85.1983 155.92L146.088 174.01C147.468 174.42 148.948 174.31 150.248 173.7L193.688 153.46C196.028 152.37 197.528 150.02 197.528 147.43V120.85L139.198 99L87.1483 110.77L80.9883 123.66V150.28C80.9883 152.89 82.6983 155.18 85.1983 155.92Z" fill="white"/>
</mask>
<g mask="url(#mask0_1038_19498)">
<path d="M205.369 136.83L197.529 120.86L142.429 142.33L142.619 166.8L86.5888 150.18V123.66L78.5588 120.15L68.4688 139.43L69.7787 175.77L150.839 185.85L202.519 164.19L211.159 147.43L205.369 136.83Z" fill="#998041"/>
</g>
<path d="M85.1983 155.92L146.088 174.01C147.468 174.42 148.948 174.31 150.248 173.7L193.688 153.46C196.028 152.37 197.528 150.02 197.528 147.43V120.85L139.198 99L87.1483 110.77L80.9883 123.66V150.28C80.9883 152.89 82.6983 155.18 85.1983 155.92Z" stroke="#231F20" stroke-linecap="round" stroke-linejoin="round"/>
<path d="M78.7881 126.42L146.378 146.39C148.658 147.06 151.098 146.93 153.278 146.01L199.298 126.71C201.028 125.98 202.208 124.36 202.348 122.49C202.948 114.76 202.708 94.8802 185.188 90.8402C163.338 85.8002 115.938 77.4702 115.938 77.4702C115.938 77.4702 75.6481 74.4802 75.8681 122.55C75.8681 124.34 77.0681 125.91 78.7781 126.42H78.7881Z" fill="#C5A85B"/>
<mask id="mask1_1038_19498" style="mask-type:luminance" maskUnits="userSpaceOnUse" x="75" y="77" width="128" height="70">
<path d="M78.7881 126.42L146.378 146.39C148.658 147.06 151.098 146.93 153.278 146.01L199.298 126.71C201.028 125.98 202.208 124.36 202.348 122.49C202.948 114.76 202.708 94.8802 185.188 90.8402C163.338 85.8002 115.938 77.4702 115.938 77.4702C115.938 77.4702 75.6481 74.4802 75.8681 122.55C75.8681 124.34 77.0681 125.91 78.7781 126.42H78.7881Z" fill="white"/>
</mask>
<g mask="url(#mask1_1038_19498)">
<path d="M123.75 75.4702L119.75 79.7702C119.75 79.7702 83.35 80.3802 82.35 120.79L144.11 138.91C144.11 138.91 143.18 86.6802 189.5 88.7302C235.82 90.7802 206.5 130.75 206.5 130.75L139.2 158.95L75.88 145.57L61 120.15L71.65 87.4202L82.48 74.1602L105.45 68.7402L119.75 72.2902L123.75 75.4702Z" fill="#998041"/>
</g>
<path d="M78.7881 126.42L146.378 146.39C148.658 147.06 151.098 146.93 153.278 146.01L199.298 126.71C201.028 125.98 202.208 124.36 202.348 122.49C202.948 114.76 202.708 94.8802 185.188 90.8402C163.338 85.8002 115.938 77.4702 115.938 77.4702C115.938 77.4702 75.6481 74.4802 75.8681 122.55C75.8681 124.34 77.0681 125.91 78.7781 126.42H78.7881Z" stroke="#231F20" stroke-linecap="round" stroke-linejoin="round"/>
<path d="M149.921 145.57C149.921 145.57 149.221 108.25 170.791 97.9297" stroke="#231F20" stroke-miterlimit="10" stroke-linecap="round"/>
<path d="M148.219 174.65V145.57" stroke="#231F20" stroke-miterlimit="10"/>
<path d="M127.208 82.02V72.95C127.208 72.95 126.958 66.23 134.578 67.72C141.268 69.03 149.618 70.68 149.618 70.68C149.618 70.68 156.018 72.09 156.018 79.7V88.63C156.018 88.63 155.548 91.38 152.188 90.63C148.828 89.88 149.338 87.3 149.338 87.3V79.71C149.338 79.71 149.548 77.33 147.588 76.84C145.628 76.35 135.338 74.28 135.338 74.28C135.338 74.28 133.448 73.89 133.448 76.49C133.448 79.09 133.358 84.15 133.358 84.15C133.358 84.15 132.638 86.33 129.468 85.29C126.988 84.48 127.208 82.02 127.208 82.02Z" fill="#C5A85B" stroke="#231F20" stroke-linecap="round" stroke-linejoin="round"/>
<path d="M99.1129 132.42C99.1129 132.42 98.5729 117.33 110.903 120.62C123.233 123.91 121.073 138.91 121.073 138.91L99.1129 132.42Z" fill="#C5A85B" stroke="#231F20" stroke-linecap="round" stroke-linejoin="round"/>
<path d="M119.751 138.4C119.751 138.4 120.201 147.5 110.931 145.57C101.191 143.55 101.541 133.02 101.541 133.02L119.761 138.4H119.751Z" fill="#C5A85B" stroke="#231F20" stroke-linecap="round" stroke-linejoin="round"/>
</svg>
