<svg width="16" height="16" viewBox="0 0 16 16" fill="none" xmlns="http://www.w3.org/2000/svg">
<path d="M9 14.25H7" stroke="white" stroke-width="1.5" stroke-linecap="round" stroke-linejoin="round"/>
<path d="M7.68747 1.23748C6.49997 2.18748 2.53122 5.98748 5.99997 12H9.99997C13.4 5.98748 9.48747 2.19373 8.31247 1.23748C8.22479 1.16426 8.11419 1.12415 7.99997 1.12415C7.88574 1.12415 7.77514 1.16426 7.68747 1.23748Z" stroke="white" stroke-width="1.5" stroke-linecap="round" stroke-linejoin="round"/>
<path d="M4.61982 6.96252L2.65732 9.31252C2.60788 9.37021 2.573 9.4389 2.5556 9.51285C2.5382 9.5868 2.53879 9.66385 2.55732 9.73752L3.32607 13.2188C3.34462 13.3015 3.38391 13.3782 3.44025 13.4416C3.49659 13.505 3.56813 13.553 3.64813 13.5811C3.72813 13.6092 3.81397 13.6165 3.89758 13.6024C3.98119 13.5882 4.05982 13.553 4.12607 13.5L6.00107 12" stroke="white" stroke-width="1.5" stroke-linecap="round" stroke-linejoin="round"/>
<path d="M11.3438 6.91248L13.3438 9.31248C13.3932 9.37016 13.4281 9.43886 13.4455 9.51281C13.4629 9.58676 13.4623 9.6638 13.4438 9.73748L12.675 13.2187C12.6564 13.3015 12.6172 13.3781 12.5608 13.4415C12.5045 13.5049 12.4329 13.5529 12.3529 13.581C12.2729 13.6092 12.1871 13.6165 12.1035 13.6023C12.0199 13.5881 11.9413 13.5529 11.875 13.5L10 12" stroke="white" stroke-width="1.5" stroke-linecap="round" stroke-linejoin="round"/>
<path d="M8 7C8.55228 7 9 6.55228 9 6C9 5.44772 8.55228 5 8 5C7.44772 5 7 5.44772 7 6C7 6.55228 7.44772 7 8 7Z" fill="white"/>
</svg>
