<svg width="16" height="16" viewBox="0 0 16 16" fill="none" xmlns="http://www.w3.org/2000/svg">
<g id="Cloud">
<path id="Vector" d="M10 2.5C8.97854 2.50084 7.97744 2.7858 7.10865 3.323C6.23986 3.86021 5.53762 4.62848 5.08045 5.54193L5.08011 5.5419C4.69726 6.30469 4.49834 7.14653 4.49927 8C4.49927 8.13261 4.44659 8.25979 4.35282 8.35355C4.25906 8.44732 4.13188 8.5 3.99927 8.5C3.86666 8.5 3.73949 8.44732 3.64572 8.35355C3.55195 8.25979 3.49927 8.13261 3.49927 8C3.49849 7.15417 3.66369 6.31642 3.98552 5.53421C2.97775 5.6648 2.05748 6.1741 1.41164 6.95867C0.765801 7.74323 0.442826 8.74422 0.508322 9.7583C0.573818 10.7724 1.02287 11.7235 1.76427 12.4185C2.50567 13.1134 3.48381 13.5001 4.5 13.5H10C11.4587 13.5 12.8576 12.9205 13.8891 11.8891C14.9205 10.8576 15.5 9.45869 15.5 8C15.5 6.54131 14.9205 5.14236 13.8891 4.11091C12.8576 3.07946 11.4587 2.5 10 2.5Z" fill="#2B2B2B"/>
</g>
</svg>
