<svg width="16" height="16" viewBox="0 0 16 16" fill="none" xmlns="http://www.w3.org/2000/svg">
<g id="File">
<path id="Vector" d="M13.3498 5.14218L9.85406 1.64642C9.84906 1.64142 9.84363 1.63702 9.83844 1.63226C9.8317 1.62607 9.82513 1.61966 9.81805 1.61383C9.81335 1.60999 9.80832 1.60663 9.8035 1.60294C9.79532 1.59668 9.78723 1.59033 9.77868 1.58456C9.77481 1.58197 9.77069 1.5798 9.76678 1.57733C9.75686 1.57108 9.74695 1.56485 9.73657 1.55927C9.73376 1.55777 9.73083 1.55661 9.72803 1.55518C9.71631 1.54913 9.70446 1.54334 9.69223 1.53824C9.69034 1.53744 9.68832 1.53686 9.6864 1.5361C9.67325 1.53082 9.65991 1.52588 9.64624 1.52173C9.64425 1.52112 9.64221 1.52075 9.64023 1.52017C9.62668 1.51623 9.61298 1.5126 9.59894 1.50979C9.59448 1.50891 9.58987 1.50851 9.58539 1.50775C9.57379 1.50574 9.56225 1.50369 9.55044 1.50253C9.53384 1.50085 9.51717 1.5 9.50049 1.5H3.5C3.23488 1.5003 2.9807 1.60576 2.79323 1.79323C2.60576 1.9807 2.5003 2.23488 2.5 2.5V13.5C2.5003 13.7651 2.60576 14.0193 2.79323 14.2068C2.9807 14.3942 3.23488 14.4997 3.5 14.5H12.5005C12.7656 14.4997 13.0198 14.3942 13.2073 14.2068C13.3947 14.0193 13.5002 13.7651 13.5005 13.5V5.50967C13.5006 5.50641 13.501 5.50327 13.501 5.5C13.501 5.43327 13.4877 5.36722 13.4617 5.30575C13.4357 5.24429 13.3977 5.18866 13.3498 5.14218ZM9.50049 5.5V2.70709L12.2933 5.5H9.50049Z" fill="#2B2B2B"/>
</g>
</svg>
