<svg width="16" height="16" viewBox="0 0 16 16" fill="none" xmlns="http://www.w3.org/2000/svg">
<g id="Fire">
<path id="Vector" d="M13.5 9.50001C13.5 10.9587 12.9205 12.3576 11.8891 13.3891C10.8576 14.4205 9.45869 15 8 15C6.54131 15 5.14236 14.4205 4.11091 13.3891C3.07946 12.3576 2.5 10.9587 2.5 9.50001C2.5 8.04896 2.98019 6.55982 3.92722 5.07392C3.96452 5.01539 4.0136 4.96527 4.07133 4.92674C4.12907 4.88822 4.19419 4.86214 4.26256 4.85016C4.33092 4.83818 4.40103 4.84057 4.46843 4.85718C4.53582 4.87378 4.59901 4.90423 4.65399 4.9466L6.2637 6.18677L8.03009 1.32911C8.05703 1.25503 8.10111 1.18837 8.15872 1.13457C8.21633 1.08076 8.28585 1.04135 8.36159 1.01953C8.43734 0.997714 8.51717 0.994117 8.59458 1.00903C8.67198 1.02395 8.74476 1.05695 8.80698 1.10535C8.9986 1.25434 13.5 4.80939 13.5 9.50001Z" fill="#525C70"/>
</g>
</svg>
