<svg width="16" height="16" viewBox="0 0 16 16" fill="none" xmlns="http://www.w3.org/2000/svg">
<g id="FolderSimple">
<path id="Vector" d="M13.5 4.5H8.16699L6.43262 3.19971C6.25971 3.07056 6.0498 3.00054 5.83399 3H2.5C2.23486 3.00026 1.98066 3.1057 1.79318 3.29318C1.6057 3.48066 1.50026 3.73486 1.5 4V12.5C1.50026 12.7651 1.6057 13.0193 1.79318 13.2068C1.98066 13.3943 2.23486 13.4997 2.5 13.5H13.5557C13.806 13.4996 14.046 13.4 14.223 13.223C14.4 13.046 14.4996 12.806 14.5 12.5557V5.5C14.4997 5.23486 14.3943 4.98066 14.2068 4.79318C14.0193 4.6057 13.7651 4.50026 13.5 4.5Z" fill="#2B2B2B"/>
</g>
</svg>
