<svg width="16" height="16" viewBox="0 0 16 16" fill="none" xmlns="http://www.w3.org/2000/svg">
<g id="Nut">
<path id="Vector" d="M13.7421 4.17025L8.49207 1.20287C8.34178 1.11852 8.17234 1.07422 8 1.07422C7.82767 1.07422 7.65822 1.11852 7.50794 1.20287L2.25794 4.17025C2.10388 4.25751 1.97571 4.38405 1.88649 4.53697C1.79726 4.6899 1.75017 4.86374 1.75 5.04079V10.9574C1.75017 11.1344 1.79726 11.3082 1.88649 11.4612C1.97571 11.6141 2.10388 11.7406 2.25794 11.8279L7.50794 14.7953C7.65821 14.8797 7.82766 14.924 8 14.924C8.17235 14.924 8.34179 14.8797 8.49207 14.7953L13.7421 11.8279C13.8961 11.7406 14.0243 11.6141 14.1135 11.4612C14.2027 11.3082 14.2498 11.1344 14.25 10.9574V5.04079C14.2498 4.86374 14.2027 4.6899 14.1135 4.53697C14.0243 4.38405 13.8961 4.25751 13.7421 4.17025ZM8 10.2491C7.55499 10.2491 7.11998 10.1171 6.74997 9.86988C6.37996 9.62265 6.09157 9.27125 5.92127 8.86011C5.75098 8.44898 5.70642 7.99658 5.79323 7.56012C5.88005 7.12366 6.09434 6.72275 6.40901 6.40808C6.72368 6.09342 7.12459 5.87912 7.56105 5.79231C7.99751 5.70549 8.44991 5.75005 8.86104 5.92035C9.27217 6.09064 9.62357 6.37903 9.87081 6.74904C10.118 7.11905 10.25 7.55407 10.25 7.99907C10.2493 8.59561 10.0121 9.16751 9.59025 9.58932C9.16844 10.0111 8.59653 10.2484 8 10.2491Z" fill="#2B2B2B"/>
</g>
</svg>
