<svg width="204" height="196" viewBox="0 0 204 196" fill="none" xmlns="http://www.w3.org/2000/svg">
<g filter="url(#filter0_b_1038_19393)">
<circle cx="101.697" cy="97.6972" r="66.6972" fill="#CCEFFF" fill-opacity="0.4"/>
</g>
<path fill-rule="evenodd" clip-rule="evenodd" d="M88.8958 148.323C125.732 148.323 155.593 118.461 155.593 81.6255C155.593 69.5767 152.398 58.274 146.809 48.5186C160.111 60.7116 168.45 78.2304 168.45 97.6971C168.45 134.533 138.589 164.394 101.753 164.394C76.9662 164.394 55.3373 150.873 43.8398 130.804C55.7081 141.683 71.5266 148.323 88.8958 148.323Z" fill="#C6EAFF" fill-opacity="0.3"/>
<g style="mix-blend-mode:soft-light" opacity="0.2">
<circle cx="90.083" cy="79.4467" r="36.5009" fill="white"/>
</g>
<g style="mix-blend-mode:soft-light" opacity="0.5">
<circle cx="77.1429" cy="55.2232" r="8.95932" fill="white"/>
</g>
<g style="mix-blend-mode:soft-light" opacity="0.5">
<circle cx="136.207" cy="142.162" r="5.64105" fill="white"/>
</g>
<path d="M70.232 106.871H67.136L66.2393 104.181H60.8375L59.9194 106.871H56.8234L62.3534 91.6688H64.6807L70.232 106.871ZM65.4493 101.683L63.5918 96.1526L61.6702 101.683H65.4493ZM80.0256 96.665L77.9332 98.7788C77.4919 98.3375 77.0009 98.1169 76.46 98.1169C75.9902 98.1169 75.5703 98.2948 75.2003 98.6507C74.8444 99.0065 74.6665 99.5118 74.6665 100.167V106.871H71.8908V95.7469H74.6024V96.8145C74.8871 96.4729 75.2785 96.1882 75.7767 95.9604C76.2892 95.7327 76.8301 95.6188 77.3994 95.6188C78.4527 95.6188 79.3281 95.9675 80.0256 96.665ZM90.9164 101.298C90.9164 102.451 90.8452 103.398 90.7028 104.138C90.5605 104.878 90.2474 105.497 89.7634 105.995C89.1229 106.664 88.2261 106.999 87.0732 106.999C85.9202 106.999 84.995 106.608 84.2975 105.825V106.871H81.6073V91.6688H84.3829V96.7291C85.0234 95.9889 85.9202 95.6188 87.0732 95.6188C88.2261 95.6188 89.1229 95.9533 89.7634 96.6223C90.2474 97.1205 90.5605 97.7397 90.7028 98.4799C90.8452 99.22 90.9164 100.159 90.9164 101.298ZM88.0767 102.579C88.1194 102.238 88.1407 101.811 88.1407 101.298C88.1407 100.786 88.1194 100.366 88.0767 100.038C88.034 99.6969 87.9485 99.3695 87.8204 99.0563C87.7066 98.7432 87.5144 98.5083 87.244 98.3518C86.9877 98.1952 86.6604 98.1169 86.2618 98.1169C85.8633 98.1169 85.5288 98.1952 85.2583 98.3518C85.0021 98.5083 84.8099 98.7432 84.6818 99.0563C84.568 99.3695 84.4897 99.6969 84.447 100.038C84.4043 100.366 84.3829 100.786 84.3829 101.298C84.3829 101.811 84.4043 102.238 84.447 102.579C84.4897 102.907 84.568 103.234 84.6818 103.561C84.8099 103.875 85.0021 104.109 85.2583 104.266C85.5288 104.423 85.8633 104.501 86.2618 104.501C86.6604 104.501 86.9877 104.423 87.244 104.266C87.5144 104.109 87.7066 103.875 87.8204 103.561C87.9485 103.234 88.034 102.907 88.0767 102.579ZM96.3304 106.871H93.5547V96.0672H96.3304V106.871ZM96.3517 93.8467H93.512V91.5834H96.3517V93.8467ZM104.431 106.871H102.915C101.862 106.871 101.057 106.558 100.502 105.931C99.9613 105.305 99.6908 104.558 99.6908 103.69V98.1809H98.5165V96.0672H99.6908V92.7791H102.466V96.0672H104.431V98.1809H102.466V103.519C102.466 104.188 102.787 104.522 103.427 104.522H104.431V106.871ZM115.076 96.665L112.983 98.7788C112.542 98.3375 112.051 98.1169 111.51 98.1169C111.04 98.1169 110.62 98.2948 110.25 98.6507C109.894 99.0065 109.717 99.5118 109.717 100.167V106.871H106.941V95.7469H109.652V96.8145C109.937 96.4729 110.329 96.1882 110.827 95.9604C111.339 95.7327 111.88 95.6188 112.449 95.6188C113.503 95.6188 114.378 95.9675 115.076 96.665ZM125.774 106.871H123.063V105.846C122.337 106.615 121.411 106.999 120.287 106.999C119.191 106.999 118.316 106.672 117.661 106.017C116.906 105.262 116.529 104.209 116.529 102.857V95.7469H119.305V102.473C119.305 103.17 119.483 103.682 119.839 104.01C120.209 104.337 120.643 104.501 121.141 104.501C121.653 104.501 122.088 104.337 122.443 104.01C122.814 103.682 122.999 103.17 122.999 102.473V95.7469H125.774V106.871ZM144.611 106.871H141.835V100.145C141.835 99.4478 141.65 98.9353 141.28 98.608C140.924 98.2806 140.497 98.1169 139.999 98.1169C139.501 98.1169 139.067 98.2806 138.697 98.608C138.327 98.9211 138.142 99.4122 138.142 100.081V106.871H135.366V100.145C135.366 99.4478 135.181 98.9353 134.811 98.608C134.455 98.2806 134.028 98.1169 133.53 98.1169C133.017 98.1169 132.576 98.2806 132.206 98.608C131.85 98.9353 131.672 99.4478 131.672 100.145V106.871H128.897V95.7469H131.608V96.7718C132.348 96.0031 133.274 95.6188 134.384 95.6188C135.665 95.6188 136.647 96.0885 137.33 97.028C138.227 96.0885 139.337 95.6188 140.661 95.6188C141.828 95.6188 142.739 95.9462 143.394 96.601C144.205 97.4123 144.611 98.4656 144.611 99.7609V106.871Z" fill="white"/>
<defs>
<filter id="filter0_b_1038_19393" x="17.8982" y="13.8982" width="167.598" height="167.598" filterUnits="userSpaceOnUse" color-interpolation-filters="sRGB">
<feFlood flood-opacity="0" result="BackgroundImageFix"/>
<feGaussianBlur in="BackgroundImageFix" stdDeviation="8.55092"/>
<feComposite in2="SourceAlpha" operator="in" result="effect1_backgroundBlur_1038_19393"/>
<feBlend mode="normal" in="SourceGraphic" in2="effect1_backgroundBlur_1038_19393" result="shape"/>
</filter>
</defs>
</svg>
