<svg width="204" height="196" viewBox="0 0 204 196" fill="none" xmlns="http://www.w3.org/2000/svg">
<g filter="url(#filter0_b_1038_19392)">
<circle cx="102.342" cy="98.3415" r="50.3415" fill="#CCEFFF" fill-opacity="0.4"/>
</g>
<path fill-rule="evenodd" clip-rule="evenodd" d="M92.6778 136.553C120.481 136.553 143.019 114.014 143.019 86.2111C143.019 77.1164 140.608 68.5849 136.389 61.2214C146.429 70.4245 152.724 83.6478 152.724 98.3415C152.724 126.144 130.186 148.683 102.383 148.683C83.6747 148.683 67.3501 138.478 58.6719 123.331C67.6297 131.542 79.5685 136.553 92.6778 136.553Z" fill="#C6EAFF" fill-opacity="0.3"/>
<g style="mix-blend-mode:soft-light" opacity="0.2">
<circle cx="93.5735" cy="84.5664" r="27.5501" fill="white"/>
</g>
<g style="mix-blend-mode:soft-light" opacity="0.5">
<circle cx="83.8092" cy="66.2833" r="6.76229" fill="white"/>
</g>
<g style="mix-blend-mode:soft-light" opacity="0.5">
<circle cx="128.387" cy="131.903" r="4.25774" fill="white"/>
</g>
<path d="M92.2635 106.946H89.1676L88.2709 104.256H82.869L81.9509 106.946H78.855L84.3849 91.744H86.7122L92.2635 106.946ZM87.4809 101.758L85.6233 96.2278L83.7017 101.758H87.4809ZM102.492 95.8221L98.4136 106.946H96.2358L92.1364 95.8221H95.0615L97.3247 102.697L99.5666 95.8221H102.492ZM112.447 106.946H109.736V105.985C109.351 106.37 108.953 106.647 108.54 106.818C108.142 106.975 107.629 107.053 107.003 107.053C105.764 107.053 104.818 106.725 104.163 106.071C103.551 105.43 103.245 104.597 103.245 103.573C103.245 102.633 103.572 101.864 104.227 101.267C104.882 100.655 105.836 100.349 107.088 100.349H109.672V99.7934C109.672 99.1814 109.508 98.7401 109.181 98.4696C108.853 98.185 108.327 98.0426 107.601 98.0426C106.732 98.0426 106.021 98.3629 105.466 99.0034L103.715 97.274C104.256 96.6762 104.818 96.2634 105.401 96.0356C105.999 95.8079 106.768 95.694 107.707 95.694C110.867 95.694 112.447 97.0035 112.447 99.6226V106.946ZM109.672 102.847V102.249H107.558C106.462 102.249 105.914 102.676 105.914 103.53C105.914 104.37 106.476 104.79 107.601 104.79C108.327 104.79 108.875 104.612 109.245 104.256C109.529 104.014 109.672 103.544 109.672 102.847ZM118.216 106.946H115.44V96.1424H118.216V106.946ZM118.237 93.9219H115.398V91.6586H118.237V93.9219ZM126.039 106.946H124.459C123.391 106.946 122.58 106.633 122.025 106.007C121.484 105.38 121.213 104.633 121.213 103.765V91.744H123.989V103.594C123.989 104.263 124.316 104.597 124.971 104.597H126.039V106.946Z" fill="white"/>
<defs>
<filter id="filter0_b_1038_19392" x="34.8982" y="30.8982" width="134.887" height="134.887" filterUnits="userSpaceOnUse" color-interpolation-filters="sRGB">
<feFlood flood-opacity="0" result="BackgroundImageFix"/>
<feGaussianBlur in="BackgroundImageFix" stdDeviation="8.55092"/>
<feComposite in2="SourceAlpha" operator="in" result="effect1_backgroundBlur_1038_19392"/>
<feBlend mode="normal" in="SourceGraphic" in2="effect1_backgroundBlur_1038_19392" result="shape"/>
</filter>
</defs>
</svg>
