<svg width="266" height="256" viewBox="0 0 266 256" fill="none" xmlns="http://www.w3.org/2000/svg">
<g filter="url(#filter0_b_1038_19387)">
<circle cx="132.707" cy="127.756" r="89.7846" fill="#CCEFFF" fill-opacity="0.4"/>
</g>
<path fill-rule="evenodd" clip-rule="evenodd" d="M115.476 195.905C165.062 195.905 205.26 155.707 205.26 106.121C205.26 89.9011 200.96 74.6859 193.436 61.5535C211.342 77.9672 222.569 101.55 222.569 127.756C222.569 177.343 182.371 217.541 132.784 217.541C99.4174 217.541 70.3016 199.339 54.8242 172.323C70.8007 186.968 92.0945 195.905 115.476 195.905Z" fill="#C6EAFF" fill-opacity="0.3"/>
<g style="mix-blend-mode:soft-light" opacity="0.2">
<circle cx="117.073" cy="103.188" r="49.1359" fill="white"/>
</g>
<g style="mix-blend-mode:soft-light" opacity="0.5">
<circle cx="99.6505" cy="70.5797" r="12.0606" fill="white"/>
</g>
<g style="mix-blend-mode:soft-light" opacity="0.5">
<circle cx="179.164" cy="187.612" r="7.59373" fill="white"/>
</g>
<path d="M95.6414 132.552C95.6414 133.933 95.2144 135.008 94.3604 135.776C93.5063 136.545 92.3818 136.929 90.9869 136.929H84.6243V121.727H90.7307C92.1968 121.727 93.3426 122.112 94.1682 122.88C95.008 123.649 95.4279 124.688 95.4279 125.998C95.4279 126.766 95.2287 127.428 94.8301 127.983C94.4458 128.524 94.0188 128.909 93.549 129.136C94.944 129.791 95.6414 130.93 95.6414 132.552ZM92.1612 133.748C92.5028 133.392 92.6736 132.944 92.6736 132.403C92.6736 131.862 92.5028 131.421 92.1612 131.079C91.8196 130.723 91.3285 130.545 90.688 130.545H87.5921V134.282H90.688C91.3285 134.282 91.8196 134.104 92.1612 133.748ZM91.9477 127.407C92.2893 127.079 92.4601 126.652 92.4601 126.126C92.4601 125.599 92.2893 125.179 91.9477 124.866C91.6061 124.539 91.1221 124.375 90.4958 124.375H87.5921V127.877H90.4958C91.1221 127.877 91.6061 127.72 91.9477 127.407ZM107.602 132.232H100.642C100.642 132.972 100.855 133.57 101.282 134.026C101.709 134.481 102.307 134.709 103.076 134.709C103.645 134.709 104.108 134.631 104.464 134.474C104.834 134.303 105.211 134.033 105.595 133.663L107.282 135.307C106.684 135.919 106.065 136.367 105.425 136.652C104.798 136.922 104.008 137.058 103.055 137.058C102.343 137.058 101.695 136.972 101.112 136.801C100.542 136.616 100.009 136.317 99.5103 135.905C99.0121 135.492 98.6207 134.901 98.336 134.132C98.0513 133.364 97.909 132.439 97.909 131.357C97.909 129.578 98.3503 128.19 99.2328 127.193C100.115 126.183 101.29 125.677 102.756 125.677C104.279 125.677 105.467 126.176 106.321 127.172C107.175 128.154 107.602 129.449 107.602 131.058V132.232ZM104.869 130.332C104.855 129.848 104.77 129.449 104.613 129.136C104.272 128.368 103.652 127.983 102.756 127.983C101.859 127.983 101.24 128.368 100.898 129.136C100.742 129.449 100.656 129.848 100.642 130.332H104.869ZM118.296 126.724L116.204 128.837C115.762 128.396 115.271 128.175 114.731 128.175C114.261 128.175 113.841 128.353 113.471 128.709C113.115 129.065 112.937 129.57 112.937 130.225V136.929H110.161V125.806H112.873V126.873C113.158 126.531 113.549 126.247 114.047 126.019C114.56 125.791 115.101 125.677 115.67 125.677C116.723 125.677 117.599 126.026 118.296 126.724ZM128.082 136.929H125.37V135.969C124.986 136.353 124.587 136.631 124.174 136.801C123.776 136.958 123.263 137.036 122.637 137.036C121.399 137.036 120.452 136.709 119.797 136.054C119.185 135.414 118.879 134.581 118.879 133.556C118.879 132.617 119.207 131.848 119.861 131.25C120.516 130.638 121.47 130.332 122.723 130.332H125.306V129.777C125.306 129.165 125.142 128.723 124.815 128.453C124.488 128.168 123.961 128.026 123.235 128.026C122.367 128.026 121.655 128.346 121.1 128.987L119.349 127.257C119.89 126.66 120.452 126.247 121.036 126.019C121.634 125.791 122.402 125.677 123.342 125.677C126.502 125.677 128.082 126.987 128.082 129.606V136.929ZM125.306 132.83V132.232H123.192C122.096 132.232 121.548 132.659 121.548 133.513C121.548 134.353 122.11 134.773 123.235 134.773C123.961 134.773 124.509 134.595 124.879 134.239C125.164 133.997 125.306 133.527 125.306 132.83ZM139.167 135.542C138.199 136.552 136.975 137.058 135.494 137.058C135.025 137.058 134.569 137.008 134.128 136.908C133.687 136.794 133.238 136.609 132.783 136.353C132.341 136.083 131.957 135.741 131.63 135.328C131.302 134.901 131.032 134.353 130.818 133.684C130.619 133.001 130.519 132.225 130.519 131.357C130.519 130.489 130.619 129.72 130.818 129.051C131.032 128.368 131.302 127.82 131.63 127.407C131.957 126.994 132.341 126.652 132.783 126.382C133.238 126.112 133.687 125.926 134.128 125.827C134.569 125.727 135.025 125.677 135.494 125.677C136.989 125.677 138.213 126.176 139.167 127.172L137.288 129.051C136.747 128.467 136.149 128.175 135.494 128.175C134.84 128.175 134.313 128.417 133.914 128.901C133.502 129.414 133.295 130.232 133.295 131.357C133.295 132.496 133.502 133.321 133.914 133.834C134.313 134.317 134.84 134.559 135.494 134.559C136.149 134.559 136.747 134.268 137.288 133.684L139.167 135.542ZM150.578 136.929H147.803V130.204C147.803 129.506 147.618 128.994 147.247 128.667C146.892 128.339 146.465 128.175 145.966 128.175C145.454 128.175 145.013 128.339 144.643 128.667C144.287 128.994 144.109 129.506 144.109 130.204V136.929H141.333V121.727H144.109V126.83C144.806 126.062 145.71 125.677 146.82 125.677C147.916 125.677 148.792 126.005 149.447 126.66C150.201 127.414 150.578 128.467 150.578 129.82V136.929ZM161.985 136.929H159.273V135.969C158.889 136.353 158.49 136.631 158.078 136.801C157.679 136.958 157.167 137.036 156.54 137.036C155.302 137.036 154.355 136.709 153.701 136.054C153.089 135.414 152.783 134.581 152.783 133.556C152.783 132.617 153.11 131.848 153.765 131.25C154.419 130.638 155.373 130.332 156.626 130.332H159.209V129.777C159.209 129.165 159.046 128.723 158.718 128.453C158.391 128.168 157.864 128.026 157.138 128.026C156.27 128.026 155.558 128.346 155.003 128.987L153.252 127.257C153.793 126.66 154.355 126.247 154.939 126.019C155.537 125.791 156.305 125.677 157.245 125.677C160.405 125.677 161.985 126.987 161.985 129.606V136.929ZM159.209 132.83V132.232H157.095C155.999 132.232 155.451 132.659 155.451 133.513C155.451 134.353 156.014 134.773 157.138 134.773C157.864 134.773 158.412 134.595 158.782 134.239C159.067 133.997 159.209 133.527 159.209 132.83ZM167.754 136.929H164.978V126.126H167.754V136.929ZM167.775 123.905H164.935V121.642H167.775V123.905ZM180.103 136.929H177.327V130.204C177.327 129.506 177.142 128.994 176.772 128.667C176.416 128.339 175.989 128.175 175.491 128.175C174.979 128.175 174.537 128.339 174.167 128.667C173.811 128.994 173.633 129.506 173.633 130.204V136.929H170.858V125.806H173.569V126.83C174.295 126.062 175.221 125.677 176.345 125.677C177.441 125.677 178.316 126.005 178.971 126.66C179.726 127.414 180.103 128.467 180.103 129.82V136.929Z" fill="white"/>
<defs>
<filter id="filter0_b_1038_19387" x="25.82" y="20.8694" width="213.774" height="213.773" filterUnits="userSpaceOnUse" color-interpolation-filters="sRGB">
<feFlood flood-opacity="0" result="BackgroundImageFix"/>
<feGaussianBlur in="BackgroundImageFix" stdDeviation="8.55092"/>
<feComposite in2="SourceAlpha" operator="in" result="effect1_backgroundBlur_1038_19387"/>
<feBlend mode="normal" in="SourceGraphic" in2="effect1_backgroundBlur_1038_19387" result="shape"/>
</filter>
</defs>
</svg>
