<svg width="266" height="256" viewBox="0 0 266 256" fill="none" xmlns="http://www.w3.org/2000/svg">
<g filter="url(#filter0_b_1038_19396)">
<circle cx="133.345" cy="128.345" r="80.3451" fill="#CCEFFF" fill-opacity="0.4"/>
</g>
<path fill-rule="evenodd" clip-rule="evenodd" d="M117.924 189.33C162.297 189.33 198.269 153.358 198.269 108.985C198.269 94.4703 194.421 80.8549 187.688 69.1033C203.711 83.7913 213.757 104.895 213.757 128.345C213.757 172.718 177.786 208.69 133.412 208.69C103.553 208.69 77.4986 192.402 63.6484 168.226C77.9453 181.332 97.0007 189.33 117.924 189.33Z" fill="#C6EAFF" fill-opacity="0.3"/>
<g style="mix-blend-mode:soft-light" opacity="0.2">
<circle cx="119.353" cy="106.36" r="43.9699" fill="white"/>
</g>
<g style="mix-blend-mode:soft-light" opacity="0.5">
<circle cx="103.765" cy="77.1801" r="10.7926" fill="white"/>
</g>
<g style="mix-blend-mode:soft-light" opacity="0.5">
<circle cx="174.916" cy="181.908" r="6.79535" fill="white"/>
</g>
<path d="M119.145 123.871H116.177V115.01L113.273 120.775H111.266L108.341 115.01V123.871H105.374V108.669H108.299L112.27 116.889L116.22 108.669H119.145V123.871ZM130.878 123.871H128.167V122.91C127.783 123.294 127.384 123.572 126.971 123.742C126.573 123.899 126.06 123.977 125.434 123.977C124.196 123.977 123.249 123.65 122.594 122.995C121.982 122.355 121.676 121.522 121.676 120.497C121.676 119.558 122.004 118.789 122.658 118.191C123.313 117.579 124.267 117.273 125.519 117.273H128.103V116.718C128.103 116.106 127.939 115.665 127.612 115.394C127.284 115.11 126.758 114.967 126.032 114.967C125.163 114.967 124.452 115.287 123.897 115.928L122.146 114.199C122.687 113.601 123.249 113.188 123.833 112.96C124.43 112.732 125.199 112.619 126.139 112.619C129.298 112.619 130.878 113.928 130.878 116.547V123.871ZM128.103 119.771V119.173H125.989C124.893 119.173 124.345 119.6 124.345 120.454C124.345 121.294 124.907 121.714 126.032 121.714C126.758 121.714 127.306 121.536 127.676 121.18C127.96 120.938 128.103 120.469 128.103 119.771ZM143.116 123.871H140.341V117.145C140.341 116.448 140.156 115.935 139.786 115.608C139.43 115.28 139.003 115.117 138.505 115.117C137.992 115.117 137.551 115.28 137.181 115.608C136.825 115.935 136.647 116.448 136.647 117.145V123.871H133.871V112.747H136.583V113.772C137.309 113.003 138.234 112.619 139.359 112.619C140.455 112.619 141.33 112.946 141.985 113.601C142.739 114.355 143.116 115.408 143.116 116.761V123.871ZM151.107 123.871H149.591C148.538 123.871 147.734 123.557 147.178 122.931C146.637 122.305 146.367 121.558 146.367 120.689V115.181H145.193V113.067H146.367V109.779H149.143V113.067H151.107V115.181H149.143V120.518C149.143 121.187 149.463 121.522 150.103 121.522H151.107V123.871ZM161.925 123.871H159.214V122.91C158.829 123.294 158.431 123.572 158.018 123.742C157.619 123.899 157.107 123.977 156.481 123.977C155.242 123.977 154.296 123.65 153.641 122.995C153.029 122.355 152.723 121.522 152.723 120.497C152.723 119.558 153.05 118.789 153.705 118.191C154.36 117.579 155.313 117.273 156.566 117.273H159.15V116.718C159.15 116.106 158.986 115.665 158.658 115.394C158.331 115.11 157.804 114.967 157.078 114.967C156.21 114.967 155.498 115.287 154.943 115.928L153.193 114.199C153.733 113.601 154.296 113.188 154.879 112.96C155.477 112.732 156.246 112.619 157.185 112.619C160.345 112.619 161.925 113.928 161.925 116.547V123.871ZM159.15 119.771V119.173H157.036C155.94 119.173 155.392 119.6 155.392 120.454C155.392 121.294 155.954 121.714 157.078 121.714C157.804 121.714 158.352 121.536 158.723 121.18C159.007 120.938 159.15 120.469 159.15 119.771ZM105.031 150.871H102.384L96.3626 141.54V150.871H93.3948V135.669H96.0424L102.063 144.978V135.669H105.031V150.871ZM117.499 146.173H110.538C110.538 146.914 110.752 147.511 111.179 147.967C111.606 148.422 112.204 148.65 112.972 148.65C113.542 148.65 114.004 148.572 114.36 148.415C114.73 148.244 115.108 147.974 115.492 147.604L117.179 149.248C116.581 149.86 115.962 150.308 115.321 150.593C114.695 150.863 113.905 150.999 112.951 150.999C112.239 150.999 111.592 150.913 111.008 150.742C110.439 150.557 109.905 150.259 109.407 149.846C108.909 149.433 108.517 148.842 108.233 148.074C107.948 147.305 107.805 146.38 107.805 145.298C107.805 143.519 108.247 142.131 109.129 141.134C110.012 140.124 111.186 139.619 112.652 139.619C114.175 139.619 115.364 140.117 116.218 141.113C117.072 142.095 117.499 143.391 117.499 144.999V146.173ZM114.766 144.273C114.752 143.789 114.666 143.391 114.51 143.077C114.168 142.309 113.549 141.924 112.652 141.924C111.755 141.924 111.136 142.309 110.795 143.077C110.638 143.391 110.553 143.789 110.538 144.273H114.766ZM125.054 150.871H123.538C122.485 150.871 121.681 150.557 121.125 149.931C120.585 149.305 120.314 148.558 120.314 147.689V142.181H119.14V140.067H120.314V136.779H123.09V140.067H125.054V142.181H123.09V147.518C123.09 148.187 123.41 148.522 124.051 148.522H125.054V150.871ZM142.126 139.747L138.731 150.871H136.446L134.119 143.889L131.792 150.871H129.507L126.091 139.747H129.037L130.831 146.622L133.094 139.747H135.122L137.407 146.622L139.2 139.747H142.126ZM152.607 145.298C152.607 146.366 152.514 147.234 152.329 147.903C152.159 148.558 151.831 149.134 151.347 149.632C150.465 150.543 149.312 150.999 147.888 150.999C146.479 150.999 145.333 150.543 144.451 149.632C143.967 149.12 143.632 148.536 143.447 147.881C143.277 147.212 143.191 146.351 143.191 145.298C143.191 144.245 143.277 143.391 143.447 142.736C143.632 142.081 143.967 141.497 144.451 140.985C145.333 140.074 146.479 139.619 147.888 139.619C149.34 139.619 150.493 140.074 151.347 140.985C151.831 141.497 152.159 142.081 152.329 142.736C152.514 143.391 152.607 144.245 152.607 145.298ZM149.831 145.298C149.831 143.917 149.618 143.021 149.191 142.608C148.863 142.28 148.429 142.117 147.888 142.117C147.362 142.117 146.935 142.28 146.607 142.608C146.18 143.021 145.967 143.917 145.967 145.298C145.967 146.693 146.18 147.597 146.607 148.01C146.935 148.337 147.362 148.501 147.888 148.501C148.429 148.501 148.863 148.337 149.191 148.01C149.618 147.597 149.831 146.693 149.831 145.298ZM163.389 140.665L161.296 142.779C160.855 142.337 160.364 142.117 159.823 142.117C159.353 142.117 158.933 142.295 158.563 142.65C158.207 143.006 158.03 143.512 158.03 144.166V150.871H155.254V139.747H157.965V140.814C158.25 140.473 158.642 140.188 159.14 139.96C159.652 139.732 160.193 139.619 160.762 139.619C161.816 139.619 162.691 139.967 163.389 140.665ZM175.091 150.871H171.653L168.92 146.237L167.746 147.561V150.871H164.97V135.669H167.746V144.294L171.44 139.747H174.792L170.82 144.23L175.091 150.871Z" fill="white"/>
<defs>
<filter id="filter0_b_1038_19396" x="35.8982" y="30.8982" width="194.895" height="194.894" filterUnits="userSpaceOnUse" color-interpolation-filters="sRGB">
<feFlood flood-opacity="0" result="BackgroundImageFix"/>
<feGaussianBlur in="BackgroundImageFix" stdDeviation="8.55092"/>
<feComposite in2="SourceAlpha" operator="in" result="effect1_backgroundBlur_1038_19396"/>
<feBlend mode="normal" in="SourceGraphic" in2="effect1_backgroundBlur_1038_19396" result="shape"/>
</filter>
</defs>
</svg>
