<svg width="266" height="256" viewBox="0 0 266 256" fill="none" xmlns="http://www.w3.org/2000/svg">
<g filter="url(#filter0_b_1038_19386)">
<circle cx="132.777" cy="127.777" r="92.7775" fill="#CCEFFF" fill-opacity="0.4"/>
</g>
<path fill-rule="evenodd" clip-rule="evenodd" d="M114.972 198.199C166.212 198.199 207.749 156.661 207.749 105.421C207.749 88.6617 203.306 72.9399 195.532 59.3701C214.034 76.3309 225.634 100.7 225.634 127.778C225.634 179.017 184.096 220.555 132.857 220.555C98.3768 220.555 68.2899 201.746 52.2969 173.829C68.8061 188.963 90.8105 198.199 114.972 198.199Z" fill="#C6EAFF" fill-opacity="0.3"/>
<g style="mix-blend-mode:soft-light" opacity="0.2">
<circle cx="116.621" cy="102.39" r="50.7737" fill="white"/>
</g>
<g style="mix-blend-mode:soft-light" opacity="0.5">
<circle cx="98.6189" cy="68.6951" r="12.4626" fill="white"/>
</g>
<g style="mix-blend-mode:soft-light" opacity="0.5">
<circle cx="180.78" cy="189.629" r="7.84685" fill="white"/>
</g>
<path d="M95.1373 136.523H92.1695V127.663L89.2657 133.428H87.2587L84.3336 127.663V136.523H81.3658V121.321H84.2909L88.2622 129.542L92.2122 121.321H95.1373V136.523ZM107.404 130.951C107.404 132.018 107.312 132.887 107.127 133.556C106.956 134.21 106.629 134.787 106.145 135.285C105.262 136.196 104.109 136.652 102.686 136.652C101.277 136.652 100.131 136.196 99.2484 135.285C98.7644 134.773 98.4299 134.189 98.2449 133.534C98.0741 132.865 97.9887 132.004 97.9887 130.951C97.9887 129.897 98.0741 129.043 98.2449 128.389C98.4299 127.734 98.7644 127.15 99.2484 126.638C100.131 125.727 101.277 125.271 102.686 125.271C104.138 125.271 105.291 125.727 106.145 126.638C106.629 127.15 106.956 127.734 107.127 128.389C107.312 129.043 107.404 129.897 107.404 130.951ZM104.629 130.951C104.629 129.57 104.415 128.673 103.988 128.261C103.661 127.933 103.227 127.769 102.686 127.769C102.159 127.769 101.732 127.933 101.405 128.261C100.978 128.673 100.764 129.57 100.764 130.951C100.764 132.346 100.978 133.25 101.405 133.662C101.732 133.99 102.159 134.153 102.686 134.153C103.227 134.153 103.661 133.99 103.988 133.662C104.415 133.25 104.629 132.346 104.629 130.951ZM118.997 130.951C118.997 132.018 118.905 132.887 118.72 133.556C118.549 134.21 118.222 134.787 117.738 135.285C116.855 136.196 115.702 136.652 114.279 136.652C112.87 136.652 111.724 136.196 110.841 135.285C110.357 134.773 110.023 134.189 109.838 133.534C109.667 132.865 109.582 132.004 109.582 130.951C109.582 129.897 109.667 129.043 109.838 128.389C110.023 127.734 110.357 127.15 110.841 126.638C111.724 125.727 112.87 125.271 114.279 125.271C115.731 125.271 116.884 125.727 117.738 126.638C118.222 127.15 118.549 127.734 118.72 128.389C118.905 129.043 118.997 129.897 118.997 130.951ZM116.222 130.951C116.222 129.57 116.008 128.673 115.581 128.261C115.254 127.933 114.82 127.769 114.279 127.769C113.752 127.769 113.325 127.933 112.998 128.261C112.571 128.673 112.357 129.57 112.357 130.951C112.357 132.346 112.571 133.25 112.998 133.662C113.325 133.99 113.752 134.153 114.279 134.153C114.82 134.153 115.254 133.99 115.581 133.662C116.008 133.25 116.222 132.346 116.222 130.951ZM130.889 136.523H128.114V129.798C128.114 129.1 127.929 128.588 127.559 128.261C127.203 127.933 126.776 127.769 126.278 127.769C125.765 127.769 125.324 127.933 124.954 128.261C124.598 128.588 124.42 129.1 124.42 129.798V136.523H121.644V125.4H124.356V126.424C125.082 125.656 126.007 125.271 127.132 125.271C128.228 125.271 129.103 125.599 129.758 126.254C130.512 127.008 130.889 128.061 130.889 129.414V136.523ZM143.193 130.951C143.193 132.104 143.122 133.05 142.979 133.79C142.837 134.531 142.524 135.15 142.04 135.648C141.399 136.317 140.503 136.652 139.35 136.652C138.197 136.652 137.271 136.26 136.574 135.477V136.523H133.884V121.321H136.659V126.382C137.3 125.641 138.197 125.271 139.35 125.271C140.503 125.271 141.399 125.606 142.04 126.275C142.524 126.773 142.837 127.392 142.979 128.132C143.122 128.873 143.193 129.812 143.193 130.951ZM140.353 132.232C140.396 131.89 140.417 131.463 140.417 130.951C140.417 130.438 140.396 130.018 140.353 129.691C140.31 129.349 140.225 129.022 140.097 128.709C139.983 128.396 139.791 128.161 139.52 128.004C139.264 127.848 138.937 127.769 138.538 127.769C138.14 127.769 137.805 127.848 137.535 128.004C137.279 128.161 137.086 128.396 136.958 128.709C136.844 129.022 136.766 129.349 136.723 129.691C136.681 130.018 136.659 130.438 136.659 130.951C136.659 131.463 136.681 131.89 136.723 132.232C136.766 132.559 136.844 132.887 136.958 133.214C137.086 133.527 137.279 133.762 137.535 133.919C137.805 134.075 138.14 134.153 138.538 134.153C138.937 134.153 139.264 134.075 139.52 133.919C139.791 133.762 139.983 133.527 140.097 133.214C140.225 132.887 140.31 132.559 140.353 132.232ZM154.969 131.826H148.009C148.009 132.566 148.223 133.164 148.65 133.62C149.077 134.075 149.674 134.303 150.443 134.303C151.012 134.303 151.475 134.225 151.831 134.068C152.201 133.897 152.578 133.627 152.962 133.257L154.649 134.901C154.051 135.513 153.432 135.961 152.792 136.246C152.165 136.516 151.375 136.652 150.422 136.652C149.71 136.652 149.062 136.566 148.479 136.395C147.909 136.21 147.376 135.911 146.877 135.499C146.379 135.086 145.988 134.495 145.703 133.726C145.418 132.958 145.276 132.033 145.276 130.951C145.276 129.172 145.717 127.784 146.6 126.787C147.482 125.777 148.657 125.271 150.123 125.271C151.646 125.271 152.834 125.77 153.688 126.766C154.542 127.748 154.969 129.043 154.969 130.652V131.826ZM152.237 129.926C152.222 129.442 152.137 129.043 151.98 128.73C151.639 127.962 151.02 127.577 150.123 127.577C149.226 127.577 148.607 127.962 148.265 128.73C148.109 129.043 148.023 129.442 148.009 129.926H152.237ZM165.941 136.523H163.229V135.563C162.845 135.947 162.446 136.225 162.034 136.395C161.635 136.552 161.123 136.63 160.496 136.63C159.258 136.63 158.311 136.303 157.657 135.648C157.044 135.008 156.738 134.175 156.738 133.15C156.738 132.211 157.066 131.442 157.721 130.844C158.375 130.232 159.329 129.926 160.582 129.926H163.165V129.371C163.165 128.759 163.001 128.317 162.674 128.047C162.347 127.762 161.82 127.62 161.094 127.62C160.226 127.62 159.514 127.94 158.959 128.581L157.208 126.851C157.749 126.254 158.311 125.841 158.895 125.613C159.493 125.385 160.261 125.271 161.201 125.271C164.361 125.271 165.941 126.581 165.941 129.2V136.523ZM163.165 132.424V131.826H161.051C159.955 131.826 159.407 132.253 159.407 133.107C159.407 133.947 159.97 134.367 161.094 134.367C161.82 134.367 162.368 134.189 162.738 133.833C163.023 133.591 163.165 133.121 163.165 132.424ZM184.648 136.523H181.873V129.798C181.873 129.1 181.688 128.588 181.317 128.261C180.962 127.933 180.535 127.769 180.036 127.769C179.538 127.769 179.104 127.933 178.734 128.261C178.364 128.574 178.179 129.065 178.179 129.734V136.523H175.403V129.798C175.403 129.1 175.218 128.588 174.848 128.261C174.492 127.933 174.065 127.769 173.567 127.769C173.055 127.769 172.613 127.933 172.243 128.261C171.887 128.588 171.709 129.1 171.709 129.798V136.523H168.934V125.4H171.645V126.424C172.386 125.656 173.311 125.271 174.421 125.271C175.702 125.271 176.684 125.741 177.367 126.681C178.264 125.741 179.374 125.271 180.698 125.271C181.865 125.271 182.776 125.599 183.431 126.254C184.243 127.065 184.648 128.118 184.648 129.414V136.523Z" fill="white"/>
<defs>
<filter id="filter0_b_1038_19386" x="22.8982" y="17.8982" width="219.758" height="219.759" filterUnits="userSpaceOnUse" color-interpolation-filters="sRGB">
<feFlood flood-opacity="0" result="BackgroundImageFix"/>
<feGaussianBlur in="BackgroundImageFix" stdDeviation="8.55092"/>
<feComposite in2="SourceAlpha" operator="in" result="effect1_backgroundBlur_1038_19386"/>
<feBlend mode="normal" in="SourceGraphic" in2="effect1_backgroundBlur_1038_19386" result="shape"/>
</filter>
</defs>
</svg>
