<svg width="266" height="256" viewBox="0 0 266 256" fill="none" xmlns="http://www.w3.org/2000/svg">
<g filter="url(#filter0_b_1038_19388)">
<circle cx="132.707" cy="127.756" r="89.7846" fill="#CCEFFF" fill-opacity="0.4"/>
</g>
<path fill-rule="evenodd" clip-rule="evenodd" d="M115.474 195.905C165.061 195.905 205.259 155.707 205.259 106.121C205.259 89.9017 200.958 74.6872 193.435 61.5552C211.34 77.9688 222.566 101.551 222.566 127.756C222.566 177.342 182.368 217.54 132.782 217.54C99.4138 217.54 70.2974 199.338 54.8203 172.321C70.797 186.967 92.0917 195.905 115.474 195.905Z" fill="#C6EAFF" fill-opacity="0.3"/>
<g style="mix-blend-mode:soft-light" opacity="0.2">
<circle cx="117.073" cy="103.188" r="49.1359" fill="white"/>
</g>
<g style="mix-blend-mode:soft-light" opacity="0.5">
<circle cx="99.6505" cy="70.5794" r="12.0606" fill="white"/>
</g>
<g style="mix-blend-mode:soft-light" opacity="0.5">
<circle cx="179.164" cy="187.612" r="7.59373" fill="white"/>
</g>
<path d="M100.052 123.094C100.963 124.005 101.419 125.129 101.419 126.467C101.419 127.805 100.963 128.93 100.052 129.841C99.1557 130.752 97.9387 131.207 96.4014 131.207H93.4763V136.929H90.5085V121.727H96.4014C97.9387 121.727 99.1557 122.183 100.052 123.094ZM97.8533 127.983C98.2518 127.599 98.4511 127.094 98.4511 126.467C98.4511 125.841 98.2518 125.336 97.8533 124.951C97.4547 124.567 96.9209 124.375 96.2519 124.375H93.4763V128.538H96.2519C96.9209 128.538 97.4547 128.353 97.8533 127.983ZM112.44 131.357C112.44 132.424 112.347 133.293 112.162 133.962C111.991 134.616 111.664 135.193 111.18 135.691C110.297 136.602 109.144 137.058 107.721 137.058C106.312 137.058 105.166 136.602 104.283 135.691C103.799 135.179 103.465 134.595 103.28 133.94C103.109 133.271 103.024 132.41 103.024 131.357C103.024 130.303 103.109 129.449 103.28 128.795C103.465 128.14 103.799 127.556 104.283 127.044C105.166 126.133 106.312 125.677 107.721 125.677C109.173 125.677 110.326 126.133 111.18 127.044C111.664 127.556 111.991 128.14 112.162 128.795C112.347 129.449 112.44 130.303 112.44 131.357ZM109.664 131.357C109.664 129.976 109.45 129.079 109.023 128.667C108.696 128.339 108.262 128.175 107.721 128.175C107.194 128.175 106.767 128.339 106.44 128.667C106.013 129.079 105.799 129.976 105.799 131.357C105.799 132.752 106.013 133.656 106.44 134.068C106.767 134.396 107.194 134.559 107.721 134.559C108.262 134.559 108.696 134.396 109.023 134.068C109.45 133.656 109.664 132.752 109.664 131.357ZM119.805 136.929H118.225C117.158 136.929 116.346 136.616 115.791 135.99C115.25 135.364 114.98 134.616 114.98 133.748V121.727H117.755V133.577C117.755 134.246 118.083 134.581 118.738 134.581H119.805V136.929ZM132.15 136.929H128.713L125.98 132.296L124.805 133.62V136.929H122.03V121.727H124.805V130.353L128.499 125.806H131.851L127.88 130.289L132.15 136.929ZM142.16 136.929H139.449V135.969C139.064 136.353 138.666 136.631 138.253 136.801C137.854 136.958 137.342 137.036 136.716 137.036C135.477 137.036 134.531 136.709 133.876 136.054C133.264 135.414 132.958 134.581 132.958 133.556C132.958 132.617 133.285 131.848 133.94 131.25C134.595 130.638 135.548 130.332 136.801 130.332H139.385V129.777C139.385 129.165 139.221 128.723 138.893 128.453C138.566 128.168 138.039 128.026 137.313 128.026C136.445 128.026 135.733 128.346 135.178 128.987L133.428 127.257C133.968 126.66 134.531 126.247 135.114 126.019C135.712 125.791 136.481 125.677 137.42 125.677C140.58 125.677 142.16 126.987 142.16 129.606V136.929ZM139.385 132.83V132.232H137.271C136.175 132.232 135.627 132.659 135.627 133.513C135.627 134.353 136.189 134.773 137.313 134.773C138.039 134.773 138.587 134.595 138.958 134.239C139.242 133.997 139.385 133.527 139.385 132.83ZM154.014 136.929H151.302V135.883C150.605 136.666 149.687 137.058 148.548 137.058C147.381 137.058 146.477 136.723 145.836 136.054C145.352 135.556 145.039 134.937 144.897 134.196C144.755 133.456 144.683 132.51 144.683 131.357C144.683 130.218 144.755 129.279 144.897 128.538C145.039 127.798 145.352 127.179 145.836 126.681C146.477 126.012 147.374 125.677 148.527 125.677C149.665 125.677 150.569 126.047 151.238 126.788V121.727H154.014V136.929ZM151.238 131.357C151.238 130.318 151.11 129.528 150.854 128.987C150.612 128.446 150.107 128.175 149.338 128.175C148.939 128.175 148.605 128.254 148.334 128.41C148.078 128.567 147.886 128.802 147.758 129.115C147.644 129.428 147.566 129.755 147.523 130.097C147.48 130.424 147.459 130.844 147.459 131.357C147.459 131.869 147.48 132.296 147.523 132.638C147.566 132.965 147.644 133.293 147.758 133.62C147.886 133.933 148.078 134.168 148.334 134.325C148.605 134.481 148.939 134.559 149.338 134.559C149.737 134.559 150.064 134.481 150.32 134.325C150.591 134.168 150.79 133.933 150.918 133.62C151.046 133.307 151.131 132.979 151.174 132.638C151.217 132.282 151.238 131.855 151.238 131.357ZM166.068 131.357C166.068 132.424 165.975 133.293 165.79 133.962C165.619 134.616 165.292 135.193 164.808 135.691C163.925 136.602 162.772 137.058 161.349 137.058C159.94 137.058 158.794 136.602 157.911 135.691C157.428 135.179 157.093 134.595 156.908 133.94C156.737 133.271 156.652 132.41 156.652 131.357C156.652 130.303 156.737 129.449 156.908 128.795C157.093 128.14 157.428 127.556 157.911 127.044C158.794 126.133 159.94 125.677 161.349 125.677C162.801 125.677 163.954 126.133 164.808 127.044C165.292 127.556 165.619 128.14 165.79 128.795C165.975 129.449 166.068 130.303 166.068 131.357ZM163.292 131.357C163.292 129.976 163.078 129.079 162.651 128.667C162.324 128.339 161.89 128.175 161.349 128.175C160.822 128.175 160.395 128.339 160.068 128.667C159.641 129.079 159.427 129.976 159.427 131.357C159.427 132.752 159.641 133.656 160.068 134.068C160.395 134.396 160.822 134.559 161.349 134.559C161.89 134.559 162.324 134.396 162.651 134.068C163.078 133.656 163.292 132.752 163.292 131.357ZM173.711 136.929H172.195C171.141 136.929 170.337 136.616 169.782 135.99C169.241 135.364 168.971 134.616 168.971 133.748V128.24H167.796V126.126H168.971V122.838H171.746V126.126H173.711V128.24H171.746V133.577C171.746 134.246 172.067 134.581 172.707 134.581H173.711V136.929Z" fill="white"/>
<defs>
<filter id="filter0_b_1038_19388" x="25.82" y="20.8694" width="213.774" height="213.773" filterUnits="userSpaceOnUse" color-interpolation-filters="sRGB">
<feFlood flood-opacity="0" result="BackgroundImageFix"/>
<feGaussianBlur in="BackgroundImageFix" stdDeviation="8.55092"/>
<feComposite in2="SourceAlpha" operator="in" result="effect1_backgroundBlur_1038_19388"/>
<feBlend mode="normal" in="SourceGraphic" in2="effect1_backgroundBlur_1038_19388" result="shape"/>
</filter>
</defs>
</svg>
