<svg width="266" height="256" viewBox="0 0 266 256" fill="none" xmlns="http://www.w3.org/2000/svg">
<g filter="url(#filter0_b_1038_19394)">
<circle cx="132.958" cy="127.958" r="76.9583" fill="#CCEFFF" fill-opacity="0.4"/>
</g>
<path fill-rule="evenodd" clip-rule="evenodd" d="M118.188 186.372C160.691 186.372 195.146 151.917 195.146 109.414C195.146 95.5103 191.459 82.4677 185.009 71.2107C200.359 85.2797 209.983 105.495 209.983 127.958C209.983 170.461 175.527 204.916 133.025 204.916C104.425 204.916 79.4699 189.316 66.2031 166.161C79.897 178.713 98.1479 186.372 118.188 186.372Z" fill="#C6EAFF" fill-opacity="0.3"/>
<g style="mix-blend-mode:soft-light" opacity="0.2">
<circle cx="119.558" cy="106.9" r="42.1165" fill="white"/>
</g>
<g style="mix-blend-mode:soft-light" opacity="0.5">
<circle cx="104.623" cy="78.9502" r="10.3377" fill="white"/>
</g>
<g style="mix-blend-mode:soft-light" opacity="0.5">
<ellipse cx="172.775" cy="179.264" rx="6.50891" ry="6.50891" fill="white"/>
</g>
<path d="M105.021 121.323C105.932 122.234 106.387 123.359 106.387 124.697C106.387 126.035 105.932 127.159 105.021 128.07C104.124 128.981 102.907 129.437 101.37 129.437H98.4448V135.159H95.477V119.957H101.37C102.907 119.957 104.124 120.412 105.021 121.323ZM102.822 126.213C103.22 125.828 103.42 125.323 103.42 124.697C103.42 124.07 103.22 123.565 102.822 123.181C102.423 122.796 101.889 122.604 101.22 122.604H98.4448V126.768H101.22C101.889 126.768 102.423 126.583 102.822 126.213ZM117.408 129.586C117.408 130.654 117.316 131.522 117.131 132.191C116.96 132.846 116.632 133.422 116.148 133.92C115.266 134.831 114.113 135.287 112.69 135.287C111.28 135.287 110.134 134.831 109.252 133.92C108.768 133.408 108.434 132.824 108.248 132.17C108.078 131.501 107.992 130.639 107.992 129.586C107.992 128.533 108.078 127.679 108.248 127.024C108.434 126.369 108.768 125.786 109.252 125.273C110.134 124.362 111.28 123.907 112.69 123.907C114.141 123.907 115.294 124.362 116.148 125.273C116.632 125.786 116.96 126.369 117.131 127.024C117.316 127.679 117.408 128.533 117.408 129.586ZM114.632 129.586C114.632 128.205 114.419 127.309 113.992 126.896C113.665 126.568 113.23 126.405 112.69 126.405C112.163 126.405 111.736 126.568 111.408 126.896C110.981 127.309 110.768 128.205 110.768 129.586C110.768 130.981 110.981 131.885 111.408 132.298C111.736 132.625 112.163 132.789 112.69 132.789C113.23 132.789 113.665 132.625 113.992 132.298C114.419 131.885 114.632 130.981 114.632 129.586ZM124.774 135.159H123.194C122.126 135.159 121.315 134.846 120.76 134.219C120.219 133.593 119.948 132.846 119.948 131.977V119.957H122.724V131.807C122.724 132.476 123.051 132.81 123.706 132.81H124.774V135.159ZM135.255 124.035L130.494 136.952C130.252 137.593 129.974 138.07 129.661 138.383C129.092 138.952 128.295 139.237 127.27 139.237H126.181V136.739H126.822C127.22 136.739 127.512 136.668 127.697 136.525C127.896 136.397 128.067 136.134 128.209 135.735L128.679 134.369L124.879 124.035H127.804L130.11 130.91L132.33 124.035H135.255ZM145.426 134.753C145.426 136.105 144.978 137.208 144.081 138.062C143.199 138.931 142.017 139.365 140.537 139.365C139.655 139.365 138.9 139.258 138.274 139.045C137.648 138.831 137.057 138.454 136.502 137.913L138.231 136.162C138.815 136.732 139.541 137.016 140.409 137.016C141.178 137.016 141.74 136.788 142.096 136.333C142.466 135.892 142.651 135.351 142.651 134.71V133.579C141.982 134.319 141.099 134.689 140.003 134.689C138.893 134.689 138.01 134.362 137.356 133.707C136.872 133.223 136.559 132.653 136.416 131.999C136.288 131.33 136.224 130.426 136.224 129.287C136.224 128.148 136.288 127.252 136.416 126.597C136.559 125.942 136.872 125.373 137.356 124.889C138.01 124.234 138.9 123.907 140.025 123.907C141.121 123.907 142.025 124.298 142.736 125.081V124.035H145.426V134.753ZM142.651 129.287C142.651 128.39 142.53 127.686 142.288 127.173C142.046 126.661 141.555 126.405 140.815 126.405C140.416 126.405 140.089 126.483 139.832 126.64C139.59 126.782 139.405 127.003 139.277 127.301C139.163 127.6 139.085 127.899 139.042 128.198C139.014 128.497 139 128.86 139 129.287C139 129.714 139.014 130.077 139.042 130.376C139.085 130.675 139.163 130.974 139.277 131.273C139.391 131.572 139.576 131.799 139.832 131.956C140.089 132.113 140.416 132.191 140.815 132.191C141.213 132.191 141.541 132.113 141.797 131.956C142.053 131.799 142.238 131.572 142.352 131.273C142.466 130.974 142.544 130.675 142.587 130.376C142.629 130.077 142.651 129.714 142.651 129.287ZM157.483 129.586C157.483 130.654 157.391 131.522 157.206 132.191C157.035 132.846 156.707 133.422 156.223 133.92C155.341 134.831 154.188 135.287 152.765 135.287C151.355 135.287 150.21 134.831 149.327 133.92C148.843 133.408 148.509 132.824 148.324 132.17C148.153 131.501 148.067 130.639 148.067 129.586C148.067 128.533 148.153 127.679 148.324 127.024C148.509 126.369 148.843 125.786 149.327 125.273C150.21 124.362 151.355 123.907 152.765 123.907C154.216 123.907 155.369 124.362 156.223 125.273C156.707 125.786 157.035 126.369 157.206 127.024C157.391 127.679 157.483 128.533 157.483 129.586ZM154.708 129.586C154.708 128.205 154.494 127.309 154.067 126.896C153.74 126.568 153.305 126.405 152.765 126.405C152.238 126.405 151.811 126.568 151.483 126.896C151.056 127.309 150.843 128.205 150.843 129.586C150.843 130.981 151.056 131.885 151.483 132.298C151.811 132.625 152.238 132.789 152.765 132.789C153.305 132.789 153.74 132.625 154.067 132.298C154.494 131.885 154.708 130.981 154.708 129.586ZM169.375 135.159H166.599V128.433C166.599 127.736 166.414 127.223 166.044 126.896C165.688 126.568 165.261 126.405 164.763 126.405C164.251 126.405 163.81 126.568 163.439 126.896C163.084 127.223 162.906 127.736 162.906 128.433V135.159H160.13V124.035H162.842V125.06C163.568 124.291 164.493 123.907 165.617 123.907C166.713 123.907 167.589 124.234 168.243 124.889C168.998 125.643 169.375 126.697 169.375 128.049V135.159Z" fill="white"/>
<defs>
<filter id="filter0_b_1038_19394" x="38.8982" y="33.8982" width="188.122" height="188.12" filterUnits="userSpaceOnUse" color-interpolation-filters="sRGB">
<feFlood flood-opacity="0" result="BackgroundImageFix"/>
<feGaussianBlur in="BackgroundImageFix" stdDeviation="8.55092"/>
<feComposite in2="SourceAlpha" operator="in" result="effect1_backgroundBlur_1038_19394"/>
<feBlend mode="normal" in="SourceGraphic" in2="effect1_backgroundBlur_1038_19394" result="shape"/>
</filter>
</defs>
</svg>
