<svg width="266" height="256" viewBox="0 0 266 256" fill="none" xmlns="http://www.w3.org/2000/svg">
<g filter="url(#filter0_b_1038_19395)">
<circle cx="132.697" cy="127.697" r="66.6972" fill="#CCEFFF" fill-opacity="0.4"/>
</g>
<path fill-rule="evenodd" clip-rule="evenodd" d="M119.896 178.322C156.732 178.322 186.593 148.461 186.593 111.625C186.593 99.5764 183.398 88.2738 177.809 78.5183C191.111 90.7114 199.45 108.23 199.45 127.697C199.45 164.533 169.589 194.394 132.753 194.394C107.966 194.394 86.3373 180.873 74.8398 160.804C86.7081 171.683 102.527 178.322 119.896 178.322Z" fill="#C6EAFF" fill-opacity="0.3"/>
<g style="mix-blend-mode:soft-light" opacity="0.2">
<circle cx="121.083" cy="109.447" r="36.5009" fill="white"/>
</g>
<g style="mix-blend-mode:soft-light" opacity="0.5">
<circle cx="108.139" cy="85.2232" r="8.95932" fill="white"/>
</g>
<g style="mix-blend-mode:soft-light" opacity="0.5">
<circle cx="167.207" cy="172.162" r="5.64105" fill="white"/>
</g>
<path d="M110.485 132.387C110.485 133.825 109.959 134.956 108.905 135.782C107.852 136.593 106.5 136.999 104.849 136.999C103.639 136.999 102.593 136.849 101.71 136.55C100.828 136.237 100.023 135.718 99.2974 134.992L101.219 133.07C102.073 133.924 103.29 134.351 104.87 134.351C105.753 134.351 106.422 134.187 106.877 133.86C107.347 133.533 107.582 133.063 107.582 132.451C107.582 131.924 107.425 131.504 107.112 131.191C106.841 130.935 106.386 130.764 105.745 130.679L103.931 130.401C102.649 130.216 101.667 129.796 100.984 129.141C100.258 128.43 99.8952 127.433 99.8952 126.152C99.8952 124.772 100.372 123.661 101.326 122.822C102.279 121.968 103.568 121.54 105.19 121.54C107.24 121.54 108.877 122.131 110.101 123.313L108.222 125.17C107.51 124.473 106.471 124.124 105.105 124.124C104.35 124.124 103.774 124.309 103.375 124.679C102.977 125.035 102.778 125.49 102.778 126.046C102.778 126.501 102.92 126.864 103.205 127.134C103.532 127.433 103.995 127.626 104.592 127.711L106.407 127.989C107.703 128.174 108.671 128.572 109.311 129.184C110.094 129.91 110.485 130.978 110.485 132.387ZM122.011 131.298C122.011 132.366 121.919 133.234 121.734 133.903C121.563 134.558 121.235 135.134 120.751 135.632C119.869 136.543 118.716 136.999 117.293 136.999C115.883 136.999 114.738 136.543 113.855 135.632C113.371 135.12 113.037 134.536 112.851 133.881C112.681 133.212 112.595 132.351 112.595 131.298C112.595 130.245 112.681 129.391 112.851 128.736C113.037 128.081 113.371 127.497 113.855 126.985C114.738 126.074 115.883 125.619 117.293 125.619C118.744 125.619 119.897 126.074 120.751 126.985C121.235 127.497 121.563 128.081 121.734 128.736C121.919 129.391 122.011 130.245 122.011 131.298ZM119.235 131.298C119.235 129.917 119.022 129.021 118.595 128.608C118.268 128.28 117.833 128.117 117.293 128.117C116.766 128.117 116.339 128.28 116.011 128.608C115.584 129.021 115.371 129.917 115.371 131.298C115.371 132.693 115.584 133.597 116.011 134.01C116.339 134.337 116.766 134.501 117.293 134.501C117.833 134.501 118.268 134.337 118.595 134.01C119.022 133.597 119.235 132.693 119.235 131.298ZM129.377 136.871H127.797C126.729 136.871 125.918 136.557 125.363 135.931C124.822 135.305 124.551 134.558 124.551 133.689V121.669H127.327V133.518C127.327 134.187 127.654 134.522 128.309 134.522H129.377V136.871ZM140.014 136.871H137.302V135.91C136.918 136.294 136.519 136.572 136.106 136.742C135.708 136.899 135.195 136.977 134.569 136.977C133.331 136.977 132.384 136.65 131.729 135.995C131.117 135.355 130.811 134.522 130.811 133.497C130.811 132.558 131.139 131.789 131.793 131.191C132.448 130.579 133.402 130.273 134.654 130.273H137.238V129.718C137.238 129.106 137.074 128.665 136.747 128.394C136.42 128.11 135.893 127.967 135.167 127.967C134.299 127.967 133.587 128.287 133.032 128.928L131.281 127.199C131.822 126.601 132.384 126.188 132.968 125.96C133.566 125.732 134.334 125.619 135.274 125.619C138.434 125.619 140.014 126.928 140.014 129.547V136.871ZM137.238 132.771V132.173H135.124C134.028 132.173 133.48 132.6 133.48 133.454C133.48 134.294 134.042 134.714 135.167 134.714C135.893 134.714 136.441 134.536 136.811 134.18C137.096 133.938 137.238 133.469 137.238 132.771ZM152.252 136.871H149.476V130.145C149.476 129.448 149.291 128.935 148.921 128.608C148.565 128.28 148.138 128.117 147.64 128.117C147.127 128.117 146.686 128.28 146.316 128.608C145.96 128.935 145.782 129.448 145.782 130.145V136.871H143.007V125.747H145.718V126.772C146.444 126.003 147.369 125.619 148.494 125.619C149.59 125.619 150.465 125.946 151.12 126.601C151.874 127.355 152.252 128.408 152.252 129.761V136.871ZM163.658 136.871H160.947V135.91C160.562 136.294 160.164 136.572 159.751 136.742C159.353 136.899 158.84 136.977 158.214 136.977C156.975 136.977 156.029 136.65 155.374 135.995C154.762 135.355 154.456 134.522 154.456 133.497C154.456 132.558 154.783 131.789 155.438 131.191C156.093 130.579 157.047 130.273 158.299 130.273H160.883V129.718C160.883 129.106 160.719 128.665 160.392 128.394C160.064 128.11 159.538 127.967 158.812 127.967C157.943 127.967 157.232 128.287 156.677 128.928L154.926 127.199C155.467 126.601 156.029 126.188 156.612 125.96C157.21 125.732 157.979 125.619 158.918 125.619C162.078 125.619 163.658 126.928 163.658 129.547V136.871ZM160.883 132.771V132.173H158.769C157.673 132.173 157.125 132.6 157.125 133.454C157.125 134.294 157.687 134.714 158.812 134.714C159.538 134.714 160.086 134.536 160.456 134.18C160.74 133.938 160.883 133.469 160.883 132.771Z" fill="white"/>
<defs>
<filter id="filter0_b_1038_19395" x="48.8982" y="43.8982" width="167.598" height="167.598" filterUnits="userSpaceOnUse" color-interpolation-filters="sRGB">
<feFlood flood-opacity="0" result="BackgroundImageFix"/>
<feGaussianBlur in="BackgroundImageFix" stdDeviation="8.55092"/>
<feComposite in2="SourceAlpha" operator="in" result="effect1_backgroundBlur_1038_19395"/>
<feBlend mode="normal" in="SourceGraphic" in2="effect1_backgroundBlur_1038_19395" result="shape"/>
</filter>
</defs>
</svg>
